%TF.GenerationSoftware,KiCad,Pcbnew,10.0.6*%
%TF.CreationDate,2026-09-07T20:30:28-04:00*%
%TF.ProjectId,AtlasPower4S,41746c61-7350-46f7-9765-7234532e6b69,rev?*%
%TF.SameCoordinates,Original*%
%TF.FileFunction,Other,User*%
%FSLAX46Y46*%
G04 Gerber Fmt 4.6, Leading zero omitted, Abs format (unit mm)*
G04 Created by KiCad (PCBNEW 10.0.6) date 2026-09-07 20:30:28*
%MOMM*%
%LPD*%
G01*
G04 APERTURE LIST*
%ADD10C,0.050000*%
G04 APERTURE END LIST*
%TO.C,C105*%
D10*
X165900000Y-76816000D02*
X169100000Y-76816000D01*
X169100000Y-81416000D01*
X165900000Y-81416000D01*
X165900000Y-76816000D01*
%TO.C,R4*%
X139702000Y-83880000D02*
X143062000Y-83880000D01*
X143062000Y-85780000D01*
X139702000Y-85780000D01*
X139702000Y-83880000D01*
%TO.C,D1*%
X118750000Y-116350000D02*
X123250000Y-116350000D01*
X118750000Y-123650000D02*
X118750000Y-116350000D01*
X123250000Y-116350000D02*
X123250000Y-123650000D01*
X123250000Y-123650000D02*
X118750000Y-123650000D01*
%TO.C,C108*%
X152812000Y-85520000D02*
X156212000Y-85520000D01*
X156212000Y-87480000D01*
X152812000Y-87480000D01*
X152812000Y-85520000D01*
%TO.C,D3*%
X171550000Y-94334000D02*
X173450000Y-94334000D01*
X173450000Y-97694000D01*
X171550000Y-97694000D01*
X171550000Y-94334000D01*
%TO.C,C307*%
X149108000Y-125520000D02*
X152508000Y-125520000D01*
X152508000Y-127480000D01*
X149108000Y-127480000D01*
X149108000Y-125520000D01*
%TO.C,C305*%
X165500000Y-117215000D02*
X168700000Y-117215000D01*
X168700000Y-121815000D01*
X165500000Y-121815000D01*
X165500000Y-117215000D01*
%TO.C,R3*%
X135142000Y-85735000D02*
X138502000Y-85735000D01*
X138502000Y-87635000D01*
X135142000Y-87635000D01*
X135142000Y-85735000D01*
%TO.C,C309*%
X138498000Y-127470000D02*
X141898000Y-127470000D01*
X141898000Y-129430000D01*
X138498000Y-129430000D01*
X138498000Y-127470000D01*
%TO.C,J6*%
X186230000Y-106845000D02*
X189770000Y-106845000D01*
X189770000Y-115465000D01*
X186230000Y-115465000D01*
X186230000Y-106845000D01*
%TO.C,C207*%
X151210000Y-105520000D02*
X154610000Y-105520000D01*
X154610000Y-107480000D01*
X151210000Y-107480000D01*
X151210000Y-105520000D01*
%TO.C,R101*%
X147140000Y-83050000D02*
X150500000Y-83050000D01*
X150500000Y-84950000D01*
X147140000Y-84950000D01*
X147140000Y-83050000D01*
%TO.C,C103*%
X135900000Y-78935000D02*
X139100000Y-78935000D01*
X139100000Y-83535000D01*
X135900000Y-83535000D01*
X135900000Y-78935000D01*
%TO.C,C1*%
X116300000Y-79245000D02*
X119700000Y-79245000D01*
X119700000Y-81205000D01*
X116300000Y-81205000D01*
X116300000Y-79245000D01*
%TO.C,H3*%
X115450000Y-128000000D02*
G75*
G02*
X108550000Y-128000000I-3450000J0D01*
G01*
X108550000Y-128000000D02*
G75*
G02*
X115450000Y-128000000I3450000J0D01*
G01*
%TO.C,C106*%
X165900000Y-81566000D02*
X169100000Y-81566000D01*
X169100000Y-86166000D01*
X165900000Y-86166000D01*
X165900000Y-81566000D01*
%TO.C,R305*%
X171115000Y-118320000D02*
X173015000Y-118320000D01*
X173015000Y-121680000D01*
X171115000Y-121680000D01*
X171115000Y-118320000D01*
%TO.C,L3*%
X150650000Y-112000000D02*
X165350000Y-112000000D01*
X165350000Y-125000000D01*
X150650000Y-125000000D01*
X150650000Y-112000000D01*
%TO.C,J2*%
X117230000Y-73005000D02*
X120770000Y-73005000D01*
X120770000Y-79095000D01*
X117230000Y-79095000D01*
X117230000Y-73005000D01*
%TO.C,C304*%
X165500000Y-112465000D02*
X168700000Y-112465000D01*
X168700000Y-117065000D01*
X165500000Y-117065000D01*
X165500000Y-112465000D01*
%TO.C,R103*%
X142202000Y-85930000D02*
X145562000Y-85930000D01*
X145562000Y-87830000D01*
X142202000Y-87830000D01*
X142202000Y-85930000D01*
%TO.C,C302*%
X135900000Y-115920000D02*
X139100000Y-115920000D01*
X139100000Y-120520000D01*
X135900000Y-120520000D01*
X135900000Y-115920000D01*
%TO.C,C303*%
X135900000Y-120670000D02*
X139100000Y-120670000D01*
X139100000Y-125270000D01*
X135900000Y-125270000D01*
X135900000Y-120670000D01*
%TO.C,C109*%
X138652000Y-86310000D02*
X142052000Y-86310000D01*
X142052000Y-88270000D01*
X138652000Y-88270000D01*
X138652000Y-86310000D01*
%TO.C,C202*%
X135900000Y-91110000D02*
X139100000Y-91110000D01*
X139100000Y-95710000D01*
X135900000Y-95710000D01*
X135900000Y-91110000D01*
%TO.C,J5*%
X182330000Y-94442000D02*
X193500000Y-94442000D01*
X193500000Y-105252000D01*
X182330000Y-105252000D01*
X182330000Y-94442000D01*
%TO.C,H4*%
X191450000Y-128000000D02*
G75*
G02*
X184550000Y-128000000I-3450000J0D01*
G01*
X184550000Y-128000000D02*
G75*
G02*
X191450000Y-128000000I3450000J0D01*
G01*
%TO.C,C104*%
X165900000Y-72066000D02*
X169100000Y-72066000D01*
X169100000Y-76666000D01*
X165900000Y-76666000D01*
X165900000Y-72066000D01*
%TO.C,H1*%
X115450000Y-72000000D02*
G75*
G02*
X108550000Y-72000000I-3450000J0D01*
G01*
X108550000Y-72000000D02*
G75*
G02*
X115450000Y-72000000I3450000J0D01*
G01*
%TO.C,D2*%
X170768000Y-74320000D02*
X172668000Y-74320000D01*
X172668000Y-77680000D01*
X170768000Y-77680000D01*
X170768000Y-74320000D01*
%TO.C,U3*%
X142300000Y-76040000D02*
X143800000Y-76040000D01*
X142300000Y-80960000D02*
X142300000Y-76040000D01*
X143800000Y-75800000D02*
X148200000Y-75800000D01*
X143800000Y-76040000D02*
X143800000Y-75800000D01*
X143800000Y-80960000D02*
X142300000Y-80960000D01*
X143800000Y-81200000D02*
X143800000Y-80960000D01*
X148200000Y-75800000D02*
X148200000Y-76040000D01*
X148200000Y-76040000D02*
X149700000Y-76040000D01*
X148200000Y-80960000D02*
X148200000Y-81200000D01*
X148200000Y-81200000D02*
X143800000Y-81200000D01*
X149700000Y-76040000D02*
X149700000Y-80960000D01*
X149700000Y-80960000D02*
X148200000Y-80960000D01*
%TO.C,C3010*%
X145558000Y-125520000D02*
X148958000Y-125520000D01*
X148958000Y-127480000D01*
X145558000Y-127480000D01*
X145558000Y-125520000D01*
%TO.C,J3*%
X142100000Y-70730000D02*
X142500000Y-70730000D01*
X142100000Y-73540000D02*
X142100000Y-70730000D01*
X142500000Y-68080000D02*
X143700000Y-68080000D01*
X142500000Y-70730000D02*
X142500000Y-68080000D01*
X143700000Y-66980000D02*
X148300000Y-66980000D01*
X143700000Y-68080000D02*
X143700000Y-66980000D01*
X144310000Y-73340000D02*
X144310000Y-73540000D01*
X144310000Y-73540000D02*
X142100000Y-73540000D01*
X147690000Y-73340000D02*
X144310000Y-73340000D01*
X147690000Y-73540000D02*
X147690000Y-73340000D01*
X148300000Y-66980000D02*
X148300000Y-68080000D01*
X148300000Y-68080000D02*
X149500000Y-68080000D01*
X149500000Y-68080000D02*
X149500000Y-70730000D01*
X149500000Y-70730000D02*
X149900000Y-70730000D01*
X149900000Y-70730000D02*
X149900000Y-73540000D01*
X149900000Y-73540000D02*
X147690000Y-73540000D01*
%TO.C,U2*%
X128870000Y-81600000D02*
X130250000Y-81600000D01*
X128870000Y-84400000D02*
X128870000Y-81600000D01*
X130250000Y-81250000D02*
X133750000Y-81250000D01*
X130250000Y-81600000D02*
X130250000Y-81250000D01*
X130250000Y-84400000D02*
X128870000Y-84400000D01*
X130250000Y-84750000D02*
X130250000Y-84400000D01*
X133750000Y-81250000D02*
X133750000Y-81600000D01*
X133750000Y-81600000D02*
X135130000Y-81600000D01*
X133750000Y-84400000D02*
X133750000Y-84750000D01*
X133750000Y-84750000D02*
X130250000Y-84750000D01*
X135130000Y-81600000D02*
X135130000Y-84400000D01*
X135130000Y-84400000D02*
X133750000Y-84400000D01*
%TO.C,C3011*%
X134948000Y-127470000D02*
X138348000Y-127470000D01*
X138348000Y-129430000D01*
X134948000Y-129430000D01*
X134948000Y-127470000D01*
%TO.C,C101*%
X140800000Y-73690000D02*
X144200000Y-73690000D01*
X144200000Y-75650000D01*
X140800000Y-75650000D01*
X140800000Y-73690000D01*
%TO.C,C308*%
X152658000Y-125520000D02*
X156058000Y-125520000D01*
X156058000Y-127480000D01*
X152658000Y-127480000D01*
X152658000Y-125520000D01*
%TO.C,F2*%
X167380000Y-87306000D02*
X167380000Y-94166000D01*
X167380000Y-87306000D02*
X193500000Y-87306000D01*
X193500000Y-94166000D02*
X167380000Y-94166000D01*
X193500000Y-94166000D02*
X193500000Y-87306000D01*
%TO.C,C2011*%
X135758000Y-102660000D02*
X139158000Y-102660000D01*
X139158000Y-104620000D01*
X135758000Y-104620000D01*
X135758000Y-102660000D01*
%TO.C,R303*%
X142048000Y-125550000D02*
X145408000Y-125550000D01*
X145408000Y-127450000D01*
X142048000Y-127450000D01*
X142048000Y-125550000D01*
%TO.C,C203*%
X135900000Y-95860000D02*
X139100000Y-95860000D01*
X139100000Y-100460000D01*
X135900000Y-100460000D01*
X135900000Y-95860000D01*
%TO.C,C102*%
X135900000Y-72075000D02*
X139100000Y-72075000D01*
X139100000Y-76675000D01*
X135900000Y-76675000D01*
X135900000Y-72075000D01*
%TO.C,C206*%
X165900000Y-103816000D02*
X169100000Y-103816000D01*
X169100000Y-108416000D01*
X165900000Y-108416000D01*
X165900000Y-103816000D01*
%TO.C,C41*%
X127150000Y-108770000D02*
X127150000Y-111770000D01*
X127150000Y-111770000D02*
X128300000Y-111770000D01*
X128300000Y-105920000D02*
X128300000Y-108770000D01*
X128300000Y-105920000D02*
X129450000Y-104770000D01*
X128300000Y-108770000D02*
X127150000Y-108770000D01*
X128300000Y-111770000D02*
X128300000Y-114620000D01*
X128300000Y-114620000D02*
X129450000Y-115770000D01*
X129450000Y-104770000D02*
X139300000Y-104770000D01*
X129450000Y-115770000D02*
X139300000Y-115770000D01*
X139300000Y-104770000D02*
X139300000Y-108770000D01*
X139300000Y-108770000D02*
X140450000Y-108770000D01*
X139300000Y-111770000D02*
X139300000Y-115770000D01*
X140450000Y-108770000D02*
X140450000Y-111770000D01*
X140450000Y-111770000D02*
X139300000Y-111770000D01*
%TO.C,C306*%
X165900000Y-121965000D02*
X169100000Y-121965000D01*
X169100000Y-126565000D01*
X165900000Y-126565000D01*
X165900000Y-121965000D01*
%TO.C,C209*%
X140600000Y-105520000D02*
X144000000Y-105520000D01*
X144000000Y-107480000D01*
X140600000Y-107480000D01*
X140600000Y-105520000D01*
%TO.C,R201*%
X147140000Y-103050000D02*
X150500000Y-103050000D01*
X150500000Y-104950000D01*
X147140000Y-104950000D01*
X147140000Y-103050000D01*
%TO.C,C205*%
X165900000Y-99066000D02*
X169100000Y-99066000D01*
X169100000Y-103666000D01*
X165900000Y-103666000D01*
X165900000Y-99066000D01*
%TO.C,C204*%
X165900000Y-94316000D02*
X169100000Y-94316000D01*
X169100000Y-98916000D01*
X165900000Y-98916000D01*
X165900000Y-94316000D01*
%TO.C,R204*%
X136320000Y-100610000D02*
X139680000Y-100610000D01*
X139680000Y-102510000D01*
X136320000Y-102510000D01*
X136320000Y-100610000D01*
%TO.C,C301*%
X140800000Y-113520000D02*
X144200000Y-113520000D01*
X144200000Y-115480000D01*
X140800000Y-115480000D01*
X140800000Y-113520000D01*
%TO.C,R105*%
X170887000Y-78320000D02*
X172787000Y-78320000D01*
X172787000Y-81680000D01*
X170887000Y-81680000D01*
X170887000Y-78320000D01*
%TO.C,U1*%
X120950000Y-81500000D02*
X121950000Y-81500000D01*
X120950000Y-84500000D02*
X120950000Y-81500000D01*
X121950000Y-81300000D02*
X124050000Y-81300000D01*
X121950000Y-81500000D02*
X121950000Y-81300000D01*
X121950000Y-84500000D02*
X120950000Y-84500000D01*
X121950000Y-84700000D02*
X121950000Y-84500000D01*
X124050000Y-81300000D02*
X124050000Y-81500000D01*
X124050000Y-81500000D02*
X125050000Y-81500000D01*
X124050000Y-84500000D02*
X124050000Y-84700000D01*
X124050000Y-84700000D02*
X121950000Y-84700000D01*
X125050000Y-81500000D02*
X125050000Y-84500000D01*
X125050000Y-84500000D02*
X124050000Y-84500000D01*
%TO.C,C1010*%
X145712000Y-85520000D02*
X149112000Y-85520000D01*
X149112000Y-87480000D01*
X145712000Y-87480000D01*
X145712000Y-85520000D01*
%TO.C,Q1*%
X119450000Y-89250000D02*
X119450000Y-94750000D01*
X119450000Y-89250000D02*
X126550000Y-89250000D01*
X119450000Y-94750000D02*
X126550000Y-94750000D01*
X126550000Y-89250000D02*
X126550000Y-94750000D01*
%TO.C,R301*%
X147140000Y-123050000D02*
X150500000Y-123050000D01*
X150500000Y-124950000D01*
X147140000Y-124950000D01*
X147140000Y-123050000D01*
%TO.C,R302*%
X143630000Y-123050000D02*
X146990000Y-123050000D01*
X146990000Y-124950000D01*
X143630000Y-124950000D01*
X143630000Y-123050000D01*
%TO.C,U4*%
X142300000Y-96040000D02*
X143800000Y-96040000D01*
X142300000Y-100960000D02*
X142300000Y-96040000D01*
X143800000Y-95800000D02*
X148200000Y-95800000D01*
X143800000Y-96040000D02*
X143800000Y-95800000D01*
X143800000Y-100960000D02*
X142300000Y-100960000D01*
X143800000Y-101200000D02*
X143800000Y-100960000D01*
X148200000Y-95800000D02*
X148200000Y-96040000D01*
X148200000Y-96040000D02*
X149700000Y-96040000D01*
X148200000Y-100960000D02*
X148200000Y-101200000D01*
X148200000Y-101200000D02*
X143800000Y-101200000D01*
X149700000Y-96040000D02*
X149700000Y-100960000D01*
X149700000Y-100960000D02*
X148200000Y-100960000D01*
%TO.C,H2*%
X191450000Y-72000000D02*
G75*
G02*
X184550000Y-72000000I-3450000J0D01*
G01*
X184550000Y-72000000D02*
G75*
G02*
X191450000Y-72000000I3450000J0D01*
G01*
%TO.C,J1*%
X106500000Y-86650000D02*
X117670000Y-86650000D01*
X117670000Y-98850000D01*
X106500000Y-98850000D01*
X106500000Y-86650000D01*
%TO.C,J7*%
X187255000Y-115615000D02*
X190795000Y-115615000D01*
X190795000Y-124235000D01*
X187255000Y-124235000D01*
X187255000Y-115615000D01*
%TO.C,R203*%
X144150000Y-105550000D02*
X147510000Y-105550000D01*
X147510000Y-107450000D01*
X144150000Y-107450000D01*
X144150000Y-105550000D01*
%TO.C,R102*%
X143630000Y-83050000D02*
X146990000Y-83050000D01*
X146990000Y-84950000D01*
X143630000Y-84950000D01*
X143630000Y-83050000D01*
%TO.C,C2*%
X126800000Y-79020000D02*
X130200000Y-79020000D01*
X130200000Y-80980000D01*
X126800000Y-80980000D01*
X126800000Y-79020000D01*
%TO.C,R2*%
X130070000Y-88170000D02*
X133930000Y-88170000D01*
X133930000Y-95830000D01*
X130070000Y-95830000D01*
X130070000Y-88170000D01*
%TO.C,C201*%
X140800000Y-93520000D02*
X144200000Y-93520000D01*
X144200000Y-95480000D01*
X140800000Y-95480000D01*
X140800000Y-93520000D01*
%TO.C,F1*%
X106500000Y-108750000D02*
X106500000Y-115250000D01*
X106500000Y-108750000D02*
X127000000Y-108750000D01*
X127000000Y-115250000D02*
X106500000Y-115250000D01*
X127000000Y-115250000D02*
X127000000Y-108750000D01*
%TO.C,R202*%
X143630000Y-103050000D02*
X146990000Y-103050000D01*
X146990000Y-104950000D01*
X143630000Y-104950000D01*
X143630000Y-103050000D01*
%TO.C,R1*%
X116320000Y-84600000D02*
X119680000Y-84600000D01*
X119680000Y-86500000D01*
X116320000Y-86500000D01*
X116320000Y-84600000D01*
%TO.C,C1011*%
X135102000Y-87785000D02*
X138502000Y-87785000D01*
X138502000Y-89745000D01*
X135102000Y-89745000D01*
X135102000Y-87785000D01*
%TO.C,C208*%
X154760000Y-105520000D02*
X158160000Y-105520000D01*
X158160000Y-107480000D01*
X154760000Y-107480000D01*
X154760000Y-105520000D01*
%TO.C,C107*%
X149262000Y-85520000D02*
X152662000Y-85520000D01*
X152662000Y-87480000D01*
X149262000Y-87480000D01*
X149262000Y-85520000D01*
%TO.C,L1*%
X150650000Y-72000000D02*
X165350000Y-72000000D01*
X165350000Y-85000000D01*
X150650000Y-85000000D01*
X150650000Y-72000000D01*
%TO.C,C3*%
X136300000Y-76825000D02*
X139700000Y-76825000D01*
X139700000Y-78785000D01*
X136300000Y-78785000D01*
X136300000Y-76825000D01*
%TO.C,U5*%
X142300000Y-116040000D02*
X143800000Y-116040000D01*
X142300000Y-120960000D02*
X142300000Y-116040000D01*
X143800000Y-115800000D02*
X148200000Y-115800000D01*
X143800000Y-116040000D02*
X143800000Y-115800000D01*
X143800000Y-120960000D02*
X142300000Y-120960000D01*
X143800000Y-121200000D02*
X143800000Y-120960000D01*
X148200000Y-115800000D02*
X148200000Y-116040000D01*
X148200000Y-116040000D02*
X149700000Y-116040000D01*
X148200000Y-120960000D02*
X148200000Y-121200000D01*
X148200000Y-121200000D02*
X143800000Y-121200000D01*
X149700000Y-116040000D02*
X149700000Y-120960000D01*
X149700000Y-120960000D02*
X148200000Y-120960000D01*
%TO.C,L2*%
X150650000Y-92000000D02*
X165350000Y-92000000D01*
X165350000Y-105000000D01*
X150650000Y-105000000D01*
X150650000Y-92000000D01*
%TO.C,C2010*%
X147660000Y-105520000D02*
X151060000Y-105520000D01*
X151060000Y-107480000D01*
X147660000Y-107480000D01*
X147660000Y-105520000D01*
%TO.C,D4*%
X168850000Y-114320000D02*
X170750000Y-114320000D01*
X170750000Y-117680000D01*
X168850000Y-117680000D01*
X168850000Y-114320000D01*
%TO.C,C42*%
X170900000Y-110004000D02*
X170900000Y-113004000D01*
X170900000Y-113004000D02*
X172050000Y-113004000D01*
X172050000Y-107154000D02*
X172050000Y-110004000D01*
X172050000Y-107154000D02*
X173200000Y-106004000D01*
X172050000Y-110004000D02*
X170900000Y-110004000D01*
X172050000Y-113004000D02*
X172050000Y-115854000D01*
X172050000Y-115854000D02*
X173200000Y-117004000D01*
X173200000Y-106004000D02*
X183050000Y-106004000D01*
X173200000Y-117004000D02*
X183050000Y-117004000D01*
X183050000Y-106004000D02*
X183050000Y-110004000D01*
X183050000Y-110004000D02*
X184200000Y-110004000D01*
X183050000Y-113004000D02*
X183050000Y-117004000D01*
X184200000Y-110004000D02*
X184200000Y-113004000D01*
X184200000Y-113004000D02*
X183050000Y-113004000D01*
%TO.C,R104*%
X136193000Y-83685000D02*
X139553000Y-83685000D01*
X139553000Y-85585000D01*
X136193000Y-85585000D01*
X136193000Y-83685000D01*
%TO.C,R205*%
X171550000Y-98320000D02*
X173450000Y-98320000D01*
X173450000Y-101680000D01*
X171550000Y-101680000D01*
X171550000Y-98320000D01*
%TO.C,J4*%
X172937000Y-80406000D02*
X173937000Y-80406000D01*
X172937000Y-84406000D02*
X172937000Y-80406000D01*
X173937000Y-77656000D02*
X175937000Y-77656000D01*
X173937000Y-80406000D02*
X173937000Y-77656000D01*
X173937000Y-84406000D02*
X172937000Y-84406000D01*
X173937000Y-86906000D02*
X173937000Y-84406000D01*
X173937000Y-86906000D02*
X173937000Y-87156000D01*
X173937000Y-87156000D02*
X188937000Y-87156000D01*
X175937000Y-75656000D02*
X179937000Y-75656000D01*
X175937000Y-77656000D02*
X175937000Y-75656000D01*
X179937000Y-75656000D02*
X179937000Y-77656000D01*
X179937000Y-77656000D02*
X188937000Y-77656000D01*
X188937000Y-77656000D02*
X188937000Y-87156000D01*
%TO.C,R304*%
X136320000Y-125420000D02*
X139680000Y-125420000D01*
X139680000Y-127320000D01*
X136320000Y-127320000D01*
X136320000Y-125420000D01*
%TO.C,J8*%
X173165000Y-117650000D02*
X184335000Y-117650000D01*
X184335000Y-128460000D01*
X173165000Y-128460000D01*
X173165000Y-117650000D01*
%TD*%
M02*
