%TF.GenerationSoftware,KiCad,Pcbnew,10.0.6*%
%TF.CreationDate,2026-09-07T20:30:28-04:00*%
%TF.ProjectId,AtlasPower4S,41746c61-7350-46f7-9765-7234532e6b69,rev?*%
%TF.SameCoordinates,Original*%
%TF.FileFunction,Legend,Top*%
%TF.FilePolarity,Positive*%
%FSLAX46Y46*%
G04 Gerber Fmt 4.6, Leading zero omitted, Abs format (unit mm)*
G04 Created by KiCad (PCBNEW 10.0.6) date 2026-09-07 20:30:28*
%MOMM*%
%LPD*%
G01*
G04 APERTURE LIST*
%ADD10C,0.120000*%
G04 APERTURE END LIST*
%TO.C,C105*%
D10*
X166140000Y-79827252D02*
X166140000Y-78404748D01*
X168860000Y-79827252D02*
X168860000Y-78404748D01*
%TO.C,R4*%
X141154936Y-84095000D02*
X141609064Y-84095000D01*
X141154936Y-85565000D02*
X141609064Y-85565000D01*
%TO.C,D1*%
X118850000Y-123660000D02*
X118850000Y-117850000D01*
X118850000Y-123660000D02*
X123150000Y-123660000D01*
X123150000Y-123660000D02*
X123150000Y-117850000D01*
%TO.C,C108*%
X154250748Y-85765000D02*
X154773252Y-85765000D01*
X154250748Y-87235000D02*
X154773252Y-87235000D01*
%TO.C,D3*%
X171540000Y-95014000D02*
X171540000Y-97699000D01*
X171540000Y-97699000D02*
X173460000Y-97699000D01*
X173460000Y-97699000D02*
X173460000Y-95014000D01*
%TO.C,C307*%
X150546748Y-125765000D02*
X151069252Y-125765000D01*
X150546748Y-127235000D02*
X151069252Y-127235000D01*
%TO.C,C305*%
X165740000Y-120226252D02*
X165740000Y-118803748D01*
X168460000Y-120226252D02*
X168460000Y-118803748D01*
%TO.C,R3*%
X136594936Y-85950000D02*
X137049064Y-85950000D01*
X136594936Y-87420000D02*
X137049064Y-87420000D01*
%TO.C,C309*%
X139936748Y-127715000D02*
X140459252Y-127715000D01*
X139936748Y-129185000D02*
X140459252Y-129185000D01*
%TO.C,J6*%
X186620000Y-107235000D02*
X188000000Y-107235000D01*
X186620000Y-108615000D02*
X186620000Y-107235000D01*
X186620000Y-109885000D02*
X186620000Y-115075000D01*
X186620000Y-109885000D02*
X189380000Y-109885000D01*
X186620000Y-115075000D02*
X189380000Y-115075000D01*
X189380000Y-109885000D02*
X189380000Y-115075000D01*
%TO.C,C207*%
X152648748Y-105765000D02*
X153171252Y-105765000D01*
X152648748Y-107235000D02*
X153171252Y-107235000D01*
%TO.C,R101*%
X148592936Y-83265000D02*
X149047064Y-83265000D01*
X148592936Y-84735000D02*
X149047064Y-84735000D01*
%TO.C,C103*%
X136140000Y-81946252D02*
X136140000Y-80523748D01*
X138860000Y-81946252D02*
X138860000Y-80523748D01*
%TO.C,C1*%
X117738748Y-79490000D02*
X118261252Y-79490000D01*
X117738748Y-80960000D02*
X118261252Y-80960000D01*
%TO.C,C106*%
X166140000Y-84577252D02*
X166140000Y-83154748D01*
X168860000Y-84577252D02*
X168860000Y-83154748D01*
%TO.C,R305*%
X171330000Y-120227064D02*
X171330000Y-119772936D01*
X172800000Y-120227064D02*
X172800000Y-119772936D01*
%TO.C,L3*%
X151140000Y-112140000D02*
X151140000Y-114140000D01*
X151140000Y-112140000D02*
X164860000Y-112140000D01*
X151140000Y-124860000D02*
X164860000Y-124860000D01*
%TO.C,J2*%
X117620000Y-73395000D02*
X119000000Y-73395000D01*
X117620000Y-74775000D02*
X117620000Y-73395000D01*
X117620000Y-76045000D02*
X117620000Y-78695000D01*
X117620000Y-76045000D02*
X120380000Y-76045000D01*
X117620000Y-78695000D02*
X120380000Y-78695000D01*
X120380000Y-76045000D02*
X120380000Y-78695000D01*
%TO.C,C304*%
X165740000Y-115476252D02*
X165740000Y-114053748D01*
X168460000Y-115476252D02*
X168460000Y-114053748D01*
%TO.C,R103*%
X143654936Y-86145000D02*
X144109064Y-86145000D01*
X143654936Y-87615000D02*
X144109064Y-87615000D01*
%TO.C,C302*%
X136140000Y-118931252D02*
X136140000Y-117508748D01*
X138860000Y-118931252D02*
X138860000Y-117508748D01*
%TO.C,C303*%
X136140000Y-123681252D02*
X136140000Y-122258748D01*
X138860000Y-123681252D02*
X138860000Y-122258748D01*
%TO.C,C109*%
X140090748Y-86555000D02*
X140613252Y-86555000D01*
X140090748Y-88025000D02*
X140613252Y-88025000D01*
%TO.C,C202*%
X136140000Y-94121252D02*
X136140000Y-92698748D01*
X138860000Y-94121252D02*
X138860000Y-92698748D01*
%TO.C,J5*%
X182710000Y-94832000D02*
X193110000Y-94832000D01*
X182710000Y-97852000D02*
X193110000Y-97852000D01*
X182710000Y-102752000D02*
X193110000Y-102752000D01*
X182710000Y-104252000D02*
X193110000Y-104252000D01*
X182710000Y-104872000D02*
X182710000Y-94832000D01*
X185070000Y-104872000D02*
X182710000Y-104872000D01*
X193110000Y-94832000D02*
X193110000Y-104872000D01*
X193110000Y-104872000D02*
X185670000Y-104872000D01*
X185370000Y-104872000D02*
X185810000Y-105482000D01*
X184930000Y-105482000D01*
X185370000Y-104872000D01*
G36*
X185810000Y-105482000D02*
G01*
X184930000Y-105482000D01*
X185370000Y-104872000D01*
X185810000Y-105482000D01*
G37*
%TO.C,C104*%
X166140000Y-75077252D02*
X166140000Y-73654748D01*
X168860000Y-75077252D02*
X168860000Y-73654748D01*
%TO.C,D2*%
X170758000Y-75000000D02*
X170758000Y-77685000D01*
X170758000Y-77685000D02*
X172678000Y-77685000D01*
X172678000Y-77685000D02*
X172678000Y-75000000D01*
%TO.C,U3*%
X143940000Y-75940000D02*
X148060000Y-75940000D01*
X143940000Y-76035000D02*
X143940000Y-75940000D01*
X143940000Y-81060000D02*
X143940000Y-80965000D01*
X148060000Y-75940000D02*
X148060000Y-76035000D01*
X148060000Y-80965000D02*
X148060000Y-81060000D01*
X148060000Y-81060000D02*
X143940000Y-81060000D01*
X143400000Y-76030000D02*
X143160000Y-75700000D01*
X143640000Y-75700000D01*
X143400000Y-76030000D01*
G36*
X143400000Y-76030000D02*
G01*
X143160000Y-75700000D01*
X143640000Y-75700000D01*
X143400000Y-76030000D01*
G37*
%TO.C,C3010*%
X146996748Y-125765000D02*
X147519252Y-125765000D01*
X146996748Y-127235000D02*
X147519252Y-127235000D01*
%TO.C,J3*%
X142890000Y-68475000D02*
X143940000Y-68475000D01*
X142890000Y-70975000D02*
X142890000Y-68475000D01*
X143940000Y-68475000D02*
X143940000Y-67485000D01*
X144060000Y-72945000D02*
X147940000Y-72945000D01*
X149110000Y-68475000D02*
X148060000Y-68475000D01*
X149110000Y-70975000D02*
X149110000Y-68475000D01*
%TO.C,U2*%
X130390000Y-81390000D02*
X133610000Y-81390000D01*
X130390000Y-81590000D02*
X130390000Y-81390000D01*
X130390000Y-84610000D02*
X130390000Y-84410000D01*
X133610000Y-81390000D02*
X133610000Y-81590000D01*
X133610000Y-84410000D02*
X133610000Y-84610000D01*
X133610000Y-84610000D02*
X130390000Y-84610000D01*
X129840000Y-81590000D02*
X129600000Y-81260000D01*
X130080000Y-81260000D01*
X129840000Y-81590000D01*
G36*
X129840000Y-81590000D02*
G01*
X129600000Y-81260000D01*
X130080000Y-81260000D01*
X129840000Y-81590000D01*
G37*
%TO.C,C3011*%
X136386748Y-127715000D02*
X136909252Y-127715000D01*
X136386748Y-129185000D02*
X136909252Y-129185000D01*
%TO.C,C101*%
X142238748Y-73935000D02*
X142761252Y-73935000D01*
X142238748Y-75405000D02*
X142761252Y-75405000D01*
%TO.C,C308*%
X154096748Y-125765000D02*
X154619252Y-125765000D01*
X154096748Y-127235000D02*
X154619252Y-127235000D01*
%TO.C,F2*%
X169140000Y-87561000D02*
X169140000Y-88536000D01*
X169140000Y-93911000D02*
X169140000Y-92936000D01*
X175390000Y-87561000D02*
X169140000Y-87561000D01*
X175390000Y-87561000D02*
X175390000Y-89036000D01*
X175390000Y-93911000D02*
X169140000Y-93911000D01*
X175390000Y-93911000D02*
X175390000Y-92436000D01*
X185490000Y-87561000D02*
X185490000Y-89136000D01*
X185490000Y-88236000D02*
X175390000Y-88236000D01*
X185490000Y-93236000D02*
X175390000Y-93236000D01*
X185490000Y-93911000D02*
X185490000Y-92336000D01*
X185490000Y-93911000D02*
X191740000Y-93911000D01*
X191740000Y-87561000D02*
X185490000Y-87561000D01*
X191740000Y-88636000D02*
X191740000Y-87561000D01*
X191740000Y-92836000D02*
X191740000Y-93911000D01*
%TO.C,C2011*%
X137196748Y-102905000D02*
X137719252Y-102905000D01*
X137196748Y-104375000D02*
X137719252Y-104375000D01*
%TO.C,R303*%
X143500936Y-125765000D02*
X143955064Y-125765000D01*
X143500936Y-127235000D02*
X143955064Y-127235000D01*
%TO.C,C203*%
X136140000Y-98871252D02*
X136140000Y-97448748D01*
X138860000Y-98871252D02*
X138860000Y-97448748D01*
%TO.C,C102*%
X136140000Y-75086252D02*
X136140000Y-73663748D01*
X138860000Y-75086252D02*
X138860000Y-73663748D01*
%TO.C,C206*%
X166140000Y-106827252D02*
X166140000Y-105404748D01*
X168860000Y-106827252D02*
X168860000Y-105404748D01*
%TO.C,C41*%
X126950000Y-107510000D02*
X128200000Y-107510000D01*
X127575000Y-106885000D02*
X127575000Y-108135000D01*
X128440000Y-105974437D02*
X128440000Y-108760000D01*
X128440000Y-105974437D02*
X129504437Y-104910000D01*
X128440000Y-114565563D02*
X128440000Y-111780000D01*
X128440000Y-114565563D02*
X129504437Y-115630000D01*
X129504437Y-104910000D02*
X139160000Y-104910000D01*
X129504437Y-115630000D02*
X139160000Y-115630000D01*
X139160000Y-104910000D02*
X139160000Y-108760000D01*
X139160000Y-115630000D02*
X139160000Y-111780000D01*
%TO.C,C306*%
X166140000Y-124976252D02*
X166140000Y-123553748D01*
X168860000Y-124976252D02*
X168860000Y-123553748D01*
%TO.C,C209*%
X142038748Y-105765000D02*
X142561252Y-105765000D01*
X142038748Y-107235000D02*
X142561252Y-107235000D01*
%TO.C,R201*%
X148592936Y-103265000D02*
X149047064Y-103265000D01*
X148592936Y-104735000D02*
X149047064Y-104735000D01*
%TO.C,C205*%
X166140000Y-102077252D02*
X166140000Y-100654748D01*
X168860000Y-102077252D02*
X168860000Y-100654748D01*
%TO.C,C204*%
X166140000Y-97327252D02*
X166140000Y-95904748D01*
X168860000Y-97327252D02*
X168860000Y-95904748D01*
%TO.C,R204*%
X137772936Y-100825000D02*
X138227064Y-100825000D01*
X137772936Y-102295000D02*
X138227064Y-102295000D01*
%TO.C,C301*%
X142238748Y-113765000D02*
X142761252Y-113765000D01*
X142238748Y-115235000D02*
X142761252Y-115235000D01*
%TO.C,R105*%
X171102000Y-80227064D02*
X171102000Y-79772936D01*
X172572000Y-80227064D02*
X172572000Y-79772936D01*
%TO.C,U1*%
X122090000Y-81440000D02*
X123910000Y-81440000D01*
X122090000Y-81490000D02*
X122090000Y-81440000D01*
X122090000Y-84560000D02*
X122090000Y-84510000D01*
X123910000Y-81440000D02*
X123910000Y-81490000D01*
X123910000Y-84510000D02*
X123910000Y-84560000D01*
X123910000Y-84560000D02*
X122090000Y-84560000D01*
X121550000Y-81490000D02*
X121310000Y-81160000D01*
X121790000Y-81160000D01*
X121550000Y-81490000D01*
G36*
X121550000Y-81490000D02*
G01*
X121310000Y-81160000D01*
X121790000Y-81160000D01*
X121550000Y-81490000D01*
G37*
%TO.C,C1010*%
X147150748Y-85765000D02*
X147673252Y-85765000D01*
X147150748Y-87235000D02*
X147673252Y-87235000D01*
%TO.C,Q1*%
X120055000Y-89430000D02*
X125945000Y-89430000D01*
X120055000Y-94570000D02*
X125945000Y-94570000D01*
X119425000Y-90075000D02*
X119095000Y-89835000D01*
X119095000Y-90315000D01*
X119425000Y-90075000D01*
G36*
X119425000Y-90075000D02*
G01*
X119095000Y-90315000D01*
X119095000Y-89835000D01*
X119425000Y-90075000D01*
G37*
%TO.C,R301*%
X148592936Y-123265000D02*
X149047064Y-123265000D01*
X148592936Y-124735000D02*
X149047064Y-124735000D01*
%TO.C,R302*%
X145082936Y-123265000D02*
X145537064Y-123265000D01*
X145082936Y-124735000D02*
X145537064Y-124735000D01*
%TO.C,U4*%
X143940000Y-95940000D02*
X148060000Y-95940000D01*
X143940000Y-96035000D02*
X143940000Y-95940000D01*
X143940000Y-101060000D02*
X143940000Y-100965000D01*
X148060000Y-95940000D02*
X148060000Y-96035000D01*
X148060000Y-100965000D02*
X148060000Y-101060000D01*
X148060000Y-101060000D02*
X143940000Y-101060000D01*
X143400000Y-96030000D02*
X143160000Y-95700000D01*
X143640000Y-95700000D01*
X143400000Y-96030000D01*
G36*
X143400000Y-96030000D02*
G01*
X143160000Y-95700000D01*
X143640000Y-95700000D01*
X143400000Y-96030000D01*
G37*
%TO.C,J1*%
X106890000Y-87030000D02*
X114330000Y-87030000D01*
X106890000Y-98470000D02*
X106890000Y-87030000D01*
X114930000Y-87030000D02*
X117290000Y-87030000D01*
X117290000Y-87030000D02*
X117290000Y-98470000D01*
X117290000Y-87650000D02*
X106890000Y-87650000D01*
X117290000Y-90150000D02*
X106890000Y-90150000D01*
X117290000Y-96350000D02*
X106890000Y-96350000D01*
X117290000Y-98470000D02*
X106890000Y-98470000D01*
X114630000Y-87030000D02*
X114190000Y-86420000D01*
X115070000Y-86420000D01*
X114630000Y-87030000D01*
G36*
X114630000Y-87030000D02*
G01*
X114190000Y-86420000D01*
X115070000Y-86420000D01*
X114630000Y-87030000D01*
G37*
%TO.C,J7*%
X187645000Y-116005000D02*
X189025000Y-116005000D01*
X187645000Y-117385000D02*
X187645000Y-116005000D01*
X187645000Y-118655000D02*
X187645000Y-123845000D01*
X187645000Y-118655000D02*
X190405000Y-118655000D01*
X187645000Y-123845000D02*
X190405000Y-123845000D01*
X190405000Y-118655000D02*
X190405000Y-123845000D01*
%TO.C,R203*%
X145602936Y-105765000D02*
X146057064Y-105765000D01*
X145602936Y-107235000D02*
X146057064Y-107235000D01*
%TO.C,R102*%
X145082936Y-83265000D02*
X145537064Y-83265000D01*
X145082936Y-84735000D02*
X145537064Y-84735000D01*
%TO.C,C2*%
X128238748Y-79265000D02*
X128761252Y-79265000D01*
X128238748Y-80735000D02*
X128761252Y-80735000D01*
%TO.C,R2*%
X130290000Y-94177064D02*
X130290000Y-89822936D01*
X133710000Y-94177064D02*
X133710000Y-89822936D01*
%TO.C,C201*%
X142238748Y-93765000D02*
X142761252Y-93765000D01*
X142238748Y-95235000D02*
X142761252Y-95235000D01*
%TO.C,F1*%
X106630000Y-108880000D02*
X106630000Y-115120000D01*
X106630000Y-108880000D02*
X126870000Y-108880000D01*
X107150000Y-109500000D02*
X126350000Y-109500000D01*
X107150000Y-114500000D02*
X107150000Y-109500000D01*
X126350000Y-109500000D02*
X126350000Y-114500000D01*
X126350000Y-114500000D02*
X107150000Y-114500000D01*
X126870000Y-115120000D02*
X106630000Y-115120000D01*
X126870000Y-115120000D02*
X126870000Y-108880000D01*
%TO.C,R202*%
X145082936Y-103265000D02*
X145537064Y-103265000D01*
X145082936Y-104735000D02*
X145537064Y-104735000D01*
%TO.C,R1*%
X117772936Y-84815000D02*
X118227064Y-84815000D01*
X117772936Y-86285000D02*
X118227064Y-86285000D01*
%TO.C,C1011*%
X136540748Y-88030000D02*
X137063252Y-88030000D01*
X136540748Y-89500000D02*
X137063252Y-89500000D01*
%TO.C,C208*%
X156198748Y-105765000D02*
X156721252Y-105765000D01*
X156198748Y-107235000D02*
X156721252Y-107235000D01*
%TO.C,C107*%
X150700748Y-85765000D02*
X151223252Y-85765000D01*
X150700748Y-87235000D02*
X151223252Y-87235000D01*
%TO.C,L1*%
X151140000Y-72140000D02*
X151140000Y-74140000D01*
X151140000Y-72140000D02*
X164860000Y-72140000D01*
X151140000Y-84860000D02*
X164860000Y-84860000D01*
%TO.C,C3*%
X137738748Y-77070000D02*
X138261252Y-77070000D01*
X137738748Y-78540000D02*
X138261252Y-78540000D01*
%TO.C,U5*%
X143940000Y-115940000D02*
X148060000Y-115940000D01*
X143940000Y-116035000D02*
X143940000Y-115940000D01*
X143940000Y-121060000D02*
X143940000Y-120965000D01*
X148060000Y-115940000D02*
X148060000Y-116035000D01*
X148060000Y-120965000D02*
X148060000Y-121060000D01*
X148060000Y-121060000D02*
X143940000Y-121060000D01*
X143400000Y-116030000D02*
X143160000Y-115700000D01*
X143640000Y-115700000D01*
X143400000Y-116030000D01*
G36*
X143400000Y-116030000D02*
G01*
X143160000Y-115700000D01*
X143640000Y-115700000D01*
X143400000Y-116030000D01*
G37*
%TO.C,L2*%
X151140000Y-92140000D02*
X151140000Y-94140000D01*
X151140000Y-92140000D02*
X164860000Y-92140000D01*
X151140000Y-104860000D02*
X164860000Y-104860000D01*
%TO.C,C2010*%
X149098748Y-105765000D02*
X149621252Y-105765000D01*
X149098748Y-107235000D02*
X149621252Y-107235000D01*
%TO.C,D4*%
X168840000Y-115000000D02*
X168840000Y-117685000D01*
X168840000Y-117685000D02*
X170760000Y-117685000D01*
X170760000Y-117685000D02*
X170760000Y-115000000D01*
%TO.C,C42*%
X170700000Y-108744000D02*
X171950000Y-108744000D01*
X171325000Y-108119000D02*
X171325000Y-109369000D01*
X172190000Y-107208437D02*
X172190000Y-109994000D01*
X172190000Y-107208437D02*
X173254437Y-106144000D01*
X172190000Y-115799563D02*
X172190000Y-113014000D01*
X172190000Y-115799563D02*
X173254437Y-116864000D01*
X173254437Y-106144000D02*
X182910000Y-106144000D01*
X173254437Y-116864000D02*
X182910000Y-116864000D01*
X182910000Y-106144000D02*
X182910000Y-109994000D01*
X182910000Y-116864000D02*
X182910000Y-113014000D01*
%TO.C,R104*%
X137645936Y-83900000D02*
X138100064Y-83900000D01*
X137645936Y-85370000D02*
X138100064Y-85370000D01*
%TO.C,R205*%
X171765000Y-100227064D02*
X171765000Y-99772936D01*
X173235000Y-100227064D02*
X173235000Y-99772936D01*
%TO.C,J4*%
X173837000Y-86156000D02*
X173837000Y-87206000D01*
X174037000Y-77806000D02*
X175937000Y-77806000D01*
X174037000Y-80506000D02*
X174037000Y-77806000D01*
X174037000Y-87006000D02*
X174037000Y-84406000D01*
X174887000Y-87206000D02*
X173837000Y-87206000D01*
X179937000Y-77806000D02*
X188737000Y-77806000D01*
X188737000Y-77806000D02*
X188737000Y-87006000D01*
X188737000Y-87006000D02*
X174037000Y-87006000D01*
%TO.C,R304*%
X137772936Y-125635000D02*
X138227064Y-125635000D01*
X137772936Y-127105000D02*
X138227064Y-127105000D01*
%TO.C,J8*%
X173545000Y-118040000D02*
X183945000Y-118040000D01*
X173545000Y-121060000D02*
X183945000Y-121060000D01*
X173545000Y-125960000D02*
X183945000Y-125960000D01*
X173545000Y-127460000D02*
X183945000Y-127460000D01*
X173545000Y-128080000D02*
X173545000Y-118040000D01*
X175905000Y-128080000D02*
X173545000Y-128080000D01*
X183945000Y-118040000D02*
X183945000Y-128080000D01*
X183945000Y-128080000D02*
X176505000Y-128080000D01*
X176205000Y-128080000D02*
X176645000Y-128690000D01*
X175765000Y-128690000D01*
X176205000Y-128080000D01*
G36*
X176645000Y-128690000D02*
G01*
X175765000Y-128690000D01*
X176205000Y-128080000D01*
X176645000Y-128690000D01*
G37*
%TD*%
M02*
