M48
; DRILL file KiCad 10.0.6 date 2026-09-07T20:30:28
; FORMAT={-:-/ absolute / metric / decimal}
; #@! TF.CreationDate,2026-09-07T20:30:28-04:00
; #@! TF.GenerationSoftware,Kicad,Pcbnew,10.0.6
; #@! TF.FileFunction,Plated,1,4,PTH
FMAT,2
METRIC
; #@! TA.AperFunction,Plated,PTH,ViaDrill
T1C0.300
; #@! TA.AperFunction,Plated,PTH,ComponentDrill
T2C1.000
; #@! TA.AperFunction,Plated,PTH,ComponentDrill
T3C1.020
; #@! TA.AperFunction,Plated,PTH,ComponentDrill
T4C1.300
; #@! TA.AperFunction,Plated,PTH,ComponentDrill
T5C2.000
%
G90
G05
T1
X109.55Y-93.75
X110.0Y-69.0
X110.0Y-131.0
X118.0Y-69.0
X118.0Y-131.0
X119.0Y-78.615
X121.0Y-123.45
X126.0Y-69.0
X126.0Y-131.0
X129.45Y-78.7
X129.85Y-84.8
X129.85Y-85.3
X130.2Y-83.0
X131.1Y-82.1
X131.1Y-83.9
X132.0Y-83.0
X132.0Y-84.9
X132.9Y-82.1
X132.9Y-83.9
X133.8Y-83.0
X134.0Y-69.0
X134.0Y-131.0
X134.15Y-80.7
X134.15Y-81.1
X137.5Y-74.2
X137.5Y-81.06
X137.5Y-93.235
X137.5Y-97.985
X137.5Y-118.045
X137.5Y-122.795
X137.598Y-129.75
X137.752Y-90.065
X138.0Y-111.57
X138.408Y-104.94
X138.95Y-79.105
X140.0Y-90.0
X140.0Y-110.0
X141.148Y-129.75
X141.302Y-88.59
X142.0Y-69.0
X142.0Y-131.0
X143.2Y-68.26
X143.25Y-107.8
X144.2Y-78.5
X144.2Y-98.5
X144.2Y-118.5
X145.1Y-77.6
X145.1Y-79.4
X145.1Y-97.6
X145.1Y-99.4
X145.1Y-117.6
X145.1Y-119.4
X146.0Y-78.5
X146.0Y-98.5
X146.0Y-118.5
X146.9Y-77.6
X146.9Y-79.4
X146.9Y-97.6
X146.9Y-99.4
X146.9Y-117.6
X146.9Y-119.4
X147.8Y-78.5
X147.8Y-98.5
X147.8Y-118.5
X148.0Y-90.0
X148.0Y-110.0
X148.208Y-127.8
X148.362Y-87.8
X149.775Y-77.865
X149.775Y-97.865
X149.775Y-117.865
X150.0Y-69.0
X150.0Y-131.0
X150.31Y-107.8
X151.758Y-125.2
X151.912Y-85.2
X153.86Y-105.2
X155.308Y-127.8
X155.462Y-87.8
X156.0Y-90.0
X156.0Y-110.0
X157.41Y-107.8
X158.0Y-69.0
X158.0Y-131.0
X164.0Y-90.0
X164.0Y-110.0
X166.0Y-69.0
X166.0Y-131.0
X167.1Y-114.59
X167.1Y-119.34
X167.5Y-74.191
X167.5Y-78.941
X167.5Y-83.691
X167.5Y-96.441
X167.5Y-101.191
X167.5Y-105.941
X167.5Y-124.09
X171.2Y-99.088
X172.065Y-117.787
X173.137Y-79.087
X174.0Y-69.0
X174.0Y-131.0
X177.937Y-79.006
X180.937Y-83.706
X181.285Y-124.66
X181.75Y-112.804
X182.0Y-69.0
X182.0Y-131.0
X188.0Y-107.315
X189.025Y-116.085
X190.0Y-69.0
X190.0Y-131.0
X190.45Y-101.452
T2
X119.0Y-74.775
X119.0Y-77.315
X188.0Y-108.615
X188.0Y-111.155
X188.0Y-113.695
X189.025Y-117.385
X189.025Y-119.925
X189.025Y-122.465
T4
X109.55Y-92.45
X114.63Y-92.45
X176.205Y-123.36
X181.285Y-123.36
X185.37Y-100.152
X190.45Y-100.152
T2
X174.937Y-81.406G85X174.937Y-83.406
G05
X176.937Y-77.706G85X178.937Y-77.706
G05
X180.937Y-81.406G85X180.937Y-83.406
G05
T3
X168.63Y-89.891G85X168.63Y-91.581
G05
X175.9Y-90.311G85X175.9Y-91.161
G05
X184.98Y-90.311G85X184.98Y-91.161
G05
X192.25Y-89.891G85X192.25Y-91.581
G05
T5
X110.1Y-112.0G85X114.1Y-112.0
G05
X119.4Y-112.0G85X123.4Y-112.0
G05
M30
