%TF.GenerationSoftware,KiCad,Pcbnew,10.0.6*%
%TF.CreationDate,2026-09-07T20:30:28-04:00*%
%TF.ProjectId,AtlasPower4S,41746c61-7350-46f7-9765-7234532e6b69,rev?*%
%TF.SameCoordinates,Original*%
%TF.FileFunction,Copper,L4,Bot*%
%TF.FilePolarity,Positive*%
%FSLAX46Y46*%
G04 Gerber Fmt 4.6, Leading zero omitted, Abs format (unit mm)*
G04 Created by KiCad (PCBNEW 10.0.6) date 2026-09-07 20:30:28*
%MOMM*%
%LPD*%
G01*
G04 APERTURE LIST*
G04 Aperture macros list*
%AMRoundRect*
0 Rectangle with rounded corners*
0 $1 Rounding radius*
0 $2 $3 $4 $5 $6 $7 $8 $9 X,Y pos of 4 corners*
0 Add a 4 corners polygon primitive as box body*
4,1,4,$2,$3,$4,$5,$6,$7,$8,$9,$2,$3,0*
0 Add four circle primitives for the rounded corners*
1,1,$1+$1,$2,$3*
1,1,$1+$1,$4,$5*
1,1,$1+$1,$6,$7*
1,1,$1+$1,$8,$9*
0 Add four rect primitives between the rounded corners*
20,1,$1+$1,$2,$3,$4,$5,0*
20,1,$1+$1,$4,$5,$6,$7,0*
20,1,$1+$1,$6,$7,$8,$9,0*
20,1,$1+$1,$8,$9,$2,$3,0*%
G04 Aperture macros list end*
%TA.AperFunction,ComponentPad*%
%ADD10R,1.700000X1.700000*%
%TD*%
%TA.AperFunction,ComponentPad*%
%ADD11C,1.700000*%
%TD*%
%TA.AperFunction,ComponentPad*%
%ADD12RoundRect,0.250000X-1.050000X-1.050000X1.050000X-1.050000X1.050000X1.050000X-1.050000X1.050000X0*%
%TD*%
%TA.AperFunction,ComponentPad*%
%ADD13C,2.600000*%
%TD*%
%TA.AperFunction,ComponentPad*%
%ADD14RoundRect,0.500000X-0.500000X-1.350000X0.500000X-1.350000X0.500000X1.350000X-0.500000X1.350000X0*%
%TD*%
%TA.AperFunction,ComponentPad*%
%ADD15RoundRect,0.500000X-0.500000X-0.900000X0.500000X-0.900000X0.500000X0.900000X-0.500000X0.900000X0*%
%TD*%
%TA.AperFunction,ComponentPad*%
%ADD16O,2.000000X2.800000*%
%TD*%
%TA.AperFunction,ComponentPad*%
%ADD17O,2.000000X3.700000*%
%TD*%
%TA.AperFunction,ComponentPad*%
%ADD18O,8.000000X3.800000*%
%TD*%
%TA.AperFunction,ComponentPad*%
%ADD19R,3.500000X3.500000*%
%TD*%
%TA.AperFunction,ComponentPad*%
%ADD20RoundRect,0.750000X-0.750000X-1.000000X0.750000X-1.000000X0.750000X1.000000X-0.750000X1.000000X0*%
%TD*%
%TA.AperFunction,ComponentPad*%
%ADD21RoundRect,0.875000X-0.875000X-0.875000X0.875000X-0.875000X0.875000X0.875000X-0.875000X0.875000X0*%
%TD*%
%TA.AperFunction,ViaPad*%
%ADD22C,0.600000*%
%TD*%
G04 APERTURE END LIST*
D10*
%TO.P,J6,1*%
%TO.N,GND*%
X188000000Y-108615000D03*
D11*
%TO.P,J6,2*%
%TO.N,VOUT_7V4*%
X188000000Y-111155000D03*
%TO.P,J6,3*%
%TO.N,SERVO_SIG*%
X188000000Y-113695000D03*
%TD*%
D10*
%TO.P,J2,1*%
%TO.N,IDEAL_EN*%
X119000000Y-74775000D03*
D11*
%TO.P,J2,2*%
%TO.N,GND*%
X119000000Y-77315000D03*
%TD*%
D12*
%TO.P,J5,1*%
%TO.N,LIDAR_V*%
X185370000Y-100152000D03*
D13*
%TO.P,J5,2*%
%TO.N,GND*%
X190450000Y-100152000D03*
%TD*%
D14*
%TO.P,F2,1*%
%TO.N,VOUT_10V*%
X168630000Y-90736000D03*
D15*
X175900000Y-90736000D03*
D16*
%TO.P,F2,2*%
%TO.N,LIDAR_V*%
X184980000Y-90736000D03*
D17*
X192250000Y-90736000D03*
%TD*%
D12*
%TO.P,J1,1*%
%TO.N,VBAT_RAW*%
X114630000Y-92450000D03*
D13*
%TO.P,J1,2*%
%TO.N,GND*%
X109550000Y-92450000D03*
%TD*%
D10*
%TO.P,J7,1*%
%TO.N,GND*%
X189025000Y-117385000D03*
D11*
%TO.P,J7,2*%
%TO.N,NC_VESC_5V*%
X189025000Y-119925000D03*
%TO.P,J7,3*%
%TO.N,SERVO_SIG*%
X189025000Y-122465000D03*
%TD*%
D18*
%TO.P,F1,1*%
%TO.N,VBAT_RAW*%
X112100000Y-112000000D03*
%TO.P,F1,2*%
%TO.N,VBAT*%
X121400000Y-112000000D03*
%TD*%
D19*
%TO.P,J4,1*%
%TO.N,VOUT_10V*%
X174937000Y-82406000D03*
D20*
%TO.P,J4,2*%
%TO.N,GND*%
X180937000Y-82406000D03*
D21*
%TO.P,J4,3*%
X177937000Y-77706000D03*
%TD*%
D12*
%TO.P,J8,1*%
%TO.N,VOUT_5V*%
X176205000Y-123360000D03*
D13*
%TO.P,J8,2*%
%TO.N,GND*%
X181285000Y-123360000D03*
%TD*%
D22*
%TO.N,ALERT*%
X130200000Y-83000000D03*
%TO.N,GND*%
X146900000Y-119400000D03*
X150310000Y-107800000D03*
X118000000Y-69000000D03*
X167500000Y-83691000D03*
X180937000Y-83706000D03*
X137500000Y-118045000D03*
X147800000Y-98500000D03*
X142000000Y-69000000D03*
X132000000Y-83000000D03*
X150000000Y-69000000D03*
X119000000Y-78615000D03*
X147800000Y-118500000D03*
X174000000Y-131000000D03*
X172065000Y-117787000D03*
X137752000Y-90065000D03*
X177937000Y-79006000D03*
X150000000Y-131000000D03*
X147800000Y-78500000D03*
X181750000Y-112804000D03*
X164000000Y-110000000D03*
X143200000Y-68260000D03*
X171200000Y-99088000D03*
X167100000Y-119340000D03*
X138000000Y-111570000D03*
X138408000Y-104940000D03*
X151912000Y-85200000D03*
X137500000Y-97985000D03*
X190450000Y-101452000D03*
X144200000Y-98500000D03*
X146000000Y-118500000D03*
X133800000Y-83000000D03*
X129850000Y-84800000D03*
X132000000Y-84900000D03*
X126000000Y-69000000D03*
X149775000Y-117865000D03*
X140000000Y-90000000D03*
X145100000Y-119400000D03*
X129850000Y-85300000D03*
X132900000Y-83900000D03*
X190000000Y-69000000D03*
X167500000Y-124090000D03*
X145100000Y-117600000D03*
X146900000Y-79400000D03*
X145100000Y-99400000D03*
X129450000Y-78700000D03*
X109550000Y-93750000D03*
X158000000Y-69000000D03*
X132900000Y-82100000D03*
X131100000Y-82100000D03*
X156000000Y-110000000D03*
X146900000Y-117600000D03*
X149775000Y-77865000D03*
X144200000Y-118500000D03*
X174000000Y-69000000D03*
X167500000Y-105941000D03*
X131100000Y-83900000D03*
X181285000Y-124660000D03*
X134000000Y-69000000D03*
X140000000Y-110000000D03*
X149775000Y-97865000D03*
X155308000Y-127800000D03*
X144200000Y-78500000D03*
X137500000Y-74200000D03*
X118000000Y-131000000D03*
X146900000Y-99400000D03*
X110000000Y-69000000D03*
X146900000Y-97600000D03*
X142000000Y-131000000D03*
X148000000Y-110000000D03*
X110000000Y-131000000D03*
X148208000Y-127800000D03*
X137500000Y-93235000D03*
X182000000Y-69000000D03*
X166000000Y-131000000D03*
X190000000Y-131000000D03*
X166000000Y-69000000D03*
X145100000Y-77600000D03*
X138950000Y-79105000D03*
X126000000Y-131000000D03*
X141148000Y-129750000D03*
X167500000Y-78941000D03*
X167500000Y-96441000D03*
X148362000Y-87800000D03*
X155462000Y-87800000D03*
X134150000Y-81100000D03*
X182000000Y-131000000D03*
X153860000Y-105200000D03*
X137500000Y-81060000D03*
X151758000Y-125200000D03*
X146000000Y-98500000D03*
X167500000Y-74191000D03*
X143250000Y-107800000D03*
X167100000Y-114590000D03*
X164000000Y-90000000D03*
X146900000Y-77600000D03*
X146000000Y-78500000D03*
X137598000Y-129750000D03*
X188000000Y-107315000D03*
X189025000Y-116085000D03*
X173137000Y-79087000D03*
X158000000Y-131000000D03*
X145100000Y-97600000D03*
X134150000Y-80700000D03*
X167500000Y-101191000D03*
X137500000Y-122795000D03*
X134000000Y-131000000D03*
X121000000Y-123450000D03*
X148000000Y-90000000D03*
X145100000Y-79400000D03*
X156000000Y-90000000D03*
X157410000Y-107800000D03*
X141302000Y-88590000D03*
%TD*%
%TA.AperFunction,Conductor*%
%TO.N,VOUT_7V4*%
G36*
X164590258Y-90244744D02*
G01*
X164605237Y-90246897D01*
X164665068Y-90255500D01*
X167206000Y-90255500D01*
X167206016Y-90255499D01*
X167242244Y-90251604D01*
X167311004Y-90264009D01*
X167362141Y-90311619D01*
X167379500Y-90374893D01*
X167379500Y-92136001D01*
X167379501Y-92136018D01*
X167390000Y-92238796D01*
X167390001Y-92238799D01*
X167428742Y-92355709D01*
X167445186Y-92405334D01*
X167537288Y-92554656D01*
X167661344Y-92678712D01*
X167810666Y-92770814D01*
X167977203Y-92825999D01*
X168079991Y-92836500D01*
X169180008Y-92836499D01*
X169180058Y-92836499D01*
X169180225Y-92836489D01*
X169181331Y-92836363D01*
X169226459Y-92831753D01*
X169236303Y-92830748D01*
X169236303Y-92830747D01*
X169282797Y-92825999D01*
X169449334Y-92770814D01*
X169598656Y-92678712D01*
X169722712Y-92554656D01*
X169814814Y-92405334D01*
X169869999Y-92238797D01*
X169880500Y-92136009D01*
X169880499Y-90373657D01*
X169900184Y-90306619D01*
X169952987Y-90260864D01*
X170022146Y-90250920D01*
X170054000Y-90255500D01*
X174476000Y-90255500D01*
X174476016Y-90255499D01*
X174512244Y-90251604D01*
X174581004Y-90264009D01*
X174632141Y-90311619D01*
X174649500Y-90374893D01*
X174649500Y-91686001D01*
X174649501Y-91686018D01*
X174649502Y-91686026D01*
X174660000Y-91788797D01*
X174660001Y-91788799D01*
X174713633Y-91950646D01*
X174713631Y-91950646D01*
X174713634Y-91950651D01*
X174715186Y-91955334D01*
X174807288Y-92104656D01*
X174931344Y-92228712D01*
X175080666Y-92320814D01*
X175247203Y-92375999D01*
X175349991Y-92386500D01*
X176450008Y-92386499D01*
X176450058Y-92386499D01*
X176450225Y-92386489D01*
X176451331Y-92386363D01*
X176496459Y-92381753D01*
X176506303Y-92380748D01*
X176506303Y-92380747D01*
X176552797Y-92375999D01*
X176719334Y-92320814D01*
X176868656Y-92228712D01*
X176992712Y-92104656D01*
X177084814Y-91955334D01*
X177139999Y-91788797D01*
X177150500Y-91686009D01*
X177150499Y-90373657D01*
X177170184Y-90306619D01*
X177222987Y-90260864D01*
X177292146Y-90250920D01*
X177324000Y-90255500D01*
X177324001Y-90255500D01*
X183605500Y-90255500D01*
X183672539Y-90275185D01*
X183718294Y-90327989D01*
X183729500Y-90379500D01*
X183729500Y-91234427D01*
X183760289Y-91428820D01*
X183760290Y-91428826D01*
X183806524Y-91571119D01*
X183821118Y-91616033D01*
X183856777Y-91686016D01*
X183909146Y-91788795D01*
X183910476Y-91791405D01*
X184026172Y-91950646D01*
X184165354Y-92089828D01*
X184324595Y-92205524D01*
X184370100Y-92228710D01*
X184389901Y-92238799D01*
X184493521Y-92291596D01*
X184495124Y-92292534D01*
X184498823Y-92294326D01*
X184500831Y-92295324D01*
X184504596Y-92296386D01*
X184550289Y-92311232D01*
X184579771Y-92320811D01*
X184579772Y-92320812D01*
X184615573Y-92332444D01*
X184687173Y-92355709D01*
X184881578Y-92386500D01*
X184881583Y-92386500D01*
X185078421Y-92386500D01*
X185078422Y-92386500D01*
X185272826Y-92355709D01*
X185460025Y-92294884D01*
X185635405Y-92205524D01*
X185794646Y-92089828D01*
X185933828Y-91950646D01*
X186049524Y-91791405D01*
X186138884Y-91616025D01*
X186199709Y-91428826D01*
X186230500Y-91234422D01*
X186230500Y-90379500D01*
X186250185Y-90312461D01*
X186302989Y-90266706D01*
X186354500Y-90255500D01*
X190875500Y-90255500D01*
X190942539Y-90275185D01*
X190988294Y-90327989D01*
X190999500Y-90379500D01*
X190999500Y-91684427D01*
X191016444Y-91791405D01*
X191030290Y-91878826D01*
X191055150Y-91955336D01*
X191091118Y-92066033D01*
X191162192Y-92205522D01*
X191179147Y-92238797D01*
X191180476Y-92241405D01*
X191296172Y-92400646D01*
X191435354Y-92539828D01*
X191594595Y-92655524D01*
X191769975Y-92744884D01*
X191897365Y-92786275D01*
X191929031Y-92801844D01*
X191941940Y-92810671D01*
X191986163Y-92864751D01*
X191990217Y-92874344D01*
X192000000Y-92922617D01*
X192000000Y-99248061D01*
X191994976Y-99282999D01*
X191991789Y-99293852D01*
X191954014Y-99352629D01*
X191890457Y-99381652D01*
X191821319Y-99371716D01*
X191818496Y-99370427D01*
X191769679Y-99330514D01*
X191646137Y-99160472D01*
X191632664Y-99141928D01*
X191632659Y-99141921D01*
X191632657Y-99141919D01*
X191632648Y-99141909D01*
X191460087Y-98969348D01*
X191460082Y-98969344D01*
X191460081Y-98969343D01*
X191460076Y-98969339D01*
X191270537Y-98831632D01*
X191270196Y-98831341D01*
X191262632Y-98825888D01*
X191262268Y-98825705D01*
X191045189Y-98715097D01*
X190821907Y-98642548D01*
X190817385Y-98640695D01*
X190808195Y-98638526D01*
X190803431Y-98638151D01*
X190612491Y-98607909D01*
X190612485Y-98607908D01*
X190572027Y-98601500D01*
X190572026Y-98601500D01*
X190327974Y-98601500D01*
X190327973Y-98601500D01*
X190287515Y-98607908D01*
X190086926Y-98639678D01*
X189854807Y-98715098D01*
X189637353Y-98825898D01*
X189439940Y-98969326D01*
X189439911Y-98969348D01*
X189267348Y-99141911D01*
X189267326Y-99141940D01*
X189123898Y-99339353D01*
X189013098Y-99556807D01*
X188937678Y-99788926D01*
X188899500Y-100029973D01*
X188899500Y-100274025D01*
X188937678Y-100515073D01*
X188937678Y-100515076D01*
X189013094Y-100747181D01*
X189013098Y-100747189D01*
X189017397Y-100755629D01*
X189017398Y-100755629D01*
X189017399Y-100755631D01*
X189102452Y-100922557D01*
X189116019Y-100949183D01*
X189123899Y-100964648D01*
X189235699Y-101118527D01*
X189267339Y-101162076D01*
X189267343Y-101162081D01*
X189267348Y-101162087D01*
X189439911Y-101334650D01*
X189439915Y-101334653D01*
X189439918Y-101334656D01*
X189439923Y-101334660D01*
X189590879Y-101444335D01*
X189637361Y-101478106D01*
X189797200Y-101559548D01*
X189856848Y-101589940D01*
X189870530Y-101598057D01*
X189894466Y-101614421D01*
X189930869Y-101653085D01*
X189931251Y-101653723D01*
X189936071Y-101662570D01*
X189937013Y-101664479D01*
X189937015Y-101664484D01*
X189981480Y-101741499D01*
X190007635Y-101786801D01*
X190009125Y-101789571D01*
X190009353Y-101789877D01*
X190111985Y-101892509D01*
X190112674Y-101893005D01*
X190115178Y-101894353D01*
X190234069Y-101962995D01*
X190237087Y-101964869D01*
X190237514Y-101964983D01*
X190237515Y-101964984D01*
X190377525Y-102002500D01*
X190377528Y-102002500D01*
X190522472Y-102002500D01*
X190522475Y-102002500D01*
X190662485Y-101964984D01*
X190788015Y-101892509D01*
X190890509Y-101790015D01*
X190961798Y-101666537D01*
X190972627Y-101650741D01*
X190991241Y-101627638D01*
X191041688Y-101592606D01*
X191040892Y-101590663D01*
X191045167Y-101588910D01*
X191045183Y-101588905D01*
X191045189Y-101588902D01*
X191262639Y-101478106D01*
X191460083Y-101334655D01*
X191632655Y-101162083D01*
X191722728Y-101038108D01*
X191765206Y-100979641D01*
X191789795Y-100954339D01*
X191798758Y-100947428D01*
X191863866Y-100922080D01*
X191932344Y-100935956D01*
X191982433Y-100984622D01*
X191983957Y-100987321D01*
X192000000Y-101048322D01*
X192000000Y-113620500D01*
X191980315Y-113687539D01*
X191927511Y-113733294D01*
X191876000Y-113744500D01*
X189224500Y-113744500D01*
X189157461Y-113724815D01*
X189111706Y-113672011D01*
X189100500Y-113620500D01*
X189100500Y-113608389D01*
X189074929Y-113446942D01*
X189074928Y-113446935D01*
X189074928Y-113446936D01*
X189073402Y-113437302D01*
X189073402Y-113437299D01*
X189019873Y-113272555D01*
X189019871Y-113272552D01*
X189019871Y-113272550D01*
X188953358Y-113142011D01*
X188941232Y-113118212D01*
X188839414Y-112978072D01*
X188716928Y-112855586D01*
X188576788Y-112753768D01*
X188547657Y-112738925D01*
X188422449Y-112675128D01*
X188266532Y-112624467D01*
X188262010Y-112622614D01*
X188252820Y-112620444D01*
X188248057Y-112620070D01*
X188237513Y-112618400D01*
X188126271Y-112600781D01*
X188110407Y-112598268D01*
X188086614Y-112594500D01*
X188086611Y-112594500D01*
X187913389Y-112594500D01*
X187913388Y-112594500D01*
X187873726Y-112600781D01*
X187873725Y-112600780D01*
X187742304Y-112621596D01*
X187577549Y-112675129D01*
X187423210Y-112753768D01*
X187343256Y-112811859D01*
X187343255Y-112811859D01*
X187294941Y-112846961D01*
X187287564Y-112851092D01*
X187156093Y-112982563D01*
X187151962Y-112989940D01*
X187132678Y-113016483D01*
X187132677Y-113016485D01*
X187058768Y-113118210D01*
X186980129Y-113272549D01*
X186926596Y-113437305D01*
X186899500Y-113608383D01*
X186899500Y-113620500D01*
X186879815Y-113687539D01*
X186827011Y-113733294D01*
X186775500Y-113744500D01*
X167587882Y-113744500D01*
X167583325Y-113744581D01*
X167578765Y-113744663D01*
X167569919Y-113744979D01*
X167569916Y-113744979D01*
X167489754Y-113760925D01*
X167489751Y-113760925D01*
X167489751Y-113760926D01*
X167477335Y-113765556D01*
X167424291Y-113785341D01*
X167383203Y-113804998D01*
X167330464Y-113852371D01*
X167309040Y-113871615D01*
X167275831Y-113915975D01*
X167267161Y-113927557D01*
X167258757Y-113941164D01*
X167206779Y-113987856D01*
X167153260Y-114000000D01*
X167044086Y-114000000D01*
X166977047Y-113980315D01*
X166936332Y-113937360D01*
X166918006Y-113905178D01*
X166918003Y-113905175D01*
X166918002Y-113905172D01*
X166872247Y-113852368D01*
X166839473Y-113820743D01*
X166751138Y-113774535D01*
X166751137Y-113774534D01*
X166751136Y-113774534D01*
X166751136Y-113774533D01*
X166684104Y-113754851D01*
X166684092Y-113754848D01*
X166612115Y-113744500D01*
X166612114Y-113744500D01*
X164124000Y-113744500D01*
X164056961Y-113724815D01*
X164011206Y-113672011D01*
X164000000Y-113620500D01*
X164000000Y-112731525D01*
X181199500Y-112731525D01*
X181199500Y-112738925D01*
X181199500Y-112876474D01*
X181237013Y-113016477D01*
X181237015Y-113016483D01*
X181237016Y-113016485D01*
X181237017Y-113016488D01*
X181237018Y-113016489D01*
X181307635Y-113138802D01*
X181309123Y-113141568D01*
X181309353Y-113141877D01*
X181411985Y-113244509D01*
X181412674Y-113245005D01*
X181415178Y-113246353D01*
X181534069Y-113314995D01*
X181537087Y-113316869D01*
X181537514Y-113316983D01*
X181537515Y-113316984D01*
X181677525Y-113354500D01*
X181677528Y-113354500D01*
X181822472Y-113354500D01*
X181822475Y-113354500D01*
X181962485Y-113316984D01*
X182088015Y-113244509D01*
X182190509Y-113142015D01*
X182262984Y-113016485D01*
X182300500Y-112876475D01*
X182300500Y-112731525D01*
X182262984Y-112591515D01*
X182190509Y-112465985D01*
X182088015Y-112363491D01*
X182087877Y-112363353D01*
X182087568Y-112363123D01*
X182084802Y-112361635D01*
X182034243Y-112332445D01*
X182005808Y-112302624D01*
X181951007Y-112287939D01*
X181951007Y-112287940D01*
X181886740Y-112270720D01*
X181822475Y-112253500D01*
X181822474Y-112253500D01*
X181677525Y-112253500D01*
X181548994Y-112287939D01*
X181548993Y-112287940D01*
X181541338Y-112289991D01*
X181537510Y-112291017D01*
X181411991Y-112363485D01*
X181411984Y-112363490D01*
X181411968Y-112363505D01*
X181309505Y-112465968D01*
X181309490Y-112465984D01*
X181309485Y-112465992D01*
X181237017Y-112591509D01*
X181237004Y-112591541D01*
X181236909Y-112591914D01*
X181199500Y-112731525D01*
X164000000Y-112731525D01*
X164000000Y-111064487D01*
X186850000Y-111064487D01*
X186850000Y-111245511D01*
X186878317Y-111424296D01*
X186934242Y-111596420D01*
X186934249Y-111596439D01*
X186934251Y-111596444D01*
X186934252Y-111596447D01*
X187014398Y-111753741D01*
X187018182Y-111769502D01*
X187027913Y-111773533D01*
X187390297Y-111411149D01*
X187451620Y-111377664D01*
X187521311Y-111382648D01*
X187577245Y-111424519D01*
X187585365Y-111436830D01*
X187599901Y-111462007D01*
X187692993Y-111555099D01*
X187718169Y-111569634D01*
X187766384Y-111620202D01*
X187779606Y-111688809D01*
X187753638Y-111753673D01*
X187743849Y-111764702D01*
X187381466Y-112127084D01*
X187381466Y-112127085D01*
X187381466Y-112127086D01*
X187397267Y-112138566D01*
X187397275Y-112138571D01*
X187558552Y-112220747D01*
X187558555Y-112220748D01*
X187558557Y-112220748D01*
X187558558Y-112220749D01*
X187558578Y-112220756D01*
X187730703Y-112276681D01*
X187730706Y-112276682D01*
X187909494Y-112305000D01*
X188090505Y-112305000D01*
X188090506Y-112305000D01*
X188269293Y-112276682D01*
X188441444Y-112220748D01*
X188441452Y-112220745D01*
X188598740Y-112140600D01*
X188614501Y-112136816D01*
X188618533Y-112127084D01*
X188256150Y-111764702D01*
X188222665Y-111703379D01*
X188227649Y-111633688D01*
X188269520Y-111577754D01*
X188281822Y-111569639D01*
X188307007Y-111555099D01*
X188400099Y-111462007D01*
X188414634Y-111436830D01*
X188465200Y-111388616D01*
X188533807Y-111375392D01*
X188598672Y-111401360D01*
X188609702Y-111411150D01*
X188972084Y-111773533D01*
X188972084Y-111773532D01*
X188972085Y-111773533D01*
X188972085Y-111773532D01*
X188981816Y-111769501D01*
X188985600Y-111753741D01*
X189065745Y-111596452D01*
X189065748Y-111596444D01*
X189121682Y-111424293D01*
X189150000Y-111245506D01*
X189150000Y-111064493D01*
X189121682Y-110885706D01*
X189121608Y-110885477D01*
X189065756Y-110713578D01*
X189065749Y-110713559D01*
X189065749Y-110713558D01*
X189065748Y-110713557D01*
X189065748Y-110713555D01*
X189065747Y-110713552D01*
X188983570Y-110552273D01*
X188983566Y-110552267D01*
X188972085Y-110536466D01*
X188972084Y-110536465D01*
X188609701Y-110898848D01*
X188548378Y-110932333D01*
X188478686Y-110927349D01*
X188422753Y-110885477D01*
X188414633Y-110873167D01*
X188400099Y-110847993D01*
X188307007Y-110754901D01*
X188290863Y-110745580D01*
X188281827Y-110740363D01*
X188233613Y-110689794D01*
X188220392Y-110621187D01*
X188246361Y-110556323D01*
X188256141Y-110545304D01*
X188618533Y-110182913D01*
X188602733Y-110171433D01*
X188602732Y-110171432D01*
X188599924Y-110170001D01*
X188441447Y-110089252D01*
X188441444Y-110089251D01*
X188441441Y-110089250D01*
X188441439Y-110089249D01*
X188441420Y-110089242D01*
X188269295Y-110033317D01*
X188269296Y-110033317D01*
X188090511Y-110005000D01*
X188090506Y-110005000D01*
X187909494Y-110005000D01*
X187909489Y-110005000D01*
X187730704Y-110033317D01*
X187558557Y-110089250D01*
X187558542Y-110089255D01*
X187397267Y-110171433D01*
X187381465Y-110182912D01*
X187743850Y-110545297D01*
X187777335Y-110606620D01*
X187772351Y-110676312D01*
X187730479Y-110732245D01*
X187718171Y-110740364D01*
X187692996Y-110754899D01*
X187692990Y-110754903D01*
X187599903Y-110847990D01*
X187599899Y-110847996D01*
X187585364Y-110873171D01*
X187534796Y-110921385D01*
X187466189Y-110934607D01*
X187401325Y-110908638D01*
X187390297Y-110898850D01*
X187027912Y-110536465D01*
X187016433Y-110552267D01*
X186934255Y-110713542D01*
X186934250Y-110713557D01*
X186878317Y-110885704D01*
X186850000Y-111064487D01*
X164000000Y-111064487D01*
X164000000Y-110682896D01*
X164005023Y-110647960D01*
X164009427Y-110632962D01*
X164047198Y-110574188D01*
X164053898Y-110568382D01*
X164103010Y-110542317D01*
X164212485Y-110512984D01*
X164338015Y-110440509D01*
X164440509Y-110338015D01*
X164512984Y-110212485D01*
X164550500Y-110072475D01*
X164550500Y-109927525D01*
X164512984Y-109787515D01*
X164471405Y-109715499D01*
X164471405Y-109715498D01*
X164440513Y-109661991D01*
X164440508Y-109661984D01*
X164440493Y-109661968D01*
X164338030Y-109559505D01*
X164338014Y-109559490D01*
X164338006Y-109559485D01*
X164291453Y-109532607D01*
X164291449Y-109532605D01*
X164217100Y-109489680D01*
X186899499Y-109489680D01*
X186914028Y-109562717D01*
X186914032Y-109562735D01*
X186914033Y-109562739D01*
X186917480Y-109568826D01*
X186920816Y-109572891D01*
X186969399Y-109645601D01*
X187052256Y-109700964D01*
X187052258Y-109700965D01*
X187052259Y-109700965D01*
X187052260Y-109700966D01*
X187052264Y-109700967D01*
X187052279Y-109700970D01*
X187052288Y-109700972D01*
X187097021Y-109709869D01*
X187117681Y-109713979D01*
X187120415Y-109714703D01*
X187125323Y-109715500D01*
X188874676Y-109715500D01*
X188878796Y-109715500D01*
X188886648Y-109713117D01*
X188947740Y-109700966D01*
X189030601Y-109645601D01*
X189085966Y-109562740D01*
X189100500Y-109489674D01*
X189100500Y-107740326D01*
X189100500Y-107740323D01*
X189100500Y-107740139D01*
X189100064Y-107738134D01*
X189085972Y-107667289D01*
X189085967Y-107667266D01*
X189085967Y-107667264D01*
X189085966Y-107667260D01*
X189085965Y-107667258D01*
X189085964Y-107667256D01*
X189030601Y-107584399D01*
X188957891Y-107535816D01*
X188953826Y-107532480D01*
X188947739Y-107529033D01*
X188947735Y-107529032D01*
X188947709Y-107529026D01*
X188874680Y-107514500D01*
X188874677Y-107514500D01*
X188874674Y-107514500D01*
X188692330Y-107514500D01*
X188657389Y-107509475D01*
X188642390Y-107505070D01*
X188583644Y-107467327D01*
X188582457Y-107465958D01*
X188554977Y-107411083D01*
X188553332Y-107403521D01*
X188550500Y-107377168D01*
X188550500Y-107242527D01*
X188550500Y-107242525D01*
X188512984Y-107102515D01*
X188440509Y-106976985D01*
X188338015Y-106874491D01*
X188337877Y-106874353D01*
X188337568Y-106874123D01*
X188334802Y-106872635D01*
X188284243Y-106843445D01*
X188255808Y-106813624D01*
X188201007Y-106798939D01*
X188201007Y-106798940D01*
X188136740Y-106781720D01*
X188072475Y-106764500D01*
X188072474Y-106764500D01*
X187927525Y-106764500D01*
X187798994Y-106798939D01*
X187798993Y-106798940D01*
X187791338Y-106800991D01*
X187787510Y-106802017D01*
X187661991Y-106874485D01*
X187661984Y-106874490D01*
X187661968Y-106874505D01*
X187559505Y-106976968D01*
X187559490Y-106976984D01*
X187559485Y-106976992D01*
X187487017Y-107102509D01*
X187486989Y-107102578D01*
X187486748Y-107103511D01*
X187449500Y-107242525D01*
X187449500Y-107372670D01*
X187444475Y-107407614D01*
X187440070Y-107422612D01*
X187402327Y-107481355D01*
X187400958Y-107482542D01*
X187346097Y-107510018D01*
X187338539Y-107511663D01*
X187312168Y-107514500D01*
X187125319Y-107514500D01*
X187052285Y-107529027D01*
X187052262Y-107529032D01*
X187052258Y-107529033D01*
X186969399Y-107584399D01*
X186914033Y-107667258D01*
X186914032Y-107667266D01*
X186914028Y-107667281D01*
X186899500Y-107740318D01*
X186899500Y-107740321D01*
X186899500Y-109489678D01*
X186899500Y-109489680D01*
X186899499Y-109489680D01*
X164217100Y-109489680D01*
X164212488Y-109487017D01*
X164212489Y-109487017D01*
X164194849Y-109482290D01*
X164120094Y-109462259D01*
X164120088Y-109462257D01*
X164109124Y-109459319D01*
X164076680Y-109445426D01*
X164063334Y-109437291D01*
X164046163Y-109418402D01*
X164026240Y-109402450D01*
X164023055Y-109392982D01*
X164016336Y-109385590D01*
X164016334Y-109385585D01*
X164012461Y-109377611D01*
X164000000Y-109323436D01*
X164000000Y-105868525D01*
X166949500Y-105868525D01*
X166949500Y-105875925D01*
X166949500Y-106013474D01*
X166987013Y-106153477D01*
X166987017Y-106153488D01*
X166987018Y-106153489D01*
X167057635Y-106275802D01*
X167059123Y-106278568D01*
X167059353Y-106278877D01*
X167161985Y-106381509D01*
X167162674Y-106382005D01*
X167165178Y-106383353D01*
X167284069Y-106451995D01*
X167287087Y-106453869D01*
X167287514Y-106453983D01*
X167287515Y-106453984D01*
X167427525Y-106491500D01*
X167427528Y-106491500D01*
X167572472Y-106491500D01*
X167572475Y-106491500D01*
X167712485Y-106453984D01*
X167838015Y-106381509D01*
X167940509Y-106279015D01*
X168012984Y-106153485D01*
X168050500Y-106013475D01*
X168050500Y-105868525D01*
X168012984Y-105728515D01*
X167940509Y-105602985D01*
X167838015Y-105500491D01*
X167837877Y-105500353D01*
X167837568Y-105500123D01*
X167834802Y-105498635D01*
X167784243Y-105469445D01*
X167755808Y-105439624D01*
X167701007Y-105424939D01*
X167701007Y-105424940D01*
X167636740Y-105407720D01*
X167572475Y-105390500D01*
X167572474Y-105390500D01*
X167427525Y-105390500D01*
X167298994Y-105424939D01*
X167298993Y-105424940D01*
X167291338Y-105426991D01*
X167287510Y-105428017D01*
X167161991Y-105500485D01*
X167161984Y-105500490D01*
X167161968Y-105500505D01*
X167059505Y-105602968D01*
X167059490Y-105602984D01*
X167059485Y-105602992D01*
X166987017Y-105728509D01*
X166987004Y-105728541D01*
X166986909Y-105728914D01*
X166949500Y-105868525D01*
X164000000Y-105868525D01*
X164000000Y-101118525D01*
X166949500Y-101118525D01*
X166949500Y-101125925D01*
X166949500Y-101263474D01*
X166987013Y-101403477D01*
X166987016Y-101403485D01*
X166987017Y-101403488D01*
X167010599Y-101444333D01*
X167057635Y-101525802D01*
X167059123Y-101528568D01*
X167059353Y-101528877D01*
X167161985Y-101631509D01*
X167162674Y-101632005D01*
X167165178Y-101633353D01*
X167284069Y-101701995D01*
X167287087Y-101703869D01*
X167287514Y-101703983D01*
X167287515Y-101703984D01*
X167427525Y-101741500D01*
X167427528Y-101741500D01*
X167572472Y-101741500D01*
X167572475Y-101741500D01*
X167712485Y-101703984D01*
X167838015Y-101631509D01*
X167940509Y-101529015D01*
X168012984Y-101403485D01*
X168050500Y-101263475D01*
X168050500Y-101118525D01*
X168012984Y-100978515D01*
X168004974Y-100964642D01*
X167988412Y-100935956D01*
X167940513Y-100852991D01*
X167940508Y-100852984D01*
X167940493Y-100852968D01*
X167838030Y-100750505D01*
X167838014Y-100750490D01*
X167838006Y-100750485D01*
X167784243Y-100719445D01*
X167755808Y-100689624D01*
X167701007Y-100674939D01*
X167701007Y-100674940D01*
X167636740Y-100657720D01*
X167572475Y-100640500D01*
X167572474Y-100640500D01*
X167427525Y-100640500D01*
X167298994Y-100674939D01*
X167298993Y-100674940D01*
X167291338Y-100676991D01*
X167287510Y-100678017D01*
X167161991Y-100750485D01*
X167161984Y-100750490D01*
X167161968Y-100750505D01*
X167059505Y-100852968D01*
X167059490Y-100852984D01*
X167059485Y-100852992D01*
X166987017Y-100978509D01*
X166987004Y-100978541D01*
X166986909Y-100978914D01*
X166949500Y-101118525D01*
X164000000Y-101118525D01*
X164000000Y-99015525D01*
X170649500Y-99015525D01*
X170649500Y-99022925D01*
X170649500Y-99160474D01*
X170687013Y-99300477D01*
X170687016Y-99300485D01*
X170687017Y-99300488D01*
X170709123Y-99338776D01*
X170757635Y-99422802D01*
X170759123Y-99425568D01*
X170759353Y-99425877D01*
X170861985Y-99528509D01*
X170862674Y-99529005D01*
X170865178Y-99530353D01*
X170984069Y-99598995D01*
X170987087Y-99600869D01*
X170987514Y-99600983D01*
X170987515Y-99600984D01*
X171127525Y-99638500D01*
X171127528Y-99638500D01*
X171272472Y-99638500D01*
X171272475Y-99638500D01*
X171412485Y-99600984D01*
X171538015Y-99528509D01*
X171640509Y-99426015D01*
X171712984Y-99300485D01*
X171750500Y-99160475D01*
X171750500Y-99054125D01*
X183819500Y-99054125D01*
X183819500Y-101249876D01*
X183819659Y-101251806D01*
X183819885Y-101253454D01*
X183825907Y-101309482D01*
X183853690Y-101383971D01*
X183876202Y-101444328D01*
X183876206Y-101444335D01*
X183901487Y-101478106D01*
X183962450Y-101559542D01*
X183962452Y-101559544D01*
X183962455Y-101559547D01*
X184077664Y-101645793D01*
X184077671Y-101645797D01*
X184127155Y-101664253D01*
X184162513Y-101690721D01*
X184219444Y-101696835D01*
X184219443Y-101696839D01*
X184219458Y-101696836D01*
X184272127Y-101702500D01*
X186467872Y-101702499D01*
X186527483Y-101696091D01*
X186662331Y-101645796D01*
X186777546Y-101559546D01*
X186863796Y-101444331D01*
X186914091Y-101309483D01*
X186920500Y-101249873D01*
X186920499Y-99054128D01*
X186914091Y-98994517D01*
X186904702Y-98969345D01*
X186869716Y-98875541D01*
X186863798Y-98859673D01*
X186863796Y-98859669D01*
X186863795Y-98859668D01*
X186863793Y-98859664D01*
X186777547Y-98744455D01*
X186777544Y-98744452D01*
X186777542Y-98744450D01*
X186719616Y-98701086D01*
X186662335Y-98658206D01*
X186662332Y-98658204D01*
X186662330Y-98658203D01*
X186662328Y-98658202D01*
X186612844Y-98639746D01*
X186577497Y-98613284D01*
X186475583Y-98602328D01*
X186470742Y-98601500D01*
X186467881Y-98601500D01*
X186467873Y-98601500D01*
X186467864Y-98601500D01*
X184272129Y-98601500D01*
X184272123Y-98601500D01*
X184270192Y-98601659D01*
X184268545Y-98601885D01*
X184212516Y-98607908D01*
X184106384Y-98647493D01*
X184077666Y-98658204D01*
X184077665Y-98658205D01*
X183962456Y-98744450D01*
X183962450Y-98744456D01*
X183876205Y-98859665D01*
X183876203Y-98859668D01*
X183825908Y-98994516D01*
X183819500Y-99054125D01*
X171750500Y-99054125D01*
X171750500Y-99015525D01*
X171712984Y-98875515D01*
X171703836Y-98859671D01*
X171684226Y-98825705D01*
X171640513Y-98749991D01*
X171640508Y-98749984D01*
X171640493Y-98749968D01*
X171538030Y-98647505D01*
X171538014Y-98647490D01*
X171538006Y-98647485D01*
X171484243Y-98616445D01*
X171455808Y-98586624D01*
X171401007Y-98571939D01*
X171401007Y-98571940D01*
X171336740Y-98554720D01*
X171272475Y-98537500D01*
X171272474Y-98537500D01*
X171127525Y-98537500D01*
X170998994Y-98571939D01*
X170998993Y-98571940D01*
X170991338Y-98573991D01*
X170987510Y-98575017D01*
X170861991Y-98647485D01*
X170861984Y-98647490D01*
X170861968Y-98647505D01*
X170759505Y-98749968D01*
X170759490Y-98749984D01*
X170759485Y-98749992D01*
X170687017Y-98875509D01*
X170687004Y-98875541D01*
X170686909Y-98875914D01*
X170649500Y-99015525D01*
X164000000Y-99015525D01*
X164000000Y-96368525D01*
X166949500Y-96368525D01*
X166949500Y-96375925D01*
X166949500Y-96513474D01*
X166987013Y-96653477D01*
X166987017Y-96653488D01*
X166987018Y-96653489D01*
X167057635Y-96775802D01*
X167059123Y-96778568D01*
X167059353Y-96778877D01*
X167161985Y-96881509D01*
X167162674Y-96882005D01*
X167165178Y-96883353D01*
X167284069Y-96951995D01*
X167287087Y-96953869D01*
X167287514Y-96953983D01*
X167287515Y-96953984D01*
X167427525Y-96991500D01*
X167427528Y-96991500D01*
X167572472Y-96991500D01*
X167572475Y-96991500D01*
X167712485Y-96953984D01*
X167838015Y-96881509D01*
X167940509Y-96779015D01*
X168012984Y-96653485D01*
X168050500Y-96513475D01*
X168050500Y-96368525D01*
X168012984Y-96228515D01*
X167940509Y-96102985D01*
X167838015Y-96000491D01*
X167837877Y-96000353D01*
X167837568Y-96000123D01*
X167834802Y-95998635D01*
X167784243Y-95969445D01*
X167755808Y-95939624D01*
X167701007Y-95924939D01*
X167701007Y-95924940D01*
X167636740Y-95907720D01*
X167572475Y-95890500D01*
X167572474Y-95890500D01*
X167427525Y-95890500D01*
X167298994Y-95924939D01*
X167298993Y-95924940D01*
X167291338Y-95926991D01*
X167287510Y-95928017D01*
X167161991Y-96000485D01*
X167161984Y-96000490D01*
X167161968Y-96000505D01*
X167059505Y-96102968D01*
X167059490Y-96102984D01*
X167059485Y-96102992D01*
X166987017Y-96228509D01*
X166987004Y-96228541D01*
X166986909Y-96228914D01*
X166949500Y-96368525D01*
X164000000Y-96368525D01*
X164000000Y-90682896D01*
X164005023Y-90647960D01*
X164009427Y-90632962D01*
X164047198Y-90574188D01*
X164053898Y-90568382D01*
X164103010Y-90542317D01*
X164212485Y-90512984D01*
X164338015Y-90440509D01*
X164440509Y-90338015D01*
X164459895Y-90304437D01*
X164510458Y-90256223D01*
X164579064Y-90242998D01*
X164590258Y-90244744D01*
G37*
%TD.AperFunction*%
%TD*%
%TA.AperFunction,Conductor*%
%TO.N,GND*%
G36*
X163687539Y-68019685D02*
G01*
X163733294Y-68072489D01*
X163744500Y-68124000D01*
X163744500Y-89334943D01*
X163745384Y-89356181D01*
X163747102Y-89376749D01*
X163747103Y-89376755D01*
X163760509Y-89425624D01*
X163771897Y-89467133D01*
X163802424Y-89529976D01*
X163825898Y-89569011D01*
X163825899Y-89569012D01*
X163899260Y-89636504D01*
X163899261Y-89636505D01*
X163899265Y-89636508D01*
X163958923Y-89672872D01*
X163958931Y-89672875D01*
X163958934Y-89672877D01*
X163985709Y-89684342D01*
X164025775Y-89701500D01*
X164025785Y-89701502D01*
X164025786Y-89701503D01*
X164098102Y-89720881D01*
X164128005Y-89733266D01*
X164166990Y-89755774D01*
X164169220Y-89758113D01*
X164172317Y-89759032D01*
X164192666Y-89775475D01*
X164224519Y-89807328D01*
X164244220Y-89833002D01*
X164266733Y-89871996D01*
X164279118Y-89901896D01*
X164298495Y-89974209D01*
X164304866Y-89994555D01*
X164305800Y-89997153D01*
X164309953Y-90066900D01*
X164284882Y-90114922D01*
X164286312Y-90116046D01*
X164236276Y-90179674D01*
X164226485Y-90190705D01*
X164192676Y-90224514D01*
X164166996Y-90244220D01*
X164128005Y-90266732D01*
X164098100Y-90279119D01*
X164036881Y-90295523D01*
X163983237Y-90316630D01*
X163983226Y-90316634D01*
X163934131Y-90342690D01*
X163886573Y-90375294D01*
X163879868Y-90381105D01*
X163832258Y-90436053D01*
X163832249Y-90436065D01*
X163794489Y-90494822D01*
X163794482Y-90494836D01*
X163764277Y-90560976D01*
X163764274Y-90560984D01*
X163759876Y-90575961D01*
X163759873Y-90575974D01*
X163752123Y-90611600D01*
X163747101Y-90646533D01*
X163747101Y-90646535D01*
X163744500Y-90682896D01*
X163744500Y-96402163D01*
X163744500Y-99049163D01*
X163744500Y-101152163D01*
X163744500Y-105902163D01*
X163744500Y-107770000D01*
X163744500Y-109323436D01*
X163751002Y-109380709D01*
X163763463Y-109434884D01*
X163782631Y-109489228D01*
X163782635Y-109489236D01*
X163786505Y-109497205D01*
X163786505Y-109497207D01*
X163789895Y-109502216D01*
X163800731Y-109521849D01*
X163802379Y-109525603D01*
X163815316Y-109540985D01*
X163823110Y-109551299D01*
X163827266Y-109557440D01*
X163827269Y-109557444D01*
X163833988Y-109564836D01*
X163833988Y-109564835D01*
X163850983Y-109583532D01*
X163854092Y-109587088D01*
X163866547Y-109601896D01*
X163866549Y-109601897D01*
X163866552Y-109601901D01*
X163869033Y-109604324D01*
X163871138Y-109606164D01*
X163874274Y-109609153D01*
X163930346Y-109655452D01*
X163930353Y-109655458D01*
X163943697Y-109663591D01*
X163965045Y-109674596D01*
X163976104Y-109680298D01*
X164008548Y-109694191D01*
X164008560Y-109694195D01*
X164008573Y-109694200D01*
X164042993Y-109706112D01*
X164098096Y-109720877D01*
X164101350Y-109722860D01*
X164105160Y-109722997D01*
X164128002Y-109733265D01*
X164163702Y-109753877D01*
X164163706Y-109753879D01*
X164167000Y-109755781D01*
X164192676Y-109775484D01*
X164224513Y-109807321D01*
X164244219Y-109833002D01*
X164266732Y-109871996D01*
X164267630Y-109875700D01*
X164270229Y-109878491D01*
X164279119Y-109901900D01*
X164290774Y-109945393D01*
X164295000Y-109977489D01*
X164295000Y-110022509D01*
X164290774Y-110054605D01*
X164279119Y-110098099D01*
X164266732Y-110128004D01*
X164244219Y-110166997D01*
X164224513Y-110192677D01*
X164192676Y-110224514D01*
X164166996Y-110244220D01*
X164128005Y-110266732D01*
X164098100Y-110279119D01*
X164036881Y-110295523D01*
X163983237Y-110316630D01*
X163983226Y-110316634D01*
X163934131Y-110342690D01*
X163886573Y-110375294D01*
X163879868Y-110381105D01*
X163832258Y-110436053D01*
X163832249Y-110436065D01*
X163794489Y-110494822D01*
X163794482Y-110494836D01*
X163764277Y-110560976D01*
X163764274Y-110560984D01*
X163759876Y-110575961D01*
X163759873Y-110575974D01*
X163752123Y-110611600D01*
X163747101Y-110646533D01*
X163744500Y-110682896D01*
X163744500Y-113620502D01*
X163750338Y-113674812D01*
X163761543Y-113726318D01*
X163761545Y-113726324D01*
X163768781Y-113752698D01*
X163788768Y-113787797D01*
X163801604Y-113810339D01*
X163817671Y-113878336D01*
X163803725Y-113929173D01*
X163774533Y-113984978D01*
X163754851Y-114052009D01*
X163754848Y-114052021D01*
X163744500Y-114123998D01*
X163744500Y-131876000D01*
X163724815Y-131943039D01*
X163672011Y-131988794D01*
X163620500Y-132000000D01*
X108141830Y-132000000D01*
X108106889Y-131994975D01*
X108091890Y-131990570D01*
X108033144Y-131952827D01*
X108031957Y-131951458D01*
X108004477Y-131896583D01*
X108002832Y-131889021D01*
X108000000Y-131862668D01*
X108000000Y-127878710D01*
X110149500Y-127878710D01*
X110149500Y-128121288D01*
X110181160Y-128361781D01*
X110243947Y-128596104D01*
X110336772Y-128820203D01*
X110336773Y-128820207D01*
X110336780Y-128820220D01*
X110458060Y-129030283D01*
X110458062Y-129030286D01*
X110458281Y-129030615D01*
X110459284Y-129031879D01*
X110605726Y-129222728D01*
X110605730Y-129222733D01*
X110605733Y-129222736D01*
X110605739Y-129222743D01*
X110605747Y-129222751D01*
X110777242Y-129394247D01*
X110777256Y-129394260D01*
X110777262Y-129394265D01*
X110969711Y-129541936D01*
X111179788Y-129663224D01*
X111403900Y-129756054D01*
X111638211Y-129818838D01*
X111818586Y-129842584D01*
X111878710Y-129850500D01*
X111878711Y-129850500D01*
X111878712Y-129850500D01*
X112121283Y-129850500D01*
X112121289Y-129850500D01*
X112169388Y-129844167D01*
X112361789Y-129818838D01*
X112596100Y-129756054D01*
X112820212Y-129663224D01*
X113030289Y-129541936D01*
X113222738Y-129394265D01*
X113394265Y-129222738D01*
X113541936Y-129030289D01*
X113663224Y-128820212D01*
X113756054Y-128596100D01*
X113818838Y-128361789D01*
X113850500Y-128121288D01*
X113850500Y-127878712D01*
X113818838Y-127638211D01*
X113756054Y-127403900D01*
X113663224Y-127179788D01*
X113541936Y-126969711D01*
X113394265Y-126777262D01*
X113394260Y-126777256D01*
X113394259Y-126777255D01*
X113394247Y-126777242D01*
X113222751Y-126605747D01*
X113222743Y-126605739D01*
X113222736Y-126605733D01*
X113222733Y-126605730D01*
X113222728Y-126605726D01*
X113031879Y-126459284D01*
X113030615Y-126458281D01*
X113030286Y-126458062D01*
X113030283Y-126458060D01*
X112820220Y-126336780D01*
X112820207Y-126336773D01*
X112820203Y-126336772D01*
X112596104Y-126243947D01*
X112361781Y-126181160D01*
X112121290Y-126149500D01*
X112121289Y-126149500D01*
X112121288Y-126149500D01*
X111878712Y-126149500D01*
X111878711Y-126149500D01*
X111878710Y-126149500D01*
X111638217Y-126181160D01*
X111403894Y-126243947D01*
X111179790Y-126336774D01*
X111179782Y-126336778D01*
X110969706Y-126458067D01*
X110969697Y-126458073D01*
X110777270Y-126605726D01*
X110777255Y-126605740D01*
X110777247Y-126605747D01*
X110605747Y-126777247D01*
X110605740Y-126777255D01*
X110605726Y-126777270D01*
X110458073Y-126969697D01*
X110458067Y-126969706D01*
X110336778Y-127179782D01*
X110336774Y-127179790D01*
X110243947Y-127403894D01*
X110181160Y-127638217D01*
X110149500Y-127878710D01*
X108000000Y-127878710D01*
X108000000Y-113309252D01*
X108005021Y-113274325D01*
X108008207Y-113263472D01*
X108045977Y-113204691D01*
X108109531Y-113175662D01*
X108178686Y-113185600D01*
X108182033Y-113187128D01*
X108228897Y-113224436D01*
X108280297Y-113291423D01*
X108379689Y-113420952D01*
X108379693Y-113420956D01*
X108379698Y-113420963D01*
X108379704Y-113420970D01*
X108379712Y-113420978D01*
X108579029Y-113620296D01*
X108579058Y-113620321D01*
X108579436Y-113620608D01*
X108802683Y-113791912D01*
X108802690Y-113791916D01*
X108802694Y-113791919D01*
X108802916Y-113792047D01*
X109043369Y-113930873D01*
X109045107Y-113931953D01*
X109046582Y-113932772D01*
X109047444Y-113933122D01*
X109307261Y-114040742D01*
X109579558Y-114113704D01*
X109859049Y-114150500D01*
X109859056Y-114150500D01*
X114340944Y-114150500D01*
X114340951Y-114150500D01*
X114620442Y-114113704D01*
X114892739Y-114040742D01*
X115153183Y-113932863D01*
X115397317Y-113791912D01*
X115620965Y-113620300D01*
X115820300Y-113420965D01*
X115991912Y-113197317D01*
X116132863Y-112953183D01*
X116240742Y-112692739D01*
X116313704Y-112420442D01*
X116350500Y-112140951D01*
X116350500Y-111859049D01*
X116350498Y-111859033D01*
X117149500Y-111859033D01*
X117149500Y-112140965D01*
X117186294Y-112420435D01*
X117186295Y-112420439D01*
X117217599Y-112537266D01*
X117259260Y-112692747D01*
X117314667Y-112826509D01*
X117367135Y-112953179D01*
X117367140Y-112953190D01*
X117437023Y-113074230D01*
X117491556Y-113168684D01*
X117501325Y-113185604D01*
X117508088Y-113197317D01*
X117679700Y-113420965D01*
X117679704Y-113420970D01*
X117679711Y-113420978D01*
X117879029Y-113620296D01*
X117879058Y-113620321D01*
X117879436Y-113620608D01*
X118102683Y-113791912D01*
X118102690Y-113791916D01*
X118102694Y-113791919D01*
X118102916Y-113792047D01*
X118343369Y-113930873D01*
X118345107Y-113931953D01*
X118346582Y-113932772D01*
X118347444Y-113933122D01*
X118607261Y-114040742D01*
X118879558Y-114113704D01*
X119159049Y-114150500D01*
X119159056Y-114150500D01*
X123640944Y-114150500D01*
X123640951Y-114150500D01*
X123920442Y-114113704D01*
X124192739Y-114040742D01*
X124453183Y-113932863D01*
X124697317Y-113791912D01*
X124920965Y-113620300D01*
X124932872Y-113608392D01*
X124932876Y-113608390D01*
X125120296Y-113420970D01*
X125120295Y-113420970D01*
X125120300Y-113420965D01*
X125291912Y-113197317D01*
X125432863Y-112953183D01*
X125540742Y-112692739D01*
X125613704Y-112420442D01*
X125650500Y-112140951D01*
X125650500Y-111859049D01*
X125613704Y-111579558D01*
X125540742Y-111307261D01*
X125455863Y-111102345D01*
X125432867Y-111046825D01*
X125432861Y-111046814D01*
X125432859Y-111046809D01*
X125292047Y-110802916D01*
X125291919Y-110802694D01*
X125291916Y-110802690D01*
X125291912Y-110802683D01*
X125120608Y-110579436D01*
X125120321Y-110579058D01*
X125120296Y-110579029D01*
X124920978Y-110379711D01*
X124920973Y-110379707D01*
X124920970Y-110379704D01*
X124920965Y-110379700D01*
X124697317Y-110208088D01*
X124697311Y-110208084D01*
X124697309Y-110208083D01*
X124694317Y-110206347D01*
X124694089Y-110206224D01*
X124453185Y-110067137D01*
X124192747Y-109959260D01*
X123920435Y-109886294D01*
X123640965Y-109849500D01*
X123640958Y-109849500D01*
X123640951Y-109849500D01*
X119159049Y-109849500D01*
X119159041Y-109849500D01*
X119159033Y-109849500D01*
X118879563Y-109886294D01*
X118607251Y-109959260D01*
X118346813Y-110067137D01*
X118346813Y-110067138D01*
X118346809Y-110067140D01*
X118293187Y-110098099D01*
X118102697Y-110208078D01*
X118102684Y-110208086D01*
X117879030Y-110379702D01*
X117879023Y-110379708D01*
X117679708Y-110579023D01*
X117679702Y-110579030D01*
X117508086Y-110802684D01*
X117508078Y-110802697D01*
X117492650Y-110829420D01*
X117367140Y-111046809D01*
X117367138Y-111046813D01*
X117367137Y-111046813D01*
X117259260Y-111307251D01*
X117186294Y-111579563D01*
X117149500Y-111859033D01*
X116350498Y-111859033D01*
X116313704Y-111579558D01*
X116240742Y-111307261D01*
X116133122Y-111047444D01*
X116132772Y-111046582D01*
X116131953Y-111045107D01*
X116130873Y-111043369D01*
X115992047Y-110802916D01*
X115991919Y-110802694D01*
X115991916Y-110802690D01*
X115991912Y-110802683D01*
X115820608Y-110579436D01*
X115820321Y-110579058D01*
X115820296Y-110579029D01*
X115620978Y-110379711D01*
X115620973Y-110379707D01*
X115620970Y-110379704D01*
X115620965Y-110379700D01*
X115397317Y-110208088D01*
X115397311Y-110208084D01*
X115397309Y-110208083D01*
X115394317Y-110206347D01*
X115394089Y-110206224D01*
X115153185Y-110067137D01*
X114892747Y-109959260D01*
X114620435Y-109886294D01*
X114340965Y-109849500D01*
X114340958Y-109849500D01*
X114340951Y-109849500D01*
X109859049Y-109849500D01*
X109859041Y-109849500D01*
X109859033Y-109849500D01*
X109579563Y-109886294D01*
X109307251Y-109959260D01*
X109046813Y-110067137D01*
X109046813Y-110067138D01*
X109046809Y-110067140D01*
X108993187Y-110098099D01*
X108802697Y-110208078D01*
X108802684Y-110208086D01*
X108579030Y-110379702D01*
X108579023Y-110379708D01*
X108379708Y-110579023D01*
X108379702Y-110579030D01*
X108233230Y-110769917D01*
X108207976Y-110794577D01*
X108198841Y-110801247D01*
X108133090Y-110824882D01*
X108064999Y-110809217D01*
X108016188Y-110759229D01*
X108015467Y-110757871D01*
X108014455Y-110755962D01*
X108000000Y-110697860D01*
X108000000Y-93438153D01*
X108005021Y-93403226D01*
X108008207Y-93392373D01*
X108045977Y-93333592D01*
X108109531Y-93304563D01*
X108178677Y-93314497D01*
X108181503Y-93315787D01*
X108230324Y-93355705D01*
X108232069Y-93358107D01*
X108241606Y-93384840D01*
X108255748Y-93390698D01*
X108832924Y-92813521D01*
X108894245Y-92780038D01*
X108963936Y-92785022D01*
X109019870Y-92826893D01*
X109023705Y-92832313D01*
X109045113Y-92864353D01*
X109135646Y-92954886D01*
X109167684Y-92976293D01*
X109212489Y-93029906D01*
X109221196Y-93099231D01*
X109191041Y-93162258D01*
X109186474Y-93167076D01*
X108609299Y-93744249D01*
X108609300Y-93744249D01*
X108609300Y-93744250D01*
X108711416Y-93818442D01*
X108788165Y-93857548D01*
X108935814Y-93932780D01*
X108935817Y-93932781D01*
X108969722Y-93943797D01*
X109175330Y-94010602D01*
X109424072Y-94050000D01*
X109675927Y-94050000D01*
X109675928Y-94050000D01*
X109924669Y-94010602D01*
X110164184Y-93932780D01*
X110388575Y-93818446D01*
X110388581Y-93818442D01*
X110458102Y-93767932D01*
X110484840Y-93758391D01*
X110490698Y-93744249D01*
X109913524Y-93167076D01*
X109880039Y-93105753D01*
X109885023Y-93036062D01*
X109926894Y-92980128D01*
X109932270Y-92976323D01*
X109964351Y-92954888D01*
X110054888Y-92864351D01*
X110076295Y-92832312D01*
X110129903Y-92787510D01*
X110199227Y-92778801D01*
X110262256Y-92808955D01*
X110267076Y-92813524D01*
X110844249Y-93390698D01*
X110844249Y-93390697D01*
X110844250Y-93390698D01*
X110844250Y-93390697D01*
X110857718Y-93385118D01*
X110863935Y-93363948D01*
X110867932Y-93358102D01*
X110890811Y-93326611D01*
X110918442Y-93288581D01*
X110918446Y-93288575D01*
X111032780Y-93064184D01*
X111110602Y-92824669D01*
X111150000Y-92575928D01*
X111150000Y-92324071D01*
X111110602Y-92075330D01*
X111043918Y-91870094D01*
X111032781Y-91835817D01*
X111032780Y-91835814D01*
X110918442Y-91611416D01*
X110867932Y-91541896D01*
X110858391Y-91515157D01*
X110844249Y-91509299D01*
X110267076Y-92086474D01*
X110205753Y-92119959D01*
X110136062Y-92114975D01*
X110080128Y-92073104D01*
X110076293Y-92067684D01*
X110054886Y-92035646D01*
X109964356Y-91945116D01*
X109964352Y-91945113D01*
X109964351Y-91945112D01*
X109932311Y-91923704D01*
X109887508Y-91870094D01*
X109878800Y-91800769D01*
X109908954Y-91737741D01*
X109913478Y-91732966D01*
X110294321Y-91352125D01*
X113079500Y-91352125D01*
X113079500Y-93547876D01*
X113079659Y-93549806D01*
X113079885Y-93551454D01*
X113085907Y-93607482D01*
X113113690Y-93681971D01*
X113136202Y-93742328D01*
X113136203Y-93742330D01*
X113136204Y-93742332D01*
X113136205Y-93742333D01*
X113222450Y-93857542D01*
X113222452Y-93857544D01*
X113222455Y-93857547D01*
X113337664Y-93943793D01*
X113337671Y-93943797D01*
X113387155Y-93962253D01*
X113422513Y-93988721D01*
X113479444Y-93994835D01*
X113479443Y-93994839D01*
X113479458Y-93994836D01*
X113532127Y-94000500D01*
X115727872Y-94000499D01*
X115787483Y-93994091D01*
X115922331Y-93943796D01*
X116037546Y-93857546D01*
X116123796Y-93742331D01*
X116174091Y-93607483D01*
X116180500Y-93547873D01*
X116180499Y-91352128D01*
X116174091Y-91292517D01*
X116123796Y-91157669D01*
X116123795Y-91157668D01*
X116123794Y-91157666D01*
X116123778Y-91157623D01*
X116123199Y-91156703D01*
X116122249Y-91155164D01*
X116121397Y-91153937D01*
X116121391Y-91153928D01*
X116118489Y-91150579D01*
X116037547Y-91042455D01*
X116037544Y-91042452D01*
X116037542Y-91042450D01*
X115979616Y-90999086D01*
X115922335Y-90956206D01*
X115922332Y-90956204D01*
X115922330Y-90956203D01*
X115922328Y-90956202D01*
X115872844Y-90937746D01*
X115837497Y-90911284D01*
X115735583Y-90900328D01*
X115730742Y-90899500D01*
X115727881Y-90899500D01*
X115727873Y-90899500D01*
X115727864Y-90899500D01*
X113532129Y-90899500D01*
X113532123Y-90899500D01*
X113530192Y-90899659D01*
X113528545Y-90899885D01*
X113472516Y-90905908D01*
X113387152Y-90937747D01*
X113337666Y-90956204D01*
X113337665Y-90956205D01*
X113222456Y-91042450D01*
X113222450Y-91042456D01*
X113136205Y-91157665D01*
X113136203Y-91157668D01*
X113085908Y-91292516D01*
X113079500Y-91352125D01*
X110294321Y-91352125D01*
X110385322Y-91261125D01*
X110490698Y-91155748D01*
X110490697Y-91155747D01*
X110490697Y-91155746D01*
X110388586Y-91081559D01*
X110388585Y-91081558D01*
X110388583Y-91081557D01*
X110311832Y-91042450D01*
X110164184Y-90967218D01*
X110164181Y-90967217D01*
X109924670Y-90889397D01*
X109800298Y-90869698D01*
X109675928Y-90850000D01*
X109675927Y-90850000D01*
X109424073Y-90850000D01*
X109424072Y-90850000D01*
X109341158Y-90863132D01*
X109175328Y-90889397D01*
X108935817Y-90967217D01*
X108935804Y-90967223D01*
X108711418Y-91081555D01*
X108609300Y-91155747D01*
X108609300Y-91155748D01*
X109186475Y-91732923D01*
X109219960Y-91794246D01*
X109214976Y-91863937D01*
X109173105Y-91919871D01*
X109167686Y-91923705D01*
X109135649Y-91945111D01*
X109135643Y-91945116D01*
X109045116Y-92035643D01*
X109045111Y-92035649D01*
X109023705Y-92067686D01*
X108970093Y-92112490D01*
X108900768Y-92121197D01*
X108837741Y-92091042D01*
X108832923Y-92086475D01*
X108255749Y-91509300D01*
X108255747Y-91509299D01*
X108255744Y-91509302D01*
X108234796Y-91538135D01*
X108210200Y-91563443D01*
X108201243Y-91570350D01*
X108136134Y-91595700D01*
X108067656Y-91581825D01*
X108017551Y-91533132D01*
X108016018Y-91530418D01*
X108000000Y-91469459D01*
X108000000Y-82927525D01*
X129649500Y-82927525D01*
X129649500Y-82934925D01*
X129649500Y-83072474D01*
X129687013Y-83212477D01*
X129687017Y-83212488D01*
X129687018Y-83212489D01*
X129757635Y-83334802D01*
X129759123Y-83337568D01*
X129759353Y-83337877D01*
X129861985Y-83440509D01*
X129862674Y-83441005D01*
X129865178Y-83442353D01*
X129984069Y-83510995D01*
X129987087Y-83512869D01*
X129987514Y-83512983D01*
X129987515Y-83512984D01*
X130127525Y-83550500D01*
X130127528Y-83550500D01*
X130272472Y-83550500D01*
X130272475Y-83550500D01*
X130412485Y-83512984D01*
X130538015Y-83440509D01*
X130640509Y-83338015D01*
X130712984Y-83212485D01*
X130750500Y-83072475D01*
X130750500Y-82927525D01*
X130712984Y-82787515D01*
X130640509Y-82661985D01*
X130538015Y-82559491D01*
X130537877Y-82559353D01*
X130537568Y-82559123D01*
X130534802Y-82557635D01*
X130484243Y-82528445D01*
X130455808Y-82498624D01*
X130401007Y-82483939D01*
X130401007Y-82483940D01*
X130336740Y-82466720D01*
X130272475Y-82449500D01*
X130272474Y-82449500D01*
X130127525Y-82449500D01*
X129998994Y-82483939D01*
X129998993Y-82483940D01*
X129991338Y-82485991D01*
X129987510Y-82487017D01*
X129861991Y-82559485D01*
X129861984Y-82559490D01*
X129861968Y-82559505D01*
X129759505Y-82661968D01*
X129759490Y-82661984D01*
X129759485Y-82661992D01*
X129687017Y-82787509D01*
X129687004Y-82787541D01*
X129686909Y-82787914D01*
X129649500Y-82927525D01*
X108000000Y-82927525D01*
X108000000Y-77224487D01*
X117850000Y-77224487D01*
X117850000Y-77405511D01*
X117878317Y-77584296D01*
X117934242Y-77756420D01*
X117934249Y-77756439D01*
X117934251Y-77756444D01*
X117934252Y-77756447D01*
X118014398Y-77913741D01*
X118018182Y-77929502D01*
X118027913Y-77933533D01*
X118390297Y-77571149D01*
X118451620Y-77537664D01*
X118521311Y-77542648D01*
X118577245Y-77584519D01*
X118585365Y-77596830D01*
X118599901Y-77622007D01*
X118692993Y-77715099D01*
X118718169Y-77729634D01*
X118766384Y-77780202D01*
X118779606Y-77848809D01*
X118753638Y-77913673D01*
X118743849Y-77924702D01*
X118381466Y-78287084D01*
X118381466Y-78287085D01*
X118381466Y-78287086D01*
X118397267Y-78298566D01*
X118397275Y-78298571D01*
X118558552Y-78380747D01*
X118558555Y-78380748D01*
X118558557Y-78380748D01*
X118558558Y-78380749D01*
X118558578Y-78380756D01*
X118730703Y-78436681D01*
X118730706Y-78436682D01*
X118909494Y-78465000D01*
X119090505Y-78465000D01*
X119090506Y-78465000D01*
X119269293Y-78436682D01*
X119441444Y-78380748D01*
X119441452Y-78380745D01*
X119598740Y-78300600D01*
X119614501Y-78296816D01*
X119618533Y-78287084D01*
X119256150Y-77924702D01*
X119222665Y-77863379D01*
X119227649Y-77793688D01*
X119269520Y-77737754D01*
X119281822Y-77729639D01*
X119307007Y-77715099D01*
X119400099Y-77622007D01*
X119414634Y-77596830D01*
X119465200Y-77548616D01*
X119533807Y-77535392D01*
X119598672Y-77561360D01*
X119609702Y-77571150D01*
X119972084Y-77933533D01*
X119972084Y-77933532D01*
X119972085Y-77933533D01*
X119972085Y-77933532D01*
X119981816Y-77929501D01*
X119985600Y-77913741D01*
X120065745Y-77756452D01*
X120065748Y-77756444D01*
X120121682Y-77584293D01*
X120150000Y-77405506D01*
X120150000Y-77224493D01*
X120121682Y-77045706D01*
X120121608Y-77045477D01*
X120065756Y-76873578D01*
X120065748Y-76873555D01*
X120065747Y-76873552D01*
X120034701Y-76812622D01*
X120008629Y-76761455D01*
X119983573Y-76712278D01*
X119983571Y-76712275D01*
X119983566Y-76712267D01*
X119972085Y-76696466D01*
X119972083Y-76696465D01*
X119609701Y-77058848D01*
X119548378Y-77092333D01*
X119478686Y-77087349D01*
X119422753Y-77045477D01*
X119414633Y-77033167D01*
X119400099Y-77007993D01*
X119307007Y-76914901D01*
X119290863Y-76905580D01*
X119281827Y-76900363D01*
X119233613Y-76849794D01*
X119220392Y-76781187D01*
X119246361Y-76716323D01*
X119256141Y-76705304D01*
X119618533Y-76342913D01*
X119602733Y-76331433D01*
X119602732Y-76331432D01*
X119599924Y-76330001D01*
X119441447Y-76249252D01*
X119441444Y-76249251D01*
X119441441Y-76249250D01*
X119441439Y-76249249D01*
X119441420Y-76249242D01*
X119269295Y-76193317D01*
X119269296Y-76193317D01*
X119090511Y-76165000D01*
X119090506Y-76165000D01*
X118909494Y-76165000D01*
X118909489Y-76165000D01*
X118730704Y-76193317D01*
X118558557Y-76249250D01*
X118558542Y-76249255D01*
X118397267Y-76331433D01*
X118381465Y-76342912D01*
X118743850Y-76705297D01*
X118777335Y-76766620D01*
X118772351Y-76836312D01*
X118730479Y-76892245D01*
X118718171Y-76900364D01*
X118692996Y-76914899D01*
X118692990Y-76914903D01*
X118599903Y-77007990D01*
X118599899Y-77007996D01*
X118585364Y-77033171D01*
X118534796Y-77081385D01*
X118466189Y-77094607D01*
X118401325Y-77068638D01*
X118390297Y-77058850D01*
X118027913Y-76696466D01*
X118027912Y-76696466D01*
X118016433Y-76712267D01*
X117934255Y-76873542D01*
X117934250Y-76873557D01*
X117878317Y-77045704D01*
X117850000Y-77224487D01*
X108000000Y-77224487D01*
X108000000Y-75649680D01*
X117899499Y-75649680D01*
X117914028Y-75722717D01*
X117914032Y-75722735D01*
X117914033Y-75722739D01*
X117917480Y-75728826D01*
X117920816Y-75732891D01*
X117969399Y-75805601D01*
X118052256Y-75860964D01*
X118052258Y-75860965D01*
X118052259Y-75860965D01*
X118052260Y-75860966D01*
X118052264Y-75860967D01*
X118052279Y-75860970D01*
X118052288Y-75860972D01*
X118097021Y-75869869D01*
X118117681Y-75873979D01*
X118120415Y-75874703D01*
X118125323Y-75875500D01*
X119874676Y-75875500D01*
X119878796Y-75875500D01*
X119886648Y-75873117D01*
X119947740Y-75860966D01*
X120030601Y-75805601D01*
X120085966Y-75722740D01*
X120100500Y-75649674D01*
X120100500Y-73900326D01*
X120100500Y-73900323D01*
X120100500Y-73900139D01*
X120100064Y-73898134D01*
X120085972Y-73827289D01*
X120085967Y-73827266D01*
X120085967Y-73827264D01*
X120085966Y-73827260D01*
X120085964Y-73827258D01*
X120085964Y-73827256D01*
X120080341Y-73818840D01*
X120050683Y-73774454D01*
X120030601Y-73744399D01*
X119991202Y-73718074D01*
X119957891Y-73695816D01*
X119953826Y-73692480D01*
X119947739Y-73689033D01*
X119947735Y-73689032D01*
X119947709Y-73689026D01*
X119874680Y-73674500D01*
X119874677Y-73674500D01*
X119874674Y-73674500D01*
X118125326Y-73674500D01*
X118125323Y-73674500D01*
X118125319Y-73674500D01*
X118052285Y-73689027D01*
X118052262Y-73689032D01*
X118052258Y-73689033D01*
X117969399Y-73744399D01*
X117914033Y-73827258D01*
X117914032Y-73827266D01*
X117914028Y-73827281D01*
X117899500Y-73900318D01*
X117899500Y-73900321D01*
X117899500Y-75649678D01*
X117899500Y-75649680D01*
X117899499Y-75649680D01*
X108000000Y-75649680D01*
X108000000Y-72536744D01*
X108005022Y-72501811D01*
X108005523Y-72500105D01*
X108008933Y-72488492D01*
X108046706Y-72429715D01*
X108110258Y-72400690D01*
X108115819Y-72399890D01*
X108120596Y-72399204D01*
X108164016Y-72400650D01*
X108451573Y-72461765D01*
X108816440Y-72500105D01*
X109183316Y-72500097D01*
X109547928Y-72461767D01*
X109547953Y-72461772D01*
X109547953Y-72461765D01*
X109574251Y-72459003D01*
X109580688Y-72455037D01*
X109587555Y-72453370D01*
X109903905Y-72386122D01*
X109910262Y-72384945D01*
X109911874Y-72384512D01*
X109917857Y-72381941D01*
X109991086Y-72358146D01*
X110023819Y-72347509D01*
X110058581Y-72341493D01*
X110074218Y-72341046D01*
X110141550Y-72358667D01*
X110141615Y-72358706D01*
X110186504Y-72405341D01*
X110191647Y-72414705D01*
X110202735Y-72442301D01*
X110207945Y-72461742D01*
X110207946Y-72461746D01*
X110243946Y-72596101D01*
X110336772Y-72820203D01*
X110336773Y-72820207D01*
X110336780Y-72820220D01*
X110458060Y-73030283D01*
X110458062Y-73030286D01*
X110458281Y-73030615D01*
X110459284Y-73031879D01*
X110605726Y-73222728D01*
X110605730Y-73222733D01*
X110605733Y-73222736D01*
X110605739Y-73222743D01*
X110605747Y-73222751D01*
X110777242Y-73394247D01*
X110777256Y-73394260D01*
X110777262Y-73394265D01*
X110969711Y-73541936D01*
X111179788Y-73663224D01*
X111403900Y-73756054D01*
X111638211Y-73818838D01*
X111818586Y-73842584D01*
X111878710Y-73850500D01*
X111878711Y-73850500D01*
X111878712Y-73850500D01*
X112121283Y-73850500D01*
X112121289Y-73850500D01*
X112169388Y-73844167D01*
X112361789Y-73818838D01*
X112596100Y-73756054D01*
X112820212Y-73663224D01*
X113030289Y-73541936D01*
X113222738Y-73394265D01*
X113394265Y-73222738D01*
X113541936Y-73030289D01*
X113663224Y-72820212D01*
X113756054Y-72596100D01*
X113818838Y-72361789D01*
X113850500Y-72121288D01*
X113850500Y-71878712D01*
X113818838Y-71638211D01*
X113756054Y-71403900D01*
X113663224Y-71179788D01*
X113541936Y-70969711D01*
X113394265Y-70777262D01*
X113394260Y-70777256D01*
X113394247Y-70777242D01*
X113222751Y-70605747D01*
X113222743Y-70605739D01*
X113222736Y-70605733D01*
X113222733Y-70605730D01*
X113222728Y-70605726D01*
X113031879Y-70459284D01*
X113030615Y-70458281D01*
X113030286Y-70458062D01*
X113030283Y-70458060D01*
X112820220Y-70336780D01*
X112820207Y-70336773D01*
X112820203Y-70336772D01*
X112764179Y-70313566D01*
X112596104Y-70243947D01*
X112584893Y-70240942D01*
X112576059Y-70238575D01*
X112576058Y-70238575D01*
X112483422Y-70213753D01*
X112445059Y-70203474D01*
X112412616Y-70189581D01*
X112399271Y-70181447D01*
X112352272Y-70129747D01*
X112352251Y-70129703D01*
X112352218Y-70129635D01*
X112340113Y-70066354D01*
X112340901Y-70055696D01*
X112346631Y-70026523D01*
X112385456Y-69907042D01*
X112426710Y-69712974D01*
X112461741Y-69548181D01*
X112494553Y-69236059D01*
X112500096Y-69183326D01*
X112500097Y-69183315D01*
X112500098Y-69128004D01*
X112500105Y-68816440D01*
X112461765Y-68451573D01*
X112401330Y-68167215D01*
X112398982Y-68132002D01*
X112400038Y-68118165D01*
X112424766Y-68052818D01*
X112480899Y-68011214D01*
X112480902Y-68011213D01*
X112490700Y-68007612D01*
X112533476Y-68000000D01*
X163620500Y-68000000D01*
X163687539Y-68019685D01*
G37*
%TD.AperFunction*%
%TA.AperFunction,Conductor*%
G36*
X166054604Y-130709224D02*
G01*
X166098103Y-130720880D01*
X166128008Y-130733268D01*
X166166991Y-130755775D01*
X166171758Y-130760774D01*
X166192668Y-130775477D01*
X166224518Y-130807326D01*
X166244223Y-130833007D01*
X166266732Y-130871995D01*
X166279118Y-130901896D01*
X166290774Y-130945392D01*
X166290683Y-130949206D01*
X166292471Y-130952575D01*
X166295000Y-130977489D01*
X166295000Y-131022509D01*
X166290774Y-131054605D01*
X166279119Y-131098099D01*
X166266732Y-131128004D01*
X166244219Y-131166997D01*
X166241459Y-131169628D01*
X166240342Y-131173272D01*
X166224513Y-131192677D01*
X166192677Y-131224513D01*
X166166996Y-131244219D01*
X166128001Y-131266733D01*
X166098098Y-131279120D01*
X166077951Y-131284518D01*
X166054606Y-131290774D01*
X166022513Y-131295000D01*
X165977489Y-131295000D01*
X165945393Y-131290774D01*
X165901900Y-131279119D01*
X165871997Y-131266733D01*
X165852500Y-131255477D01*
X165833002Y-131244219D01*
X165807325Y-131224516D01*
X165775477Y-131192668D01*
X165755776Y-131166993D01*
X165733267Y-131128007D01*
X165720879Y-131098098D01*
X165709225Y-131054603D01*
X165709315Y-131050791D01*
X165707529Y-131047425D01*
X165705000Y-131022511D01*
X165705000Y-130977487D01*
X165709225Y-130945395D01*
X165720880Y-130901896D01*
X165733265Y-130871995D01*
X165755781Y-130832996D01*
X165759025Y-130828769D01*
X165759649Y-130826734D01*
X165762322Y-130824472D01*
X165775476Y-130807330D01*
X165807328Y-130775478D01*
X165833000Y-130755778D01*
X165871994Y-130733265D01*
X165901900Y-130720879D01*
X165945397Y-130709225D01*
X165977488Y-130705000D01*
X166022511Y-130705000D01*
X166054604Y-130709224D01*
G37*
%TD.AperFunction*%
%TA.AperFunction,Conductor*%
G36*
X174054604Y-130709224D02*
G01*
X174098103Y-130720880D01*
X174128008Y-130733268D01*
X174166991Y-130755775D01*
X174171758Y-130760774D01*
X174192668Y-130775477D01*
X174224518Y-130807326D01*
X174244223Y-130833007D01*
X174266732Y-130871995D01*
X174279118Y-130901896D01*
X174290774Y-130945392D01*
X174290683Y-130949206D01*
X174292471Y-130952575D01*
X174295000Y-130977489D01*
X174295000Y-131022509D01*
X174290774Y-131054605D01*
X174279119Y-131098099D01*
X174266732Y-131128004D01*
X174244219Y-131166997D01*
X174241459Y-131169628D01*
X174240342Y-131173272D01*
X174224513Y-131192677D01*
X174192677Y-131224513D01*
X174166996Y-131244219D01*
X174128001Y-131266733D01*
X174098098Y-131279120D01*
X174077951Y-131284518D01*
X174054606Y-131290774D01*
X174022513Y-131295000D01*
X173977489Y-131295000D01*
X173945393Y-131290774D01*
X173901900Y-131279119D01*
X173871997Y-131266733D01*
X173852500Y-131255477D01*
X173833002Y-131244219D01*
X173807325Y-131224516D01*
X173775477Y-131192668D01*
X173755776Y-131166993D01*
X173733267Y-131128007D01*
X173720879Y-131098098D01*
X173709225Y-131054603D01*
X173709315Y-131050791D01*
X173707529Y-131047425D01*
X173705000Y-131022511D01*
X173705000Y-130977487D01*
X173709225Y-130945395D01*
X173720880Y-130901896D01*
X173733265Y-130871995D01*
X173755781Y-130832996D01*
X173759025Y-130828769D01*
X173759649Y-130826734D01*
X173762322Y-130824472D01*
X173775476Y-130807330D01*
X173807328Y-130775478D01*
X173833000Y-130755778D01*
X173871994Y-130733265D01*
X173901900Y-130720879D01*
X173945397Y-130709225D01*
X173977488Y-130705000D01*
X174022511Y-130705000D01*
X174054604Y-130709224D01*
G37*
%TD.AperFunction*%
%TA.AperFunction,Conductor*%
G36*
X182054604Y-130709224D02*
G01*
X182098103Y-130720880D01*
X182128008Y-130733268D01*
X182166991Y-130755775D01*
X182171758Y-130760774D01*
X182192668Y-130775477D01*
X182224518Y-130807326D01*
X182244223Y-130833007D01*
X182266732Y-130871995D01*
X182279118Y-130901896D01*
X182290774Y-130945392D01*
X182290683Y-130949206D01*
X182292471Y-130952575D01*
X182295000Y-130977489D01*
X182295000Y-131022509D01*
X182290774Y-131054605D01*
X182279119Y-131098099D01*
X182266732Y-131128004D01*
X182244219Y-131166997D01*
X182241459Y-131169628D01*
X182240342Y-131173272D01*
X182224513Y-131192677D01*
X182192677Y-131224513D01*
X182166996Y-131244219D01*
X182128001Y-131266733D01*
X182098098Y-131279120D01*
X182077951Y-131284518D01*
X182054606Y-131290774D01*
X182022513Y-131295000D01*
X181977489Y-131295000D01*
X181945393Y-131290774D01*
X181901900Y-131279119D01*
X181871997Y-131266733D01*
X181852500Y-131255477D01*
X181833002Y-131244219D01*
X181807325Y-131224516D01*
X181775477Y-131192668D01*
X181755776Y-131166993D01*
X181733267Y-131128007D01*
X181720879Y-131098098D01*
X181709225Y-131054603D01*
X181709315Y-131050791D01*
X181707529Y-131047425D01*
X181705000Y-131022511D01*
X181705000Y-130977487D01*
X181709225Y-130945395D01*
X181720880Y-130901896D01*
X181733265Y-130871995D01*
X181755781Y-130832996D01*
X181759025Y-130828769D01*
X181759649Y-130826734D01*
X181762322Y-130824472D01*
X181775476Y-130807330D01*
X181807328Y-130775478D01*
X181833000Y-130755778D01*
X181871994Y-130733265D01*
X181901900Y-130720879D01*
X181945397Y-130709225D01*
X181977488Y-130705000D01*
X182022511Y-130705000D01*
X182054604Y-130709224D01*
G37*
%TD.AperFunction*%
%TA.AperFunction,Conductor*%
G36*
X190054604Y-130709224D02*
G01*
X190098103Y-130720880D01*
X190128008Y-130733268D01*
X190166991Y-130755775D01*
X190171758Y-130760774D01*
X190192668Y-130775477D01*
X190224518Y-130807326D01*
X190244223Y-130833007D01*
X190266732Y-130871995D01*
X190279118Y-130901896D01*
X190290774Y-130945392D01*
X190290683Y-130949206D01*
X190292471Y-130952575D01*
X190295000Y-130977489D01*
X190295000Y-131022509D01*
X190290774Y-131054605D01*
X190279119Y-131098099D01*
X190266732Y-131128004D01*
X190244219Y-131166997D01*
X190241459Y-131169628D01*
X190240342Y-131173272D01*
X190224513Y-131192677D01*
X190192677Y-131224513D01*
X190166996Y-131244219D01*
X190128001Y-131266733D01*
X190098098Y-131279120D01*
X190077951Y-131284518D01*
X190054606Y-131290774D01*
X190022513Y-131295000D01*
X189977489Y-131295000D01*
X189945393Y-131290774D01*
X189901900Y-131279119D01*
X189871997Y-131266733D01*
X189852500Y-131255477D01*
X189833002Y-131244219D01*
X189807325Y-131224516D01*
X189775477Y-131192668D01*
X189755776Y-131166993D01*
X189733267Y-131128007D01*
X189720879Y-131098098D01*
X189709225Y-131054603D01*
X189709315Y-131050791D01*
X189707529Y-131047425D01*
X189705000Y-131022511D01*
X189705000Y-130977487D01*
X189709225Y-130945395D01*
X189720880Y-130901896D01*
X189733265Y-130871995D01*
X189755781Y-130832996D01*
X189759025Y-130828769D01*
X189759649Y-130826734D01*
X189762322Y-130824472D01*
X189775476Y-130807330D01*
X189807328Y-130775478D01*
X189833000Y-130755778D01*
X189871994Y-130733265D01*
X189901900Y-130720879D01*
X189945397Y-130709225D01*
X189977488Y-130705000D01*
X190022511Y-130705000D01*
X190054604Y-130709224D01*
G37*
%TD.AperFunction*%
%TA.AperFunction,Conductor*%
G36*
X167554604Y-123799224D02*
G01*
X167598103Y-123810880D01*
X167628008Y-123823268D01*
X167666988Y-123845773D01*
X167671755Y-123850773D01*
X167692669Y-123865479D01*
X167692689Y-123865499D01*
X167692690Y-123865499D01*
X167724515Y-123897323D01*
X167744222Y-123923006D01*
X167766731Y-123961993D01*
X167779118Y-123991896D01*
X167790774Y-124035392D01*
X167790683Y-124039206D01*
X167792471Y-124042575D01*
X167795000Y-124067489D01*
X167795000Y-124112509D01*
X167790774Y-124144605D01*
X167779119Y-124188099D01*
X167766732Y-124218004D01*
X167744219Y-124256997D01*
X167741459Y-124259628D01*
X167740342Y-124263272D01*
X167724513Y-124282677D01*
X167692677Y-124314513D01*
X167666996Y-124334219D01*
X167628001Y-124356733D01*
X167598098Y-124369120D01*
X167577951Y-124374518D01*
X167554606Y-124380774D01*
X167522513Y-124385000D01*
X167477489Y-124385000D01*
X167445393Y-124380774D01*
X167401900Y-124369119D01*
X167371997Y-124356733D01*
X167352500Y-124345477D01*
X167333002Y-124334219D01*
X167307325Y-124314516D01*
X167275477Y-124282668D01*
X167255776Y-124256993D01*
X167233267Y-124218007D01*
X167220879Y-124188098D01*
X167209225Y-124144603D01*
X167209315Y-124140791D01*
X167207529Y-124137425D01*
X167205000Y-124112511D01*
X167205000Y-124067487D01*
X167209225Y-124035395D01*
X167220880Y-123991896D01*
X167233266Y-123961993D01*
X167255781Y-123922996D01*
X167259023Y-123918770D01*
X167259648Y-123916735D01*
X167262321Y-123914472D01*
X167275476Y-123897330D01*
X167307328Y-123865478D01*
X167333000Y-123845778D01*
X167371994Y-123823265D01*
X167401900Y-123810879D01*
X167445397Y-123799225D01*
X167477488Y-123795000D01*
X167522511Y-123795000D01*
X167554604Y-123799224D01*
G37*
%TD.AperFunction*%
%TA.AperFunction,Conductor*%
G36*
X167154604Y-119049225D02*
G01*
X167198098Y-119060879D01*
X167228006Y-119073267D01*
X167266994Y-119095777D01*
X167269624Y-119098535D01*
X167273269Y-119099653D01*
X167292668Y-119115477D01*
X167324517Y-119147326D01*
X167344220Y-119173002D01*
X167366728Y-119211987D01*
X167366733Y-119211996D01*
X167379119Y-119241899D01*
X167390774Y-119285393D01*
X167390683Y-119289206D01*
X167392471Y-119292575D01*
X167395000Y-119317489D01*
X167395000Y-119362509D01*
X167390774Y-119394605D01*
X167379119Y-119438099D01*
X167366732Y-119468004D01*
X167344219Y-119506997D01*
X167324513Y-119532677D01*
X167292676Y-119564514D01*
X167266996Y-119584220D01*
X167228003Y-119606733D01*
X167198099Y-119619119D01*
X167154605Y-119630774D01*
X167122513Y-119635000D01*
X167077489Y-119635000D01*
X167045393Y-119630774D01*
X167001900Y-119619119D01*
X166971997Y-119606733D01*
X166952500Y-119595477D01*
X166933003Y-119584220D01*
X166930373Y-119581462D01*
X166926729Y-119580345D01*
X166907326Y-119564518D01*
X166875477Y-119532668D01*
X166855776Y-119506993D01*
X166833267Y-119468007D01*
X166820879Y-119438098D01*
X166809225Y-119394603D01*
X166809315Y-119390791D01*
X166807529Y-119387425D01*
X166805000Y-119362511D01*
X166805000Y-119317487D01*
X166809225Y-119285395D01*
X166820880Y-119241896D01*
X166833264Y-119211996D01*
X166855781Y-119172996D01*
X166875476Y-119147330D01*
X166907328Y-119115478D01*
X166933003Y-119095777D01*
X166971994Y-119073265D01*
X167001900Y-119060879D01*
X167045397Y-119049225D01*
X167077488Y-119045000D01*
X167122511Y-119045000D01*
X167154604Y-119049225D01*
G37*
%TD.AperFunction*%
%TA.AperFunction,Conductor*%
G36*
X172119604Y-117496224D02*
G01*
X172163103Y-117507880D01*
X172193008Y-117520268D01*
X172231991Y-117542775D01*
X172236758Y-117547774D01*
X172257668Y-117562477D01*
X172289518Y-117594326D01*
X172309223Y-117620007D01*
X172331732Y-117658995D01*
X172344118Y-117688896D01*
X172355774Y-117732392D01*
X172355683Y-117736206D01*
X172357471Y-117739575D01*
X172360000Y-117764489D01*
X172360000Y-117809509D01*
X172355774Y-117841605D01*
X172344119Y-117885099D01*
X172331732Y-117915004D01*
X172309219Y-117953997D01*
X172306459Y-117956628D01*
X172305342Y-117960272D01*
X172289513Y-117979677D01*
X172257677Y-118011513D01*
X172231996Y-118031219D01*
X172193001Y-118053733D01*
X172163098Y-118066120D01*
X172142951Y-118071518D01*
X172119606Y-118077774D01*
X172087513Y-118082000D01*
X172042489Y-118082000D01*
X172010393Y-118077774D01*
X171966900Y-118066119D01*
X171936997Y-118053733D01*
X171917500Y-118042477D01*
X171898002Y-118031219D01*
X171872325Y-118011516D01*
X171840477Y-117979668D01*
X171820776Y-117953993D01*
X171798267Y-117915007D01*
X171785879Y-117885098D01*
X171774225Y-117841603D01*
X171774315Y-117837791D01*
X171772529Y-117834425D01*
X171770000Y-117809511D01*
X171770000Y-117764487D01*
X171774225Y-117732395D01*
X171785880Y-117688896D01*
X171798265Y-117658995D01*
X171820781Y-117619996D01*
X171824025Y-117615769D01*
X171824649Y-117613734D01*
X171827322Y-117611472D01*
X171840476Y-117594330D01*
X171872328Y-117562478D01*
X171898000Y-117542778D01*
X171936994Y-117520265D01*
X171966900Y-117507879D01*
X172010397Y-117496225D01*
X172042488Y-117492000D01*
X172087511Y-117492000D01*
X172119604Y-117496224D01*
G37*
%TD.AperFunction*%
%TA.AperFunction,Conductor*%
G36*
X189079604Y-115794224D02*
G01*
X189123103Y-115805880D01*
X189153008Y-115818268D01*
X189191991Y-115840775D01*
X189196758Y-115845775D01*
X189217668Y-115860477D01*
X189249518Y-115892327D01*
X189269223Y-115918007D01*
X189291732Y-115956995D01*
X189304118Y-115986896D01*
X189315774Y-116030392D01*
X189315609Y-116037299D01*
X189320000Y-116062489D01*
X189320000Y-116138638D01*
X189300315Y-116205677D01*
X189283681Y-116226319D01*
X189275000Y-116235000D01*
X189275000Y-116772749D01*
X189255315Y-116839788D01*
X189202511Y-116885543D01*
X189133353Y-116895487D01*
X189118908Y-116892524D01*
X189090828Y-116885000D01*
X189090826Y-116885000D01*
X188959174Y-116885000D01*
X188959171Y-116885000D01*
X188931092Y-116892524D01*
X188861242Y-116890861D01*
X188803380Y-116851698D01*
X188775877Y-116787469D01*
X188775000Y-116772749D01*
X188775000Y-116235000D01*
X188766319Y-116226319D01*
X188732834Y-116164996D01*
X188730000Y-116138638D01*
X188730000Y-116062487D01*
X188734225Y-116030395D01*
X188745879Y-115986900D01*
X188758265Y-115956995D01*
X188780779Y-115917999D01*
X188784027Y-115913767D01*
X188784652Y-115911730D01*
X188787327Y-115909466D01*
X188800479Y-115892327D01*
X188832328Y-115860478D01*
X188858000Y-115840778D01*
X188896994Y-115818265D01*
X188926900Y-115805879D01*
X188970397Y-115794225D01*
X188975691Y-115793527D01*
X188977574Y-115792529D01*
X188981065Y-115792820D01*
X189002488Y-115790000D01*
X189047511Y-115790000D01*
X189079604Y-115794224D01*
G37*
%TD.AperFunction*%
%TA.AperFunction,Conductor*%
G36*
X167156719Y-114256553D02*
G01*
X167220447Y-114271437D01*
X167268201Y-114319924D01*
X167275957Y-114334129D01*
X167309778Y-114379308D01*
X167319537Y-114392345D01*
X167324505Y-114397313D01*
X167324518Y-114397326D01*
X167326343Y-114400669D01*
X167329570Y-114402689D01*
X167344217Y-114423001D01*
X167366732Y-114461997D01*
X167379120Y-114491903D01*
X167390774Y-114535394D01*
X167395000Y-114567489D01*
X167395000Y-114612509D01*
X167393926Y-114616165D01*
X167394781Y-114619881D01*
X167390774Y-114644605D01*
X167379119Y-114688099D01*
X167366732Y-114718004D01*
X167344219Y-114756997D01*
X167324513Y-114782677D01*
X167292677Y-114814513D01*
X167266996Y-114834219D01*
X167228001Y-114856733D01*
X167198098Y-114869120D01*
X167177951Y-114874518D01*
X167154606Y-114880774D01*
X167122513Y-114885000D01*
X167077489Y-114885000D01*
X167045393Y-114880774D01*
X167001900Y-114869119D01*
X166971997Y-114856733D01*
X166952500Y-114845477D01*
X166933002Y-114834219D01*
X166907325Y-114814516D01*
X166875477Y-114782668D01*
X166855776Y-114756993D01*
X166833267Y-114718007D01*
X166820879Y-114688098D01*
X166809225Y-114644603D01*
X166805000Y-114612511D01*
X166805000Y-114567487D01*
X166809225Y-114535395D01*
X166820879Y-114491899D01*
X166833267Y-114461992D01*
X166855773Y-114423010D01*
X166875491Y-114397316D01*
X166880459Y-114392349D01*
X166886783Y-114385795D01*
X166892815Y-114379317D01*
X166932503Y-114319924D01*
X166938729Y-114310607D01*
X166992342Y-114265803D01*
X167041829Y-114255500D01*
X167156719Y-114255500D01*
X167156719Y-114256553D01*
G37*
%TD.AperFunction*%
%TA.AperFunction,Conductor*%
G36*
X181804606Y-112513224D02*
G01*
X181856485Y-112527125D01*
X181861301Y-112530060D01*
X181866933Y-112530425D01*
X181901039Y-112549425D01*
X181906494Y-112553715D01*
X181916991Y-112559775D01*
X181921758Y-112564775D01*
X181942674Y-112579482D01*
X181974513Y-112611321D01*
X181994219Y-112637001D01*
X182016732Y-112675994D01*
X182029119Y-112705899D01*
X182040774Y-112749393D01*
X182045000Y-112781489D01*
X182045000Y-112826509D01*
X182040774Y-112858605D01*
X182029119Y-112902099D01*
X182016732Y-112932004D01*
X181994219Y-112970997D01*
X181974513Y-112996677D01*
X181942677Y-113028513D01*
X181916996Y-113048219D01*
X181878001Y-113070733D01*
X181874295Y-113071631D01*
X181871505Y-113074230D01*
X181848098Y-113083120D01*
X181827951Y-113088518D01*
X181804606Y-113094774D01*
X181772513Y-113099000D01*
X181727487Y-113099000D01*
X181695393Y-113094774D01*
X181651896Y-113083118D01*
X181621995Y-113070733D01*
X181583003Y-113048221D01*
X181557324Y-113028516D01*
X181525483Y-112996675D01*
X181505776Y-112970993D01*
X181495491Y-112953179D01*
X181483265Y-112932002D01*
X181470878Y-112902096D01*
X181459225Y-112858605D01*
X181455000Y-112826512D01*
X181455000Y-112781486D01*
X181459225Y-112749394D01*
X181470879Y-112705899D01*
X181483266Y-112675992D01*
X181483505Y-112675577D01*
X181505780Y-112636996D01*
X181509030Y-112632761D01*
X181509655Y-112630724D01*
X181512329Y-112628461D01*
X181525477Y-112611326D01*
X181557331Y-112579473D01*
X181582994Y-112559781D01*
X181622003Y-112537259D01*
X181651892Y-112524880D01*
X181695395Y-112513223D01*
X181727485Y-112509000D01*
X181772515Y-112509000D01*
X181804606Y-112513224D01*
G37*
%TD.AperFunction*%
%TA.AperFunction,Conductor*%
G36*
X188054606Y-107024224D02*
G01*
X188106486Y-107038125D01*
X188151040Y-107060426D01*
X188156494Y-107064715D01*
X188166991Y-107070775D01*
X188171756Y-107075773D01*
X188192674Y-107090482D01*
X188224513Y-107122321D01*
X188244219Y-107148001D01*
X188266732Y-107186994D01*
X188279119Y-107216899D01*
X188290774Y-107260393D01*
X188290609Y-107267299D01*
X188295000Y-107292489D01*
X188295000Y-107368638D01*
X188275315Y-107435677D01*
X188258681Y-107456319D01*
X188250000Y-107465000D01*
X188250000Y-108002749D01*
X188230315Y-108069788D01*
X188177511Y-108115543D01*
X188108353Y-108125487D01*
X188093908Y-108122524D01*
X188065828Y-108115000D01*
X188065826Y-108115000D01*
X187934174Y-108115000D01*
X187934171Y-108115000D01*
X187906092Y-108122524D01*
X187836242Y-108120861D01*
X187778380Y-108081698D01*
X187750877Y-108017469D01*
X187750000Y-108002749D01*
X187750000Y-107465000D01*
X187741319Y-107456319D01*
X187707834Y-107394996D01*
X187705000Y-107368638D01*
X187705000Y-107292483D01*
X187709223Y-107260398D01*
X187720879Y-107216892D01*
X187733265Y-107186994D01*
X187755780Y-107147996D01*
X187759029Y-107143762D01*
X187759654Y-107141725D01*
X187762328Y-107139462D01*
X187775476Y-107122327D01*
X187807331Y-107090473D01*
X187832994Y-107070781D01*
X187872003Y-107048259D01*
X187901892Y-107035880D01*
X187945395Y-107024223D01*
X187950689Y-107023527D01*
X187952570Y-107022529D01*
X187956059Y-107022820D01*
X187977485Y-107020000D01*
X188022515Y-107020000D01*
X188054606Y-107024224D01*
G37*
%TD.AperFunction*%
%TA.AperFunction,Conductor*%
G36*
X167554606Y-105650224D02*
G01*
X167606486Y-105664125D01*
X167651040Y-105686426D01*
X167656494Y-105690715D01*
X167666991Y-105696775D01*
X167671758Y-105701775D01*
X167692674Y-105716482D01*
X167724513Y-105748321D01*
X167744219Y-105774001D01*
X167766732Y-105812994D01*
X167779119Y-105842899D01*
X167790774Y-105886393D01*
X167790683Y-105890206D01*
X167792471Y-105893575D01*
X167795000Y-105918489D01*
X167795000Y-105963509D01*
X167790774Y-105995605D01*
X167779119Y-106039099D01*
X167766732Y-106069004D01*
X167744219Y-106107997D01*
X167741460Y-106110627D01*
X167740343Y-106114271D01*
X167724513Y-106133677D01*
X167692677Y-106165513D01*
X167666996Y-106185219D01*
X167628001Y-106207733D01*
X167598098Y-106220120D01*
X167577951Y-106225518D01*
X167554606Y-106231774D01*
X167522513Y-106236000D01*
X167477487Y-106236000D01*
X167445393Y-106231774D01*
X167401896Y-106220118D01*
X167371995Y-106207733D01*
X167333003Y-106185221D01*
X167307324Y-106165516D01*
X167275483Y-106133675D01*
X167255779Y-106107997D01*
X167233261Y-106068995D01*
X167220878Y-106039098D01*
X167209223Y-105995601D01*
X167205000Y-105963514D01*
X167205000Y-105918486D01*
X167209225Y-105886394D01*
X167220879Y-105842899D01*
X167233266Y-105812992D01*
X167233505Y-105812577D01*
X167255780Y-105773996D01*
X167259030Y-105769761D01*
X167259655Y-105767724D01*
X167262329Y-105765461D01*
X167275477Y-105748326D01*
X167307331Y-105716473D01*
X167332994Y-105696781D01*
X167372003Y-105674259D01*
X167401892Y-105661880D01*
X167445395Y-105650223D01*
X167477485Y-105646000D01*
X167522515Y-105646000D01*
X167554606Y-105650224D01*
G37*
%TD.AperFunction*%
%TA.AperFunction,Conductor*%
G36*
X167554604Y-100900225D02*
G01*
X167593847Y-100910739D01*
X167606484Y-100914125D01*
X167611300Y-100917060D01*
X167616933Y-100917425D01*
X167651040Y-100936426D01*
X167656492Y-100940714D01*
X167666990Y-100946775D01*
X167666997Y-100946779D01*
X167671764Y-100951779D01*
X167692676Y-100966484D01*
X167724514Y-100998322D01*
X167744221Y-101024004D01*
X167766733Y-101062997D01*
X167779119Y-101092900D01*
X167790774Y-101136393D01*
X167795000Y-101168489D01*
X167795000Y-101213509D01*
X167790774Y-101245605D01*
X167779119Y-101289099D01*
X167766732Y-101319004D01*
X167744219Y-101357997D01*
X167724513Y-101383677D01*
X167692677Y-101415513D01*
X167666996Y-101435219D01*
X167628001Y-101457733D01*
X167624295Y-101458631D01*
X167621505Y-101461230D01*
X167598098Y-101470120D01*
X167577951Y-101475518D01*
X167554606Y-101481774D01*
X167522513Y-101486000D01*
X167477487Y-101486000D01*
X167445393Y-101481774D01*
X167401896Y-101470118D01*
X167371995Y-101457733D01*
X167333003Y-101435221D01*
X167307324Y-101415516D01*
X167275484Y-101383676D01*
X167255778Y-101357995D01*
X167233265Y-101319001D01*
X167220877Y-101289093D01*
X167209225Y-101245605D01*
X167205000Y-101213513D01*
X167205000Y-101168486D01*
X167209225Y-101136394D01*
X167220879Y-101092899D01*
X167233266Y-101062992D01*
X167233505Y-101062577D01*
X167255780Y-101023996D01*
X167259029Y-101019761D01*
X167259655Y-101017723D01*
X167262331Y-101015459D01*
X167275477Y-100998326D01*
X167307331Y-100966473D01*
X167332994Y-100946781D01*
X167372003Y-100924259D01*
X167401892Y-100911880D01*
X167445395Y-100900223D01*
X167477485Y-100896000D01*
X167522513Y-100896000D01*
X167554604Y-100900225D01*
G37*
%TD.AperFunction*%
%TA.AperFunction,Conductor*%
G36*
X171254604Y-98797225D02*
G01*
X171293847Y-98807739D01*
X171306484Y-98811125D01*
X171311300Y-98814060D01*
X171316933Y-98814425D01*
X171351040Y-98833426D01*
X171356492Y-98837714D01*
X171366990Y-98843775D01*
X171366997Y-98843779D01*
X171371764Y-98848779D01*
X171392676Y-98863484D01*
X171424514Y-98895322D01*
X171444221Y-98921004D01*
X171466733Y-98959997D01*
X171479119Y-98989900D01*
X171490774Y-99033393D01*
X171495000Y-99065489D01*
X171495000Y-99110509D01*
X171490774Y-99142605D01*
X171479119Y-99186099D01*
X171466732Y-99216004D01*
X171444219Y-99254997D01*
X171424513Y-99280677D01*
X171392677Y-99312513D01*
X171366996Y-99332219D01*
X171328001Y-99354733D01*
X171324295Y-99355631D01*
X171321505Y-99358230D01*
X171298098Y-99367120D01*
X171277951Y-99372518D01*
X171254606Y-99378774D01*
X171222513Y-99383000D01*
X171177487Y-99383000D01*
X171145393Y-99378774D01*
X171101896Y-99367118D01*
X171071995Y-99354733D01*
X171033003Y-99332221D01*
X171007324Y-99312516D01*
X170975484Y-99280676D01*
X170955778Y-99254995D01*
X170933265Y-99216001D01*
X170920877Y-99186093D01*
X170909225Y-99142605D01*
X170905000Y-99110513D01*
X170905000Y-99065486D01*
X170909225Y-99033394D01*
X170920879Y-98989899D01*
X170933266Y-98959992D01*
X170933505Y-98959577D01*
X170955780Y-98920996D01*
X170959029Y-98916761D01*
X170959655Y-98914723D01*
X170962331Y-98912459D01*
X170975477Y-98895326D01*
X171007331Y-98863473D01*
X171032994Y-98843781D01*
X171072003Y-98821259D01*
X171101892Y-98808880D01*
X171145395Y-98797223D01*
X171177485Y-98793000D01*
X171222513Y-98793000D01*
X171254604Y-98797225D01*
G37*
%TD.AperFunction*%
%TA.AperFunction,Conductor*%
G36*
X167554606Y-96150224D02*
G01*
X167606486Y-96164125D01*
X167651040Y-96186426D01*
X167656494Y-96190715D01*
X167666991Y-96196775D01*
X167671758Y-96201775D01*
X167692674Y-96216482D01*
X167724513Y-96248321D01*
X167744219Y-96274001D01*
X167766732Y-96312994D01*
X167779119Y-96342899D01*
X167790774Y-96386393D01*
X167790683Y-96390206D01*
X167792471Y-96393575D01*
X167795000Y-96418489D01*
X167795000Y-96463509D01*
X167790774Y-96495605D01*
X167779119Y-96539099D01*
X167766732Y-96569004D01*
X167744219Y-96607997D01*
X167741460Y-96610627D01*
X167740343Y-96614271D01*
X167724513Y-96633677D01*
X167692677Y-96665513D01*
X167666996Y-96685219D01*
X167628001Y-96707733D01*
X167598098Y-96720120D01*
X167577951Y-96725518D01*
X167554606Y-96731774D01*
X167522513Y-96736000D01*
X167477487Y-96736000D01*
X167445393Y-96731774D01*
X167401896Y-96720118D01*
X167371995Y-96707733D01*
X167333003Y-96685221D01*
X167307324Y-96665516D01*
X167275483Y-96633675D01*
X167255779Y-96607997D01*
X167233261Y-96568995D01*
X167220878Y-96539098D01*
X167209223Y-96495601D01*
X167205000Y-96463514D01*
X167205000Y-96418486D01*
X167209225Y-96386394D01*
X167220879Y-96342899D01*
X167233266Y-96312992D01*
X167233505Y-96312577D01*
X167255780Y-96273996D01*
X167259030Y-96269761D01*
X167259655Y-96267724D01*
X167262329Y-96265461D01*
X167275477Y-96248326D01*
X167307331Y-96216473D01*
X167332994Y-96196781D01*
X167372003Y-96174259D01*
X167401892Y-96161880D01*
X167445395Y-96150223D01*
X167477485Y-96146000D01*
X167522515Y-96146000D01*
X167554606Y-96150224D01*
G37*
%TD.AperFunction*%
%TA.AperFunction,Conductor*%
G36*
X167554604Y-83400225D02*
G01*
X167598098Y-83411879D01*
X167603994Y-83415473D01*
X167628006Y-83424267D01*
X167666994Y-83446777D01*
X167692669Y-83466478D01*
X167724517Y-83498326D01*
X167744220Y-83524002D01*
X167766728Y-83562987D01*
X167766733Y-83562996D01*
X167767631Y-83566701D01*
X167770229Y-83569491D01*
X167779119Y-83592899D01*
X167790774Y-83636393D01*
X167795000Y-83668489D01*
X167795000Y-83713509D01*
X167790774Y-83745605D01*
X167779119Y-83789099D01*
X167766732Y-83819004D01*
X167744219Y-83857997D01*
X167724513Y-83883677D01*
X167692677Y-83915513D01*
X167666996Y-83935219D01*
X167628001Y-83957733D01*
X167598098Y-83970120D01*
X167577951Y-83975518D01*
X167554606Y-83981774D01*
X167522513Y-83986000D01*
X167477489Y-83986000D01*
X167445393Y-83981774D01*
X167401900Y-83970119D01*
X167371997Y-83957733D01*
X167352500Y-83946477D01*
X167333002Y-83935219D01*
X167307325Y-83915516D01*
X167275477Y-83883668D01*
X167255776Y-83857993D01*
X167233267Y-83819007D01*
X167220879Y-83789098D01*
X167209225Y-83745603D01*
X167205000Y-83713511D01*
X167205000Y-83668487D01*
X167209225Y-83636395D01*
X167220880Y-83592896D01*
X167222925Y-83587956D01*
X167223002Y-83585825D01*
X167225001Y-83582945D01*
X167233264Y-83562996D01*
X167255781Y-83523996D01*
X167275476Y-83498330D01*
X167307328Y-83466478D01*
X167333003Y-83446777D01*
X167371994Y-83424265D01*
X167401900Y-83411879D01*
X167445397Y-83400225D01*
X167477488Y-83396000D01*
X167522511Y-83396000D01*
X167554604Y-83400225D01*
G37*
%TD.AperFunction*%
%TA.AperFunction,Conductor*%
G36*
X173191604Y-78796224D02*
G01*
X173235102Y-78807880D01*
X173238358Y-78809864D01*
X173242169Y-78810001D01*
X173265008Y-78820268D01*
X173303991Y-78842775D01*
X173329667Y-78862476D01*
X173361518Y-78894326D01*
X173381223Y-78920007D01*
X173403732Y-78958995D01*
X173405360Y-78965707D01*
X173416118Y-78988896D01*
X173427774Y-79032392D01*
X173432000Y-79064489D01*
X173432000Y-79109509D01*
X173427774Y-79141605D01*
X173416119Y-79185099D01*
X173403732Y-79215004D01*
X173381219Y-79253997D01*
X173361513Y-79279677D01*
X173329677Y-79311513D01*
X173303996Y-79331219D01*
X173265001Y-79353733D01*
X173261296Y-79354631D01*
X173258506Y-79357230D01*
X173235098Y-79366120D01*
X173214951Y-79371518D01*
X173191606Y-79377774D01*
X173159513Y-79382000D01*
X173114489Y-79382000D01*
X173082393Y-79377774D01*
X173038900Y-79366119D01*
X173008997Y-79353733D01*
X172989500Y-79342477D01*
X172970002Y-79331219D01*
X172944325Y-79311516D01*
X172912477Y-79279668D01*
X172892776Y-79253993D01*
X172873219Y-79220120D01*
X172870266Y-79215006D01*
X172857879Y-79185098D01*
X172846225Y-79141603D01*
X172842000Y-79109511D01*
X172842000Y-79064487D01*
X172846225Y-79032395D01*
X172857880Y-78988896D01*
X172870265Y-78958995D01*
X172892781Y-78919996D01*
X172912476Y-78894330D01*
X172944328Y-78862478D01*
X172970000Y-78842778D01*
X173008994Y-78820265D01*
X173013924Y-78818223D01*
X173015484Y-78816771D01*
X173018933Y-78816148D01*
X173038900Y-78807879D01*
X173082397Y-78796225D01*
X173114488Y-78792000D01*
X173159511Y-78792000D01*
X173191604Y-78796224D01*
G37*
%TD.AperFunction*%
%TA.AperFunction,Conductor*%
G36*
X167554604Y-78650225D02*
G01*
X167598098Y-78661879D01*
X167628006Y-78674267D01*
X167666994Y-78696777D01*
X167669624Y-78699535D01*
X167673269Y-78700653D01*
X167692668Y-78716477D01*
X167724517Y-78748326D01*
X167744220Y-78774002D01*
X167766728Y-78812987D01*
X167766733Y-78812996D01*
X167779119Y-78842899D01*
X167790774Y-78886393D01*
X167790683Y-78890206D01*
X167792471Y-78893575D01*
X167795000Y-78918489D01*
X167795000Y-78963511D01*
X167790774Y-78995606D01*
X167779120Y-79039097D01*
X167766732Y-79069004D01*
X167744218Y-79107998D01*
X167724513Y-79133677D01*
X167692677Y-79165513D01*
X167666996Y-79185219D01*
X167628001Y-79207733D01*
X167598098Y-79220120D01*
X167577951Y-79225518D01*
X167554606Y-79231774D01*
X167522513Y-79236000D01*
X167477489Y-79236000D01*
X167445393Y-79231774D01*
X167401900Y-79220119D01*
X167371997Y-79207733D01*
X167352500Y-79196477D01*
X167333003Y-79185220D01*
X167330373Y-79182462D01*
X167326729Y-79181345D01*
X167307326Y-79165518D01*
X167275477Y-79133668D01*
X167255776Y-79107993D01*
X167233267Y-79069007D01*
X167220879Y-79039098D01*
X167209225Y-78995603D01*
X167209315Y-78991791D01*
X167207529Y-78988425D01*
X167205000Y-78963511D01*
X167205000Y-78918487D01*
X167209225Y-78886395D01*
X167220880Y-78842896D01*
X167233264Y-78812996D01*
X167255781Y-78773996D01*
X167275476Y-78748330D01*
X167307328Y-78716478D01*
X167333003Y-78696777D01*
X167371994Y-78674265D01*
X167401900Y-78661879D01*
X167445397Y-78650225D01*
X167477488Y-78646000D01*
X167522511Y-78646000D01*
X167554604Y-78650225D01*
G37*
%TD.AperFunction*%
%TA.AperFunction,Conductor*%
G36*
X167554604Y-73900224D02*
G01*
X167598103Y-73911880D01*
X167628008Y-73924268D01*
X167666991Y-73946775D01*
X167671758Y-73951774D01*
X167692668Y-73966477D01*
X167724518Y-73998326D01*
X167744223Y-74024007D01*
X167766732Y-74062995D01*
X167779118Y-74092896D01*
X167790774Y-74136392D01*
X167790683Y-74140206D01*
X167792471Y-74143575D01*
X167795000Y-74168489D01*
X167795000Y-74213509D01*
X167790774Y-74245605D01*
X167779119Y-74289099D01*
X167766732Y-74319004D01*
X167744219Y-74357997D01*
X167741459Y-74360628D01*
X167740342Y-74364272D01*
X167724513Y-74383677D01*
X167692677Y-74415513D01*
X167666996Y-74435219D01*
X167628001Y-74457733D01*
X167598098Y-74470120D01*
X167577951Y-74475518D01*
X167554606Y-74481774D01*
X167522513Y-74486000D01*
X167477489Y-74486000D01*
X167445393Y-74481774D01*
X167401900Y-74470119D01*
X167371997Y-74457733D01*
X167352500Y-74446477D01*
X167333002Y-74435219D01*
X167307325Y-74415516D01*
X167275477Y-74383668D01*
X167255776Y-74357993D01*
X167233267Y-74319007D01*
X167220879Y-74289098D01*
X167209225Y-74245603D01*
X167209315Y-74241791D01*
X167207529Y-74238425D01*
X167205000Y-74213511D01*
X167205000Y-74168487D01*
X167209225Y-74136395D01*
X167220880Y-74092896D01*
X167233265Y-74062995D01*
X167255781Y-74023996D01*
X167259025Y-74019769D01*
X167259649Y-74017734D01*
X167262322Y-74015472D01*
X167275476Y-73998330D01*
X167307328Y-73966478D01*
X167333000Y-73946778D01*
X167371994Y-73924265D01*
X167401900Y-73911879D01*
X167445397Y-73900225D01*
X167477488Y-73896000D01*
X167522511Y-73896000D01*
X167554604Y-73900224D01*
G37*
%TD.AperFunction*%
%TA.AperFunction,Conductor*%
G36*
X166054604Y-68709224D02*
G01*
X166098103Y-68720880D01*
X166128008Y-68733268D01*
X166166991Y-68755775D01*
X166171758Y-68760774D01*
X166192668Y-68775477D01*
X166224518Y-68807326D01*
X166244223Y-68833007D01*
X166266732Y-68871995D01*
X166279118Y-68901896D01*
X166290774Y-68945392D01*
X166290683Y-68949206D01*
X166292471Y-68952575D01*
X166295000Y-68977489D01*
X166295000Y-69022509D01*
X166290774Y-69054605D01*
X166279119Y-69098099D01*
X166266732Y-69128004D01*
X166244219Y-69166997D01*
X166241459Y-69169628D01*
X166240342Y-69173272D01*
X166224513Y-69192677D01*
X166192677Y-69224513D01*
X166166996Y-69244219D01*
X166128001Y-69266733D01*
X166098098Y-69279120D01*
X166077951Y-69284518D01*
X166054606Y-69290774D01*
X166022513Y-69295000D01*
X165977489Y-69295000D01*
X165945393Y-69290774D01*
X165901900Y-69279119D01*
X165871997Y-69266733D01*
X165852500Y-69255477D01*
X165833002Y-69244219D01*
X165807325Y-69224516D01*
X165775477Y-69192668D01*
X165755776Y-69166993D01*
X165733267Y-69128007D01*
X165720879Y-69098098D01*
X165709225Y-69054603D01*
X165709315Y-69050791D01*
X165707529Y-69047425D01*
X165705000Y-69022511D01*
X165705000Y-68977487D01*
X165709225Y-68945395D01*
X165720880Y-68901896D01*
X165733265Y-68871995D01*
X165755781Y-68832996D01*
X165759025Y-68828769D01*
X165759649Y-68826734D01*
X165762322Y-68824472D01*
X165775476Y-68807330D01*
X165807328Y-68775478D01*
X165833000Y-68755778D01*
X165871994Y-68733265D01*
X165901900Y-68720879D01*
X165945397Y-68709225D01*
X165977488Y-68705000D01*
X166022511Y-68705000D01*
X166054604Y-68709224D01*
G37*
%TD.AperFunction*%
%TA.AperFunction,Conductor*%
G36*
X174054604Y-68709224D02*
G01*
X174098103Y-68720880D01*
X174128008Y-68733268D01*
X174166991Y-68755775D01*
X174171758Y-68760774D01*
X174192668Y-68775477D01*
X174224518Y-68807326D01*
X174244223Y-68833007D01*
X174266732Y-68871995D01*
X174279118Y-68901896D01*
X174290774Y-68945392D01*
X174290683Y-68949206D01*
X174292471Y-68952575D01*
X174295000Y-68977489D01*
X174295000Y-69022509D01*
X174290774Y-69054605D01*
X174279119Y-69098099D01*
X174266732Y-69128004D01*
X174244219Y-69166997D01*
X174241459Y-69169628D01*
X174240342Y-69173272D01*
X174224513Y-69192677D01*
X174192677Y-69224513D01*
X174166996Y-69244219D01*
X174128001Y-69266733D01*
X174098098Y-69279120D01*
X174077951Y-69284518D01*
X174054606Y-69290774D01*
X174022513Y-69295000D01*
X173977489Y-69295000D01*
X173945393Y-69290774D01*
X173901900Y-69279119D01*
X173871997Y-69266733D01*
X173852500Y-69255477D01*
X173833002Y-69244219D01*
X173807325Y-69224516D01*
X173775477Y-69192668D01*
X173755776Y-69166993D01*
X173733267Y-69128007D01*
X173720879Y-69098098D01*
X173709225Y-69054603D01*
X173709315Y-69050791D01*
X173707529Y-69047425D01*
X173705000Y-69022511D01*
X173705000Y-68977487D01*
X173709225Y-68945395D01*
X173720880Y-68901896D01*
X173733265Y-68871995D01*
X173755781Y-68832996D01*
X173759025Y-68828769D01*
X173759649Y-68826734D01*
X173762322Y-68824472D01*
X173775476Y-68807330D01*
X173807328Y-68775478D01*
X173833000Y-68755778D01*
X173871994Y-68733265D01*
X173901900Y-68720879D01*
X173945397Y-68709225D01*
X173977488Y-68705000D01*
X174022511Y-68705000D01*
X174054604Y-68709224D01*
G37*
%TD.AperFunction*%
%TA.AperFunction,Conductor*%
G36*
X182054604Y-68709224D02*
G01*
X182098103Y-68720880D01*
X182128008Y-68733268D01*
X182166991Y-68755775D01*
X182171758Y-68760774D01*
X182192668Y-68775477D01*
X182224518Y-68807326D01*
X182244223Y-68833007D01*
X182266732Y-68871995D01*
X182279118Y-68901896D01*
X182290774Y-68945392D01*
X182290683Y-68949206D01*
X182292471Y-68952575D01*
X182295000Y-68977489D01*
X182295000Y-69022509D01*
X182290774Y-69054605D01*
X182279119Y-69098099D01*
X182266732Y-69128004D01*
X182244219Y-69166997D01*
X182241459Y-69169628D01*
X182240342Y-69173272D01*
X182224513Y-69192677D01*
X182192677Y-69224513D01*
X182166996Y-69244219D01*
X182128001Y-69266733D01*
X182098098Y-69279120D01*
X182077951Y-69284518D01*
X182054606Y-69290774D01*
X182022513Y-69295000D01*
X181977489Y-69295000D01*
X181945393Y-69290774D01*
X181901900Y-69279119D01*
X181871997Y-69266733D01*
X181852500Y-69255477D01*
X181833002Y-69244219D01*
X181807325Y-69224516D01*
X181775477Y-69192668D01*
X181755776Y-69166993D01*
X181733267Y-69128007D01*
X181720879Y-69098098D01*
X181709225Y-69054603D01*
X181709315Y-69050791D01*
X181707529Y-69047425D01*
X181705000Y-69022511D01*
X181705000Y-68977487D01*
X181709225Y-68945395D01*
X181720880Y-68901896D01*
X181733265Y-68871995D01*
X181755781Y-68832996D01*
X181759025Y-68828769D01*
X181759649Y-68826734D01*
X181762322Y-68824472D01*
X181775476Y-68807330D01*
X181807328Y-68775478D01*
X181833000Y-68755778D01*
X181871994Y-68733265D01*
X181901900Y-68720879D01*
X181945397Y-68709225D01*
X181977488Y-68705000D01*
X182022511Y-68705000D01*
X182054604Y-68709224D01*
G37*
%TD.AperFunction*%
%TA.AperFunction,Conductor*%
G36*
X190054604Y-68709224D02*
G01*
X190098103Y-68720880D01*
X190128008Y-68733268D01*
X190166991Y-68755775D01*
X190171758Y-68760774D01*
X190192668Y-68775477D01*
X190224518Y-68807326D01*
X190244223Y-68833007D01*
X190266732Y-68871995D01*
X190279118Y-68901896D01*
X190290774Y-68945392D01*
X190290683Y-68949206D01*
X190292471Y-68952575D01*
X190295000Y-68977489D01*
X190295000Y-69022509D01*
X190290774Y-69054605D01*
X190279119Y-69098099D01*
X190266732Y-69128004D01*
X190244219Y-69166997D01*
X190241459Y-69169628D01*
X190240342Y-69173272D01*
X190224513Y-69192677D01*
X190192677Y-69224513D01*
X190166996Y-69244219D01*
X190128001Y-69266733D01*
X190098098Y-69279120D01*
X190077951Y-69284518D01*
X190054606Y-69290774D01*
X190022513Y-69295000D01*
X189977489Y-69295000D01*
X189945393Y-69290774D01*
X189901900Y-69279119D01*
X189871997Y-69266733D01*
X189852500Y-69255477D01*
X189833002Y-69244219D01*
X189807325Y-69224516D01*
X189775477Y-69192668D01*
X189755776Y-69166993D01*
X189733267Y-69128007D01*
X189720879Y-69098098D01*
X189709225Y-69054603D01*
X189709315Y-69050791D01*
X189707529Y-69047425D01*
X189705000Y-69022511D01*
X189705000Y-68977487D01*
X189709225Y-68945395D01*
X189720880Y-68901896D01*
X189733265Y-68871995D01*
X189755781Y-68832996D01*
X189759025Y-68828769D01*
X189759649Y-68826734D01*
X189762322Y-68824472D01*
X189775476Y-68807330D01*
X189807328Y-68775478D01*
X189833000Y-68755778D01*
X189871994Y-68733265D01*
X189901900Y-68720879D01*
X189945397Y-68709225D01*
X189977488Y-68705000D01*
X190022511Y-68705000D01*
X190054604Y-68709224D01*
G37*
%TD.AperFunction*%
%TD*%
%TA.AperFunction,Conductor*%
%TO.N,VOUT_10V*%
G36*
X191943039Y-68019685D02*
G01*
X191988794Y-68072489D01*
X192000000Y-68124000D01*
X192000000Y-88562285D01*
X191980315Y-88629324D01*
X191927511Y-88675079D01*
X191914318Y-88680216D01*
X191769972Y-88727117D01*
X191594594Y-88816476D01*
X191503741Y-88882485D01*
X191435354Y-88932172D01*
X191435352Y-88932174D01*
X191435351Y-88932174D01*
X191296174Y-89071351D01*
X191296174Y-89071352D01*
X191296172Y-89071354D01*
X191267612Y-89110663D01*
X191180476Y-89230594D01*
X191091117Y-89405970D01*
X191030290Y-89593173D01*
X190999500Y-89787577D01*
X190999500Y-89876000D01*
X190979815Y-89943039D01*
X190927011Y-89988794D01*
X190875500Y-90000000D01*
X186275772Y-90000000D01*
X186208733Y-89980315D01*
X186162978Y-89927511D01*
X186157841Y-89914319D01*
X186138884Y-89855975D01*
X186138882Y-89855972D01*
X186138882Y-89855970D01*
X186049523Y-89680594D01*
X186036003Y-89661985D01*
X185933828Y-89521354D01*
X185794646Y-89382172D01*
X185635405Y-89266476D01*
X185460029Y-89177117D01*
X185272826Y-89116290D01*
X185078422Y-89085500D01*
X185078417Y-89085500D01*
X184881583Y-89085500D01*
X184881578Y-89085500D01*
X184687173Y-89116290D01*
X184499970Y-89177117D01*
X184324594Y-89266476D01*
X184233741Y-89332485D01*
X184165354Y-89382172D01*
X184165352Y-89382174D01*
X184165351Y-89382174D01*
X184026174Y-89521351D01*
X184026174Y-89521352D01*
X184026172Y-89521354D01*
X183998466Y-89559488D01*
X183910476Y-89680594D01*
X183821117Y-89855970D01*
X183814609Y-89876000D01*
X183804182Y-89908094D01*
X183802159Y-89914319D01*
X183762721Y-89971994D01*
X183698362Y-89999192D01*
X183684228Y-90000000D01*
X177324000Y-90000000D01*
X177256961Y-89980315D01*
X177211206Y-89927511D01*
X177200000Y-89876000D01*
X177200000Y-89791070D01*
X177199999Y-89791069D01*
X177184877Y-89656858D01*
X177125336Y-89486698D01*
X177029422Y-89334051D01*
X176901948Y-89206577D01*
X176749301Y-89110663D01*
X176579141Y-89051122D01*
X176444930Y-89036000D01*
X176150000Y-89036000D01*
X176150000Y-89866439D01*
X176096853Y-89835755D01*
X175967143Y-89801000D01*
X175832857Y-89801000D01*
X175703147Y-89835755D01*
X175650000Y-89866439D01*
X175650000Y-89036000D01*
X175355070Y-89036000D01*
X175220858Y-89051122D01*
X175050698Y-89110663D01*
X174898051Y-89206577D01*
X174770577Y-89334051D01*
X174674663Y-89486698D01*
X174615122Y-89656858D01*
X174600000Y-89791069D01*
X174600000Y-89876000D01*
X174580315Y-89943039D01*
X174527511Y-89988794D01*
X174476000Y-90000000D01*
X170054000Y-90000000D01*
X169986961Y-89980315D01*
X169941206Y-89927511D01*
X169930000Y-89876000D01*
X169930000Y-89341070D01*
X169929999Y-89341069D01*
X169914877Y-89206858D01*
X169855336Y-89036698D01*
X169759422Y-88884051D01*
X169631948Y-88756577D01*
X169479301Y-88660663D01*
X169309141Y-88601122D01*
X169174930Y-88586000D01*
X168880000Y-88586000D01*
X168880000Y-89446439D01*
X168826853Y-89415755D01*
X168697143Y-89381000D01*
X168562857Y-89381000D01*
X168433147Y-89415755D01*
X168380000Y-89446439D01*
X168380000Y-88586000D01*
X168085070Y-88586000D01*
X167950858Y-88601122D01*
X167780698Y-88660663D01*
X167628051Y-88756577D01*
X167500577Y-88884051D01*
X167404663Y-89036698D01*
X167345122Y-89206858D01*
X167330000Y-89341069D01*
X167330000Y-89876000D01*
X167310315Y-89943039D01*
X167257511Y-89988794D01*
X167206000Y-90000000D01*
X164665068Y-90000000D01*
X164598029Y-89980315D01*
X164552274Y-89927511D01*
X164545293Y-89908094D01*
X164543901Y-89902898D01*
X164512984Y-89787515D01*
X164440509Y-89661985D01*
X164338015Y-89559491D01*
X164338013Y-89559490D01*
X164338011Y-89559488D01*
X164212488Y-89487017D01*
X164212489Y-89487017D01*
X164194849Y-89482290D01*
X164091904Y-89454706D01*
X164032246Y-89418342D01*
X164001717Y-89355494D01*
X164000000Y-89334932D01*
X164000000Y-83618525D01*
X166949500Y-83618525D01*
X166949500Y-83763475D01*
X166987016Y-83903485D01*
X166987017Y-83903488D01*
X167059488Y-84029011D01*
X167059490Y-84029013D01*
X167059491Y-84029015D01*
X167161985Y-84131509D01*
X167161986Y-84131510D01*
X167161988Y-84131511D01*
X167287511Y-84203982D01*
X167287512Y-84203982D01*
X167287515Y-84203984D01*
X167427525Y-84241500D01*
X167427528Y-84241500D01*
X167572472Y-84241500D01*
X167572475Y-84241500D01*
X167712485Y-84203984D01*
X167838015Y-84131509D01*
X167940509Y-84029015D01*
X168012984Y-83903485D01*
X168050500Y-83763475D01*
X168050500Y-83618525D01*
X168012984Y-83478515D01*
X168004623Y-83464034D01*
X167940511Y-83352988D01*
X167940506Y-83352982D01*
X167838017Y-83250493D01*
X167838011Y-83250488D01*
X167712488Y-83178017D01*
X167712489Y-83178017D01*
X167701006Y-83174940D01*
X167572475Y-83140500D01*
X167427525Y-83140500D01*
X167298993Y-83174940D01*
X167287511Y-83178017D01*
X167161988Y-83250488D01*
X167161982Y-83250493D01*
X167059493Y-83352982D01*
X167059488Y-83352988D01*
X166987017Y-83478511D01*
X166987016Y-83478515D01*
X166949500Y-83618525D01*
X164000000Y-83618525D01*
X164000000Y-80611205D01*
X172887000Y-80611205D01*
X172887000Y-82156000D01*
X174437000Y-82156000D01*
X174437000Y-82656000D01*
X172887001Y-82656000D01*
X172887001Y-84200785D01*
X172887002Y-84200808D01*
X172889908Y-84225869D01*
X172889909Y-84225873D01*
X172935211Y-84328474D01*
X172935214Y-84328479D01*
X173014520Y-84407785D01*
X173014525Y-84407788D01*
X173117123Y-84453089D01*
X173142206Y-84455999D01*
X174686999Y-84455999D01*
X174687000Y-84455998D01*
X174687000Y-83839012D01*
X174744007Y-83871925D01*
X174871174Y-83906000D01*
X175002826Y-83906000D01*
X175129993Y-83871925D01*
X175187000Y-83839012D01*
X175187000Y-84455999D01*
X176731786Y-84455999D01*
X176731808Y-84455997D01*
X176756869Y-84453091D01*
X176756873Y-84453090D01*
X176859474Y-84407788D01*
X176859479Y-84407785D01*
X176938785Y-84328479D01*
X176938788Y-84328474D01*
X176984089Y-84225877D01*
X176984089Y-84225875D01*
X176986999Y-84200794D01*
X176987000Y-84200791D01*
X176987000Y-82656000D01*
X175437000Y-82656000D01*
X175437000Y-82156000D01*
X176986999Y-82156000D01*
X176986999Y-81347966D01*
X179186500Y-81347966D01*
X179186500Y-83464028D01*
X179186501Y-83464034D01*
X179197113Y-83583415D01*
X179253089Y-83779045D01*
X179253090Y-83779048D01*
X179253091Y-83779049D01*
X179347302Y-83959407D01*
X179347304Y-83959409D01*
X179475890Y-84117109D01*
X179569803Y-84193684D01*
X179633593Y-84245698D01*
X179813951Y-84339909D01*
X180009582Y-84395886D01*
X180128963Y-84406500D01*
X181745036Y-84406499D01*
X181864418Y-84395886D01*
X182060049Y-84339909D01*
X182240407Y-84245698D01*
X182398109Y-84117109D01*
X182526698Y-83959407D01*
X182620909Y-83779049D01*
X182676886Y-83583418D01*
X182687500Y-83464037D01*
X182687499Y-81347964D01*
X182676886Y-81228582D01*
X182620909Y-81032951D01*
X182526698Y-80852593D01*
X182474684Y-80788803D01*
X182398109Y-80694890D01*
X182240409Y-80566304D01*
X182240410Y-80566304D01*
X182240407Y-80566302D01*
X182060049Y-80472091D01*
X182060048Y-80472090D01*
X182060045Y-80472089D01*
X181942829Y-80438550D01*
X181864418Y-80416114D01*
X181864415Y-80416113D01*
X181864413Y-80416113D01*
X181798102Y-80410217D01*
X181745037Y-80405500D01*
X181745032Y-80405500D01*
X180128971Y-80405500D01*
X180128965Y-80405500D01*
X180128964Y-80405501D01*
X180117316Y-80406536D01*
X180009584Y-80416113D01*
X179813954Y-80472089D01*
X179723772Y-80519196D01*
X179633593Y-80566302D01*
X179633591Y-80566303D01*
X179633590Y-80566304D01*
X179475890Y-80694890D01*
X179347304Y-80852590D01*
X179253089Y-81032954D01*
X179197114Y-81228583D01*
X179197113Y-81228586D01*
X179186500Y-81347966D01*
X176986999Y-81347966D01*
X176986999Y-80611214D01*
X176986997Y-80611191D01*
X176984091Y-80586130D01*
X176984090Y-80586126D01*
X176938788Y-80483525D01*
X176938785Y-80483520D01*
X176859479Y-80404214D01*
X176859474Y-80404211D01*
X176756876Y-80358910D01*
X176731794Y-80356000D01*
X175187000Y-80356000D01*
X175187000Y-80972988D01*
X175129993Y-80940075D01*
X175002826Y-80906000D01*
X174871174Y-80906000D01*
X174744007Y-80940075D01*
X174687000Y-80972988D01*
X174687000Y-80356000D01*
X173142214Y-80356000D01*
X173142191Y-80356002D01*
X173117130Y-80358908D01*
X173117126Y-80358909D01*
X173014525Y-80404211D01*
X173014520Y-80404214D01*
X172935214Y-80483520D01*
X172935211Y-80483525D01*
X172889910Y-80586122D01*
X172889910Y-80586124D01*
X172887000Y-80611205D01*
X164000000Y-80611205D01*
X164000000Y-78868525D01*
X166949500Y-78868525D01*
X166949500Y-79013475D01*
X166978806Y-79122845D01*
X166987017Y-79153488D01*
X167059488Y-79279011D01*
X167059490Y-79279013D01*
X167059491Y-79279015D01*
X167161985Y-79381509D01*
X167161986Y-79381510D01*
X167161988Y-79381511D01*
X167287511Y-79453982D01*
X167287512Y-79453982D01*
X167287515Y-79453984D01*
X167427525Y-79491500D01*
X167427528Y-79491500D01*
X167572472Y-79491500D01*
X167572475Y-79491500D01*
X167712485Y-79453984D01*
X167838015Y-79381509D01*
X167940509Y-79279015D01*
X168012984Y-79153485D01*
X168050219Y-79014525D01*
X172586500Y-79014525D01*
X172586500Y-79159475D01*
X172618530Y-79279011D01*
X172624017Y-79299488D01*
X172696488Y-79425011D01*
X172696490Y-79425013D01*
X172696491Y-79425015D01*
X172798985Y-79527509D01*
X172798986Y-79527510D01*
X172798988Y-79527511D01*
X172924511Y-79599982D01*
X172924512Y-79599982D01*
X172924515Y-79599984D01*
X173064525Y-79637500D01*
X173064528Y-79637500D01*
X173209472Y-79637500D01*
X173209475Y-79637500D01*
X173349485Y-79599984D01*
X173475015Y-79527509D01*
X173577509Y-79425015D01*
X173649984Y-79299485D01*
X173687500Y-79159475D01*
X173687500Y-79014525D01*
X173649984Y-78874515D01*
X173577509Y-78748985D01*
X173475015Y-78646491D01*
X173475013Y-78646490D01*
X173475011Y-78646488D01*
X173349488Y-78574017D01*
X173349489Y-78574017D01*
X173338006Y-78570940D01*
X173209475Y-78536500D01*
X173064525Y-78536500D01*
X172935993Y-78570940D01*
X172924511Y-78574017D01*
X172798988Y-78646488D01*
X172798982Y-78646493D01*
X172696493Y-78748982D01*
X172696488Y-78748988D01*
X172624017Y-78874511D01*
X172624016Y-78874515D01*
X172586500Y-79014525D01*
X168050219Y-79014525D01*
X168050500Y-79013475D01*
X168050500Y-78868525D01*
X168012984Y-78728515D01*
X168005314Y-78715231D01*
X167940511Y-78602988D01*
X167940506Y-78602982D01*
X167838017Y-78500493D01*
X167838011Y-78500488D01*
X167712488Y-78428017D01*
X167712489Y-78428017D01*
X167701006Y-78424940D01*
X167572475Y-78390500D01*
X167427525Y-78390500D01*
X167298993Y-78424940D01*
X167287511Y-78428017D01*
X167161988Y-78500488D01*
X167161982Y-78500493D01*
X167059493Y-78602982D01*
X167059488Y-78602988D01*
X166987017Y-78728511D01*
X166987016Y-78728515D01*
X166949500Y-78868525D01*
X164000000Y-78868525D01*
X164000000Y-76745052D01*
X175936500Y-76745052D01*
X175936500Y-78666948D01*
X175939376Y-78715226D01*
X175939376Y-78715230D01*
X175939377Y-78715231D01*
X175985063Y-78925249D01*
X175985066Y-78925260D01*
X176069677Y-79122845D01*
X176190151Y-79300848D01*
X176190159Y-79300857D01*
X176342142Y-79452840D01*
X176342151Y-79452848D01*
X176452460Y-79527506D01*
X176520152Y-79573321D01*
X176717741Y-79657934D01*
X176927774Y-79703624D01*
X176976052Y-79706500D01*
X176976064Y-79706500D01*
X178897936Y-79706500D01*
X178897948Y-79706500D01*
X178946226Y-79703624D01*
X179156259Y-79657934D01*
X179353848Y-79573321D01*
X179495732Y-79477291D01*
X179531848Y-79452848D01*
X179531849Y-79452846D01*
X179531855Y-79452843D01*
X179683843Y-79300855D01*
X179804321Y-79122848D01*
X179888934Y-78925259D01*
X179934624Y-78715226D01*
X179937500Y-78666948D01*
X179937500Y-76745052D01*
X179934624Y-76696774D01*
X179888934Y-76486741D01*
X179804321Y-76289152D01*
X179771365Y-76240460D01*
X179683848Y-76111151D01*
X179683840Y-76111142D01*
X179531857Y-75959159D01*
X179531848Y-75959151D01*
X179353845Y-75838677D01*
X179156260Y-75754066D01*
X179156249Y-75754063D01*
X178946231Y-75708377D01*
X178946230Y-75708376D01*
X178946226Y-75708376D01*
X178897948Y-75705500D01*
X176976052Y-75705500D01*
X176927774Y-75708376D01*
X176927769Y-75708376D01*
X176927768Y-75708377D01*
X176717750Y-75754063D01*
X176717739Y-75754066D01*
X176520154Y-75838677D01*
X176342151Y-75959151D01*
X176342142Y-75959159D01*
X176190159Y-76111142D01*
X176190151Y-76111151D01*
X176069677Y-76289154D01*
X175985066Y-76486739D01*
X175985063Y-76486750D01*
X175939377Y-76696768D01*
X175939376Y-76696774D01*
X175936500Y-76745052D01*
X164000000Y-76745052D01*
X164000000Y-74118525D01*
X166949500Y-74118525D01*
X166949500Y-74263475D01*
X166987016Y-74403485D01*
X166987017Y-74403488D01*
X167059488Y-74529011D01*
X167059490Y-74529013D01*
X167059491Y-74529015D01*
X167161985Y-74631509D01*
X167161986Y-74631510D01*
X167161988Y-74631511D01*
X167287511Y-74703982D01*
X167287512Y-74703982D01*
X167287515Y-74703984D01*
X167427525Y-74741500D01*
X167427528Y-74741500D01*
X167572472Y-74741500D01*
X167572475Y-74741500D01*
X167712485Y-74703984D01*
X167838015Y-74631509D01*
X167940509Y-74529015D01*
X168012984Y-74403485D01*
X168050500Y-74263475D01*
X168050500Y-74118525D01*
X168012984Y-73978515D01*
X167940509Y-73852985D01*
X167838015Y-73750491D01*
X167838013Y-73750490D01*
X167838011Y-73750488D01*
X167712488Y-73678017D01*
X167712489Y-73678017D01*
X167701006Y-73674940D01*
X167572475Y-73640500D01*
X167427525Y-73640500D01*
X167298993Y-73674940D01*
X167287511Y-73678017D01*
X167161988Y-73750488D01*
X167161982Y-73750493D01*
X167059493Y-73852982D01*
X167059488Y-73852988D01*
X166987017Y-73978511D01*
X166987016Y-73978515D01*
X166949500Y-74118525D01*
X164000000Y-74118525D01*
X164000000Y-71878711D01*
X186149500Y-71878711D01*
X186149500Y-72121288D01*
X186181161Y-72361785D01*
X186243947Y-72596104D01*
X186336773Y-72820205D01*
X186336776Y-72820212D01*
X186458064Y-73030289D01*
X186458066Y-73030292D01*
X186458067Y-73030293D01*
X186605733Y-73222736D01*
X186605739Y-73222743D01*
X186777256Y-73394260D01*
X186777262Y-73394265D01*
X186969711Y-73541936D01*
X187179788Y-73663224D01*
X187375269Y-73744195D01*
X187390474Y-73750493D01*
X187403900Y-73756054D01*
X187638211Y-73818838D01*
X187818586Y-73842584D01*
X187878711Y-73850500D01*
X187878712Y-73850500D01*
X188121289Y-73850500D01*
X188169388Y-73844167D01*
X188361789Y-73818838D01*
X188596100Y-73756054D01*
X188820212Y-73663224D01*
X189030289Y-73541936D01*
X189222738Y-73394265D01*
X189394265Y-73222738D01*
X189541936Y-73030289D01*
X189663224Y-72820212D01*
X189756054Y-72596100D01*
X189818838Y-72361789D01*
X189850500Y-72121288D01*
X189850500Y-71878712D01*
X189818838Y-71638211D01*
X189756054Y-71403900D01*
X189663224Y-71179788D01*
X189541936Y-70969711D01*
X189394265Y-70777262D01*
X189394260Y-70777256D01*
X189222743Y-70605739D01*
X189222736Y-70605733D01*
X189030293Y-70458067D01*
X189030292Y-70458066D01*
X189030289Y-70458064D01*
X188820212Y-70336776D01*
X188820205Y-70336773D01*
X188596104Y-70243947D01*
X188361785Y-70181161D01*
X188121289Y-70149500D01*
X188121288Y-70149500D01*
X187878712Y-70149500D01*
X187878711Y-70149500D01*
X187638214Y-70181161D01*
X187403895Y-70243947D01*
X187179794Y-70336773D01*
X187179785Y-70336777D01*
X186969706Y-70458067D01*
X186777263Y-70605733D01*
X186777256Y-70605739D01*
X186605739Y-70777256D01*
X186605733Y-70777263D01*
X186458067Y-70969706D01*
X186336777Y-71179785D01*
X186336773Y-71179794D01*
X186243947Y-71403895D01*
X186181161Y-71638214D01*
X186149500Y-71878711D01*
X164000000Y-71878711D01*
X164000000Y-68927525D01*
X165449500Y-68927525D01*
X165449500Y-69072475D01*
X165487016Y-69212485D01*
X165487017Y-69212488D01*
X165559488Y-69338011D01*
X165559490Y-69338013D01*
X165559491Y-69338015D01*
X165661985Y-69440509D01*
X165661986Y-69440510D01*
X165661988Y-69440511D01*
X165787511Y-69512982D01*
X165787512Y-69512982D01*
X165787515Y-69512984D01*
X165927525Y-69550500D01*
X165927528Y-69550500D01*
X166072472Y-69550500D01*
X166072475Y-69550500D01*
X166212485Y-69512984D01*
X166338015Y-69440509D01*
X166440509Y-69338015D01*
X166512984Y-69212485D01*
X166550500Y-69072475D01*
X166550500Y-68927525D01*
X173449500Y-68927525D01*
X173449500Y-69072475D01*
X173487016Y-69212485D01*
X173487017Y-69212488D01*
X173559488Y-69338011D01*
X173559490Y-69338013D01*
X173559491Y-69338015D01*
X173661985Y-69440509D01*
X173661986Y-69440510D01*
X173661988Y-69440511D01*
X173787511Y-69512982D01*
X173787512Y-69512982D01*
X173787515Y-69512984D01*
X173927525Y-69550500D01*
X173927528Y-69550500D01*
X174072472Y-69550500D01*
X174072475Y-69550500D01*
X174212485Y-69512984D01*
X174338015Y-69440509D01*
X174440509Y-69338015D01*
X174512984Y-69212485D01*
X174550500Y-69072475D01*
X174550500Y-68927525D01*
X181449500Y-68927525D01*
X181449500Y-69072475D01*
X181487016Y-69212485D01*
X181487017Y-69212488D01*
X181559488Y-69338011D01*
X181559490Y-69338013D01*
X181559491Y-69338015D01*
X181661985Y-69440509D01*
X181661986Y-69440510D01*
X181661988Y-69440511D01*
X181787511Y-69512982D01*
X181787512Y-69512982D01*
X181787515Y-69512984D01*
X181927525Y-69550500D01*
X181927528Y-69550500D01*
X182072472Y-69550500D01*
X182072475Y-69550500D01*
X182212485Y-69512984D01*
X182338015Y-69440509D01*
X182440509Y-69338015D01*
X182512984Y-69212485D01*
X182550500Y-69072475D01*
X182550500Y-68927525D01*
X189449500Y-68927525D01*
X189449500Y-69072475D01*
X189487016Y-69212485D01*
X189487017Y-69212488D01*
X189559488Y-69338011D01*
X189559490Y-69338013D01*
X189559491Y-69338015D01*
X189661985Y-69440509D01*
X189661986Y-69440510D01*
X189661988Y-69440511D01*
X189787511Y-69512982D01*
X189787512Y-69512982D01*
X189787515Y-69512984D01*
X189927525Y-69550500D01*
X189927528Y-69550500D01*
X190072472Y-69550500D01*
X190072475Y-69550500D01*
X190212485Y-69512984D01*
X190338015Y-69440509D01*
X190440509Y-69338015D01*
X190512984Y-69212485D01*
X190550500Y-69072475D01*
X190550500Y-68927525D01*
X190512984Y-68787515D01*
X190440509Y-68661985D01*
X190338015Y-68559491D01*
X190338013Y-68559490D01*
X190338011Y-68559488D01*
X190212488Y-68487017D01*
X190212489Y-68487017D01*
X190201006Y-68483940D01*
X190072475Y-68449500D01*
X189927525Y-68449500D01*
X189798993Y-68483940D01*
X189787511Y-68487017D01*
X189661988Y-68559488D01*
X189661982Y-68559493D01*
X189559493Y-68661982D01*
X189559488Y-68661988D01*
X189487017Y-68787511D01*
X189487016Y-68787515D01*
X189449500Y-68927525D01*
X182550500Y-68927525D01*
X182512984Y-68787515D01*
X182440509Y-68661985D01*
X182338015Y-68559491D01*
X182338013Y-68559490D01*
X182338011Y-68559488D01*
X182212488Y-68487017D01*
X182212489Y-68487017D01*
X182201006Y-68483940D01*
X182072475Y-68449500D01*
X181927525Y-68449500D01*
X181798993Y-68483940D01*
X181787511Y-68487017D01*
X181661988Y-68559488D01*
X181661982Y-68559493D01*
X181559493Y-68661982D01*
X181559488Y-68661988D01*
X181487017Y-68787511D01*
X181487016Y-68787515D01*
X181449500Y-68927525D01*
X174550500Y-68927525D01*
X174512984Y-68787515D01*
X174440509Y-68661985D01*
X174338015Y-68559491D01*
X174338013Y-68559490D01*
X174338011Y-68559488D01*
X174212488Y-68487017D01*
X174212489Y-68487017D01*
X174201006Y-68483940D01*
X174072475Y-68449500D01*
X173927525Y-68449500D01*
X173798993Y-68483940D01*
X173787511Y-68487017D01*
X173661988Y-68559488D01*
X173661982Y-68559493D01*
X173559493Y-68661982D01*
X173559488Y-68661988D01*
X173487017Y-68787511D01*
X173487016Y-68787515D01*
X173449500Y-68927525D01*
X166550500Y-68927525D01*
X166512984Y-68787515D01*
X166440509Y-68661985D01*
X166338015Y-68559491D01*
X166338013Y-68559490D01*
X166338011Y-68559488D01*
X166212488Y-68487017D01*
X166212489Y-68487017D01*
X166201006Y-68483940D01*
X166072475Y-68449500D01*
X165927525Y-68449500D01*
X165798993Y-68483940D01*
X165787511Y-68487017D01*
X165661988Y-68559488D01*
X165661982Y-68559493D01*
X165559493Y-68661982D01*
X165559488Y-68661988D01*
X165487017Y-68787511D01*
X165487016Y-68787515D01*
X165449500Y-68927525D01*
X164000000Y-68927525D01*
X164000000Y-68124000D01*
X164019685Y-68056961D01*
X164072489Y-68011206D01*
X164124000Y-68000000D01*
X191876000Y-68000000D01*
X191943039Y-68019685D01*
G37*
%TD.AperFunction*%
%TD*%
%TA.AperFunction,Conductor*%
%TO.N,VOUT_5V*%
G36*
X166679153Y-114019685D02*
G01*
X166724908Y-114072489D01*
X166734852Y-114141647D01*
X166705827Y-114205203D01*
X166699795Y-114211681D01*
X166659493Y-114251982D01*
X166659488Y-114251988D01*
X166587017Y-114377511D01*
X166587016Y-114377515D01*
X166549500Y-114517525D01*
X166549500Y-114662475D01*
X166587016Y-114802485D01*
X166587017Y-114802488D01*
X166659488Y-114928011D01*
X166659490Y-114928013D01*
X166659491Y-114928015D01*
X166761985Y-115030509D01*
X166761986Y-115030510D01*
X166761988Y-115030511D01*
X166887511Y-115102982D01*
X166887512Y-115102982D01*
X166887515Y-115102984D01*
X167027525Y-115140500D01*
X167027528Y-115140500D01*
X167172472Y-115140500D01*
X167172475Y-115140500D01*
X167312485Y-115102984D01*
X167438015Y-115030509D01*
X167540509Y-114928015D01*
X167612984Y-114802485D01*
X167650500Y-114662475D01*
X167650500Y-114517525D01*
X167612984Y-114377515D01*
X167551942Y-114271788D01*
X167540511Y-114251988D01*
X167540506Y-114251982D01*
X167500205Y-114211681D01*
X167466720Y-114150358D01*
X167471704Y-114080666D01*
X167513576Y-114024733D01*
X167579040Y-114000316D01*
X167587886Y-114000000D01*
X186851875Y-114000000D01*
X186918914Y-114019685D01*
X186964669Y-114072489D01*
X186969806Y-114085681D01*
X186980127Y-114117445D01*
X187058768Y-114271788D01*
X187160586Y-114411928D01*
X187283072Y-114534414D01*
X187423212Y-114636232D01*
X187577555Y-114714873D01*
X187742299Y-114768402D01*
X187913389Y-114795500D01*
X187913390Y-114795500D01*
X188086610Y-114795500D01*
X188086611Y-114795500D01*
X188257701Y-114768402D01*
X188422445Y-114714873D01*
X188576788Y-114636232D01*
X188716928Y-114534414D01*
X188839414Y-114411928D01*
X188941232Y-114271788D01*
X189019873Y-114117445D01*
X189030194Y-114085681D01*
X189069632Y-114028006D01*
X189133991Y-114000808D01*
X189148125Y-114000000D01*
X191876000Y-114000000D01*
X191943039Y-114019685D01*
X191988794Y-114072489D01*
X192000000Y-114124000D01*
X192000000Y-131876000D01*
X191980315Y-131943039D01*
X191927511Y-131988794D01*
X191876000Y-132000000D01*
X164124000Y-132000000D01*
X164056961Y-131980315D01*
X164011206Y-131927511D01*
X164000000Y-131876000D01*
X164000000Y-130927525D01*
X165449500Y-130927525D01*
X165449500Y-131072475D01*
X165487016Y-131212485D01*
X165487017Y-131212488D01*
X165559488Y-131338011D01*
X165559490Y-131338013D01*
X165559491Y-131338015D01*
X165661985Y-131440509D01*
X165661986Y-131440510D01*
X165661988Y-131440511D01*
X165787511Y-131512982D01*
X165787512Y-131512982D01*
X165787515Y-131512984D01*
X165927525Y-131550500D01*
X165927528Y-131550500D01*
X166072472Y-131550500D01*
X166072475Y-131550500D01*
X166212485Y-131512984D01*
X166338015Y-131440509D01*
X166440509Y-131338015D01*
X166512984Y-131212485D01*
X166550500Y-131072475D01*
X166550500Y-130927525D01*
X173449500Y-130927525D01*
X173449500Y-131072475D01*
X173487016Y-131212485D01*
X173487017Y-131212488D01*
X173559488Y-131338011D01*
X173559490Y-131338013D01*
X173559491Y-131338015D01*
X173661985Y-131440509D01*
X173661986Y-131440510D01*
X173661988Y-131440511D01*
X173787511Y-131512982D01*
X173787512Y-131512982D01*
X173787515Y-131512984D01*
X173927525Y-131550500D01*
X173927528Y-131550500D01*
X174072472Y-131550500D01*
X174072475Y-131550500D01*
X174212485Y-131512984D01*
X174338015Y-131440509D01*
X174440509Y-131338015D01*
X174512984Y-131212485D01*
X174550500Y-131072475D01*
X174550500Y-130927525D01*
X181449500Y-130927525D01*
X181449500Y-131072475D01*
X181487016Y-131212485D01*
X181487017Y-131212488D01*
X181559488Y-131338011D01*
X181559490Y-131338013D01*
X181559491Y-131338015D01*
X181661985Y-131440509D01*
X181661986Y-131440510D01*
X181661988Y-131440511D01*
X181787511Y-131512982D01*
X181787512Y-131512982D01*
X181787515Y-131512984D01*
X181927525Y-131550500D01*
X181927528Y-131550500D01*
X182072472Y-131550500D01*
X182072475Y-131550500D01*
X182212485Y-131512984D01*
X182338015Y-131440509D01*
X182440509Y-131338015D01*
X182512984Y-131212485D01*
X182550500Y-131072475D01*
X182550500Y-130927525D01*
X189449500Y-130927525D01*
X189449500Y-131072475D01*
X189487016Y-131212485D01*
X189487017Y-131212488D01*
X189559488Y-131338011D01*
X189559490Y-131338013D01*
X189559491Y-131338015D01*
X189661985Y-131440509D01*
X189661986Y-131440510D01*
X189661988Y-131440511D01*
X189787511Y-131512982D01*
X189787512Y-131512982D01*
X189787515Y-131512984D01*
X189927525Y-131550500D01*
X189927528Y-131550500D01*
X190072472Y-131550500D01*
X190072475Y-131550500D01*
X190212485Y-131512984D01*
X190338015Y-131440509D01*
X190440509Y-131338015D01*
X190512984Y-131212485D01*
X190550500Y-131072475D01*
X190550500Y-130927525D01*
X190512984Y-130787515D01*
X190440509Y-130661985D01*
X190338015Y-130559491D01*
X190338013Y-130559490D01*
X190338011Y-130559488D01*
X190212488Y-130487017D01*
X190212489Y-130487017D01*
X190201006Y-130483940D01*
X190072475Y-130449500D01*
X189927525Y-130449500D01*
X189798993Y-130483940D01*
X189787511Y-130487017D01*
X189661988Y-130559488D01*
X189661982Y-130559493D01*
X189559493Y-130661982D01*
X189559488Y-130661988D01*
X189487017Y-130787511D01*
X189487016Y-130787515D01*
X189449500Y-130927525D01*
X182550500Y-130927525D01*
X182512984Y-130787515D01*
X182440509Y-130661985D01*
X182338015Y-130559491D01*
X182338013Y-130559490D01*
X182338011Y-130559488D01*
X182212488Y-130487017D01*
X182212489Y-130487017D01*
X182201006Y-130483940D01*
X182072475Y-130449500D01*
X181927525Y-130449500D01*
X181798993Y-130483940D01*
X181787511Y-130487017D01*
X181661988Y-130559488D01*
X181661982Y-130559493D01*
X181559493Y-130661982D01*
X181559488Y-130661988D01*
X181487017Y-130787511D01*
X181487016Y-130787515D01*
X181449500Y-130927525D01*
X174550500Y-130927525D01*
X174512984Y-130787515D01*
X174440509Y-130661985D01*
X174338015Y-130559491D01*
X174338013Y-130559490D01*
X174338011Y-130559488D01*
X174212488Y-130487017D01*
X174212489Y-130487017D01*
X174201006Y-130483940D01*
X174072475Y-130449500D01*
X173927525Y-130449500D01*
X173798993Y-130483940D01*
X173787511Y-130487017D01*
X173661988Y-130559488D01*
X173661982Y-130559493D01*
X173559493Y-130661982D01*
X173559488Y-130661988D01*
X173487017Y-130787511D01*
X173487016Y-130787515D01*
X173449500Y-130927525D01*
X166550500Y-130927525D01*
X166512984Y-130787515D01*
X166440509Y-130661985D01*
X166338015Y-130559491D01*
X166338013Y-130559490D01*
X166338011Y-130559488D01*
X166212488Y-130487017D01*
X166212489Y-130487017D01*
X166201006Y-130483940D01*
X166072475Y-130449500D01*
X165927525Y-130449500D01*
X165798993Y-130483940D01*
X165787511Y-130487017D01*
X165661988Y-130559488D01*
X165661982Y-130559493D01*
X165559493Y-130661982D01*
X165559488Y-130661988D01*
X165487017Y-130787511D01*
X165487016Y-130787515D01*
X165449500Y-130927525D01*
X164000000Y-130927525D01*
X164000000Y-127878711D01*
X186149500Y-127878711D01*
X186149500Y-128121288D01*
X186181161Y-128361785D01*
X186243947Y-128596104D01*
X186336773Y-128820205D01*
X186336776Y-128820212D01*
X186458064Y-129030289D01*
X186458066Y-129030292D01*
X186458067Y-129030293D01*
X186605733Y-129222736D01*
X186605739Y-129222743D01*
X186777256Y-129394260D01*
X186777262Y-129394265D01*
X186969711Y-129541936D01*
X187179788Y-129663224D01*
X187403900Y-129756054D01*
X187638211Y-129818838D01*
X187818586Y-129842584D01*
X187878711Y-129850500D01*
X187878712Y-129850500D01*
X188121289Y-129850500D01*
X188169388Y-129844167D01*
X188361789Y-129818838D01*
X188596100Y-129756054D01*
X188820212Y-129663224D01*
X189030289Y-129541936D01*
X189222738Y-129394265D01*
X189394265Y-129222738D01*
X189541936Y-129030289D01*
X189663224Y-128820212D01*
X189756054Y-128596100D01*
X189818838Y-128361789D01*
X189850500Y-128121288D01*
X189850500Y-127878712D01*
X189818838Y-127638211D01*
X189756054Y-127403900D01*
X189663224Y-127179788D01*
X189541936Y-126969711D01*
X189394265Y-126777262D01*
X189394260Y-126777256D01*
X189222743Y-126605739D01*
X189222736Y-126605733D01*
X189030293Y-126458067D01*
X189030292Y-126458066D01*
X189030289Y-126458064D01*
X188820212Y-126336776D01*
X188820205Y-126336773D01*
X188596104Y-126243947D01*
X188361785Y-126181161D01*
X188121289Y-126149500D01*
X188121288Y-126149500D01*
X187878712Y-126149500D01*
X187878711Y-126149500D01*
X187638214Y-126181161D01*
X187403895Y-126243947D01*
X187179794Y-126336773D01*
X187179785Y-126336777D01*
X186969706Y-126458067D01*
X186777263Y-126605733D01*
X186777256Y-126605739D01*
X186605739Y-126777256D01*
X186605733Y-126777263D01*
X186458067Y-126969706D01*
X186336777Y-127179785D01*
X186336773Y-127179794D01*
X186243947Y-127403895D01*
X186181161Y-127638214D01*
X186149500Y-127878711D01*
X164000000Y-127878711D01*
X164000000Y-124017525D01*
X166949500Y-124017525D01*
X166949500Y-124162475D01*
X166987016Y-124302485D01*
X166987017Y-124302488D01*
X167059488Y-124428011D01*
X167059490Y-124428013D01*
X167059491Y-124428015D01*
X167161985Y-124530509D01*
X167161986Y-124530510D01*
X167161988Y-124530511D01*
X167287511Y-124602982D01*
X167287512Y-124602982D01*
X167287515Y-124602984D01*
X167427525Y-124640500D01*
X167427528Y-124640500D01*
X167572472Y-124640500D01*
X167572475Y-124640500D01*
X167712485Y-124602984D01*
X167838015Y-124530509D01*
X167940509Y-124428015D01*
X168012984Y-124302485D01*
X168050500Y-124162475D01*
X168050500Y-124017525D01*
X168012984Y-123877515D01*
X167940509Y-123751985D01*
X167838015Y-123649491D01*
X167838013Y-123649490D01*
X167838011Y-123649488D01*
X167712488Y-123577017D01*
X167712489Y-123577017D01*
X167701006Y-123573940D01*
X167572475Y-123539500D01*
X167427525Y-123539500D01*
X167298993Y-123573940D01*
X167287511Y-123577017D01*
X167161988Y-123649488D01*
X167161982Y-123649493D01*
X167059493Y-123751982D01*
X167059488Y-123751988D01*
X166987017Y-123877511D01*
X166987016Y-123877515D01*
X166949500Y-124017525D01*
X164000000Y-124017525D01*
X164000000Y-122266946D01*
X174605000Y-122266946D01*
X174605000Y-123110000D01*
X175604999Y-123110000D01*
X175579979Y-123170402D01*
X175555000Y-123295981D01*
X175555000Y-123424019D01*
X175579979Y-123549598D01*
X175604999Y-123610000D01*
X174605000Y-123610000D01*
X174605000Y-124453053D01*
X174615613Y-124541443D01*
X174671079Y-124682095D01*
X174762435Y-124802564D01*
X174882904Y-124893920D01*
X175023556Y-124949386D01*
X175111946Y-124960000D01*
X175955000Y-124960000D01*
X175955000Y-123960001D01*
X176015402Y-123985021D01*
X176140981Y-124010000D01*
X176269019Y-124010000D01*
X176394598Y-123985021D01*
X176455000Y-123960001D01*
X176455000Y-124960000D01*
X177298054Y-124960000D01*
X177386443Y-124949386D01*
X177527095Y-124893920D01*
X177647564Y-124802564D01*
X177738920Y-124682095D01*
X177794386Y-124541443D01*
X177805000Y-124453053D01*
X177805000Y-123610000D01*
X176805001Y-123610000D01*
X176830021Y-123549598D01*
X176855000Y-123424019D01*
X176855000Y-123295981D01*
X176843462Y-123237973D01*
X179734500Y-123237973D01*
X179734500Y-123482027D01*
X179734951Y-123484873D01*
X179761023Y-123649488D01*
X179772679Y-123723076D01*
X179848096Y-123955185D01*
X179953715Y-124162475D01*
X179958896Y-124172642D01*
X180102339Y-124370076D01*
X180102343Y-124370081D01*
X180274918Y-124542656D01*
X180274923Y-124542660D01*
X180447136Y-124667779D01*
X180472361Y-124686106D01*
X180689815Y-124796904D01*
X180694250Y-124798345D01*
X180751927Y-124837777D01*
X180770498Y-124868822D01*
X180772015Y-124872484D01*
X180844488Y-124998011D01*
X180844490Y-124998013D01*
X180844491Y-124998015D01*
X180946985Y-125100509D01*
X180946986Y-125100510D01*
X180946988Y-125100511D01*
X181072511Y-125172982D01*
X181072512Y-125172982D01*
X181072515Y-125172984D01*
X181212525Y-125210500D01*
X181212528Y-125210500D01*
X181357472Y-125210500D01*
X181357475Y-125210500D01*
X181497485Y-125172984D01*
X181623015Y-125100509D01*
X181725509Y-124998015D01*
X181797984Y-124872485D01*
X181797985Y-124872479D01*
X181799496Y-124868834D01*
X181801600Y-124866222D01*
X181802048Y-124865447D01*
X181802168Y-124865516D01*
X181843333Y-124814428D01*
X181875745Y-124798347D01*
X181880183Y-124796905D01*
X181880189Y-124796902D01*
X182097639Y-124686106D01*
X182295083Y-124542655D01*
X182467655Y-124370083D01*
X182611106Y-124172639D01*
X182721904Y-123955185D01*
X182797321Y-123723076D01*
X182835500Y-123482027D01*
X182835500Y-123237973D01*
X182797321Y-122996924D01*
X182721904Y-122764815D01*
X182611106Y-122547361D01*
X182603138Y-122536395D01*
X182537756Y-122446402D01*
X182488342Y-122378389D01*
X187924500Y-122378389D01*
X187924500Y-122551611D01*
X187951598Y-122722701D01*
X188005127Y-122887445D01*
X188083768Y-123041788D01*
X188185586Y-123181928D01*
X188308072Y-123304414D01*
X188448212Y-123406232D01*
X188602555Y-123484873D01*
X188767299Y-123538402D01*
X188938389Y-123565500D01*
X188938390Y-123565500D01*
X189111610Y-123565500D01*
X189111611Y-123565500D01*
X189282701Y-123538402D01*
X189447445Y-123484873D01*
X189601788Y-123406232D01*
X189741928Y-123304414D01*
X189864414Y-123181928D01*
X189966232Y-123041788D01*
X190044873Y-122887445D01*
X190098402Y-122722701D01*
X190125500Y-122551611D01*
X190125500Y-122378389D01*
X190098402Y-122207299D01*
X190044873Y-122042555D01*
X189966232Y-121888212D01*
X189864414Y-121748072D01*
X189741928Y-121625586D01*
X189601788Y-121523768D01*
X189447445Y-121445127D01*
X189282701Y-121391598D01*
X189282699Y-121391597D01*
X189282698Y-121391597D01*
X189151271Y-121370781D01*
X189111611Y-121364500D01*
X188938389Y-121364500D01*
X188898728Y-121370781D01*
X188767302Y-121391597D01*
X188602552Y-121445128D01*
X188448211Y-121523768D01*
X188368256Y-121581859D01*
X188308072Y-121625586D01*
X188308070Y-121625588D01*
X188308069Y-121625588D01*
X188185588Y-121748069D01*
X188185588Y-121748070D01*
X188185586Y-121748072D01*
X188176920Y-121760000D01*
X188083768Y-121888211D01*
X188005128Y-122042552D01*
X187951597Y-122207302D01*
X187924500Y-122378389D01*
X182488342Y-122378389D01*
X182467660Y-122349923D01*
X182467656Y-122349918D01*
X182295081Y-122177343D01*
X182295076Y-122177339D01*
X182097642Y-122033896D01*
X182097641Y-122033895D01*
X182097639Y-122033894D01*
X181880185Y-121923096D01*
X181648076Y-121847679D01*
X181648074Y-121847678D01*
X181648072Y-121847678D01*
X181479769Y-121821021D01*
X181407027Y-121809500D01*
X181162973Y-121809500D01*
X181107093Y-121818350D01*
X180921927Y-121847678D01*
X180689812Y-121923097D01*
X180472357Y-122033896D01*
X180274923Y-122177339D01*
X180274918Y-122177343D01*
X180102343Y-122349918D01*
X180102339Y-122349923D01*
X179958896Y-122547357D01*
X179848097Y-122764812D01*
X179772678Y-122996927D01*
X179765573Y-123041788D01*
X179734500Y-123237973D01*
X176843462Y-123237973D01*
X176830021Y-123170402D01*
X176805001Y-123110000D01*
X177805000Y-123110000D01*
X177805000Y-122266946D01*
X177794386Y-122178556D01*
X177738920Y-122037904D01*
X177647564Y-121917435D01*
X177527095Y-121826079D01*
X177386443Y-121770613D01*
X177298054Y-121760000D01*
X176455000Y-121760000D01*
X176455000Y-122759998D01*
X176394598Y-122734979D01*
X176269019Y-122710000D01*
X176140981Y-122710000D01*
X176015402Y-122734979D01*
X175955000Y-122759998D01*
X175955000Y-121760000D01*
X175111946Y-121760000D01*
X175023556Y-121770613D01*
X174882904Y-121826079D01*
X174762435Y-121917435D01*
X174671079Y-122037904D01*
X174615613Y-122178556D01*
X174605000Y-122266946D01*
X164000000Y-122266946D01*
X164000000Y-119267525D01*
X166549500Y-119267525D01*
X166549500Y-119412475D01*
X166587016Y-119552485D01*
X166587017Y-119552488D01*
X166659488Y-119678011D01*
X166659490Y-119678013D01*
X166659491Y-119678015D01*
X166761985Y-119780509D01*
X166761986Y-119780510D01*
X166761988Y-119780511D01*
X166887511Y-119852982D01*
X166887512Y-119852982D01*
X166887515Y-119852984D01*
X167027525Y-119890500D01*
X167027528Y-119890500D01*
X167172472Y-119890500D01*
X167172475Y-119890500D01*
X167312485Y-119852984D01*
X167337764Y-119838389D01*
X187924500Y-119838389D01*
X187924500Y-120011611D01*
X187951598Y-120182701D01*
X188005127Y-120347445D01*
X188083768Y-120501788D01*
X188185586Y-120641928D01*
X188308072Y-120764414D01*
X188448212Y-120866232D01*
X188602555Y-120944873D01*
X188767299Y-120998402D01*
X188938389Y-121025500D01*
X188938390Y-121025500D01*
X189111610Y-121025500D01*
X189111611Y-121025500D01*
X189282701Y-120998402D01*
X189447445Y-120944873D01*
X189601788Y-120866232D01*
X189741928Y-120764414D01*
X189864414Y-120641928D01*
X189966232Y-120501788D01*
X190044873Y-120347445D01*
X190098402Y-120182701D01*
X190125500Y-120011611D01*
X190125500Y-119838389D01*
X190098402Y-119667299D01*
X190044873Y-119502555D01*
X189966232Y-119348212D01*
X189864414Y-119208072D01*
X189741928Y-119085586D01*
X189601788Y-118983768D01*
X189447445Y-118905127D01*
X189282701Y-118851598D01*
X189282699Y-118851597D01*
X189282698Y-118851597D01*
X189151271Y-118830781D01*
X189111611Y-118824500D01*
X188938389Y-118824500D01*
X188898728Y-118830781D01*
X188767302Y-118851597D01*
X188602552Y-118905128D01*
X188448211Y-118983768D01*
X188423134Y-119001988D01*
X188308072Y-119085586D01*
X188308070Y-119085588D01*
X188308069Y-119085588D01*
X188185588Y-119208069D01*
X188185588Y-119208070D01*
X188185586Y-119208072D01*
X188142391Y-119267525D01*
X188083768Y-119348211D01*
X188005128Y-119502552D01*
X187951597Y-119667302D01*
X187949900Y-119678017D01*
X187924500Y-119838389D01*
X167337764Y-119838389D01*
X167438015Y-119780509D01*
X167540509Y-119678015D01*
X167612984Y-119552485D01*
X167650500Y-119412475D01*
X167650500Y-119267525D01*
X167612984Y-119127515D01*
X167588777Y-119085588D01*
X167540511Y-119001988D01*
X167540506Y-119001982D01*
X167438017Y-118899493D01*
X167438011Y-118899488D01*
X167312488Y-118827017D01*
X167312489Y-118827017D01*
X167301006Y-118823940D01*
X167172475Y-118789500D01*
X167027525Y-118789500D01*
X166898993Y-118823940D01*
X166887511Y-118827017D01*
X166761988Y-118899488D01*
X166761982Y-118899493D01*
X166659493Y-119001982D01*
X166659488Y-119001988D01*
X166587017Y-119127511D01*
X166587016Y-119127515D01*
X166549500Y-119267525D01*
X164000000Y-119267525D01*
X164000000Y-117714525D01*
X171514500Y-117714525D01*
X171514500Y-117859475D01*
X171552016Y-117999485D01*
X171552017Y-117999488D01*
X171624488Y-118125011D01*
X171624490Y-118125013D01*
X171624491Y-118125015D01*
X171726985Y-118227509D01*
X171726986Y-118227510D01*
X171726988Y-118227511D01*
X171852511Y-118299982D01*
X171852512Y-118299982D01*
X171852515Y-118299984D01*
X171992525Y-118337500D01*
X171992528Y-118337500D01*
X172137472Y-118337500D01*
X172137475Y-118337500D01*
X172277485Y-118299984D01*
X172403015Y-118227509D01*
X172505509Y-118125015D01*
X172577984Y-117999485D01*
X172615500Y-117859475D01*
X172615500Y-117714525D01*
X172577984Y-117574515D01*
X172505509Y-117448985D01*
X172403015Y-117346491D01*
X172403013Y-117346490D01*
X172403011Y-117346488D01*
X172277488Y-117274017D01*
X172277489Y-117274017D01*
X172266006Y-117270940D01*
X172137475Y-117236500D01*
X171992525Y-117236500D01*
X171863993Y-117270940D01*
X171852511Y-117274017D01*
X171726988Y-117346488D01*
X171726982Y-117346493D01*
X171624493Y-117448982D01*
X171624488Y-117448988D01*
X171552017Y-117574511D01*
X171552016Y-117574515D01*
X171514500Y-117714525D01*
X164000000Y-117714525D01*
X164000000Y-116510321D01*
X187924500Y-116510321D01*
X187924500Y-118259678D01*
X187939032Y-118332735D01*
X187939033Y-118332739D01*
X187939034Y-118332740D01*
X187994399Y-118415601D01*
X188077260Y-118470966D01*
X188077264Y-118470967D01*
X188150321Y-118485499D01*
X188150324Y-118485500D01*
X188150326Y-118485500D01*
X189899676Y-118485500D01*
X189899677Y-118485499D01*
X189972740Y-118470966D01*
X190055601Y-118415601D01*
X190110966Y-118332740D01*
X190125500Y-118259674D01*
X190125500Y-116510326D01*
X190125500Y-116510323D01*
X190125499Y-116510321D01*
X190110967Y-116437264D01*
X190110966Y-116437260D01*
X190055601Y-116354399D01*
X189972740Y-116299034D01*
X189972739Y-116299033D01*
X189972735Y-116299032D01*
X189899677Y-116284500D01*
X189899674Y-116284500D01*
X189699500Y-116284500D01*
X189632461Y-116264815D01*
X189586706Y-116212011D01*
X189575500Y-116160500D01*
X189575500Y-116012527D01*
X189575500Y-116012525D01*
X189537984Y-115872515D01*
X189465509Y-115746985D01*
X189363015Y-115644491D01*
X189363013Y-115644490D01*
X189363011Y-115644488D01*
X189237488Y-115572017D01*
X189237489Y-115572017D01*
X189226006Y-115568940D01*
X189097475Y-115534500D01*
X188952525Y-115534500D01*
X188823993Y-115568940D01*
X188812511Y-115572017D01*
X188686988Y-115644488D01*
X188686982Y-115644493D01*
X188584493Y-115746982D01*
X188584488Y-115746988D01*
X188512017Y-115872511D01*
X188512016Y-115872515D01*
X188474500Y-116012525D01*
X188474500Y-116012527D01*
X188474500Y-116160500D01*
X188454815Y-116227539D01*
X188402011Y-116273294D01*
X188350500Y-116284500D01*
X188150323Y-116284500D01*
X188077264Y-116299032D01*
X188077260Y-116299033D01*
X187994399Y-116354399D01*
X187939033Y-116437260D01*
X187939032Y-116437264D01*
X187924500Y-116510321D01*
X164000000Y-116510321D01*
X164000000Y-114124000D01*
X164019685Y-114056961D01*
X164072489Y-114011206D01*
X164124000Y-114000000D01*
X166612114Y-114000000D01*
X166679153Y-114019685D01*
G37*
%TD.AperFunction*%
%TD*%
M02*
