ISO-10303-21;
HEADER;
/* Generated by software containing ST-Developer
 * from STEP Tools, Inc. (www.steptools.com) 
 */

FILE_DESCRIPTION(
/* description */ (''),
/* implementation_level */ '2;1');

FILE_NAME(
/* name */ 'Clipless Mounting Piece.step',
/* time_stamp */ '2026-07-07T22:39:17-04:00',
/* author */ (''),
/* organization */ (''),
/* preprocessor_version */ 'ST-DEVELOPER v20.1',
/* originating_system */ 'Autodesk Translation Framework v15.8.0.0',
/* authorisation */ '');

FILE_SCHEMA (('AUTOMOTIVE_DESIGN { 1 0 10303 214 3 1 1 }'));
ENDSEC;

DATA;
#10=MECHANICAL_DESIGN_GEOMETRIC_PRESENTATION_REPRESENTATION('',(#13),#805);
#11=SHAPE_REPRESENTATION_RELATIONSHIP('SRR','None',#812,#12);
#12=ADVANCED_BREP_SHAPE_REPRESENTATION('',(#14),#804);
#13=STYLED_ITEM('',(#821),#14);
#14=MANIFOLD_SOLID_BREP('mounting piece',#503);
#15=FACE_BOUND('',#44,.T.);
#16=FACE_OUTER_BOUND('',#41,.T.);
#17=FACE_OUTER_BOUND('',#42,.T.);
#18=FACE_OUTER_BOUND('',#43,.T.);
#19=FACE_OUTER_BOUND('',#45,.T.);
#20=FACE_OUTER_BOUND('',#46,.T.);
#21=FACE_OUTER_BOUND('',#47,.T.);
#22=FACE_OUTER_BOUND('',#48,.T.);
#23=FACE_OUTER_BOUND('',#49,.T.);
#24=FACE_OUTER_BOUND('',#50,.T.);
#25=FACE_OUTER_BOUND('',#51,.T.);
#26=FACE_OUTER_BOUND('',#52,.T.);
#27=FACE_OUTER_BOUND('',#53,.T.);
#28=FACE_OUTER_BOUND('',#54,.T.);
#29=FACE_OUTER_BOUND('',#55,.T.);
#30=FACE_OUTER_BOUND('',#56,.T.);
#31=FACE_OUTER_BOUND('',#57,.T.);
#32=FACE_OUTER_BOUND('',#58,.T.);
#33=FACE_OUTER_BOUND('',#59,.T.);
#34=FACE_OUTER_BOUND('',#60,.T.);
#35=FACE_OUTER_BOUND('',#61,.T.);
#36=FACE_OUTER_BOUND('',#62,.T.);
#37=FACE_OUTER_BOUND('',#63,.T.);
#38=FACE_OUTER_BOUND('',#64,.T.);
#39=FACE_OUTER_BOUND('',#65,.T.);
#40=FACE_OUTER_BOUND('',#66,.T.);
#41=EDGE_LOOP('',(#317,#318,#319,#320));
#42=EDGE_LOOP('',(#321,#322,#323,#324));
#43=EDGE_LOOP('',(#325,#326,#327,#328,#329));
#44=EDGE_LOOP('',(#330,#331,#332,#333,#334,#335,#336,#337,#338,#339,#340,
#341,#342,#343));
#45=EDGE_LOOP('',(#344,#345,#346,#347));
#46=EDGE_LOOP('',(#348,#349,#350,#351));
#47=EDGE_LOOP('',(#352,#353,#354,#355));
#48=EDGE_LOOP('',(#356,#357,#358,#359));
#49=EDGE_LOOP('',(#360,#361,#362,#363));
#50=EDGE_LOOP('',(#364,#365,#366,#367));
#51=EDGE_LOOP('',(#368,#369,#370,#371,#372,#373,#374,#375));
#52=EDGE_LOOP('',(#376,#377,#378,#379));
#53=EDGE_LOOP('',(#380,#381,#382,#383,#384,#385,#386,#387,#388,#389));
#54=EDGE_LOOP('',(#390,#391,#392,#393,#394,#395,#396,#397));
#55=EDGE_LOOP('',(#398,#399,#400,#401));
#56=EDGE_LOOP('',(#402,#403,#404,#405,#406,#407,#408,#409));
#57=EDGE_LOOP('',(#410,#411,#412,#413));
#58=EDGE_LOOP('',(#414,#415,#416,#417));
#59=EDGE_LOOP('',(#418,#419,#420,#421));
#60=EDGE_LOOP('',(#422,#423,#424,#425,#426));
#61=EDGE_LOOP('',(#427,#428,#429,#430,#431,#432));
#62=EDGE_LOOP('',(#433,#434,#435,#436));
#63=EDGE_LOOP('',(#437,#438,#439,#440));
#64=EDGE_LOOP('',(#441,#442,#443,#444));
#65=EDGE_LOOP('',(#445,#446,#447,#448));
#66=EDGE_LOOP('',(#449,#450,#451,#452));
#67=LINE('',#666,#135);
#68=LINE('',#668,#136);
#69=LINE('',#670,#137);
#70=LINE('',#671,#138);
#71=LINE('',#675,#139);
#72=LINE('',#677,#140);
#73=LINE('',#679,#141);
#74=LINE('',#680,#142);
#75=LINE('',#684,#143);
#76=LINE('',#686,#144);
#77=LINE('',#688,#145);
#78=LINE('',#690,#146);
#79=LINE('',#691,#147);
#80=LINE('',#693,#148);
#81=LINE('',#695,#149);
#82=LINE('',#696,#150);
#83=LINE('',#698,#151);
#84=LINE('',#700,#152);
#85=LINE('',#702,#153);
#86=LINE('',#704,#154);
#87=LINE('',#706,#155);
#88=LINE('',#708,#156);
#89=LINE('',#710,#157);
#90=LINE('',#712,#158);
#91=LINE('',#713,#159);
#92=LINE('',#716,#160);
#93=LINE('',#718,#161);
#94=LINE('',#719,#162);
#95=LINE('',#722,#163);
#96=LINE('',#723,#164);
#97=LINE('',#726,#165);
#98=LINE('',#728,#166);
#99=LINE('',#729,#167);
#100=LINE('',#732,#168);
#101=LINE('',#733,#169);
#102=LINE('',#737,#170);
#103=LINE('',#739,#171);
#104=LINE('',#741,#172);
#105=LINE('',#742,#173);
#106=LINE('',#745,#174);
#107=LINE('',#747,#175);
#108=LINE('',#748,#176);
#109=LINE('',#751,#177);
#110=LINE('',#752,#178);
#111=LINE('',#754,#179);
#112=LINE('',#755,#180);
#113=LINE('',#758,#181);
#114=LINE('',#759,#182);
#115=LINE('',#762,#183);
#116=LINE('',#764,#184);
#117=LINE('',#766,#185);
#118=LINE('',#767,#186);
#119=LINE('',#768,#187);
#120=LINE('',#772,#188);
#121=LINE('',#773,#189);
#122=LINE('',#775,#190);
#123=LINE('',#776,#191);
#124=LINE('',#777,#192);
#125=LINE('',#780,#193);
#126=LINE('',#781,#194);
#127=LINE('',#783,#195);
#128=LINE('',#784,#196);
#129=LINE('',#786,#197);
#130=LINE('',#788,#198);
#131=LINE('',#790,#199);
#132=LINE('',#793,#200);
#133=LINE('',#794,#201);
#134=LINE('',#797,#202);
#135=VECTOR('',#546,10.);
#136=VECTOR('',#547,10.);
#137=VECTOR('',#548,10.);
#138=VECTOR('',#549,10.);
#139=VECTOR('',#552,10.);
#140=VECTOR('',#553,10.);
#141=VECTOR('',#554,10.);
#142=VECTOR('',#555,10.);
#143=VECTOR('',#558,10.);
#144=VECTOR('',#559,10.);
#145=VECTOR('',#560,10.);
#146=VECTOR('',#561,10.);
#147=VECTOR('',#562,10.);
#148=VECTOR('',#563,10.);
#149=VECTOR('',#564,10.);
#150=VECTOR('',#565,10.);
#151=VECTOR('',#566,10.);
#152=VECTOR('',#567,10.);
#153=VECTOR('',#568,10.);
#154=VECTOR('',#569,10.);
#155=VECTOR('',#570,10.);
#156=VECTOR('',#571,10.);
#157=VECTOR('',#572,10.);
#158=VECTOR('',#573,10.);
#159=VECTOR('',#574,10.);
#160=VECTOR('',#577,10.);
#161=VECTOR('',#578,10.);
#162=VECTOR('',#579,10.);
#163=VECTOR('',#582,10.);
#164=VECTOR('',#583,10.);
#165=VECTOR('',#586,10.);
#166=VECTOR('',#587,10.);
#167=VECTOR('',#588,10.);
#168=VECTOR('',#591,10.);
#169=VECTOR('',#592,10.);
#170=VECTOR('',#595,10.);
#171=VECTOR('',#596,10.);
#172=VECTOR('',#597,10.);
#173=VECTOR('',#598,10.);
#174=VECTOR('',#601,10.);
#175=VECTOR('',#602,10.);
#176=VECTOR('',#603,10.);
#177=VECTOR('',#606,10.);
#178=VECTOR('',#607,10.);
#179=VECTOR('',#608,10.);
#180=VECTOR('',#609,10.);
#181=VECTOR('',#612,10.);
#182=VECTOR('',#613,10.);
#183=VECTOR('',#616,10.);
#184=VECTOR('',#617,10.);
#185=VECTOR('',#618,10.);
#186=VECTOR('',#619,10.);
#187=VECTOR('',#620,10.);
#188=VECTOR('',#623,10.);
#189=VECTOR('',#624,10.);
#190=VECTOR('',#625,10.);
#191=VECTOR('',#626,10.);
#192=VECTOR('',#627,10.);
#193=VECTOR('',#630,10.);
#194=VECTOR('',#631,10.);
#195=VECTOR('',#634,10.);
#196=VECTOR('',#635,10.);
#197=VECTOR('',#638,10.);
#198=VECTOR('',#641,10.);
#199=VECTOR('',#644,10.);
#200=VECTOR('',#647,10.);
#201=VECTOR('',#648,10.);
#202=VECTOR('',#653,10.);
#203=VERTEX_POINT('',#664);
#204=VERTEX_POINT('',#665);
#205=VERTEX_POINT('',#667);
#206=VERTEX_POINT('',#669);
#207=VERTEX_POINT('',#673);
#208=VERTEX_POINT('',#674);
#209=VERTEX_POINT('',#676);
#210=VERTEX_POINT('',#678);
#211=VERTEX_POINT('',#682);
#212=VERTEX_POINT('',#683);
#213=VERTEX_POINT('',#685);
#214=VERTEX_POINT('',#687);
#215=VERTEX_POINT('',#689);
#216=VERTEX_POINT('',#692);
#217=VERTEX_POINT('',#694);
#218=VERTEX_POINT('',#697);
#219=VERTEX_POINT('',#699);
#220=VERTEX_POINT('',#701);
#221=VERTEX_POINT('',#703);
#222=VERTEX_POINT('',#705);
#223=VERTEX_POINT('',#707);
#224=VERTEX_POINT('',#709);
#225=VERTEX_POINT('',#711);
#226=VERTEX_POINT('',#715);
#227=VERTEX_POINT('',#717);
#228=VERTEX_POINT('',#721);
#229=VERTEX_POINT('',#725);
#230=VERTEX_POINT('',#727);
#231=VERTEX_POINT('',#731);
#232=VERTEX_POINT('',#735);
#233=VERTEX_POINT('',#736);
#234=VERTEX_POINT('',#738);
#235=VERTEX_POINT('',#740);
#236=VERTEX_POINT('',#744);
#237=VERTEX_POINT('',#746);
#238=VERTEX_POINT('',#750);
#239=VERTEX_POINT('',#753);
#240=VERTEX_POINT('',#757);
#241=VERTEX_POINT('',#761);
#242=VERTEX_POINT('',#763);
#243=VERTEX_POINT('',#765);
#244=VERTEX_POINT('',#770);
#245=VERTEX_POINT('',#771);
#246=VERTEX_POINT('',#774);
#247=VERTEX_POINT('',#779);
#248=VERTEX_POINT('',#792);
#249=EDGE_CURVE('',#203,#204,#67,.T.);
#250=EDGE_CURVE('',#205,#204,#68,.T.);
#251=EDGE_CURVE('',#205,#206,#69,.T.);
#252=EDGE_CURVE('',#206,#203,#70,.T.);
#253=EDGE_CURVE('',#207,#208,#71,.T.);
#254=EDGE_CURVE('',#209,#208,#72,.T.);
#255=EDGE_CURVE('',#209,#210,#73,.T.);
#256=EDGE_CURVE('',#210,#207,#74,.T.);
#257=EDGE_CURVE('',#211,#212,#75,.T.);
#258=EDGE_CURVE('',#213,#211,#76,.T.);
#259=EDGE_CURVE('',#214,#213,#77,.T.);
#260=EDGE_CURVE('',#215,#214,#78,.T.);
#261=EDGE_CURVE('',#212,#215,#79,.T.);
#262=EDGE_CURVE('',#204,#216,#80,.T.);
#263=EDGE_CURVE('',#217,#216,#81,.T.);
#264=EDGE_CURVE('',#209,#217,#82,.T.);
#265=EDGE_CURVE('',#218,#208,#83,.T.);
#266=EDGE_CURVE('',#218,#219,#84,.T.);
#267=EDGE_CURVE('',#219,#220,#85,.T.);
#268=EDGE_CURVE('',#221,#220,#86,.T.);
#269=EDGE_CURVE('',#222,#221,#87,.T.);
#270=EDGE_CURVE('',#223,#222,#88,.T.);
#271=EDGE_CURVE('',#223,#224,#89,.T.);
#272=EDGE_CURVE('',#224,#225,#90,.T.);
#273=EDGE_CURVE('',#205,#225,#91,.T.);
#274=EDGE_CURVE('',#226,#220,#92,.T.);
#275=EDGE_CURVE('',#227,#219,#93,.T.);
#276=EDGE_CURVE('',#226,#227,#94,.T.);
#277=EDGE_CURVE('',#218,#228,#95,.T.);
#278=EDGE_CURVE('',#228,#227,#96,.T.);
#279=EDGE_CURVE('',#223,#229,#97,.T.);
#280=EDGE_CURVE('',#229,#230,#98,.T.);
#281=EDGE_CURVE('',#224,#230,#99,.T.);
#282=EDGE_CURVE('',#231,#225,#100,.T.);
#283=EDGE_CURVE('',#230,#231,#101,.T.);
#284=EDGE_CURVE('',#232,#233,#102,.T.);
#285=EDGE_CURVE('',#232,#234,#103,.T.);
#286=EDGE_CURVE('',#234,#235,#104,.T.);
#287=EDGE_CURVE('',#235,#233,#105,.T.);
#288=EDGE_CURVE('',#236,#215,#106,.T.);
#289=EDGE_CURVE('',#236,#237,#107,.T.);
#290=EDGE_CURVE('',#237,#212,#108,.T.);
#291=EDGE_CURVE('',#238,#231,#109,.T.);
#292=EDGE_CURVE('',#238,#232,#110,.T.);
#293=EDGE_CURVE('',#239,#233,#111,.T.);
#294=EDGE_CURVE('',#239,#206,#112,.T.);
#295=EDGE_CURVE('',#240,#237,#113,.T.);
#296=EDGE_CURVE('',#240,#211,#114,.T.);
#297=EDGE_CURVE('',#241,#238,#115,.T.);
#298=EDGE_CURVE('',#229,#242,#116,.T.);
#299=EDGE_CURVE('',#242,#243,#117,.T.);
#300=EDGE_CURVE('',#243,#226,#118,.T.);
#301=EDGE_CURVE('',#241,#228,#119,.T.);
#302=EDGE_CURVE('',#244,#245,#120,.T.);
#303=EDGE_CURVE('',#245,#203,#121,.T.);
#304=EDGE_CURVE('',#239,#246,#122,.T.);
#305=EDGE_CURVE('',#246,#207,#123,.T.);
#306=EDGE_CURVE('',#244,#210,#124,.T.);
#307=EDGE_CURVE('',#247,#214,#125,.T.);
#308=EDGE_CURVE('',#247,#236,#126,.T.);
#309=EDGE_CURVE('',#246,#235,#127,.T.);
#310=EDGE_CURVE('',#234,#241,#128,.T.);
#311=EDGE_CURVE('',#243,#221,#129,.T.);
#312=EDGE_CURVE('',#244,#217,#130,.T.);
#313=EDGE_CURVE('',#216,#245,#131,.T.);
#314=EDGE_CURVE('',#248,#240,#132,.T.);
#315=EDGE_CURVE('',#248,#247,#133,.T.);
#316=EDGE_CURVE('',#222,#242,#134,.T.);
#317=ORIENTED_EDGE('',*,*,#249,.T.);
#318=ORIENTED_EDGE('',*,*,#250,.F.);
#319=ORIENTED_EDGE('',*,*,#251,.T.);
#320=ORIENTED_EDGE('',*,*,#252,.T.);
#321=ORIENTED_EDGE('',*,*,#253,.T.);
#322=ORIENTED_EDGE('',*,*,#254,.F.);
#323=ORIENTED_EDGE('',*,*,#255,.T.);
#324=ORIENTED_EDGE('',*,*,#256,.T.);
#325=ORIENTED_EDGE('',*,*,#257,.F.);
#326=ORIENTED_EDGE('',*,*,#258,.F.);
#327=ORIENTED_EDGE('',*,*,#259,.F.);
#328=ORIENTED_EDGE('',*,*,#260,.F.);
#329=ORIENTED_EDGE('',*,*,#261,.F.);
#330=ORIENTED_EDGE('',*,*,#262,.T.);
#331=ORIENTED_EDGE('',*,*,#263,.F.);
#332=ORIENTED_EDGE('',*,*,#264,.F.);
#333=ORIENTED_EDGE('',*,*,#254,.T.);
#334=ORIENTED_EDGE('',*,*,#265,.F.);
#335=ORIENTED_EDGE('',*,*,#266,.T.);
#336=ORIENTED_EDGE('',*,*,#267,.T.);
#337=ORIENTED_EDGE('',*,*,#268,.F.);
#338=ORIENTED_EDGE('',*,*,#269,.F.);
#339=ORIENTED_EDGE('',*,*,#270,.F.);
#340=ORIENTED_EDGE('',*,*,#271,.T.);
#341=ORIENTED_EDGE('',*,*,#272,.T.);
#342=ORIENTED_EDGE('',*,*,#273,.F.);
#343=ORIENTED_EDGE('',*,*,#250,.T.);
#344=ORIENTED_EDGE('',*,*,#274,.T.);
#345=ORIENTED_EDGE('',*,*,#267,.F.);
#346=ORIENTED_EDGE('',*,*,#275,.F.);
#347=ORIENTED_EDGE('',*,*,#276,.F.);
#348=ORIENTED_EDGE('',*,*,#275,.T.);
#349=ORIENTED_EDGE('',*,*,#266,.F.);
#350=ORIENTED_EDGE('',*,*,#277,.T.);
#351=ORIENTED_EDGE('',*,*,#278,.T.);
#352=ORIENTED_EDGE('',*,*,#279,.T.);
#353=ORIENTED_EDGE('',*,*,#280,.T.);
#354=ORIENTED_EDGE('',*,*,#281,.F.);
#355=ORIENTED_EDGE('',*,*,#271,.F.);
#356=ORIENTED_EDGE('',*,*,#282,.T.);
#357=ORIENTED_EDGE('',*,*,#272,.F.);
#358=ORIENTED_EDGE('',*,*,#281,.T.);
#359=ORIENTED_EDGE('',*,*,#283,.T.);
#360=ORIENTED_EDGE('',*,*,#284,.F.);
#361=ORIENTED_EDGE('',*,*,#285,.T.);
#362=ORIENTED_EDGE('',*,*,#286,.T.);
#363=ORIENTED_EDGE('',*,*,#287,.T.);
#364=ORIENTED_EDGE('',*,*,#261,.T.);
#365=ORIENTED_EDGE('',*,*,#288,.F.);
#366=ORIENTED_EDGE('',*,*,#289,.T.);
#367=ORIENTED_EDGE('',*,*,#290,.T.);
#368=ORIENTED_EDGE('',*,*,#273,.T.);
#369=ORIENTED_EDGE('',*,*,#282,.F.);
#370=ORIENTED_EDGE('',*,*,#291,.F.);
#371=ORIENTED_EDGE('',*,*,#292,.T.);
#372=ORIENTED_EDGE('',*,*,#284,.T.);
#373=ORIENTED_EDGE('',*,*,#293,.F.);
#374=ORIENTED_EDGE('',*,*,#294,.T.);
#375=ORIENTED_EDGE('',*,*,#251,.F.);
#376=ORIENTED_EDGE('',*,*,#257,.T.);
#377=ORIENTED_EDGE('',*,*,#290,.F.);
#378=ORIENTED_EDGE('',*,*,#295,.F.);
#379=ORIENTED_EDGE('',*,*,#296,.T.);
#380=ORIENTED_EDGE('',*,*,#297,.T.);
#381=ORIENTED_EDGE('',*,*,#291,.T.);
#382=ORIENTED_EDGE('',*,*,#283,.F.);
#383=ORIENTED_EDGE('',*,*,#280,.F.);
#384=ORIENTED_EDGE('',*,*,#298,.T.);
#385=ORIENTED_EDGE('',*,*,#299,.T.);
#386=ORIENTED_EDGE('',*,*,#300,.T.);
#387=ORIENTED_EDGE('',*,*,#276,.T.);
#388=ORIENTED_EDGE('',*,*,#278,.F.);
#389=ORIENTED_EDGE('',*,*,#301,.F.);
#390=ORIENTED_EDGE('',*,*,#302,.T.);
#391=ORIENTED_EDGE('',*,*,#303,.T.);
#392=ORIENTED_EDGE('',*,*,#252,.F.);
#393=ORIENTED_EDGE('',*,*,#294,.F.);
#394=ORIENTED_EDGE('',*,*,#304,.T.);
#395=ORIENTED_EDGE('',*,*,#305,.T.);
#396=ORIENTED_EDGE('',*,*,#256,.F.);
#397=ORIENTED_EDGE('',*,*,#306,.F.);
#398=ORIENTED_EDGE('',*,*,#260,.T.);
#399=ORIENTED_EDGE('',*,*,#307,.F.);
#400=ORIENTED_EDGE('',*,*,#308,.T.);
#401=ORIENTED_EDGE('',*,*,#288,.T.);
#402=ORIENTED_EDGE('',*,*,#305,.F.);
#403=ORIENTED_EDGE('',*,*,#309,.T.);
#404=ORIENTED_EDGE('',*,*,#286,.F.);
#405=ORIENTED_EDGE('',*,*,#310,.T.);
#406=ORIENTED_EDGE('',*,*,#301,.T.);
#407=ORIENTED_EDGE('',*,*,#277,.F.);
#408=ORIENTED_EDGE('',*,*,#265,.T.);
#409=ORIENTED_EDGE('',*,*,#253,.F.);
#410=ORIENTED_EDGE('',*,*,#311,.T.);
#411=ORIENTED_EDGE('',*,*,#268,.T.);
#412=ORIENTED_EDGE('',*,*,#274,.F.);
#413=ORIENTED_EDGE('',*,*,#300,.F.);
#414=ORIENTED_EDGE('',*,*,#264,.T.);
#415=ORIENTED_EDGE('',*,*,#312,.F.);
#416=ORIENTED_EDGE('',*,*,#306,.T.);
#417=ORIENTED_EDGE('',*,*,#255,.F.);
#418=ORIENTED_EDGE('',*,*,#313,.T.);
#419=ORIENTED_EDGE('',*,*,#302,.F.);
#420=ORIENTED_EDGE('',*,*,#312,.T.);
#421=ORIENTED_EDGE('',*,*,#263,.T.);
#422=ORIENTED_EDGE('',*,*,#314,.T.);
#423=ORIENTED_EDGE('',*,*,#295,.T.);
#424=ORIENTED_EDGE('',*,*,#289,.F.);
#425=ORIENTED_EDGE('',*,*,#308,.F.);
#426=ORIENTED_EDGE('',*,*,#315,.F.);
#427=ORIENTED_EDGE('',*,*,#258,.T.);
#428=ORIENTED_EDGE('',*,*,#296,.F.);
#429=ORIENTED_EDGE('',*,*,#314,.F.);
#430=ORIENTED_EDGE('',*,*,#315,.T.);
#431=ORIENTED_EDGE('',*,*,#307,.T.);
#432=ORIENTED_EDGE('',*,*,#259,.T.);
#433=ORIENTED_EDGE('',*,*,#316,.F.);
#434=ORIENTED_EDGE('',*,*,#269,.T.);
#435=ORIENTED_EDGE('',*,*,#311,.F.);
#436=ORIENTED_EDGE('',*,*,#299,.F.);
#437=ORIENTED_EDGE('',*,*,#292,.F.);
#438=ORIENTED_EDGE('',*,*,#297,.F.);
#439=ORIENTED_EDGE('',*,*,#310,.F.);
#440=ORIENTED_EDGE('',*,*,#285,.F.);
#441=ORIENTED_EDGE('',*,*,#293,.T.);
#442=ORIENTED_EDGE('',*,*,#287,.F.);
#443=ORIENTED_EDGE('',*,*,#309,.F.);
#444=ORIENTED_EDGE('',*,*,#304,.F.);
#445=ORIENTED_EDGE('',*,*,#279,.F.);
#446=ORIENTED_EDGE('',*,*,#270,.T.);
#447=ORIENTED_EDGE('',*,*,#316,.T.);
#448=ORIENTED_EDGE('',*,*,#298,.F.);
#449=ORIENTED_EDGE('',*,*,#313,.F.);
#450=ORIENTED_EDGE('',*,*,#262,.F.);
#451=ORIENTED_EDGE('',*,*,#249,.F.);
#452=ORIENTED_EDGE('',*,*,#303,.F.);
#453=PLANE('',#517);
#454=PLANE('',#518);
#455=PLANE('',#519);
#456=PLANE('',#520);
#457=PLANE('',#521);
#458=PLANE('',#522);
#459=PLANE('',#523);
#460=PLANE('',#524);
#461=PLANE('',#525);
#462=PLANE('',#526);
#463=PLANE('',#527);
#464=PLANE('',#528);
#465=PLANE('',#529);
#466=PLANE('',#530);
#467=PLANE('',#531);
#468=PLANE('',#532);
#469=PLANE('',#533);
#470=PLANE('',#534);
#471=PLANE('',#535);
#472=PLANE('',#536);
#473=PLANE('',#537);
#474=PLANE('',#538);
#475=PLANE('',#539);
#476=PLANE('',#540);
#477=PLANE('',#541);
#478=ADVANCED_FACE('',(#16),#453,.T.);
#479=ADVANCED_FACE('',(#17),#454,.T.);
#480=ADVANCED_FACE('',(#18,#15),#455,.F.);
#481=ADVANCED_FACE('',(#19),#456,.T.);
#482=ADVANCED_FACE('',(#20),#457,.T.);
#483=ADVANCED_FACE('',(#21),#458,.T.);
#484=ADVANCED_FACE('',(#22),#459,.T.);
#485=ADVANCED_FACE('',(#23),#460,.F.);
#486=ADVANCED_FACE('',(#24),#461,.T.);
#487=ADVANCED_FACE('',(#25),#462,.F.);
#488=ADVANCED_FACE('',(#26),#463,.T.);
#489=ADVANCED_FACE('',(#27),#464,.T.);
#490=ADVANCED_FACE('',(#28),#465,.T.);
#491=ADVANCED_FACE('',(#29),#466,.F.);
#492=ADVANCED_FACE('',(#30),#467,.T.);
#493=ADVANCED_FACE('',(#31),#468,.F.);
#494=ADVANCED_FACE('',(#32),#469,.F.);
#495=ADVANCED_FACE('',(#33),#470,.T.);
#496=ADVANCED_FACE('',(#34),#471,.F.);
#497=ADVANCED_FACE('',(#35),#472,.T.);
#498=ADVANCED_FACE('',(#36),#473,.T.);
#499=ADVANCED_FACE('',(#37),#474,.F.);
#500=ADVANCED_FACE('',(#38),#475,.F.);
#501=ADVANCED_FACE('',(#39),#476,.T.);
#502=ADVANCED_FACE('',(#40),#477,.T.);
#503=CLOSED_SHELL('',(#478,#479,#480,#481,#482,#483,#484,#485,#486,#487,
#488,#489,#490,#491,#492,#493,#494,#495,#496,#497,#498,#499,#500,#501,#502));
#504=DERIVED_UNIT_ELEMENT(#506,1.);
#505=DERIVED_UNIT_ELEMENT(#807,-3.);
#506=(
MASS_UNIT()
NAMED_UNIT(*)
SI_UNIT(.KILO.,.GRAM.)
);
#507=DERIVED_UNIT((#504,#505));
#508=MEASURE_REPRESENTATION_ITEM('density measure',
POSITIVE_RATIO_MEASURE(7850.),#507);
#509=PROPERTY_DEFINITION_REPRESENTATION(#514,#511);
#510=PROPERTY_DEFINITION_REPRESENTATION(#515,#512);
#511=REPRESENTATION('material name',(#513),#804);
#512=REPRESENTATION('density',(#508),#804);
#513=DESCRIPTIVE_REPRESENTATION_ITEM('Steel','Steel');
#514=PROPERTY_DEFINITION('material property','material name',#814);
#515=PROPERTY_DEFINITION('material property','density of part',#814);
#516=AXIS2_PLACEMENT_3D('',#662,#542,#543);
#517=AXIS2_PLACEMENT_3D('',#663,#544,#545);
#518=AXIS2_PLACEMENT_3D('',#672,#550,#551);
#519=AXIS2_PLACEMENT_3D('',#681,#556,#557);
#520=AXIS2_PLACEMENT_3D('',#714,#575,#576);
#521=AXIS2_PLACEMENT_3D('',#720,#580,#581);
#522=AXIS2_PLACEMENT_3D('',#724,#584,#585);
#523=AXIS2_PLACEMENT_3D('',#730,#589,#590);
#524=AXIS2_PLACEMENT_3D('',#734,#593,#594);
#525=AXIS2_PLACEMENT_3D('',#743,#599,#600);
#526=AXIS2_PLACEMENT_3D('',#749,#604,#605);
#527=AXIS2_PLACEMENT_3D('',#756,#610,#611);
#528=AXIS2_PLACEMENT_3D('',#760,#614,#615);
#529=AXIS2_PLACEMENT_3D('',#769,#621,#622);
#530=AXIS2_PLACEMENT_3D('',#778,#628,#629);
#531=AXIS2_PLACEMENT_3D('',#782,#632,#633);
#532=AXIS2_PLACEMENT_3D('',#785,#636,#637);
#533=AXIS2_PLACEMENT_3D('',#787,#639,#640);
#534=AXIS2_PLACEMENT_3D('',#789,#642,#643);
#535=AXIS2_PLACEMENT_3D('',#791,#645,#646);
#536=AXIS2_PLACEMENT_3D('',#795,#649,#650);
#537=AXIS2_PLACEMENT_3D('',#796,#651,#652);
#538=AXIS2_PLACEMENT_3D('',#798,#654,#655);
#539=AXIS2_PLACEMENT_3D('',#799,#656,#657);
#540=AXIS2_PLACEMENT_3D('',#800,#658,#659);
#541=AXIS2_PLACEMENT_3D('',#801,#660,#661);
#542=DIRECTION('axis',(0.,0.,1.));
#543=DIRECTION('refdir',(1.,0.,0.));
#544=DIRECTION('center_axis',(-1.,0.,0.));
#545=DIRECTION('ref_axis',(0.,0.,1.));
#546=DIRECTION('',(0.,0.,-1.));
#547=DIRECTION('',(0.,1.,0.));
#548=DIRECTION('',(0.,0.,1.));
#549=DIRECTION('',(0.,1.,0.));
#550=DIRECTION('center_axis',(-1.,0.,0.));
#551=DIRECTION('ref_axis',(0.,0.,1.));
#552=DIRECTION('',(0.,0.,-1.));
#553=DIRECTION('',(0.,1.,0.));
#554=DIRECTION('',(0.,0.,1.));
#555=DIRECTION('',(0.,1.,0.));
#556=DIRECTION('center_axis',(0.,0.,-1.));
#557=DIRECTION('ref_axis',(-1.,0.,0.));
#558=DIRECTION('',(1.,0.,0.));
#559=DIRECTION('',(0.,1.,0.));
#560=DIRECTION('',(0.,1.,0.));
#561=DIRECTION('',(-1.,0.,0.));
#562=DIRECTION('',(0.,-1.,0.));
#563=DIRECTION('',(1.,0.,0.));
#564=DIRECTION('',(0.,1.,0.));
#565=DIRECTION('',(1.,0.,0.));
#566=DIRECTION('',(1.,0.,0.));
#567=DIRECTION('',(0.,-1.,0.));
#568=DIRECTION('',(-1.,0.,0.));
#569=DIRECTION('',(0.999999999999989,1.49011676331438E-7,0.));
#570=DIRECTION('',(0.,-1.,0.));
#571=DIRECTION('',(-0.999999999999989,1.49011676331438E-7,0.));
#572=DIRECTION('',(1.,0.,0.));
#573=DIRECTION('',(0.,-1.,0.));
#574=DIRECTION('',(-1.,0.,0.));
#575=DIRECTION('center_axis',(0.,-1.,0.));
#576=DIRECTION('ref_axis',(0.,0.,-1.));
#577=DIRECTION('',(0.,0.,-1.));
#578=DIRECTION('',(0.,0.,-1.));
#579=DIRECTION('',(1.,0.,0.));
#580=DIRECTION('center_axis',(1.,0.,0.));
#581=DIRECTION('ref_axis',(0.,0.,-1.));
#582=DIRECTION('',(0.,0.,1.));
#583=DIRECTION('',(0.,-1.,0.));
#584=DIRECTION('center_axis',(0.,1.,0.));
#585=DIRECTION('ref_axis',(0.,0.,1.));
#586=DIRECTION('',(0.,0.,1.));
#587=DIRECTION('',(1.,0.,0.));
#588=DIRECTION('',(0.,0.,1.));
#589=DIRECTION('center_axis',(1.,0.,0.));
#590=DIRECTION('ref_axis',(0.,0.,-1.));
#591=DIRECTION('',(0.,0.,-1.));
#592=DIRECTION('',(0.,-1.,0.));
#593=DIRECTION('center_axis',(0.,0.,-1.));
#594=DIRECTION('ref_axis',(-1.,0.,0.));
#595=DIRECTION('',(1.,0.,0.));
#596=DIRECTION('',(0.,-1.,0.));
#597=DIRECTION('',(1.,0.,0.));
#598=DIRECTION('',(0.,1.,0.));
#599=DIRECTION('center_axis',(1.,0.,0.));
#600=DIRECTION('ref_axis',(0.,1.,0.));
#601=DIRECTION('',(0.,0.,1.));
#602=DIRECTION('',(0.,1.,0.));
#603=DIRECTION('',(0.,0.,1.));
#604=DIRECTION('center_axis',(0.,1.,0.));
#605=DIRECTION('ref_axis',(1.,0.,0.));
#606=DIRECTION('',(1.,0.,0.));
#607=DIRECTION('',(0.,0.,-1.));
#608=DIRECTION('',(0.,0.,-1.));
#609=DIRECTION('',(-1.,0.,0.));
#610=DIRECTION('center_axis',(0.,1.,0.));
#611=DIRECTION('ref_axis',(-1.,0.,0.));
#612=DIRECTION('',(1.,0.,0.));
#613=DIRECTION('',(0.,0.,1.));
#614=DIRECTION('center_axis',(0.,0.,1.));
#615=DIRECTION('ref_axis',(1.,0.,0.));
#616=DIRECTION('',(0.,1.,0.));
#617=DIRECTION('',(-0.999999999999989,1.49011676331438E-7,0.));
#618=DIRECTION('',(0.,-1.,0.));
#619=DIRECTION('',(0.999999999999989,1.49011676331438E-7,0.));
#620=DIRECTION('',(1.,0.,0.));
#621=DIRECTION('center_axis',(0.,0.,1.));
#622=DIRECTION('ref_axis',(1.,0.,0.));
#623=DIRECTION('',(0.,1.,0.));
#624=DIRECTION('',(-1.,0.,0.));
#625=DIRECTION('',(0.,-1.,0.));
#626=DIRECTION('',(-1.,0.,0.));
#627=DIRECTION('',(-1.,0.,0.));
#628=DIRECTION('center_axis',(0.,1.,0.));
#629=DIRECTION('ref_axis',(-1.,0.,0.));
#630=DIRECTION('',(0.,0.,1.));
#631=DIRECTION('',(1.,0.,0.));
#632=DIRECTION('center_axis',(0.,1.,0.));
#633=DIRECTION('ref_axis',(1.,0.,0.));
#634=DIRECTION('',(0.,0.,-1.));
#635=DIRECTION('',(0.,0.,1.));
#636=DIRECTION('center_axis',(-1.49011676331438E-7,0.999999999999989,0.));
#637=DIRECTION('ref_axis',(-0.999999999999989,-1.49011676331438E-7,0.));
#638=DIRECTION('',(0.,0.,-1.));
#639=DIRECTION('center_axis',(0.,1.,0.));
#640=DIRECTION('ref_axis',(-1.,0.,0.));
#641=DIRECTION('',(0.,0.,-1.));
#642=DIRECTION('center_axis',(1.,0.,0.));
#643=DIRECTION('ref_axis',(0.,1.,0.));
#644=DIRECTION('',(0.,0.,1.));
#645=DIRECTION('center_axis',(0.,0.,1.));
#646=DIRECTION('ref_axis',(1.,0.,0.));
#647=DIRECTION('',(0.,1.,0.));
#648=DIRECTION('',(0.,-1.,0.));
#649=DIRECTION('center_axis',(-1.,0.,0.));
#650=DIRECTION('ref_axis',(0.,-1.,0.));
#651=DIRECTION('center_axis',(-1.,0.,0.));
#652=DIRECTION('ref_axis',(0.,-1.,0.));
#653=DIRECTION('',(0.,0.,1.));
#654=DIRECTION('center_axis',(-1.,0.,0.));
#655=DIRECTION('ref_axis',(0.,1.,0.));
#656=DIRECTION('center_axis',(1.,0.,0.));
#657=DIRECTION('ref_axis',(0.,-1.,0.));
#658=DIRECTION('center_axis',(1.49011676331438E-7,0.999999999999989,0.));
#659=DIRECTION('ref_axis',(-0.999999999999989,1.49011676331438E-7,0.));
#660=DIRECTION('center_axis',(0.,1.,0.));
#661=DIRECTION('ref_axis',(-1.,0.,0.));
#662=CARTESIAN_POINT('',(0.,0.,0.));
#663=CARTESIAN_POINT('Origin',(-167.000001892447,-50.,0.));
#664=CARTESIAN_POINT('',(-167.000001892447,-50.,15.9750001937151));
#665=CARTESIAN_POINT('',(-167.000001892447,-50.,12.85));
#666=CARTESIAN_POINT('',(-167.000001892447,-50.,13.0000001937151));
#667=CARTESIAN_POINT('',(-167.000001892447,-52.0000007748604,12.85));
#668=CARTESIAN_POINT('',(-167.000001892447,-57.0000002905726,12.85));
#669=CARTESIAN_POINT('',(-167.000001892447,-52.0000007748604,15.9750001937151));
#670=CARTESIAN_POINT('',(-167.000001892447,-52.0000007748604,13.0000001937151));
#671=CARTESIAN_POINT('',(-167.000001892447,-64.,15.9750001937151));
#672=CARTESIAN_POINT('Origin',(-167.000001892447,-78.0000019073486,0.));
#673=CARTESIAN_POINT('',(-167.000001892447,-76.0000011324883,15.9750001937151));
#674=CARTESIAN_POINT('',(-167.000001892447,-76.0000011324883,12.85));
#675=CARTESIAN_POINT('',(-167.000001892447,-76.0000011324883,16.4875));
#676=CARTESIAN_POINT('',(-167.000001892447,-78.0000019073486,12.85));
#677=CARTESIAN_POINT('',(-167.000001892447,-71.000001244247,12.85));
#678=CARTESIAN_POINT('',(-167.000001892447,-78.0000019073486,15.9750001937151));
#679=CARTESIAN_POINT('',(-167.000001892447,-78.0000019073486,12.975));
#680=CARTESIAN_POINT('',(-167.000001892447,-64.0000019073486,15.9750001937151));
#681=CARTESIAN_POINT('Origin',(-171.000001169741,-64.0000005811453,12.85));
#682=CARTESIAN_POINT('',(-187.5,-47.5,12.85));
#683=CARTESIAN_POINT('',(-154.500002339482,-47.5,12.85));
#684=CARTESIAN_POINT('',(-162.750001754612,-47.5,12.85));
#685=CARTESIAN_POINT('',(-187.500002793968,-64.0000009536743,12.85));
#686=CARTESIAN_POINT('',(-187.5,-55.7500002905726,12.85));
#687=CARTESIAN_POINT('',(-187.5,-80.5000019073486,12.85));
#688=CARTESIAN_POINT('',(-187.5,-55.7500002905726,12.85));
#689=CARTESIAN_POINT('',(-154.500002339482,-80.5000019073486,12.85));
#690=CARTESIAN_POINT('',(-162.750001754612,-80.5000019073486,12.85));
#691=CARTESIAN_POINT('',(-154.500002339482,-72.2500008717179,12.85));
#692=CARTESIAN_POINT('',(-157.,-50.,12.85));
#693=CARTESIAN_POINT('',(-166.500001531094,-50.,12.85));
#694=CARTESIAN_POINT('',(-157.,-78.0000019073486,12.85));
#695=CARTESIAN_POINT('',(-157.,-71.0000002905726,12.85));
#696=CARTESIAN_POINT('',(-167.500001545995,-78.0000011622906,12.85));
#697=CARTESIAN_POINT('',(-175.000002160668,-76.0000011324883,12.85));
#698=CARTESIAN_POINT('',(-177.000001687557,-76.0000011324883,12.85));
#699=CARTESIAN_POINT('',(-175.000002160668,-78.0000011622906,12.85));
#700=CARTESIAN_POINT('',(-175.000002160668,-70.0000008568168,12.85));
#701=CARTESIAN_POINT('',(-180.000002160668,-78.0000011622906,12.85));
#702=CARTESIAN_POINT('',(-175.500001665205,-78.0000011622906,12.85));
#703=CARTESIAN_POINT('',(-185.,-78.0000019073486,12.85));
#704=CARTESIAN_POINT('',(-175.500000622123,-78.0000004917378,12.85));
#705=CARTESIAN_POINT('',(-185.,-50.,12.85));
#706=CARTESIAN_POINT('',(-185.,-71.000001616776,12.85));
#707=CARTESIAN_POINT('',(-180.000002160668,-50.0000007450581,12.85));
#708=CARTESIAN_POINT('',(-175.500000622123,-50.0000014156108,12.85));
#709=CARTESIAN_POINT('',(-175.000002160668,-50.0000007450581,12.85));
#710=CARTESIAN_POINT('',(-175.500001665205,-50.0000007450581,12.85));
#711=CARTESIAN_POINT('',(-175.000002160668,-52.0000007748604,12.85));
#712=CARTESIAN_POINT('',(-175.000002160668,-58.0000006780028,12.85));
#713=CARTESIAN_POINT('',(-177.000001687557,-52.0000007748604,12.85));
#714=CARTESIAN_POINT('Origin',(-180.000002160668,-78.0000011622906,15.9750001937151));
#715=CARTESIAN_POINT('',(-180.000002160668,-78.0000011622906,15.9750001937151));
#716=CARTESIAN_POINT('',(-180.000002160668,-78.0000011622906,12.975));
#717=CARTESIAN_POINT('',(-175.000002160668,-78.0000011622906,15.9750001937151));
#718=CARTESIAN_POINT('',(-175.000002160668,-78.0000011622906,12.975));
#719=CARTESIAN_POINT('',(-180.000002160668,-78.0000011622906,15.9750001937151));
#720=CARTESIAN_POINT('Origin',(-175.000002160668,-76.0000011324883,0.));
#721=CARTESIAN_POINT('',(-175.000002160668,-76.0000011324883,15.9750001937151));
#722=CARTESIAN_POINT('',(-175.000002160668,-76.0000011324883,16.4875));
#723=CARTESIAN_POINT('',(-175.000002160668,-63.0000015199184,15.9750001937151));
#724=CARTESIAN_POINT('Origin',(-180.000002160668,-50.0000007450581,12.85));
#725=CARTESIAN_POINT('',(-180.000002160668,-50.0000007450581,15.9750001937151));
#726=CARTESIAN_POINT('',(-180.000002160668,-50.0000007450581,13.0000001937151));
#727=CARTESIAN_POINT('',(-175.000002160668,-50.0000007450581,15.9750001937151));
#728=CARTESIAN_POINT('',(-180.000002160668,-50.0000007450581,15.9750001937151));
#729=CARTESIAN_POINT('',(-175.000002160668,-50.0000007450581,13.0000001937151));
#730=CARTESIAN_POINT('Origin',(-175.000002160668,-52.0000007748604,0.));
#731=CARTESIAN_POINT('',(-175.000002160668,-52.0000007748604,15.9750001937151));
#732=CARTESIAN_POINT('',(-175.000002160668,-52.0000007748604,0.));
#733=CARTESIAN_POINT('',(-175.000002160668,-65.0000003874302,15.9750001937151));
#734=CARTESIAN_POINT('Origin',(-171.000002026558,-64.0000009536743,2.));
#735=CARTESIAN_POINT('',(-183.000002205372,-52.0000007748604,2.));
#736=CARTESIAN_POINT('',(-159.000001847744,-52.0000007748604,2.));
#737=CARTESIAN_POINT('',(-183.000002205372,-52.0000007748604,2.));
#738=CARTESIAN_POINT('',(-183.000002205372,-76.0000011324883,2.));
#739=CARTESIAN_POINT('',(-183.000002205372,-58.0000008642673,2.));
#740=CARTESIAN_POINT('',(-159.000001847744,-76.0000011324883,2.));
#741=CARTESIAN_POINT('',(-166.500001959503,-76.0000011324883,2.));
#742=CARTESIAN_POINT('',(-159.000001847744,-70.0000010430813,2.));
#743=CARTESIAN_POINT('Origin',(-154.500002339482,-80.5000011622906,0.));
#744=CARTESIAN_POINT('',(-154.500002339482,-80.5000019073486,0.));
#745=CARTESIAN_POINT('',(-154.500002339482,-80.5000019073486,0.));
#746=CARTESIAN_POINT('',(-154.500002339482,-47.5,0.));
#747=CARTESIAN_POINT('',(-154.500002339482,-80.5000019073486,0.));
#748=CARTESIAN_POINT('',(-154.500002339482,-47.5,0.));
#749=CARTESIAN_POINT('Origin',(-183.000002205372,-52.0000007748604,20.));
#750=CARTESIAN_POINT('',(-183.000002205372,-52.0000007748604,15.9750001937151));
#751=CARTESIAN_POINT('',(-181.00000243634,-52.0000007748604,15.9750001937151));
#752=CARTESIAN_POINT('',(-183.000002205372,-52.0000007748604,15.9750001937151));
#753=CARTESIAN_POINT('',(-159.000001847744,-52.0000007748604,15.9750001937151));
#754=CARTESIAN_POINT('',(-159.000001847744,-52.0000007748604,20.));
#755=CARTESIAN_POINT('',(-162.000001892447,-52.0000007748604,15.9750001937151));
#756=CARTESIAN_POINT('Origin',(-154.500002339482,-47.5,0.));
#757=CARTESIAN_POINT('',(-187.5,-47.5,0.));
#758=CARTESIAN_POINT('',(-187.5,-47.5,0.));
#759=CARTESIAN_POINT('',(-187.5,-47.5,0.));
#760=CARTESIAN_POINT('Origin',(-179.000002667308,-78.,15.9750001937151));
#761=CARTESIAN_POINT('',(-183.000002205372,-76.0000011324883,15.9750001937151));
#762=CARTESIAN_POINT('',(-183.000002205372,-51.0000013411045,15.9750001937151));
#763=CARTESIAN_POINT('',(-185.,-50.,15.9750001937151));
#764=CARTESIAN_POINT('',(-179.500000327825,-50.0000008195642,15.9750001937151));
#765=CARTESIAN_POINT('',(-185.,-78.0000019073486,15.9750001937151));
#766=CARTESIAN_POINT('',(-185.,-64.,15.9750001937151));
#767=CARTESIAN_POINT('',(-179.500000327825,-78.0000010877845,15.9750001937151));
#768=CARTESIAN_POINT('',(-180.000002160668,-76.0000011324883,15.9750001937151));
#769=CARTESIAN_POINT('Origin',(-155.00000230968,-78.,15.9750001937151));
#770=CARTESIAN_POINT('',(-157.,-78.0000019073486,15.9750001937151));
#771=CARTESIAN_POINT('',(-157.,-50.,15.9750001937151));
#772=CARTESIAN_POINT('',(-157.,-50.0000019073486,15.9750001937151));
#773=CARTESIAN_POINT('',(-159.500002115965,-50.0000007450581,15.9750001937151));
#774=CARTESIAN_POINT('',(-159.000001847744,-76.0000011324883,15.9750001937151));
#775=CARTESIAN_POINT('',(-159.000001847744,-65.0000003874302,15.9750001937151));
#776=CARTESIAN_POINT('',(-169.000002257526,-76.0000011324883,15.9750001937151));
#777=CARTESIAN_POINT('',(-162.000001892447,-78.0000019073486,15.9750001937151));
#778=CARTESIAN_POINT('Origin',(-154.500002339482,-80.5000019073486,0.));
#779=CARTESIAN_POINT('',(-187.5,-80.5000019073486,0.));
#780=CARTESIAN_POINT('',(-187.5,-80.5000019073486,0.));
#781=CARTESIAN_POINT('',(-187.5,-80.5000019073486,0.));
#782=CARTESIAN_POINT('Origin',(-183.000002205372,-76.0000011324883,20.));
#783=CARTESIAN_POINT('',(-159.000001847744,-76.0000011324883,20.));
#784=CARTESIAN_POINT('',(-183.000002205372,-76.0000011324883,13.0000001937151));
#785=CARTESIAN_POINT('Origin',(-180.000002160668,-78.0000011622906,0.));
#786=CARTESIAN_POINT('',(-185.,-78.0000019073486,12.975));
#787=CARTESIAN_POINT('Origin',(-164.00000192225,-78.0000011622906,0.));
#788=CARTESIAN_POINT('',(-157.,-78.0000019073486,12.975));
#789=CARTESIAN_POINT('Origin',(-157.,-78.,0.));
#790=CARTESIAN_POINT('',(-157.,-50.,13.0000001937151));
#791=CARTESIAN_POINT('Origin',(-171.,-64.0000005811453,0.));
#792=CARTESIAN_POINT('',(-187.500002793968,-64.0000009536743,0.));
#793=CARTESIAN_POINT('',(-187.5,-80.5000011622906,0.));
#794=CARTESIAN_POINT('',(-187.5,-47.5000007450581,0.));
#795=CARTESIAN_POINT('Origin',(-187.5,-47.5,0.));
#796=CARTESIAN_POINT('Origin',(-185.,-50.,0.));
#797=CARTESIAN_POINT('',(-185.,-50.,13.0000001937151));
#798=CARTESIAN_POINT('Origin',(-183.000002205372,-76.0000011324883,20.));
#799=CARTESIAN_POINT('Origin',(-159.000001847744,-52.0000007748604,20.));
#800=CARTESIAN_POINT('Origin',(-180.000002160668,-50.0000007450581,0.));
#801=CARTESIAN_POINT('Origin',(-164.00000192225,-50.0000007450581,0.));
#802=UNCERTAINTY_MEASURE_WITH_UNIT(LENGTH_MEASURE(0.01),#806,
'DISTANCE_ACCURACY_VALUE',
'Maximum model space distance between geometric entities at asserted c
onnectivities');
#803=UNCERTAINTY_MEASURE_WITH_UNIT(LENGTH_MEASURE(0.01),#806,
'DISTANCE_ACCURACY_VALUE',
'Maximum model space distance between geometric entities at asserted c
onnectivities');
#804=(
GEOMETRIC_REPRESENTATION_CONTEXT(3)
GLOBAL_UNCERTAINTY_ASSIGNED_CONTEXT((#802))
GLOBAL_UNIT_ASSIGNED_CONTEXT((#806,#808,#809))
REPRESENTATION_CONTEXT('','3D')
);
#805=(
GEOMETRIC_REPRESENTATION_CONTEXT(3)
GLOBAL_UNCERTAINTY_ASSIGNED_CONTEXT((#803))
GLOBAL_UNIT_ASSIGNED_CONTEXT((#806,#808,#809))
REPRESENTATION_CONTEXT('','3D')
);
#806=(
LENGTH_UNIT()
NAMED_UNIT(*)
SI_UNIT(.MILLI.,.METRE.)
);
#807=(
LENGTH_UNIT()
NAMED_UNIT(*)
SI_UNIT($,.METRE.)
);
#808=(
NAMED_UNIT(*)
PLANE_ANGLE_UNIT()
SI_UNIT($,.RADIAN.)
);
#809=(
NAMED_UNIT(*)
SI_UNIT($,.STERADIAN.)
SOLID_ANGLE_UNIT()
);
#810=SHAPE_DEFINITION_REPRESENTATION(#811,#812);
#811=PRODUCT_DEFINITION_SHAPE('',$,#814);
#812=SHAPE_REPRESENTATION('',(#516),#804);
#813=PRODUCT_DEFINITION_CONTEXT('part definition',#818,'design');
#814=PRODUCT_DEFINITION('clipless mounting piece',
'clipless mounting piece v2',#815,#813);
#815=PRODUCT_DEFINITION_FORMATION('',$,#820);
#816=PRODUCT_RELATED_PRODUCT_CATEGORY('clipless mounting piece v2',
'clipless mounting piece v2',(#820));
#817=APPLICATION_PROTOCOL_DEFINITION('international standard',
'automotive_design',2009,#818);
#818=APPLICATION_CONTEXT(
'Core Data for Automotive Mechanical Design Process');
#819=PRODUCT_CONTEXT('part definition',#818,'mechanical');
#820=PRODUCT('clipless mounting piece','clipless mounting piece v2',$,(#819));
#821=PRESENTATION_STYLE_ASSIGNMENT((#822));
#822=SURFACE_STYLE_USAGE(.BOTH.,#823);
#823=SURFACE_SIDE_STYLE('',(#824));
#824=SURFACE_STYLE_FILL_AREA(#825);
#825=FILL_AREA_STYLE('Steel - Satin',(#826));
#826=FILL_AREA_STYLE_COLOUR('Steel - Satin',#827);
#827=COLOUR_RGB('Steel - Satin',0.627450980392157,0.627450980392157,0.627450980392157);
ENDSEC;
END-ISO-10303-21;
