ISO-10303-21;
HEADER;
/* Generated by software containing ST-Developer
 * from STEP Tools, Inc. (www.steptools.com) 
 */

FILE_DESCRIPTION(
/* description */ (''),
/* implementation_level */ '2;1');

FILE_NAME(
/* name */ 'Mounting Piece.step',
/* time_stamp */ '2026-07-07T22:35:47-04:00',
/* author */ (''),
/* organization */ (''),
/* preprocessor_version */ 'ST-DEVELOPER v20.1',
/* originating_system */ 'Autodesk Translation Framework v15.8.0.0',
/* authorisation */ '');

FILE_SCHEMA (('AUTOMOTIVE_DESIGN { 1 0 10303 214 3 1 1 }'));
ENDSEC;

DATA;
#10=MECHANICAL_DESIGN_GEOMETRIC_PRESENTATION_REPRESENTATION('',(#13),#1957);
#11=SHAPE_REPRESENTATION_RELATIONSHIP('SRR','None',#1964,#12);
#12=ADVANCED_BREP_SHAPE_REPRESENTATION('',(#14),#1956);
#13=STYLED_ITEM('',(#1973),#14);
#14=MANIFOLD_SOLID_BREP('mounting piece',#1235);
#15=FACE_BOUND('',#107,.T.);
#16=FACE_BOUND('',#108,.T.);
#17=FACE_BOUND('',#124,.T.);
#18=FACE_BOUND('',#142,.T.);
#19=FACE_OUTER_BOUND('',#81,.T.);
#20=FACE_OUTER_BOUND('',#82,.T.);
#21=FACE_OUTER_BOUND('',#83,.T.);
#22=FACE_OUTER_BOUND('',#84,.T.);
#23=FACE_OUTER_BOUND('',#85,.T.);
#24=FACE_OUTER_BOUND('',#86,.T.);
#25=FACE_OUTER_BOUND('',#87,.T.);
#26=FACE_OUTER_BOUND('',#88,.T.);
#27=FACE_OUTER_BOUND('',#89,.T.);
#28=FACE_OUTER_BOUND('',#90,.T.);
#29=FACE_OUTER_BOUND('',#91,.T.);
#30=FACE_OUTER_BOUND('',#92,.T.);
#31=FACE_OUTER_BOUND('',#93,.T.);
#32=FACE_OUTER_BOUND('',#94,.T.);
#33=FACE_OUTER_BOUND('',#95,.T.);
#34=FACE_OUTER_BOUND('',#96,.T.);
#35=FACE_OUTER_BOUND('',#97,.T.);
#36=FACE_OUTER_BOUND('',#98,.T.);
#37=FACE_OUTER_BOUND('',#99,.T.);
#38=FACE_OUTER_BOUND('',#100,.T.);
#39=FACE_OUTER_BOUND('',#101,.T.);
#40=FACE_OUTER_BOUND('',#102,.T.);
#41=FACE_OUTER_BOUND('',#103,.T.);
#42=FACE_OUTER_BOUND('',#104,.T.);
#43=FACE_OUTER_BOUND('',#105,.T.);
#44=FACE_OUTER_BOUND('',#106,.T.);
#45=FACE_OUTER_BOUND('',#109,.T.);
#46=FACE_OUTER_BOUND('',#110,.T.);
#47=FACE_OUTER_BOUND('',#111,.T.);
#48=FACE_OUTER_BOUND('',#112,.T.);
#49=FACE_OUTER_BOUND('',#113,.T.);
#50=FACE_OUTER_BOUND('',#114,.T.);
#51=FACE_OUTER_BOUND('',#115,.T.);
#52=FACE_OUTER_BOUND('',#116,.T.);
#53=FACE_OUTER_BOUND('',#117,.T.);
#54=FACE_OUTER_BOUND('',#118,.T.);
#55=FACE_OUTER_BOUND('',#119,.T.);
#56=FACE_OUTER_BOUND('',#120,.T.);
#57=FACE_OUTER_BOUND('',#121,.T.);
#58=FACE_OUTER_BOUND('',#122,.T.);
#59=FACE_OUTER_BOUND('',#123,.T.);
#60=FACE_OUTER_BOUND('',#125,.T.);
#61=FACE_OUTER_BOUND('',#126,.T.);
#62=FACE_OUTER_BOUND('',#127,.T.);
#63=FACE_OUTER_BOUND('',#128,.T.);
#64=FACE_OUTER_BOUND('',#129,.T.);
#65=FACE_OUTER_BOUND('',#130,.T.);
#66=FACE_OUTER_BOUND('',#131,.T.);
#67=FACE_OUTER_BOUND('',#132,.T.);
#68=FACE_OUTER_BOUND('',#133,.T.);
#69=FACE_OUTER_BOUND('',#134,.T.);
#70=FACE_OUTER_BOUND('',#135,.T.);
#71=FACE_OUTER_BOUND('',#136,.T.);
#72=FACE_OUTER_BOUND('',#137,.T.);
#73=FACE_OUTER_BOUND('',#138,.T.);
#74=FACE_OUTER_BOUND('',#139,.T.);
#75=FACE_OUTER_BOUND('',#140,.T.);
#76=FACE_OUTER_BOUND('',#141,.T.);
#77=FACE_OUTER_BOUND('',#143,.T.);
#78=FACE_OUTER_BOUND('',#144,.T.);
#79=FACE_OUTER_BOUND('',#145,.T.);
#80=FACE_OUTER_BOUND('',#146,.T.);
#81=EDGE_LOOP('',(#771,#772,#773,#774));
#82=EDGE_LOOP('',(#775,#776,#777,#778));
#83=EDGE_LOOP('',(#779,#780,#781,#782));
#84=EDGE_LOOP('',(#783,#784,#785,#786));
#85=EDGE_LOOP('',(#787,#788,#789,#790));
#86=EDGE_LOOP('',(#791,#792,#793,#794));
#87=EDGE_LOOP('',(#795,#796,#797,#798));
#88=EDGE_LOOP('',(#799,#800,#801,#802));
#89=EDGE_LOOP('',(#803,#804,#805,#806));
#90=EDGE_LOOP('',(#807,#808,#809,#810));
#91=EDGE_LOOP('',(#811,#812,#813,#814));
#92=EDGE_LOOP('',(#815,#816,#817,#818));
#93=EDGE_LOOP('',(#819,#820,#821,#822,#823,#824,#825,#826,#827,#828,#829,
#830,#831,#832,#833,#834));
#94=EDGE_LOOP('',(#835,#836,#837,#838,#839,#840,#841,#842,#843,#844,#845,
#846,#847,#848,#849,#850,#851));
#95=EDGE_LOOP('',(#852,#853,#854,#855,#856,#857));
#96=EDGE_LOOP('',(#858,#859,#860,#861));
#97=EDGE_LOOP('',(#862,#863,#864,#865));
#98=EDGE_LOOP('',(#866,#867,#868,#869));
#99=EDGE_LOOP('',(#870,#871,#872,#873));
#100=EDGE_LOOP('',(#874,#875,#876,#877));
#101=EDGE_LOOP('',(#878,#879,#880,#881,#882,#883));
#102=EDGE_LOOP('',(#884,#885,#886,#887,#888,#889,#890,#891));
#103=EDGE_LOOP('',(#892,#893,#894,#895,#896,#897));
#104=EDGE_LOOP('',(#898,#899,#900,#901));
#105=EDGE_LOOP('',(#902,#903,#904,#905));
#106=EDGE_LOOP('',(#906,#907,#908,#909,#910,#911,#912,#913,#914,#915,#916,
#917,#918,#919,#920,#921,#922,#923,#924,#925));
#107=EDGE_LOOP('',(#926,#927,#928,#929));
#108=EDGE_LOOP('',(#930,#931,#932,#933));
#109=EDGE_LOOP('',(#934,#935,#936,#937,#938,#939,#940,#941));
#110=EDGE_LOOP('',(#942,#943,#944,#945,#946,#947,#948,#949));
#111=EDGE_LOOP('',(#950,#951,#952,#953));
#112=EDGE_LOOP('',(#954,#955,#956,#957));
#113=EDGE_LOOP('',(#958,#959,#960,#961));
#114=EDGE_LOOP('',(#962,#963,#964,#965));
#115=EDGE_LOOP('',(#966,#967,#968,#969));
#116=EDGE_LOOP('',(#970,#971,#972,#973));
#117=EDGE_LOOP('',(#974,#975,#976,#977,#978,#979,#980,#981));
#118=EDGE_LOOP('',(#982,#983,#984,#985,#986,#987));
#119=EDGE_LOOP('',(#988,#989,#990,#991));
#120=EDGE_LOOP('',(#992,#993,#994,#995));
#121=EDGE_LOOP('',(#996,#997,#998,#999));
#122=EDGE_LOOP('',(#1000,#1001,#1002,#1003));
#123=EDGE_LOOP('',(#1004,#1005,#1006,#1007));
#124=EDGE_LOOP('',(#1008,#1009,#1010,#1011));
#125=EDGE_LOOP('',(#1012,#1013,#1014,#1015,#1016,#1017));
#126=EDGE_LOOP('',(#1018,#1019,#1020,#1021));
#127=EDGE_LOOP('',(#1022,#1023,#1024,#1025));
#128=EDGE_LOOP('',(#1026,#1027,#1028,#1029,#1030,#1031));
#129=EDGE_LOOP('',(#1032,#1033,#1034,#1035));
#130=EDGE_LOOP('',(#1036,#1037,#1038,#1039,#1040));
#131=EDGE_LOOP('',(#1041,#1042,#1043,#1044,#1045,#1046));
#132=EDGE_LOOP('',(#1047,#1048,#1049,#1050));
#133=EDGE_LOOP('',(#1051,#1052,#1053,#1054));
#134=EDGE_LOOP('',(#1055,#1056,#1057,#1058));
#135=EDGE_LOOP('',(#1059,#1060,#1061,#1062));
#136=EDGE_LOOP('',(#1063,#1064,#1065,#1066));
#137=EDGE_LOOP('',(#1067,#1068,#1069,#1070));
#138=EDGE_LOOP('',(#1071,#1072,#1073,#1074));
#139=EDGE_LOOP('',(#1075,#1076,#1077,#1078));
#140=EDGE_LOOP('',(#1079,#1080,#1081,#1082));
#141=EDGE_LOOP('',(#1083,#1084,#1085,#1086));
#142=EDGE_LOOP('',(#1087,#1088,#1089,#1090));
#143=EDGE_LOOP('',(#1091,#1092,#1093,#1094,#1095,#1096));
#144=EDGE_LOOP('',(#1097,#1098,#1099,#1100));
#145=EDGE_LOOP('',(#1101,#1102,#1103,#1104));
#146=EDGE_LOOP('',(#1105,#1106,#1107,#1108,#1109,#1110));
#147=LINE('',#1611,#317);
#148=LINE('',#1613,#318);
#149=LINE('',#1615,#319);
#150=LINE('',#1616,#320);
#151=LINE('',#1619,#321);
#152=LINE('',#1621,#322);
#153=LINE('',#1622,#323);
#154=LINE('',#1626,#324);
#155=LINE('',#1628,#325);
#156=LINE('',#1630,#326);
#157=LINE('',#1631,#327);
#158=LINE('',#1634,#328);
#159=LINE('',#1636,#329);
#160=LINE('',#1637,#330);
#161=LINE('',#1641,#331);
#162=LINE('',#1643,#332);
#163=LINE('',#1645,#333);
#164=LINE('',#1646,#334);
#165=LINE('',#1650,#335);
#166=LINE('',#1652,#336);
#167=LINE('',#1654,#337);
#168=LINE('',#1655,#338);
#169=LINE('',#1658,#339);
#170=LINE('',#1660,#340);
#171=LINE('',#1661,#341);
#172=LINE('',#1664,#342);
#173=LINE('',#1665,#343);
#174=LINE('',#1668,#344);
#175=LINE('',#1669,#345);
#176=LINE('',#1672,#346);
#177=LINE('',#1674,#347);
#178=LINE('',#1675,#348);
#179=LINE('',#1678,#349);
#180=LINE('',#1679,#350);
#181=LINE('',#1682,#351);
#182=LINE('',#1683,#352);
#183=LINE('',#1687,#353);
#184=LINE('',#1689,#354);
#185=LINE('',#1691,#355);
#186=LINE('',#1693,#356);
#187=LINE('',#1695,#357);
#188=LINE('',#1697,#358);
#189=LINE('',#1699,#359);
#190=LINE('',#1701,#360);
#191=LINE('',#1703,#361);
#192=LINE('',#1705,#362);
#193=LINE('',#1707,#363);
#194=LINE('',#1709,#364);
#195=LINE('',#1711,#365);
#196=LINE('',#1713,#366);
#197=LINE('',#1715,#367);
#198=LINE('',#1716,#368);
#199=LINE('',#1720,#369);
#200=LINE('',#1722,#370);
#201=LINE('',#1724,#371);
#202=LINE('',#1726,#372);
#203=LINE('',#1728,#373);
#204=LINE('',#1730,#374);
#205=LINE('',#1732,#375);
#206=LINE('',#1734,#376);
#207=LINE('',#1736,#377);
#208=LINE('',#1738,#378);
#209=LINE('',#1740,#379);
#210=LINE('',#1742,#380);
#211=LINE('',#1744,#381);
#212=LINE('',#1746,#382);
#213=LINE('',#1748,#383);
#214=LINE('',#1750,#384);
#215=LINE('',#1751,#385);
#216=LINE('',#1754,#386);
#217=LINE('',#1756,#387);
#218=LINE('',#1758,#388);
#219=LINE('',#1760,#389);
#220=LINE('',#1761,#390);
#221=LINE('',#1764,#391);
#222=LINE('',#1765,#392);
#223=LINE('',#1768,#393);
#224=LINE('',#1769,#394);
#225=LINE('',#1772,#395);
#226=LINE('',#1773,#396);
#227=LINE('',#1776,#397);
#228=LINE('',#1778,#398);
#229=LINE('',#1779,#399);
#230=LINE('',#1782,#400);
#231=LINE('',#1784,#401);
#232=LINE('',#1785,#402);
#233=LINE('',#1788,#403);
#234=LINE('',#1790,#404);
#235=LINE('',#1792,#405);
#236=LINE('',#1793,#406);
#237=LINE('',#1796,#407);
#238=LINE('',#1797,#408);
#239=LINE('',#1799,#409);
#240=LINE('',#1800,#410);
#241=LINE('',#1803,#411);
#242=LINE('',#1805,#412);
#243=LINE('',#1807,#413);
#244=LINE('',#1809,#414);
#245=LINE('',#1810,#415);
#246=LINE('',#1812,#416);
#247=LINE('',#1814,#417);
#248=LINE('',#1816,#418);
#249=LINE('',#1818,#419);
#250=LINE('',#1820,#420);
#251=LINE('',#1822,#421);
#252=LINE('',#1824,#422);
#253=LINE('',#1826,#423);
#254=LINE('',#1828,#424);
#255=LINE('',#1830,#425);
#256=LINE('',#1832,#426);
#257=LINE('',#1833,#427);
#258=LINE('',#1835,#428);
#259=LINE('',#1836,#429);
#260=LINE('',#1838,#430);
#261=LINE('',#1840,#431);
#262=LINE('',#1841,#432);
#263=LINE('',#1843,#433);
#264=LINE('',#1845,#434);
#265=LINE('',#1846,#435);
#266=LINE('',#1848,#436);
#267=LINE('',#1850,#437);
#268=LINE('',#1852,#438);
#269=LINE('',#1854,#439);
#270=LINE('',#1856,#440);
#271=LINE('',#1857,#441);
#272=LINE('',#1861,#442);
#273=LINE('',#1863,#443);
#274=LINE('',#1864,#444);
#275=LINE('',#1866,#445);
#276=LINE('',#1868,#446);
#277=LINE('',#1870,#447);
#278=LINE('',#1871,#448);
#279=LINE('',#1873,#449);
#280=LINE('',#1874,#450);
#281=LINE('',#1876,#451);
#282=LINE('',#1878,#452);
#283=LINE('',#1880,#453);
#284=LINE('',#1881,#454);
#285=LINE('',#1883,#455);
#286=LINE('',#1887,#456);
#287=LINE('',#1888,#457);
#288=LINE('',#1890,#458);
#289=LINE('',#1891,#459);
#290=LINE('',#1893,#460);
#291=LINE('',#1894,#461);
#292=LINE('',#1896,#462);
#293=LINE('',#1898,#463);
#294=LINE('',#1902,#464);
#295=LINE('',#1904,#465);
#296=LINE('',#1905,#466);
#297=LINE('',#1908,#467);
#298=LINE('',#1909,#468);
#299=LINE('',#1912,#469);
#300=LINE('',#1913,#470);
#301=LINE('',#1915,#471);
#302=LINE('',#1918,#472);
#303=LINE('',#1921,#473);
#304=LINE('',#1922,#474);
#305=LINE('',#1925,#475);
#306=LINE('',#1927,#476);
#307=LINE('',#1932,#477);
#308=LINE('',#1934,#478);
#309=LINE('',#1939,#479);
#310=LINE('',#1941,#480);
#311=LINE('',#1942,#481);
#312=LINE('',#1945,#482);
#313=LINE('',#1946,#483);
#314=LINE('',#1949,#484);
#315=LINE('',#1950,#485);
#316=LINE('',#1952,#486);
#317=VECTOR('',#1315,10.);
#318=VECTOR('',#1316,10.);
#319=VECTOR('',#1317,10.);
#320=VECTOR('',#1318,10.);
#321=VECTOR('',#1321,10.);
#322=VECTOR('',#1322,10.);
#323=VECTOR('',#1323,10.);
#324=VECTOR('',#1326,10.);
#325=VECTOR('',#1327,10.);
#326=VECTOR('',#1328,10.);
#327=VECTOR('',#1329,10.);
#328=VECTOR('',#1332,10.);
#329=VECTOR('',#1333,10.);
#330=VECTOR('',#1334,10.);
#331=VECTOR('',#1337,10.);
#332=VECTOR('',#1338,10.);
#333=VECTOR('',#1339,10.);
#334=VECTOR('',#1340,10.);
#335=VECTOR('',#1343,10.);
#336=VECTOR('',#1344,10.);
#337=VECTOR('',#1345,10.);
#338=VECTOR('',#1346,10.);
#339=VECTOR('',#1349,10.);
#340=VECTOR('',#1350,10.);
#341=VECTOR('',#1351,10.);
#342=VECTOR('',#1354,10.);
#343=VECTOR('',#1355,10.);
#344=VECTOR('',#1358,10.);
#345=VECTOR('',#1359,10.);
#346=VECTOR('',#1362,10.);
#347=VECTOR('',#1363,10.);
#348=VECTOR('',#1364,10.);
#349=VECTOR('',#1367,10.);
#350=VECTOR('',#1368,10.);
#351=VECTOR('',#1371,10.);
#352=VECTOR('',#1372,10.);
#353=VECTOR('',#1375,10.);
#354=VECTOR('',#1376,10.);
#355=VECTOR('',#1377,10.);
#356=VECTOR('',#1378,10.);
#357=VECTOR('',#1379,10.);
#358=VECTOR('',#1380,10.);
#359=VECTOR('',#1381,10.);
#360=VECTOR('',#1382,10.);
#361=VECTOR('',#1383,10.);
#362=VECTOR('',#1384,10.);
#363=VECTOR('',#1385,10.);
#364=VECTOR('',#1386,10.);
#365=VECTOR('',#1387,10.);
#366=VECTOR('',#1388,10.);
#367=VECTOR('',#1389,10.);
#368=VECTOR('',#1390,10.);
#369=VECTOR('',#1393,10.);
#370=VECTOR('',#1394,10.);
#371=VECTOR('',#1395,10.);
#372=VECTOR('',#1396,10.);
#373=VECTOR('',#1397,10.);
#374=VECTOR('',#1398,10.);
#375=VECTOR('',#1399,10.);
#376=VECTOR('',#1400,10.);
#377=VECTOR('',#1401,10.);
#378=VECTOR('',#1402,10.);
#379=VECTOR('',#1403,10.);
#380=VECTOR('',#1404,10.);
#381=VECTOR('',#1405,10.);
#382=VECTOR('',#1406,10.);
#383=VECTOR('',#1407,10.);
#384=VECTOR('',#1408,10.);
#385=VECTOR('',#1409,10.);
#386=VECTOR('',#1412,10.);
#387=VECTOR('',#1413,10.);
#388=VECTOR('',#1414,10.);
#389=VECTOR('',#1415,10.);
#390=VECTOR('',#1416,10.);
#391=VECTOR('',#1419,10.);
#392=VECTOR('',#1420,10.);
#393=VECTOR('',#1423,10.);
#394=VECTOR('',#1424,10.);
#395=VECTOR('',#1427,10.);
#396=VECTOR('',#1428,10.);
#397=VECTOR('',#1431,10.);
#398=VECTOR('',#1432,10.);
#399=VECTOR('',#1433,10.);
#400=VECTOR('',#1436,10.);
#401=VECTOR('',#1437,10.);
#402=VECTOR('',#1438,10.);
#403=VECTOR('',#1441,10.);
#404=VECTOR('',#1442,10.);
#405=VECTOR('',#1443,10.);
#406=VECTOR('',#1444,10.);
#407=VECTOR('',#1447,10.);
#408=VECTOR('',#1448,10.);
#409=VECTOR('',#1449,10.);
#410=VECTOR('',#1450,10.);
#411=VECTOR('',#1453,10.);
#412=VECTOR('',#1454,10.);
#413=VECTOR('',#1455,10.);
#414=VECTOR('',#1456,10.);
#415=VECTOR('',#1457,10.);
#416=VECTOR('',#1460,10.);
#417=VECTOR('',#1463,10.);
#418=VECTOR('',#1466,10.);
#419=VECTOR('',#1467,10.);
#420=VECTOR('',#1468,10.);
#421=VECTOR('',#1469,10.);
#422=VECTOR('',#1470,10.);
#423=VECTOR('',#1471,10.);
#424=VECTOR('',#1472,10.);
#425=VECTOR('',#1473,10.);
#426=VECTOR('',#1474,10.);
#427=VECTOR('',#1475,10.);
#428=VECTOR('',#1476,10.);
#429=VECTOR('',#1477,10.);
#430=VECTOR('',#1478,10.);
#431=VECTOR('',#1479,10.);
#432=VECTOR('',#1480,10.);
#433=VECTOR('',#1481,10.);
#434=VECTOR('',#1482,10.);
#435=VECTOR('',#1483,10.);
#436=VECTOR('',#1486,10.);
#437=VECTOR('',#1487,10.);
#438=VECTOR('',#1488,10.);
#439=VECTOR('',#1489,10.);
#440=VECTOR('',#1490,10.);
#441=VECTOR('',#1491,10.);
#442=VECTOR('',#1494,10.);
#443=VECTOR('',#1495,10.);
#444=VECTOR('',#1496,10.);
#445=VECTOR('',#1497,10.);
#446=VECTOR('',#1498,10.);
#447=VECTOR('',#1499,10.);
#448=VECTOR('',#1500,10.);
#449=VECTOR('',#1503,10.);
#450=VECTOR('',#1504,10.);
#451=VECTOR('',#1507,10.);
#452=VECTOR('',#1510,10.);
#453=VECTOR('',#1513,10.);
#454=VECTOR('',#1514,10.);
#455=VECTOR('',#1517,10.);
#456=VECTOR('',#1522,10.);
#457=VECTOR('',#1523,10.);
#458=VECTOR('',#1526,10.);
#459=VECTOR('',#1527,10.);
#460=VECTOR('',#1530,10.);
#461=VECTOR('',#1531,10.);
#462=VECTOR('',#1534,10.);
#463=VECTOR('',#1537,10.);
#464=VECTOR('',#1542,10.);
#465=VECTOR('',#1543,10.);
#466=VECTOR('',#1544,10.);
#467=VECTOR('',#1547,10.);
#468=VECTOR('',#1548,10.);
#469=VECTOR('',#1551,10.);
#470=VECTOR('',#1552,10.);
#471=VECTOR('',#1555,10.);
#472=VECTOR('',#1560,10.);
#473=VECTOR('',#1563,10.);
#474=VECTOR('',#1564,10.);
#475=VECTOR('',#1569,10.);
#476=VECTOR('',#1572,10.);
#477=VECTOR('',#1581,10.);
#478=VECTOR('',#1584,10.);
#479=VECTOR('',#1591,10.);
#480=VECTOR('',#1592,10.);
#481=VECTOR('',#1593,10.);
#482=VECTOR('',#1596,10.);
#483=VECTOR('',#1597,10.);
#484=VECTOR('',#1600,10.);
#485=VECTOR('',#1601,10.);
#486=VECTOR('',#1604,10.);
#487=VERTEX_POINT('',#1609);
#488=VERTEX_POINT('',#1610);
#489=VERTEX_POINT('',#1612);
#490=VERTEX_POINT('',#1614);
#491=VERTEX_POINT('',#1618);
#492=VERTEX_POINT('',#1620);
#493=VERTEX_POINT('',#1624);
#494=VERTEX_POINT('',#1625);
#495=VERTEX_POINT('',#1627);
#496=VERTEX_POINT('',#1629);
#497=VERTEX_POINT('',#1633);
#498=VERTEX_POINT('',#1635);
#499=VERTEX_POINT('',#1639);
#500=VERTEX_POINT('',#1640);
#501=VERTEX_POINT('',#1642);
#502=VERTEX_POINT('',#1644);
#503=VERTEX_POINT('',#1648);
#504=VERTEX_POINT('',#1649);
#505=VERTEX_POINT('',#1651);
#506=VERTEX_POINT('',#1653);
#507=VERTEX_POINT('',#1657);
#508=VERTEX_POINT('',#1659);
#509=VERTEX_POINT('',#1663);
#510=VERTEX_POINT('',#1667);
#511=VERTEX_POINT('',#1671);
#512=VERTEX_POINT('',#1673);
#513=VERTEX_POINT('',#1677);
#514=VERTEX_POINT('',#1681);
#515=VERTEX_POINT('',#1685);
#516=VERTEX_POINT('',#1686);
#517=VERTEX_POINT('',#1688);
#518=VERTEX_POINT('',#1690);
#519=VERTEX_POINT('',#1692);
#520=VERTEX_POINT('',#1694);
#521=VERTEX_POINT('',#1696);
#522=VERTEX_POINT('',#1698);
#523=VERTEX_POINT('',#1700);
#524=VERTEX_POINT('',#1702);
#525=VERTEX_POINT('',#1704);
#526=VERTEX_POINT('',#1706);
#527=VERTEX_POINT('',#1708);
#528=VERTEX_POINT('',#1710);
#529=VERTEX_POINT('',#1712);
#530=VERTEX_POINT('',#1714);
#531=VERTEX_POINT('',#1718);
#532=VERTEX_POINT('',#1719);
#533=VERTEX_POINT('',#1721);
#534=VERTEX_POINT('',#1723);
#535=VERTEX_POINT('',#1725);
#536=VERTEX_POINT('',#1727);
#537=VERTEX_POINT('',#1729);
#538=VERTEX_POINT('',#1731);
#539=VERTEX_POINT('',#1733);
#540=VERTEX_POINT('',#1735);
#541=VERTEX_POINT('',#1737);
#542=VERTEX_POINT('',#1739);
#543=VERTEX_POINT('',#1741);
#544=VERTEX_POINT('',#1743);
#545=VERTEX_POINT('',#1745);
#546=VERTEX_POINT('',#1747);
#547=VERTEX_POINT('',#1749);
#548=VERTEX_POINT('',#1753);
#549=VERTEX_POINT('',#1755);
#550=VERTEX_POINT('',#1757);
#551=VERTEX_POINT('',#1759);
#552=VERTEX_POINT('',#1763);
#553=VERTEX_POINT('',#1767);
#554=VERTEX_POINT('',#1771);
#555=VERTEX_POINT('',#1775);
#556=VERTEX_POINT('',#1777);
#557=VERTEX_POINT('',#1781);
#558=VERTEX_POINT('',#1783);
#559=VERTEX_POINT('',#1787);
#560=VERTEX_POINT('',#1789);
#561=VERTEX_POINT('',#1791);
#562=VERTEX_POINT('',#1795);
#563=VERTEX_POINT('',#1798);
#564=VERTEX_POINT('',#1802);
#565=VERTEX_POINT('',#1804);
#566=VERTEX_POINT('',#1806);
#567=VERTEX_POINT('',#1808);
#568=VERTEX_POINT('',#1817);
#569=VERTEX_POINT('',#1819);
#570=VERTEX_POINT('',#1821);
#571=VERTEX_POINT('',#1823);
#572=VERTEX_POINT('',#1825);
#573=VERTEX_POINT('',#1827);
#574=VERTEX_POINT('',#1829);
#575=VERTEX_POINT('',#1831);
#576=VERTEX_POINT('',#1834);
#577=VERTEX_POINT('',#1837);
#578=VERTEX_POINT('',#1839);
#579=VERTEX_POINT('',#1842);
#580=VERTEX_POINT('',#1844);
#581=VERTEX_POINT('',#1849);
#582=VERTEX_POINT('',#1851);
#583=VERTEX_POINT('',#1853);
#584=VERTEX_POINT('',#1855);
#585=VERTEX_POINT('',#1859);
#586=VERTEX_POINT('',#1860);
#587=VERTEX_POINT('',#1862);
#588=VERTEX_POINT('',#1865);
#589=VERTEX_POINT('',#1867);
#590=VERTEX_POINT('',#1869);
#591=VERTEX_POINT('',#1886);
#592=VERTEX_POINT('',#1901);
#593=VERTEX_POINT('',#1903);
#594=VERTEX_POINT('',#1907);
#595=VERTEX_POINT('',#1911);
#596=VERTEX_POINT('',#1920);
#597=VERTEX_POINT('',#1938);
#598=VERTEX_POINT('',#1940);
#599=VERTEX_POINT('',#1944);
#600=VERTEX_POINT('',#1948);
#601=EDGE_CURVE('',#487,#488,#147,.T.);
#602=EDGE_CURVE('',#487,#489,#148,.T.);
#603=EDGE_CURVE('',#490,#489,#149,.T.);
#604=EDGE_CURVE('',#488,#490,#150,.T.);
#605=EDGE_CURVE('',#491,#490,#151,.T.);
#606=EDGE_CURVE('',#489,#492,#152,.T.);
#607=EDGE_CURVE('',#491,#492,#153,.T.);
#608=EDGE_CURVE('',#493,#494,#154,.T.);
#609=EDGE_CURVE('',#494,#495,#155,.T.);
#610=EDGE_CURVE('',#496,#495,#156,.T.);
#611=EDGE_CURVE('',#493,#496,#157,.T.);
#612=EDGE_CURVE('',#495,#497,#158,.T.);
#613=EDGE_CURVE('',#498,#497,#159,.T.);
#614=EDGE_CURVE('',#498,#496,#160,.T.);
#615=EDGE_CURVE('',#499,#500,#161,.T.);
#616=EDGE_CURVE('',#501,#499,#162,.T.);
#617=EDGE_CURVE('',#502,#501,#163,.T.);
#618=EDGE_CURVE('',#500,#502,#164,.T.);
#619=EDGE_CURVE('',#503,#504,#165,.T.);
#620=EDGE_CURVE('',#505,#503,#166,.T.);
#621=EDGE_CURVE('',#506,#505,#167,.T.);
#622=EDGE_CURVE('',#504,#506,#168,.T.);
#623=EDGE_CURVE('',#507,#499,#169,.T.);
#624=EDGE_CURVE('',#508,#507,#170,.T.);
#625=EDGE_CURVE('',#501,#508,#171,.T.);
#626=EDGE_CURVE('',#500,#509,#172,.T.);
#627=EDGE_CURVE('',#507,#509,#173,.T.);
#628=EDGE_CURVE('',#510,#502,#174,.T.);
#629=EDGE_CURVE('',#509,#510,#175,.T.);
#630=EDGE_CURVE('',#503,#511,#176,.T.);
#631=EDGE_CURVE('',#512,#511,#177,.T.);
#632=EDGE_CURVE('',#505,#512,#178,.T.);
#633=EDGE_CURVE('',#513,#504,#179,.T.);
#634=EDGE_CURVE('',#511,#513,#180,.T.);
#635=EDGE_CURVE('',#514,#506,#181,.T.);
#636=EDGE_CURVE('',#513,#514,#182,.T.);
#637=EDGE_CURVE('',#515,#516,#183,.T.);
#638=EDGE_CURVE('',#517,#515,#184,.T.);
#639=EDGE_CURVE('',#518,#517,#185,.T.);
#640=EDGE_CURVE('',#519,#518,#186,.T.);
#641=EDGE_CURVE('',#520,#519,#187,.T.);
#642=EDGE_CURVE('',#521,#520,#188,.T.);
#643=EDGE_CURVE('',#522,#521,#189,.T.);
#644=EDGE_CURVE('',#523,#522,#190,.T.);
#645=EDGE_CURVE('',#524,#523,#191,.T.);
#646=EDGE_CURVE('',#525,#524,#192,.T.);
#647=EDGE_CURVE('',#526,#525,#193,.T.);
#648=EDGE_CURVE('',#527,#526,#194,.T.);
#649=EDGE_CURVE('',#528,#527,#195,.T.);
#650=EDGE_CURVE('',#529,#528,#196,.T.);
#651=EDGE_CURVE('',#530,#529,#197,.T.);
#652=EDGE_CURVE('',#516,#530,#198,.T.);
#653=EDGE_CURVE('',#531,#532,#199,.T.);
#654=EDGE_CURVE('',#533,#531,#200,.T.);
#655=EDGE_CURVE('',#534,#533,#201,.T.);
#656=EDGE_CURVE('',#535,#534,#202,.T.);
#657=EDGE_CURVE('',#536,#535,#203,.T.);
#658=EDGE_CURVE('',#537,#536,#204,.T.);
#659=EDGE_CURVE('',#538,#537,#205,.T.);
#660=EDGE_CURVE('',#539,#538,#206,.T.);
#661=EDGE_CURVE('',#540,#539,#207,.T.);
#662=EDGE_CURVE('',#541,#540,#208,.T.);
#663=EDGE_CURVE('',#542,#541,#209,.T.);
#664=EDGE_CURVE('',#543,#542,#210,.T.);
#665=EDGE_CURVE('',#544,#543,#211,.T.);
#666=EDGE_CURVE('',#545,#544,#212,.T.);
#667=EDGE_CURVE('',#546,#545,#213,.T.);
#668=EDGE_CURVE('',#547,#546,#214,.T.);
#669=EDGE_CURVE('',#532,#547,#215,.T.);
#670=EDGE_CURVE('',#521,#548,#216,.T.);
#671=EDGE_CURVE('',#520,#549,#217,.T.);
#672=EDGE_CURVE('',#549,#550,#218,.T.);
#673=EDGE_CURVE('',#551,#550,#219,.T.);
#674=EDGE_CURVE('',#548,#551,#220,.T.);
#675=EDGE_CURVE('',#519,#552,#221,.T.);
#676=EDGE_CURVE('',#552,#549,#222,.T.);
#677=EDGE_CURVE('',#518,#553,#223,.T.);
#678=EDGE_CURVE('',#553,#552,#224,.T.);
#679=EDGE_CURVE('',#554,#517,#225,.T.);
#680=EDGE_CURVE('',#554,#553,#226,.T.);
#681=EDGE_CURVE('',#555,#516,#227,.T.);
#682=EDGE_CURVE('',#555,#556,#228,.T.);
#683=EDGE_CURVE('',#556,#515,#229,.T.);
#684=EDGE_CURVE('',#557,#535,#230,.T.);
#685=EDGE_CURVE('',#557,#558,#231,.T.);
#686=EDGE_CURVE('',#536,#558,#232,.T.);
#687=EDGE_CURVE('',#534,#559,#233,.T.);
#688=EDGE_CURVE('',#560,#559,#234,.T.);
#689=EDGE_CURVE('',#560,#561,#235,.T.);
#690=EDGE_CURVE('',#561,#557,#236,.T.);
#691=EDGE_CURVE('',#562,#556,#237,.T.);
#692=EDGE_CURVE('',#562,#539,#238,.T.);
#693=EDGE_CURVE('',#538,#563,#239,.T.);
#694=EDGE_CURVE('',#563,#554,#240,.T.);
#695=EDGE_CURVE('',#564,#546,#241,.T.);
#696=EDGE_CURVE('',#565,#545,#242,.T.);
#697=EDGE_CURVE('',#566,#565,#243,.T.);
#698=EDGE_CURVE('',#566,#567,#244,.T.);
#699=EDGE_CURVE('',#564,#567,#245,.T.);
#700=EDGE_CURVE('',#508,#510,#246,.T.);
#701=EDGE_CURVE('',#512,#514,#247,.T.);
#702=EDGE_CURVE('',#561,#566,#248,.T.);
#703=EDGE_CURVE('',#565,#568,#249,.T.);
#704=EDGE_CURVE('',#568,#569,#250,.T.);
#705=EDGE_CURVE('',#569,#570,#251,.T.);
#706=EDGE_CURVE('',#570,#571,#252,.T.);
#707=EDGE_CURVE('',#571,#572,#253,.T.);
#708=EDGE_CURVE('',#572,#573,#254,.T.);
#709=EDGE_CURVE('',#573,#574,#255,.T.);
#710=EDGE_CURVE('',#574,#575,#256,.T.);
#711=EDGE_CURVE('',#575,#550,#257,.T.);
#712=EDGE_CURVE('',#576,#563,#258,.T.);
#713=EDGE_CURVE('',#558,#576,#259,.T.);
#714=EDGE_CURVE('',#492,#577,#260,.T.);
#715=EDGE_CURVE('',#577,#578,#261,.T.);
#716=EDGE_CURVE('',#578,#491,#262,.T.);
#717=EDGE_CURVE('',#497,#579,#263,.T.);
#718=EDGE_CURVE('',#580,#579,#264,.T.);
#719=EDGE_CURVE('',#498,#580,#265,.T.);
#720=EDGE_CURVE('',#567,#560,#266,.T.);
#721=EDGE_CURVE('',#559,#581,#267,.T.);
#722=EDGE_CURVE('',#581,#582,#268,.T.);
#723=EDGE_CURVE('',#582,#583,#269,.T.);
#724=EDGE_CURVE('',#583,#584,#270,.T.);
#725=EDGE_CURVE('',#584,#564,#271,.T.);
#726=EDGE_CURVE('',#585,#586,#272,.T.);
#727=EDGE_CURVE('',#586,#587,#273,.T.);
#728=EDGE_CURVE('',#587,#548,#274,.T.);
#729=EDGE_CURVE('',#551,#588,#275,.T.);
#730=EDGE_CURVE('',#588,#589,#276,.T.);
#731=EDGE_CURVE('',#589,#590,#277,.T.);
#732=EDGE_CURVE('',#590,#585,#278,.T.);
#733=EDGE_CURVE('',#527,#574,#279,.T.);
#734=EDGE_CURVE('',#528,#573,#280,.T.);
#735=EDGE_CURVE('',#529,#572,#281,.T.);
#736=EDGE_CURVE('',#571,#530,#282,.T.);
#737=EDGE_CURVE('',#542,#570,#283,.T.);
#738=EDGE_CURVE('',#543,#569,#284,.T.);
#739=EDGE_CURVE('',#544,#568,#285,.T.);
#740=EDGE_CURVE('',#591,#541,#286,.T.);
#741=EDGE_CURVE('',#591,#555,#287,.T.);
#742=EDGE_CURVE('',#526,#589,#288,.T.);
#743=EDGE_CURVE('',#588,#575,#289,.T.);
#744=EDGE_CURVE('',#583,#532,#290,.T.);
#745=EDGE_CURVE('',#584,#547,#291,.T.);
#746=EDGE_CURVE('',#590,#525,#292,.T.);
#747=EDGE_CURVE('',#585,#524,#293,.T.);
#748=EDGE_CURVE('',#580,#592,#294,.T.);
#749=EDGE_CURVE('',#579,#593,#295,.T.);
#750=EDGE_CURVE('',#592,#593,#296,.T.);
#751=EDGE_CURVE('',#592,#594,#297,.T.);
#752=EDGE_CURVE('',#594,#493,#298,.T.);
#753=EDGE_CURVE('',#594,#595,#299,.T.);
#754=EDGE_CURVE('',#494,#595,#300,.T.);
#755=EDGE_CURVE('',#595,#593,#301,.T.);
#756=EDGE_CURVE('',#523,#586,#302,.T.);
#757=EDGE_CURVE('',#596,#562,#303,.T.);
#758=EDGE_CURVE('',#596,#591,#304,.T.);
#759=EDGE_CURVE('',#531,#582,#305,.T.);
#760=EDGE_CURVE('',#537,#576,#306,.T.);
#761=EDGE_CURVE('',#533,#581,#307,.T.);
#762=EDGE_CURVE('',#522,#587,#308,.T.);
#763=EDGE_CURVE('',#577,#597,#309,.T.);
#764=EDGE_CURVE('',#597,#598,#310,.T.);
#765=EDGE_CURVE('',#578,#598,#311,.T.);
#766=EDGE_CURVE('',#599,#487,#312,.T.);
#767=EDGE_CURVE('',#597,#599,#313,.T.);
#768=EDGE_CURVE('',#488,#600,#314,.T.);
#769=EDGE_CURVE('',#599,#600,#315,.T.);
#770=EDGE_CURVE('',#600,#598,#316,.T.);
#771=ORIENTED_EDGE('',*,*,#601,.F.);
#772=ORIENTED_EDGE('',*,*,#602,.T.);
#773=ORIENTED_EDGE('',*,*,#603,.F.);
#774=ORIENTED_EDGE('',*,*,#604,.F.);
#775=ORIENTED_EDGE('',*,*,#605,.T.);
#776=ORIENTED_EDGE('',*,*,#603,.T.);
#777=ORIENTED_EDGE('',*,*,#606,.T.);
#778=ORIENTED_EDGE('',*,*,#607,.F.);
#779=ORIENTED_EDGE('',*,*,#608,.T.);
#780=ORIENTED_EDGE('',*,*,#609,.T.);
#781=ORIENTED_EDGE('',*,*,#610,.F.);
#782=ORIENTED_EDGE('',*,*,#611,.F.);
#783=ORIENTED_EDGE('',*,*,#612,.T.);
#784=ORIENTED_EDGE('',*,*,#613,.F.);
#785=ORIENTED_EDGE('',*,*,#614,.T.);
#786=ORIENTED_EDGE('',*,*,#610,.T.);
#787=ORIENTED_EDGE('',*,*,#615,.F.);
#788=ORIENTED_EDGE('',*,*,#616,.F.);
#789=ORIENTED_EDGE('',*,*,#617,.F.);
#790=ORIENTED_EDGE('',*,*,#618,.F.);
#791=ORIENTED_EDGE('',*,*,#619,.F.);
#792=ORIENTED_EDGE('',*,*,#620,.F.);
#793=ORIENTED_EDGE('',*,*,#621,.F.);
#794=ORIENTED_EDGE('',*,*,#622,.F.);
#795=ORIENTED_EDGE('',*,*,#616,.T.);
#796=ORIENTED_EDGE('',*,*,#623,.F.);
#797=ORIENTED_EDGE('',*,*,#624,.F.);
#798=ORIENTED_EDGE('',*,*,#625,.F.);
#799=ORIENTED_EDGE('',*,*,#615,.T.);
#800=ORIENTED_EDGE('',*,*,#626,.T.);
#801=ORIENTED_EDGE('',*,*,#627,.F.);
#802=ORIENTED_EDGE('',*,*,#623,.T.);
#803=ORIENTED_EDGE('',*,*,#618,.T.);
#804=ORIENTED_EDGE('',*,*,#628,.F.);
#805=ORIENTED_EDGE('',*,*,#629,.F.);
#806=ORIENTED_EDGE('',*,*,#626,.F.);
#807=ORIENTED_EDGE('',*,*,#620,.T.);
#808=ORIENTED_EDGE('',*,*,#630,.T.);
#809=ORIENTED_EDGE('',*,*,#631,.F.);
#810=ORIENTED_EDGE('',*,*,#632,.F.);
#811=ORIENTED_EDGE('',*,*,#619,.T.);
#812=ORIENTED_EDGE('',*,*,#633,.F.);
#813=ORIENTED_EDGE('',*,*,#634,.F.);
#814=ORIENTED_EDGE('',*,*,#630,.F.);
#815=ORIENTED_EDGE('',*,*,#622,.T.);
#816=ORIENTED_EDGE('',*,*,#635,.F.);
#817=ORIENTED_EDGE('',*,*,#636,.F.);
#818=ORIENTED_EDGE('',*,*,#633,.T.);
#819=ORIENTED_EDGE('',*,*,#637,.F.);
#820=ORIENTED_EDGE('',*,*,#638,.F.);
#821=ORIENTED_EDGE('',*,*,#639,.F.);
#822=ORIENTED_EDGE('',*,*,#640,.F.);
#823=ORIENTED_EDGE('',*,*,#641,.F.);
#824=ORIENTED_EDGE('',*,*,#642,.F.);
#825=ORIENTED_EDGE('',*,*,#643,.F.);
#826=ORIENTED_EDGE('',*,*,#644,.F.);
#827=ORIENTED_EDGE('',*,*,#645,.F.);
#828=ORIENTED_EDGE('',*,*,#646,.F.);
#829=ORIENTED_EDGE('',*,*,#647,.F.);
#830=ORIENTED_EDGE('',*,*,#648,.F.);
#831=ORIENTED_EDGE('',*,*,#649,.F.);
#832=ORIENTED_EDGE('',*,*,#650,.F.);
#833=ORIENTED_EDGE('',*,*,#651,.F.);
#834=ORIENTED_EDGE('',*,*,#652,.F.);
#835=ORIENTED_EDGE('',*,*,#653,.F.);
#836=ORIENTED_EDGE('',*,*,#654,.F.);
#837=ORIENTED_EDGE('',*,*,#655,.F.);
#838=ORIENTED_EDGE('',*,*,#656,.F.);
#839=ORIENTED_EDGE('',*,*,#657,.F.);
#840=ORIENTED_EDGE('',*,*,#658,.F.);
#841=ORIENTED_EDGE('',*,*,#659,.F.);
#842=ORIENTED_EDGE('',*,*,#660,.F.);
#843=ORIENTED_EDGE('',*,*,#661,.F.);
#844=ORIENTED_EDGE('',*,*,#662,.F.);
#845=ORIENTED_EDGE('',*,*,#663,.F.);
#846=ORIENTED_EDGE('',*,*,#664,.F.);
#847=ORIENTED_EDGE('',*,*,#665,.F.);
#848=ORIENTED_EDGE('',*,*,#666,.F.);
#849=ORIENTED_EDGE('',*,*,#667,.F.);
#850=ORIENTED_EDGE('',*,*,#668,.F.);
#851=ORIENTED_EDGE('',*,*,#669,.F.);
#852=ORIENTED_EDGE('',*,*,#670,.F.);
#853=ORIENTED_EDGE('',*,*,#642,.T.);
#854=ORIENTED_EDGE('',*,*,#671,.T.);
#855=ORIENTED_EDGE('',*,*,#672,.T.);
#856=ORIENTED_EDGE('',*,*,#673,.F.);
#857=ORIENTED_EDGE('',*,*,#674,.F.);
#858=ORIENTED_EDGE('',*,*,#641,.T.);
#859=ORIENTED_EDGE('',*,*,#675,.T.);
#860=ORIENTED_EDGE('',*,*,#676,.T.);
#861=ORIENTED_EDGE('',*,*,#671,.F.);
#862=ORIENTED_EDGE('',*,*,#640,.T.);
#863=ORIENTED_EDGE('',*,*,#677,.T.);
#864=ORIENTED_EDGE('',*,*,#678,.T.);
#865=ORIENTED_EDGE('',*,*,#675,.F.);
#866=ORIENTED_EDGE('',*,*,#639,.T.);
#867=ORIENTED_EDGE('',*,*,#679,.F.);
#868=ORIENTED_EDGE('',*,*,#680,.T.);
#869=ORIENTED_EDGE('',*,*,#677,.F.);
#870=ORIENTED_EDGE('',*,*,#637,.T.);
#871=ORIENTED_EDGE('',*,*,#681,.F.);
#872=ORIENTED_EDGE('',*,*,#682,.T.);
#873=ORIENTED_EDGE('',*,*,#683,.T.);
#874=ORIENTED_EDGE('',*,*,#657,.T.);
#875=ORIENTED_EDGE('',*,*,#684,.F.);
#876=ORIENTED_EDGE('',*,*,#685,.T.);
#877=ORIENTED_EDGE('',*,*,#686,.F.);
#878=ORIENTED_EDGE('',*,*,#656,.T.);
#879=ORIENTED_EDGE('',*,*,#687,.T.);
#880=ORIENTED_EDGE('',*,*,#688,.F.);
#881=ORIENTED_EDGE('',*,*,#689,.T.);
#882=ORIENTED_EDGE('',*,*,#690,.T.);
#883=ORIENTED_EDGE('',*,*,#684,.T.);
#884=ORIENTED_EDGE('',*,*,#638,.T.);
#885=ORIENTED_EDGE('',*,*,#683,.F.);
#886=ORIENTED_EDGE('',*,*,#691,.F.);
#887=ORIENTED_EDGE('',*,*,#692,.T.);
#888=ORIENTED_EDGE('',*,*,#660,.T.);
#889=ORIENTED_EDGE('',*,*,#693,.T.);
#890=ORIENTED_EDGE('',*,*,#694,.T.);
#891=ORIENTED_EDGE('',*,*,#679,.T.);
#892=ORIENTED_EDGE('',*,*,#695,.T.);
#893=ORIENTED_EDGE('',*,*,#667,.T.);
#894=ORIENTED_EDGE('',*,*,#696,.F.);
#895=ORIENTED_EDGE('',*,*,#697,.F.);
#896=ORIENTED_EDGE('',*,*,#698,.T.);
#897=ORIENTED_EDGE('',*,*,#699,.F.);
#898=ORIENTED_EDGE('',*,*,#627,.T.);
#899=ORIENTED_EDGE('',*,*,#629,.T.);
#900=ORIENTED_EDGE('',*,*,#700,.F.);
#901=ORIENTED_EDGE('',*,*,#624,.T.);
#902=ORIENTED_EDGE('',*,*,#634,.T.);
#903=ORIENTED_EDGE('',*,*,#636,.T.);
#904=ORIENTED_EDGE('',*,*,#701,.F.);
#905=ORIENTED_EDGE('',*,*,#631,.T.);
#906=ORIENTED_EDGE('',*,*,#690,.F.);
#907=ORIENTED_EDGE('',*,*,#702,.T.);
#908=ORIENTED_EDGE('',*,*,#697,.T.);
#909=ORIENTED_EDGE('',*,*,#703,.T.);
#910=ORIENTED_EDGE('',*,*,#704,.T.);
#911=ORIENTED_EDGE('',*,*,#705,.T.);
#912=ORIENTED_EDGE('',*,*,#706,.T.);
#913=ORIENTED_EDGE('',*,*,#707,.T.);
#914=ORIENTED_EDGE('',*,*,#708,.T.);
#915=ORIENTED_EDGE('',*,*,#709,.T.);
#916=ORIENTED_EDGE('',*,*,#710,.T.);
#917=ORIENTED_EDGE('',*,*,#711,.T.);
#918=ORIENTED_EDGE('',*,*,#672,.F.);
#919=ORIENTED_EDGE('',*,*,#676,.F.);
#920=ORIENTED_EDGE('',*,*,#678,.F.);
#921=ORIENTED_EDGE('',*,*,#680,.F.);
#922=ORIENTED_EDGE('',*,*,#694,.F.);
#923=ORIENTED_EDGE('',*,*,#712,.F.);
#924=ORIENTED_EDGE('',*,*,#713,.F.);
#925=ORIENTED_EDGE('',*,*,#685,.F.);
#926=ORIENTED_EDGE('',*,*,#714,.T.);
#927=ORIENTED_EDGE('',*,*,#715,.T.);
#928=ORIENTED_EDGE('',*,*,#716,.T.);
#929=ORIENTED_EDGE('',*,*,#607,.T.);
#930=ORIENTED_EDGE('',*,*,#717,.T.);
#931=ORIENTED_EDGE('',*,*,#718,.F.);
#932=ORIENTED_EDGE('',*,*,#719,.F.);
#933=ORIENTED_EDGE('',*,*,#613,.T.);
#934=ORIENTED_EDGE('',*,*,#720,.T.);
#935=ORIENTED_EDGE('',*,*,#688,.T.);
#936=ORIENTED_EDGE('',*,*,#721,.T.);
#937=ORIENTED_EDGE('',*,*,#722,.T.);
#938=ORIENTED_EDGE('',*,*,#723,.T.);
#939=ORIENTED_EDGE('',*,*,#724,.T.);
#940=ORIENTED_EDGE('',*,*,#725,.T.);
#941=ORIENTED_EDGE('',*,*,#699,.T.);
#942=ORIENTED_EDGE('',*,*,#726,.T.);
#943=ORIENTED_EDGE('',*,*,#727,.T.);
#944=ORIENTED_EDGE('',*,*,#728,.T.);
#945=ORIENTED_EDGE('',*,*,#674,.T.);
#946=ORIENTED_EDGE('',*,*,#729,.T.);
#947=ORIENTED_EDGE('',*,*,#730,.T.);
#948=ORIENTED_EDGE('',*,*,#731,.T.);
#949=ORIENTED_EDGE('',*,*,#732,.T.);
#950=ORIENTED_EDGE('',*,*,#649,.T.);
#951=ORIENTED_EDGE('',*,*,#733,.T.);
#952=ORIENTED_EDGE('',*,*,#709,.F.);
#953=ORIENTED_EDGE('',*,*,#734,.F.);
#954=ORIENTED_EDGE('',*,*,#650,.T.);
#955=ORIENTED_EDGE('',*,*,#734,.T.);
#956=ORIENTED_EDGE('',*,*,#708,.F.);
#957=ORIENTED_EDGE('',*,*,#735,.F.);
#958=ORIENTED_EDGE('',*,*,#651,.T.);
#959=ORIENTED_EDGE('',*,*,#735,.T.);
#960=ORIENTED_EDGE('',*,*,#707,.F.);
#961=ORIENTED_EDGE('',*,*,#736,.T.);
#962=ORIENTED_EDGE('',*,*,#664,.T.);
#963=ORIENTED_EDGE('',*,*,#737,.T.);
#964=ORIENTED_EDGE('',*,*,#705,.F.);
#965=ORIENTED_EDGE('',*,*,#738,.F.);
#966=ORIENTED_EDGE('',*,*,#665,.T.);
#967=ORIENTED_EDGE('',*,*,#738,.T.);
#968=ORIENTED_EDGE('',*,*,#704,.F.);
#969=ORIENTED_EDGE('',*,*,#739,.F.);
#970=ORIENTED_EDGE('',*,*,#666,.T.);
#971=ORIENTED_EDGE('',*,*,#739,.T.);
#972=ORIENTED_EDGE('',*,*,#703,.F.);
#973=ORIENTED_EDGE('',*,*,#696,.T.);
#974=ORIENTED_EDGE('',*,*,#652,.T.);
#975=ORIENTED_EDGE('',*,*,#736,.F.);
#976=ORIENTED_EDGE('',*,*,#706,.F.);
#977=ORIENTED_EDGE('',*,*,#737,.F.);
#978=ORIENTED_EDGE('',*,*,#663,.T.);
#979=ORIENTED_EDGE('',*,*,#740,.F.);
#980=ORIENTED_EDGE('',*,*,#741,.T.);
#981=ORIENTED_EDGE('',*,*,#681,.T.);
#982=ORIENTED_EDGE('',*,*,#742,.T.);
#983=ORIENTED_EDGE('',*,*,#730,.F.);
#984=ORIENTED_EDGE('',*,*,#743,.T.);
#985=ORIENTED_EDGE('',*,*,#710,.F.);
#986=ORIENTED_EDGE('',*,*,#733,.F.);
#987=ORIENTED_EDGE('',*,*,#648,.T.);
#988=ORIENTED_EDGE('',*,*,#744,.T.);
#989=ORIENTED_EDGE('',*,*,#669,.T.);
#990=ORIENTED_EDGE('',*,*,#745,.F.);
#991=ORIENTED_EDGE('',*,*,#724,.F.);
#992=ORIENTED_EDGE('',*,*,#742,.F.);
#993=ORIENTED_EDGE('',*,*,#647,.T.);
#994=ORIENTED_EDGE('',*,*,#746,.F.);
#995=ORIENTED_EDGE('',*,*,#731,.F.);
#996=ORIENTED_EDGE('',*,*,#746,.T.);
#997=ORIENTED_EDGE('',*,*,#646,.T.);
#998=ORIENTED_EDGE('',*,*,#747,.F.);
#999=ORIENTED_EDGE('',*,*,#732,.F.);
#1000=ORIENTED_EDGE('',*,*,#745,.T.);
#1001=ORIENTED_EDGE('',*,*,#668,.T.);
#1002=ORIENTED_EDGE('',*,*,#695,.F.);
#1003=ORIENTED_EDGE('',*,*,#725,.F.);
#1004=ORIENTED_EDGE('',*,*,#748,.F.);
#1005=ORIENTED_EDGE('',*,*,#718,.T.);
#1006=ORIENTED_EDGE('',*,*,#749,.T.);
#1007=ORIENTED_EDGE('',*,*,#750,.F.);
#1008=ORIENTED_EDGE('',*,*,#628,.T.);
#1009=ORIENTED_EDGE('',*,*,#617,.T.);
#1010=ORIENTED_EDGE('',*,*,#625,.T.);
#1011=ORIENTED_EDGE('',*,*,#700,.T.);
#1012=ORIENTED_EDGE('',*,*,#719,.T.);
#1013=ORIENTED_EDGE('',*,*,#748,.T.);
#1014=ORIENTED_EDGE('',*,*,#751,.T.);
#1015=ORIENTED_EDGE('',*,*,#752,.T.);
#1016=ORIENTED_EDGE('',*,*,#611,.T.);
#1017=ORIENTED_EDGE('',*,*,#614,.F.);
#1018=ORIENTED_EDGE('',*,*,#752,.F.);
#1019=ORIENTED_EDGE('',*,*,#753,.T.);
#1020=ORIENTED_EDGE('',*,*,#754,.F.);
#1021=ORIENTED_EDGE('',*,*,#608,.F.);
#1022=ORIENTED_EDGE('',*,*,#750,.T.);
#1023=ORIENTED_EDGE('',*,*,#755,.F.);
#1024=ORIENTED_EDGE('',*,*,#753,.F.);
#1025=ORIENTED_EDGE('',*,*,#751,.F.);
#1026=ORIENTED_EDGE('',*,*,#749,.F.);
#1027=ORIENTED_EDGE('',*,*,#717,.F.);
#1028=ORIENTED_EDGE('',*,*,#612,.F.);
#1029=ORIENTED_EDGE('',*,*,#609,.F.);
#1030=ORIENTED_EDGE('',*,*,#754,.T.);
#1031=ORIENTED_EDGE('',*,*,#755,.T.);
#1032=ORIENTED_EDGE('',*,*,#756,.T.);
#1033=ORIENTED_EDGE('',*,*,#726,.F.);
#1034=ORIENTED_EDGE('',*,*,#747,.T.);
#1035=ORIENTED_EDGE('',*,*,#645,.T.);
#1036=ORIENTED_EDGE('',*,*,#757,.T.);
#1037=ORIENTED_EDGE('',*,*,#691,.T.);
#1038=ORIENTED_EDGE('',*,*,#682,.F.);
#1039=ORIENTED_EDGE('',*,*,#741,.F.);
#1040=ORIENTED_EDGE('',*,*,#758,.F.);
#1041=ORIENTED_EDGE('',*,*,#661,.T.);
#1042=ORIENTED_EDGE('',*,*,#692,.F.);
#1043=ORIENTED_EDGE('',*,*,#757,.F.);
#1044=ORIENTED_EDGE('',*,*,#758,.T.);
#1045=ORIENTED_EDGE('',*,*,#740,.T.);
#1046=ORIENTED_EDGE('',*,*,#662,.T.);
#1047=ORIENTED_EDGE('',*,*,#759,.F.);
#1048=ORIENTED_EDGE('',*,*,#653,.T.);
#1049=ORIENTED_EDGE('',*,*,#744,.F.);
#1050=ORIENTED_EDGE('',*,*,#723,.F.);
#1051=ORIENTED_EDGE('',*,*,#659,.T.);
#1052=ORIENTED_EDGE('',*,*,#760,.T.);
#1053=ORIENTED_EDGE('',*,*,#712,.T.);
#1054=ORIENTED_EDGE('',*,*,#693,.F.);
#1055=ORIENTED_EDGE('',*,*,#658,.T.);
#1056=ORIENTED_EDGE('',*,*,#686,.T.);
#1057=ORIENTED_EDGE('',*,*,#713,.T.);
#1058=ORIENTED_EDGE('',*,*,#760,.F.);
#1059=ORIENTED_EDGE('',*,*,#689,.F.);
#1060=ORIENTED_EDGE('',*,*,#720,.F.);
#1061=ORIENTED_EDGE('',*,*,#698,.F.);
#1062=ORIENTED_EDGE('',*,*,#702,.F.);
#1063=ORIENTED_EDGE('',*,*,#673,.T.);
#1064=ORIENTED_EDGE('',*,*,#711,.F.);
#1065=ORIENTED_EDGE('',*,*,#743,.F.);
#1066=ORIENTED_EDGE('',*,*,#729,.F.);
#1067=ORIENTED_EDGE('',*,*,#761,.F.);
#1068=ORIENTED_EDGE('',*,*,#654,.T.);
#1069=ORIENTED_EDGE('',*,*,#759,.T.);
#1070=ORIENTED_EDGE('',*,*,#722,.F.);
#1071=ORIENTED_EDGE('',*,*,#762,.F.);
#1072=ORIENTED_EDGE('',*,*,#643,.T.);
#1073=ORIENTED_EDGE('',*,*,#670,.T.);
#1074=ORIENTED_EDGE('',*,*,#728,.F.);
#1075=ORIENTED_EDGE('',*,*,#756,.F.);
#1076=ORIENTED_EDGE('',*,*,#644,.T.);
#1077=ORIENTED_EDGE('',*,*,#762,.T.);
#1078=ORIENTED_EDGE('',*,*,#727,.F.);
#1079=ORIENTED_EDGE('',*,*,#687,.F.);
#1080=ORIENTED_EDGE('',*,*,#655,.T.);
#1081=ORIENTED_EDGE('',*,*,#761,.T.);
#1082=ORIENTED_EDGE('',*,*,#721,.F.);
#1083=ORIENTED_EDGE('',*,*,#763,.T.);
#1084=ORIENTED_EDGE('',*,*,#764,.T.);
#1085=ORIENTED_EDGE('',*,*,#765,.F.);
#1086=ORIENTED_EDGE('',*,*,#715,.F.);
#1087=ORIENTED_EDGE('',*,*,#635,.T.);
#1088=ORIENTED_EDGE('',*,*,#621,.T.);
#1089=ORIENTED_EDGE('',*,*,#632,.T.);
#1090=ORIENTED_EDGE('',*,*,#701,.T.);
#1091=ORIENTED_EDGE('',*,*,#766,.F.);
#1092=ORIENTED_EDGE('',*,*,#767,.F.);
#1093=ORIENTED_EDGE('',*,*,#763,.F.);
#1094=ORIENTED_EDGE('',*,*,#714,.F.);
#1095=ORIENTED_EDGE('',*,*,#606,.F.);
#1096=ORIENTED_EDGE('',*,*,#602,.F.);
#1097=ORIENTED_EDGE('',*,*,#766,.T.);
#1098=ORIENTED_EDGE('',*,*,#601,.T.);
#1099=ORIENTED_EDGE('',*,*,#768,.T.);
#1100=ORIENTED_EDGE('',*,*,#769,.F.);
#1101=ORIENTED_EDGE('',*,*,#764,.F.);
#1102=ORIENTED_EDGE('',*,*,#767,.T.);
#1103=ORIENTED_EDGE('',*,*,#769,.T.);
#1104=ORIENTED_EDGE('',*,*,#770,.T.);
#1105=ORIENTED_EDGE('',*,*,#765,.T.);
#1106=ORIENTED_EDGE('',*,*,#770,.F.);
#1107=ORIENTED_EDGE('',*,*,#768,.F.);
#1108=ORIENTED_EDGE('',*,*,#604,.T.);
#1109=ORIENTED_EDGE('',*,*,#605,.F.);
#1110=ORIENTED_EDGE('',*,*,#716,.F.);
#1111=PLANE('',#1249);
#1112=PLANE('',#1250);
#1113=PLANE('',#1251);
#1114=PLANE('',#1252);
#1115=PLANE('',#1253);
#1116=PLANE('',#1254);
#1117=PLANE('',#1255);
#1118=PLANE('',#1256);
#1119=PLANE('',#1257);
#1120=PLANE('',#1258);
#1121=PLANE('',#1259);
#1122=PLANE('',#1260);
#1123=PLANE('',#1261);
#1124=PLANE('',#1262);
#1125=PLANE('',#1263);
#1126=PLANE('',#1264);
#1127=PLANE('',#1265);
#1128=PLANE('',#1266);
#1129=PLANE('',#1267);
#1130=PLANE('',#1268);
#1131=PLANE('',#1269);
#1132=PLANE('',#1270);
#1133=PLANE('',#1271);
#1134=PLANE('',#1272);
#1135=PLANE('',#1273);
#1136=PLANE('',#1274);
#1137=PLANE('',#1275);
#1138=PLANE('',#1276);
#1139=PLANE('',#1277);
#1140=PLANE('',#1278);
#1141=PLANE('',#1279);
#1142=PLANE('',#1280);
#1143=PLANE('',#1281);
#1144=PLANE('',#1282);
#1145=PLANE('',#1283);
#1146=PLANE('',#1284);
#1147=PLANE('',#1285);
#1148=PLANE('',#1286);
#1149=PLANE('',#1287);
#1150=PLANE('',#1288);
#1151=PLANE('',#1289);
#1152=PLANE('',#1290);
#1153=PLANE('',#1291);
#1154=PLANE('',#1292);
#1155=PLANE('',#1293);
#1156=PLANE('',#1294);
#1157=PLANE('',#1295);
#1158=PLANE('',#1296);
#1159=PLANE('',#1297);
#1160=PLANE('',#1298);
#1161=PLANE('',#1299);
#1162=PLANE('',#1300);
#1163=PLANE('',#1301);
#1164=PLANE('',#1302);
#1165=PLANE('',#1303);
#1166=PLANE('',#1304);
#1167=PLANE('',#1305);
#1168=PLANE('',#1306);
#1169=PLANE('',#1307);
#1170=PLANE('',#1308);
#1171=PLANE('',#1309);
#1172=PLANE('',#1310);
#1173=ADVANCED_FACE('',(#19),#1111,.T.);
#1174=ADVANCED_FACE('',(#20),#1112,.T.);
#1175=ADVANCED_FACE('',(#21),#1113,.T.);
#1176=ADVANCED_FACE('',(#22),#1114,.T.);
#1177=ADVANCED_FACE('',(#23),#1115,.F.);
#1178=ADVANCED_FACE('',(#24),#1116,.F.);
#1179=ADVANCED_FACE('',(#25),#1117,.F.);
#1180=ADVANCED_FACE('',(#26),#1118,.F.);
#1181=ADVANCED_FACE('',(#27),#1119,.F.);
#1182=ADVANCED_FACE('',(#28),#1120,.T.);
#1183=ADVANCED_FACE('',(#29),#1121,.T.);
#1184=ADVANCED_FACE('',(#30),#1122,.T.);
#1185=ADVANCED_FACE('',(#31),#1123,.F.);
#1186=ADVANCED_FACE('',(#32),#1124,.F.);
#1187=ADVANCED_FACE('',(#33),#1125,.F.);
#1188=ADVANCED_FACE('',(#34),#1126,.F.);
#1189=ADVANCED_FACE('',(#35),#1127,.F.);
#1190=ADVANCED_FACE('',(#36),#1128,.F.);
#1191=ADVANCED_FACE('',(#37),#1129,.T.);
#1192=ADVANCED_FACE('',(#38),#1130,.F.);
#1193=ADVANCED_FACE('',(#39),#1131,.F.);
#1194=ADVANCED_FACE('',(#40),#1132,.T.);
#1195=ADVANCED_FACE('',(#41),#1133,.T.);
#1196=ADVANCED_FACE('',(#42),#1134,.T.);
#1197=ADVANCED_FACE('',(#43),#1135,.T.);
#1198=ADVANCED_FACE('',(#44,#15,#16),#1136,.F.);
#1199=ADVANCED_FACE('',(#45),#1137,.T.);
#1200=ADVANCED_FACE('',(#46),#1138,.T.);
#1201=ADVANCED_FACE('',(#47),#1139,.T.);
#1202=ADVANCED_FACE('',(#48),#1140,.T.);
#1203=ADVANCED_FACE('',(#49),#1141,.T.);
#1204=ADVANCED_FACE('',(#50),#1142,.T.);
#1205=ADVANCED_FACE('',(#51),#1143,.T.);
#1206=ADVANCED_FACE('',(#52),#1144,.T.);
#1207=ADVANCED_FACE('',(#53),#1145,.F.);
#1208=ADVANCED_FACE('',(#54),#1146,.T.);
#1209=ADVANCED_FACE('',(#55),#1147,.F.);
#1210=ADVANCED_FACE('',(#56),#1148,.F.);
#1211=ADVANCED_FACE('',(#57),#1149,.F.);
#1212=ADVANCED_FACE('',(#58),#1150,.F.);
#1213=ADVANCED_FACE('',(#59,#17),#1151,.F.);
#1214=ADVANCED_FACE('',(#60),#1152,.F.);
#1215=ADVANCED_FACE('',(#61),#1153,.F.);
#1216=ADVANCED_FACE('',(#62),#1154,.F.);
#1217=ADVANCED_FACE('',(#63),#1155,.F.);
#1218=ADVANCED_FACE('',(#64),#1156,.T.);
#1219=ADVANCED_FACE('',(#65),#1157,.F.);
#1220=ADVANCED_FACE('',(#66),#1158,.T.);
#1221=ADVANCED_FACE('',(#67),#1159,.T.);
#1222=ADVANCED_FACE('',(#68),#1160,.F.);
#1223=ADVANCED_FACE('',(#69),#1161,.F.);
#1224=ADVANCED_FACE('',(#70),#1162,.F.);
#1225=ADVANCED_FACE('',(#71),#1163,.F.);
#1226=ADVANCED_FACE('',(#72),#1164,.T.);
#1227=ADVANCED_FACE('',(#73),#1165,.T.);
#1228=ADVANCED_FACE('',(#74),#1166,.T.);
#1229=ADVANCED_FACE('',(#75),#1167,.T.);
#1230=ADVANCED_FACE('',(#76,#18),#1168,.T.);
#1231=ADVANCED_FACE('',(#77),#1169,.T.);
#1232=ADVANCED_FACE('',(#78),#1170,.T.);
#1233=ADVANCED_FACE('',(#79),#1171,.T.);
#1234=ADVANCED_FACE('',(#80),#1172,.T.);
#1235=CLOSED_SHELL('',(#1173,#1174,#1175,#1176,#1177,#1178,#1179,#1180,
#1181,#1182,#1183,#1184,#1185,#1186,#1187,#1188,#1189,#1190,#1191,#1192,
#1193,#1194,#1195,#1196,#1197,#1198,#1199,#1200,#1201,#1202,#1203,#1204,
#1205,#1206,#1207,#1208,#1209,#1210,#1211,#1212,#1213,#1214,#1215,#1216,
#1217,#1218,#1219,#1220,#1221,#1222,#1223,#1224,#1225,#1226,#1227,#1228,
#1229,#1230,#1231,#1232,#1233,#1234));
#1236=DERIVED_UNIT_ELEMENT(#1238,1.);
#1237=DERIVED_UNIT_ELEMENT(#1959,-3.);
#1238=(
MASS_UNIT()
NAMED_UNIT(*)
SI_UNIT(.KILO.,.GRAM.)
);
#1239=DERIVED_UNIT((#1236,#1237));
#1240=MEASURE_REPRESENTATION_ITEM('density measure',
POSITIVE_RATIO_MEASURE(7850.),#1239);
#1241=PROPERTY_DEFINITION_REPRESENTATION(#1246,#1243);
#1242=PROPERTY_DEFINITION_REPRESENTATION(#1247,#1244);
#1243=REPRESENTATION('material name',(#1245),#1956);
#1244=REPRESENTATION('density',(#1240),#1956);
#1245=DESCRIPTIVE_REPRESENTATION_ITEM('Steel','Steel');
#1246=PROPERTY_DEFINITION('material property','material name',#1966);
#1247=PROPERTY_DEFINITION('material property','density of part',#1966);
#1248=AXIS2_PLACEMENT_3D('',#1607,#1311,#1312);
#1249=AXIS2_PLACEMENT_3D('',#1608,#1313,#1314);
#1250=AXIS2_PLACEMENT_3D('',#1617,#1319,#1320);
#1251=AXIS2_PLACEMENT_3D('',#1623,#1324,#1325);
#1252=AXIS2_PLACEMENT_3D('',#1632,#1330,#1331);
#1253=AXIS2_PLACEMENT_3D('',#1638,#1335,#1336);
#1254=AXIS2_PLACEMENT_3D('',#1647,#1341,#1342);
#1255=AXIS2_PLACEMENT_3D('',#1656,#1347,#1348);
#1256=AXIS2_PLACEMENT_3D('',#1662,#1352,#1353);
#1257=AXIS2_PLACEMENT_3D('',#1666,#1356,#1357);
#1258=AXIS2_PLACEMENT_3D('',#1670,#1360,#1361);
#1259=AXIS2_PLACEMENT_3D('',#1676,#1365,#1366);
#1260=AXIS2_PLACEMENT_3D('',#1680,#1369,#1370);
#1261=AXIS2_PLACEMENT_3D('',#1684,#1373,#1374);
#1262=AXIS2_PLACEMENT_3D('',#1717,#1391,#1392);
#1263=AXIS2_PLACEMENT_3D('',#1752,#1410,#1411);
#1264=AXIS2_PLACEMENT_3D('',#1762,#1417,#1418);
#1265=AXIS2_PLACEMENT_3D('',#1766,#1421,#1422);
#1266=AXIS2_PLACEMENT_3D('',#1770,#1425,#1426);
#1267=AXIS2_PLACEMENT_3D('',#1774,#1429,#1430);
#1268=AXIS2_PLACEMENT_3D('',#1780,#1434,#1435);
#1269=AXIS2_PLACEMENT_3D('',#1786,#1439,#1440);
#1270=AXIS2_PLACEMENT_3D('',#1794,#1445,#1446);
#1271=AXIS2_PLACEMENT_3D('',#1801,#1451,#1452);
#1272=AXIS2_PLACEMENT_3D('',#1811,#1458,#1459);
#1273=AXIS2_PLACEMENT_3D('',#1813,#1461,#1462);
#1274=AXIS2_PLACEMENT_3D('',#1815,#1464,#1465);
#1275=AXIS2_PLACEMENT_3D('',#1847,#1484,#1485);
#1276=AXIS2_PLACEMENT_3D('',#1858,#1492,#1493);
#1277=AXIS2_PLACEMENT_3D('',#1872,#1501,#1502);
#1278=AXIS2_PLACEMENT_3D('',#1875,#1505,#1506);
#1279=AXIS2_PLACEMENT_3D('',#1877,#1508,#1509);
#1280=AXIS2_PLACEMENT_3D('',#1879,#1511,#1512);
#1281=AXIS2_PLACEMENT_3D('',#1882,#1515,#1516);
#1282=AXIS2_PLACEMENT_3D('',#1884,#1518,#1519);
#1283=AXIS2_PLACEMENT_3D('',#1885,#1520,#1521);
#1284=AXIS2_PLACEMENT_3D('',#1889,#1524,#1525);
#1285=AXIS2_PLACEMENT_3D('',#1892,#1528,#1529);
#1286=AXIS2_PLACEMENT_3D('',#1895,#1532,#1533);
#1287=AXIS2_PLACEMENT_3D('',#1897,#1535,#1536);
#1288=AXIS2_PLACEMENT_3D('',#1899,#1538,#1539);
#1289=AXIS2_PLACEMENT_3D('',#1900,#1540,#1541);
#1290=AXIS2_PLACEMENT_3D('',#1906,#1545,#1546);
#1291=AXIS2_PLACEMENT_3D('',#1910,#1549,#1550);
#1292=AXIS2_PLACEMENT_3D('',#1914,#1553,#1554);
#1293=AXIS2_PLACEMENT_3D('',#1916,#1556,#1557);
#1294=AXIS2_PLACEMENT_3D('',#1917,#1558,#1559);
#1295=AXIS2_PLACEMENT_3D('',#1919,#1561,#1562);
#1296=AXIS2_PLACEMENT_3D('',#1923,#1565,#1566);
#1297=AXIS2_PLACEMENT_3D('',#1924,#1567,#1568);
#1298=AXIS2_PLACEMENT_3D('',#1926,#1570,#1571);
#1299=AXIS2_PLACEMENT_3D('',#1928,#1573,#1574);
#1300=AXIS2_PLACEMENT_3D('',#1929,#1575,#1576);
#1301=AXIS2_PLACEMENT_3D('',#1930,#1577,#1578);
#1302=AXIS2_PLACEMENT_3D('',#1931,#1579,#1580);
#1303=AXIS2_PLACEMENT_3D('',#1933,#1582,#1583);
#1304=AXIS2_PLACEMENT_3D('',#1935,#1585,#1586);
#1305=AXIS2_PLACEMENT_3D('',#1936,#1587,#1588);
#1306=AXIS2_PLACEMENT_3D('',#1937,#1589,#1590);
#1307=AXIS2_PLACEMENT_3D('',#1943,#1594,#1595);
#1308=AXIS2_PLACEMENT_3D('',#1947,#1598,#1599);
#1309=AXIS2_PLACEMENT_3D('',#1951,#1602,#1603);
#1310=AXIS2_PLACEMENT_3D('',#1953,#1605,#1606);
#1311=DIRECTION('axis',(0.,0.,1.));
#1312=DIRECTION('refdir',(1.,0.,0.));
#1313=DIRECTION('center_axis',(0.,0.,1.));
#1314=DIRECTION('ref_axis',(-1.,0.,0.));
#1315=DIRECTION('',(1.,0.,0.));
#1316=DIRECTION('',(0.,-1.,0.));
#1317=DIRECTION('',(-1.,0.,0.));
#1318=DIRECTION('',(0.,-1.,0.));
#1319=DIRECTION('center_axis',(0.,-1.,0.));
#1320=DIRECTION('ref_axis',(0.,0.,-1.));
#1321=DIRECTION('',(0.,0.,1.));
#1322=DIRECTION('',(0.,0.,-1.));
#1323=DIRECTION('',(-1.,0.,0.));
#1324=DIRECTION('center_axis',(0.,0.,1.));
#1325=DIRECTION('ref_axis',(1.,0.,0.));
#1326=DIRECTION('',(1.,0.,0.));
#1327=DIRECTION('',(0.,1.,0.));
#1328=DIRECTION('',(1.,0.,0.));
#1329=DIRECTION('',(0.,1.,0.));
#1330=DIRECTION('center_axis',(0.,1.,0.));
#1331=DIRECTION('ref_axis',(0.,0.,1.));
#1332=DIRECTION('',(0.,0.,-1.));
#1333=DIRECTION('',(1.,0.,0.));
#1334=DIRECTION('',(0.,0.,1.));
#1335=DIRECTION('center_axis',(0.,0.,-1.));
#1336=DIRECTION('ref_axis',(-1.,0.,0.));
#1337=DIRECTION('',(-1.,0.,0.));
#1338=DIRECTION('',(0.,-1.,0.));
#1339=DIRECTION('',(1.,0.,0.));
#1340=DIRECTION('',(0.,1.,0.));
#1341=DIRECTION('center_axis',(0.,0.,-1.));
#1342=DIRECTION('ref_axis',(-1.,0.,0.));
#1343=DIRECTION('',(1.,0.,0.));
#1344=DIRECTION('',(0.,1.,0.));
#1345=DIRECTION('',(-1.,0.,0.));
#1346=DIRECTION('',(0.,-1.,0.));
#1347=DIRECTION('center_axis',(-1.,0.,0.));
#1348=DIRECTION('ref_axis',(0.,0.,-1.));
#1349=DIRECTION('',(0.,0.,1.));
#1350=DIRECTION('',(0.,-1.,0.));
#1351=DIRECTION('',(0.,0.,-1.));
#1352=DIRECTION('center_axis',(0.,1.,0.));
#1353=DIRECTION('ref_axis',(0.,0.,1.));
#1354=DIRECTION('',(0.,0.,-1.));
#1355=DIRECTION('',(-1.,0.,0.));
#1356=DIRECTION('center_axis',(1.,0.,0.));
#1357=DIRECTION('ref_axis',(0.,0.,1.));
#1358=DIRECTION('',(0.,0.,1.));
#1359=DIRECTION('',(0.,1.,0.));
#1360=DIRECTION('center_axis',(-1.,0.,0.));
#1361=DIRECTION('ref_axis',(0.,0.,1.));
#1362=DIRECTION('',(0.,0.,-1.));
#1363=DIRECTION('',(0.,1.,0.));
#1364=DIRECTION('',(0.,0.,-1.));
#1365=DIRECTION('center_axis',(0.,1.,0.));
#1366=DIRECTION('ref_axis',(0.,0.,1.));
#1367=DIRECTION('',(0.,0.,1.));
#1368=DIRECTION('',(1.,0.,0.));
#1369=DIRECTION('center_axis',(1.,0.,0.));
#1370=DIRECTION('ref_axis',(0.,0.,-1.));
#1371=DIRECTION('',(0.,0.,1.));
#1372=DIRECTION('',(0.,-1.,0.));
#1373=DIRECTION('center_axis',(0.,0.,-1.));
#1374=DIRECTION('ref_axis',(-1.,0.,0.));
#1375=DIRECTION('',(0.,-1.,0.));
#1376=DIRECTION('',(1.,0.,0.));
#1377=DIRECTION('',(0.,1.,0.));
#1378=DIRECTION('',(-1.,0.,0.));
#1379=DIRECTION('',(0.,1.,0.));
#1380=DIRECTION('',(-1.,0.,0.));
#1381=DIRECTION('',(0.,-1.,0.));
#1382=DIRECTION('',(-1.,0.,0.));
#1383=DIRECTION('',(0.,1.,0.));
#1384=DIRECTION('',(1.,0.,0.));
#1385=DIRECTION('',(0.,-1.,0.));
#1386=DIRECTION('',(1.,0.,0.));
#1387=DIRECTION('',(0.,1.,0.));
#1388=DIRECTION('',(1.,0.,0.));
#1389=DIRECTION('',(0.,1.,0.));
#1390=DIRECTION('',(-1.,0.,0.));
#1391=DIRECTION('center_axis',(0.,0.,-1.));
#1392=DIRECTION('ref_axis',(-1.,0.,0.));
#1393=DIRECTION('',(0.,-1.,0.));
#1394=DIRECTION('',(-0.999999999999989,1.49011676331438E-7,0.));
#1395=DIRECTION('',(0.,1.,0.));
#1396=DIRECTION('',(-1.,0.,0.));
#1397=DIRECTION('',(0.,-1.,0.));
#1398=DIRECTION('',(-1.,0.,0.));
#1399=DIRECTION('',(0.,-1.,0.));
#1400=DIRECTION('',(1.,0.,0.));
#1401=DIRECTION('',(0.,1.,0.));
#1402=DIRECTION('',(0.,1.,0.));
#1403=DIRECTION('',(-1.,0.,0.));
#1404=DIRECTION('',(0.,-1.,0.));
#1405=DIRECTION('',(1.,0.,0.));
#1406=DIRECTION('',(0.,-1.,0.));
#1407=DIRECTION('',(1.,0.,0.));
#1408=DIRECTION('',(0.,1.,0.));
#1409=DIRECTION('',(0.999999999999989,1.49011676331438E-7,0.));
#1410=DIRECTION('center_axis',(0.,1.,0.));
#1411=DIRECTION('ref_axis',(1.,0.,0.));
#1412=DIRECTION('',(0.,0.,1.));
#1413=DIRECTION('',(0.,0.,-1.));
#1414=DIRECTION('',(1.,0.,0.));
#1415=DIRECTION('',(0.,0.,-1.));
#1416=DIRECTION('',(1.,0.,0.));
#1417=DIRECTION('center_axis',(1.,0.,0.));
#1418=DIRECTION('ref_axis',(0.,-1.,0.));
#1419=DIRECTION('',(0.,0.,-1.));
#1420=DIRECTION('',(0.,-1.,0.));
#1421=DIRECTION('center_axis',(0.,1.,0.));
#1422=DIRECTION('ref_axis',(1.,0.,0.));
#1423=DIRECTION('',(0.,0.,-1.));
#1424=DIRECTION('',(1.,0.,0.));
#1425=DIRECTION('center_axis',(1.,0.,0.));
#1426=DIRECTION('ref_axis',(0.,-1.,0.));
#1427=DIRECTION('',(0.,0.,1.));
#1428=DIRECTION('',(0.,-1.,0.));
#1429=DIRECTION('center_axis',(1.,0.,0.));
#1430=DIRECTION('ref_axis',(0.,1.,0.));
#1431=DIRECTION('',(0.,0.,1.));
#1432=DIRECTION('',(0.,1.,0.));
#1433=DIRECTION('',(0.,0.,1.));
#1434=DIRECTION('center_axis',(-1.,0.,0.));
#1435=DIRECTION('ref_axis',(0.,1.,0.));
#1436=DIRECTION('',(0.,0.,1.));
#1437=DIRECTION('',(0.,1.,0.));
#1438=DIRECTION('',(0.,0.,-1.));
#1439=DIRECTION('center_axis',(0.,1.,0.));
#1440=DIRECTION('ref_axis',(1.,0.,0.));
#1441=DIRECTION('',(0.,0.,1.));
#1442=DIRECTION('',(1.,0.,0.));
#1443=DIRECTION('',(0.,0.,-1.));
#1444=DIRECTION('',(1.,0.,0.));
#1445=DIRECTION('center_axis',(0.,1.,0.));
#1446=DIRECTION('ref_axis',(-1.,0.,0.));
#1447=DIRECTION('',(1.,0.,0.));
#1448=DIRECTION('',(0.,0.,1.));
#1449=DIRECTION('',(0.,0.,-1.));
#1450=DIRECTION('',(1.,0.,0.));
#1451=DIRECTION('center_axis',(0.,1.,0.));
#1452=DIRECTION('ref_axis',(1.,0.,0.));
#1453=DIRECTION('',(0.,0.,-1.));
#1454=DIRECTION('',(0.,0.,1.));
#1455=DIRECTION('',(1.,0.,0.));
#1456=DIRECTION('',(0.,0.,1.));
#1457=DIRECTION('',(-1.,0.,0.));
#1458=DIRECTION('center_axis',(0.,0.,-1.));
#1459=DIRECTION('ref_axis',(-1.,0.,0.));
#1460=DIRECTION('',(-1.,0.,0.));
#1461=DIRECTION('center_axis',(0.,0.,-1.));
#1462=DIRECTION('ref_axis',(-1.,0.,0.));
#1463=DIRECTION('',(1.,0.,0.));
#1464=DIRECTION('center_axis',(0.,0.,-1.));
#1465=DIRECTION('ref_axis',(-1.,0.,0.));
#1466=DIRECTION('',(0.,-1.,0.));
#1467=DIRECTION('',(0.,-1.,0.));
#1468=DIRECTION('',(1.,0.,0.));
#1469=DIRECTION('',(0.,-1.,0.));
#1470=DIRECTION('',(1.,0.,0.));
#1471=DIRECTION('',(0.,1.,0.));
#1472=DIRECTION('',(1.,0.,0.));
#1473=DIRECTION('',(0.,1.,0.));
#1474=DIRECTION('',(1.,0.,0.));
#1475=DIRECTION('',(0.,1.,0.));
#1476=DIRECTION('',(0.,1.,0.));
#1477=DIRECTION('',(1.,0.,0.));
#1478=DIRECTION('',(0.,1.,0.));
#1479=DIRECTION('',(1.,0.,0.));
#1480=DIRECTION('',(0.,-1.,0.));
#1481=DIRECTION('',(0.,-1.,0.));
#1482=DIRECTION('',(1.,0.,0.));
#1483=DIRECTION('',(0.,-1.,0.));
#1484=DIRECTION('center_axis',(0.,0.,1.));
#1485=DIRECTION('ref_axis',(1.,0.,0.));
#1486=DIRECTION('',(0.,1.,0.));
#1487=DIRECTION('',(0.,1.,0.));
#1488=DIRECTION('',(-0.999999999999989,1.49011676331438E-7,0.));
#1489=DIRECTION('',(0.,-1.,0.));
#1490=DIRECTION('',(0.999999999999989,1.49011676331438E-7,0.));
#1491=DIRECTION('',(0.,1.,0.));
#1492=DIRECTION('center_axis',(0.,0.,1.));
#1493=DIRECTION('ref_axis',(1.,0.,0.));
#1494=DIRECTION('',(0.,1.,0.));
#1495=DIRECTION('',(-1.,0.,0.));
#1496=DIRECTION('',(0.,-1.,0.));
#1497=DIRECTION('',(0.,-1.,0.));
#1498=DIRECTION('',(-1.,0.,0.));
#1499=DIRECTION('',(0.,-1.,0.));
#1500=DIRECTION('',(1.,0.,0.));
#1501=DIRECTION('center_axis',(-1.,0.,0.));
#1502=DIRECTION('ref_axis',(0.,1.,0.));
#1503=DIRECTION('',(0.,0.,-1.));
#1504=DIRECTION('',(0.,0.,-1.));
#1505=DIRECTION('center_axis',(0.,1.,0.));
#1506=DIRECTION('ref_axis',(1.,0.,0.));
#1507=DIRECTION('',(0.,0.,-1.));
#1508=DIRECTION('center_axis',(-1.,0.,0.));
#1509=DIRECTION('ref_axis',(0.,1.,0.));
#1510=DIRECTION('',(0.,0.,1.));
#1511=DIRECTION('center_axis',(1.,0.,0.));
#1512=DIRECTION('ref_axis',(0.,-1.,0.));
#1513=DIRECTION('',(0.,0.,-1.));
#1514=DIRECTION('',(0.,0.,-1.));
#1515=DIRECTION('center_axis',(0.,1.,0.));
#1516=DIRECTION('ref_axis',(1.,0.,0.));
#1517=DIRECTION('',(0.,0.,-1.));
#1518=DIRECTION('center_axis',(1.,0.,0.));
#1519=DIRECTION('ref_axis',(0.,-1.,0.));
#1520=DIRECTION('center_axis',(0.,1.,0.));
#1521=DIRECTION('ref_axis',(-1.,0.,0.));
#1522=DIRECTION('',(0.,0.,1.));
#1523=DIRECTION('',(1.,0.,0.));
#1524=DIRECTION('center_axis',(0.,1.,0.));
#1525=DIRECTION('ref_axis',(1.,0.,0.));
#1526=DIRECTION('',(0.,0.,1.));
#1527=DIRECTION('',(0.,0.,-1.));
#1528=DIRECTION('center_axis',(-1.49011676331438E-7,0.999999999999989,0.));
#1529=DIRECTION('ref_axis',(-0.999999999999989,-1.49011676331438E-7,0.));
#1530=DIRECTION('',(0.,0.,-1.));
#1531=DIRECTION('',(0.,0.,-1.));
#1532=DIRECTION('center_axis',(1.,0.,0.));
#1533=DIRECTION('ref_axis',(0.,1.,0.));
#1534=DIRECTION('',(0.,0.,-1.));
#1535=DIRECTION('center_axis',(0.,1.,0.));
#1536=DIRECTION('ref_axis',(-1.,0.,0.));
#1537=DIRECTION('',(0.,0.,-1.));
#1538=DIRECTION('center_axis',(-1.,0.,0.));
#1539=DIRECTION('ref_axis',(0.,-1.,0.));
#1540=DIRECTION('center_axis',(0.,1.,0.));
#1541=DIRECTION('ref_axis',(-1.,0.,0.));
#1542=DIRECTION('',(0.,0.,1.));
#1543=DIRECTION('',(0.,0.,1.));
#1544=DIRECTION('',(1.,0.,0.));
#1545=DIRECTION('center_axis',(1.,0.,0.));
#1546=DIRECTION('ref_axis',(0.,1.,0.));
#1547=DIRECTION('',(0.,-1.,0.));
#1548=DIRECTION('',(0.,0.707106781186548,0.707106781186547));
#1549=DIRECTION('center_axis',(0.,0.707106781186547,-0.707106781186548));
#1550=DIRECTION('ref_axis',(1.,0.,0.));
#1551=DIRECTION('',(1.,0.,0.));
#1552=DIRECTION('',(0.,-0.707106781186548,-0.707106781186547));
#1553=DIRECTION('center_axis',(0.,0.,1.));
#1554=DIRECTION('ref_axis',(-1.,0.,0.));
#1555=DIRECTION('',(0.,1.,0.));
#1556=DIRECTION('center_axis',(-1.,0.,0.));
#1557=DIRECTION('ref_axis',(0.,-1.,0.));
#1558=DIRECTION('center_axis',(1.,0.,0.));
#1559=DIRECTION('ref_axis',(0.,1.,0.));
#1560=DIRECTION('',(0.,0.,1.));
#1561=DIRECTION('center_axis',(0.,0.,1.));
#1562=DIRECTION('ref_axis',(1.,0.,0.));
#1563=DIRECTION('',(0.,1.,0.));
#1564=DIRECTION('',(0.,-1.,0.));
#1565=DIRECTION('center_axis',(-1.,0.,0.));
#1566=DIRECTION('ref_axis',(0.,-1.,0.));
#1567=DIRECTION('center_axis',(-1.,0.,0.));
#1568=DIRECTION('ref_axis',(0.,-1.,0.));
#1569=DIRECTION('',(0.,0.,1.));
#1570=DIRECTION('center_axis',(-1.,0.,0.));
#1571=DIRECTION('ref_axis',(0.,1.,0.));
#1572=DIRECTION('',(0.,0.,-1.));
#1573=DIRECTION('center_axis',(0.,1.,0.));
#1574=DIRECTION('ref_axis',(1.,0.,0.));
#1575=DIRECTION('center_axis',(-1.,0.,0.));
#1576=DIRECTION('ref_axis',(0.,1.,0.));
#1577=DIRECTION('center_axis',(1.,0.,0.));
#1578=DIRECTION('ref_axis',(0.,-1.,0.));
#1579=DIRECTION('center_axis',(1.49011676331438E-7,0.999999999999989,0.));
#1580=DIRECTION('ref_axis',(-0.999999999999989,1.49011676331438E-7,0.));
#1581=DIRECTION('',(0.,0.,1.));
#1582=DIRECTION('center_axis',(-1.,0.,0.));
#1583=DIRECTION('ref_axis',(0.,-1.,0.));
#1584=DIRECTION('',(0.,0.,1.));
#1585=DIRECTION('center_axis',(0.,1.,0.));
#1586=DIRECTION('ref_axis',(-1.,0.,0.));
#1587=DIRECTION('center_axis',(1.,0.,0.));
#1588=DIRECTION('ref_axis',(0.,1.,0.));
#1589=DIRECTION('center_axis',(0.,1.,0.));
#1590=DIRECTION('ref_axis',(-1.,0.,0.));
#1591=DIRECTION('',(0.,0.,1.));
#1592=DIRECTION('',(1.,0.,0.));
#1593=DIRECTION('',(0.,0.,1.));
#1594=DIRECTION('center_axis',(-1.,0.,0.));
#1595=DIRECTION('ref_axis',(0.,-1.,0.));
#1596=DIRECTION('',(0.,-0.707106781186548,0.707106781186547));
#1597=DIRECTION('',(0.,1.,0.));
#1598=DIRECTION('center_axis',(0.,0.707106781186547,0.707106781186548));
#1599=DIRECTION('ref_axis',(1.,0.,0.));
#1600=DIRECTION('',(0.,0.707106781186548,-0.707106781186547));
#1601=DIRECTION('',(1.,0.,0.));
#1602=DIRECTION('center_axis',(0.,0.,-1.));
#1603=DIRECTION('ref_axis',(-1.,0.,0.));
#1604=DIRECTION('',(0.,-1.,0.));
#1605=DIRECTION('center_axis',(1.,0.,0.));
#1606=DIRECTION('ref_axis',(0.,1.,0.));
#1607=CARTESIAN_POINT('',(0.,0.,0.));
#1608=CARTESIAN_POINT('Origin',(-164.00000192225,-52.0000007748604,20.));
#1609=CARTESIAN_POINT('',(-178.000002130866,-52.0000007748604,20.));
#1610=CARTESIAN_POINT('',(-164.00000192225,-52.0000007748604,20.));
#1611=CARTESIAN_POINT('',(-177.000001102686,-52.0000007748604,20.));
#1612=CARTESIAN_POINT('',(-178.000002130866,-53.5000007748604,20.));
#1613=CARTESIAN_POINT('',(-178.000002130866,-52.0000007748604,20.));
#1614=CARTESIAN_POINT('',(-164.00000192225,-53.5000007748604,20.));
#1615=CARTESIAN_POINT('',(-177.000001102686,-53.5000007748604,20.));
#1616=CARTESIAN_POINT('',(-164.00000192225,-52.0000007748604,20.));
#1617=CARTESIAN_POINT('Origin',(-183.000002205372,-53.5000007748604,20.));
#1618=CARTESIAN_POINT('',(-164.00000192225,-53.5000007748604,2.));
#1619=CARTESIAN_POINT('',(-164.00000192225,-53.5000007748604,0.));
#1620=CARTESIAN_POINT('',(-178.000002130866,-53.5000007748604,2.));
#1621=CARTESIAN_POINT('',(-178.000002130866,-53.5000007748604,0.));
#1622=CARTESIAN_POINT('',(-177.000002115965,-53.5000007748604,2.));
#1623=CARTESIAN_POINT('Origin',(-178.000002130866,-76.0000011324883,20.));
#1624=CARTESIAN_POINT('',(-178.000002130866,-76.0000011324883,20.));
#1625=CARTESIAN_POINT('',(-164.00000192225,-76.0000011324883,20.));
#1626=CARTESIAN_POINT('',(-177.000001102686,-76.0000011324883,20.));
#1627=CARTESIAN_POINT('',(-164.00000192225,-74.5000011324883,20.));
#1628=CARTESIAN_POINT('',(-164.00000192225,-76.0000011324883,20.));
#1629=CARTESIAN_POINT('',(-178.000002130866,-74.5000011324883,20.));
#1630=CARTESIAN_POINT('',(-177.000001102686,-74.5000011324883,20.));
#1631=CARTESIAN_POINT('',(-178.000002130866,-76.0000011324883,20.));
#1632=CARTESIAN_POINT('Origin',(-183.000002205372,-74.5000011324883,20.));
#1633=CARTESIAN_POINT('',(-164.00000192225,-74.5000011324883,2.));
#1634=CARTESIAN_POINT('',(-164.00000192225,-74.5000011324883,0.));
#1635=CARTESIAN_POINT('',(-178.000002130866,-74.5000011324883,2.));
#1636=CARTESIAN_POINT('',(-177.000002115965,-74.5000011324883,2.));
#1637=CARTESIAN_POINT('',(-178.000002130866,-74.5000011324883,0.));
#1638=CARTESIAN_POINT('Origin',(-177.000002637506,-78.0000011622906,11.8750001490116));
#1639=CARTESIAN_POINT('',(-165.000002458692,-80.5000019073486,11.8750001490116));
#1640=CARTESIAN_POINT('',(-177.000002637506,-80.5000019073486,11.8750001490116));
#1641=CARTESIAN_POINT('',(-174.000002592802,-80.5000019073486,11.8750001490116));
#1642=CARTESIAN_POINT('',(-165.000002458692,-78.0000011622906,11.8750001490116));
#1643=CARTESIAN_POINT('',(-165.000002458692,-78.0000011622906,11.8750001490116));
#1644=CARTESIAN_POINT('',(-177.000002637506,-78.0000011622906,11.8750001490116));
#1645=CARTESIAN_POINT('',(-170.500002279878,-78.0000011622906,11.8750001490116));
#1646=CARTESIAN_POINT('',(-177.000002637506,-78.0000011622906,11.8750001490116));
#1647=CARTESIAN_POINT('Origin',(-177.000002637506,-50.0000007450581,11.8750001490116));
#1648=CARTESIAN_POINT('',(-177.000002637506,-47.5,11.8750001490116));
#1649=CARTESIAN_POINT('',(-165.000002458692,-47.5,11.8750001490116));
#1650=CARTESIAN_POINT('',(-174.000002592802,-47.5,11.8750001490116));
#1651=CARTESIAN_POINT('',(-177.000002637506,-50.0000007450581,11.8750001490116));
#1652=CARTESIAN_POINT('',(-177.000002637506,-50.0000007450581,11.8750001490116));
#1653=CARTESIAN_POINT('',(-165.000002458692,-50.0000007450581,11.8750001490116));
#1654=CARTESIAN_POINT('',(-170.500002279878,-50.0000007450581,11.8750001490116));
#1655=CARTESIAN_POINT('',(-165.000002458692,-50.0000007450581,11.8750001490116));
#1656=CARTESIAN_POINT('Origin',(-165.000002458692,-78.0000011622906,12.0000001490116));
#1657=CARTESIAN_POINT('',(-165.000002458692,-80.5000019073486,5.50000008940697));
#1658=CARTESIAN_POINT('',(-165.000002458692,-80.5000019073486,11.0000001341105));
#1659=CARTESIAN_POINT('',(-165.000002458692,-78.0000011622906,5.50000008940697));
#1660=CARTESIAN_POINT('',(-165.000002458692,-78.0000011622906,5.50000008940697));
#1661=CARTESIAN_POINT('',(-165.000002458692,-78.0000011622906,4.00000004470348));
#1662=CARTESIAN_POINT('Origin',(-171.000002548099,-80.5000019073486,10.0000001192093));
#1663=CARTESIAN_POINT('',(-177.000002637506,-80.5000019073486,5.50000008940697));
#1664=CARTESIAN_POINT('',(-177.000002637506,-80.5000019073486,8.00000008940697));
#1665=CARTESIAN_POINT('',(-168.000002503395,-80.5000019073486,5.50000008940697));
#1666=CARTESIAN_POINT('Origin',(-177.000002637506,-78.0000011622906,8.00000008940697));
#1667=CARTESIAN_POINT('',(-177.000002637506,-78.0000011622906,5.50000008940697));
#1668=CARTESIAN_POINT('',(-177.000002637506,-78.0000011622906,4.00000004470348));
#1669=CARTESIAN_POINT('',(-177.000002637506,-78.0000011622906,5.50000008940697));
#1670=CARTESIAN_POINT('Origin',(-177.000002637506,-50.0000007450581,8.00000008940697));
#1671=CARTESIAN_POINT('',(-177.000002637506,-47.5,5.50000008940697));
#1672=CARTESIAN_POINT('',(-177.000002637506,-47.5,9.00000010430813));
#1673=CARTESIAN_POINT('',(-177.000002637506,-50.0000007450581,5.50000008940697));
#1674=CARTESIAN_POINT('',(-177.000002637506,-50.0000007450581,5.50000008940697));
#1675=CARTESIAN_POINT('',(-177.000002637506,-50.0000007450581,4.00000004470348));
#1676=CARTESIAN_POINT('Origin',(-171.000002548099,-47.5,10.0000001192093));
#1677=CARTESIAN_POINT('',(-165.000002458692,-47.5,5.50000008940697));
#1678=CARTESIAN_POINT('',(-165.000002458692,-47.5,11.0000001341105));
#1679=CARTESIAN_POINT('',(-168.000002503395,-47.5,5.50000008940697));
#1680=CARTESIAN_POINT('Origin',(-165.000002458692,-50.0000007450581,12.0000001490116));
#1681=CARTESIAN_POINT('',(-165.000002458692,-50.0000007450581,5.50000008940697));
#1682=CARTESIAN_POINT('',(-165.000002458692,-50.0000007450581,4.00000004470348));
#1683=CARTESIAN_POINT('',(-165.000002458692,-50.0000007450581,5.50000008940697));
#1684=CARTESIAN_POINT('Origin',(-171.000001169741,-64.0000005811453,12.85));
#1685=CARTESIAN_POINT('',(-154.500002339482,-47.5,12.85));
#1686=CARTESIAN_POINT('',(-154.500002339482,-80.5000019073486,12.85));
#1687=CARTESIAN_POINT('',(-154.500002339482,-72.2500008717179,12.85));
#1688=CARTESIAN_POINT('',(-164.00000192225,-47.5,12.85));
#1689=CARTESIAN_POINT('',(-162.750001754612,-47.5,12.85));
#1690=CARTESIAN_POINT('',(-164.00000192225,-49.0000007301569,12.85));
#1691=CARTESIAN_POINT('',(-164.00000192225,-55.7500002905726,12.85));
#1692=CARTESIAN_POINT('',(-163.000002428889,-49.0000007301569,12.85));
#1693=CARTESIAN_POINT('',(-167.500001545995,-49.0000007301569,12.85));
#1694=CARTESIAN_POINT('',(-163.000002428889,-52.0000007748604,12.85));
#1695=CARTESIAN_POINT('',(-163.000002428889,-56.5000006556511,12.85));
#1696=CARTESIAN_POINT('',(-162.000001892447,-52.0000007748604,12.85));
#1697=CARTESIAN_POINT('',(-177.000001687557,-52.0000007748604,12.85));
#1698=CARTESIAN_POINT('',(-162.000001892447,-50.,12.85));
#1699=CARTESIAN_POINT('',(-162.000001892447,-57.0000002905726,12.85));
#1700=CARTESIAN_POINT('',(-157.,-50.,12.85));
#1701=CARTESIAN_POINT('',(-167.500001545995,-50.0000007450581,12.85));
#1702=CARTESIAN_POINT('',(-157.,-78.0000019073486,12.85));
#1703=CARTESIAN_POINT('',(-157.,-71.0000002905726,12.85));
#1704=CARTESIAN_POINT('',(-162.000001892447,-78.0000019073486,12.85));
#1705=CARTESIAN_POINT('',(-167.500001545995,-78.0000011622906,12.85));
#1706=CARTESIAN_POINT('',(-162.000001892447,-76.0000011324883,12.85));
#1707=CARTESIAN_POINT('',(-162.000001892447,-71.000001616776,12.85));
#1708=CARTESIAN_POINT('',(-163.000002428889,-76.0000011324883,12.85));
#1709=CARTESIAN_POINT('',(-177.000001687557,-76.0000011324883,12.85));
#1710=CARTESIAN_POINT('',(-163.000002428889,-79.0000011771917,12.85));
#1711=CARTESIAN_POINT('',(-163.000002428889,-71.5000008791685,12.85));
#1712=CARTESIAN_POINT('',(-164.00000192225,-79.0000011771917,12.85));
#1713=CARTESIAN_POINT('',(-167.500001545995,-79.0000011771917,12.85));
#1714=CARTESIAN_POINT('',(-164.00000192225,-80.5000019073486,12.85));
#1715=CARTESIAN_POINT('',(-164.00000192225,-72.250001244247,12.85));
#1716=CARTESIAN_POINT('',(-162.750001754612,-80.5000019073486,12.85));
#1717=CARTESIAN_POINT('Origin',(-171.000001169741,-64.0000005811453,12.85));
#1718=CARTESIAN_POINT('',(-185.,-50.,12.85));
#1719=CARTESIAN_POINT('',(-185.,-78.0000019073486,12.85));
#1720=CARTESIAN_POINT('',(-185.,-71.000001616776,12.85));
#1721=CARTESIAN_POINT('',(-180.000002160668,-50.0000007450581,12.85));
#1722=CARTESIAN_POINT('',(-175.500000622123,-50.0000014156108,12.85));
#1723=CARTESIAN_POINT('',(-180.000002160668,-52.0000007748604,12.85));
#1724=CARTESIAN_POINT('',(-180.000002160668,-58.0000006780028,12.85));
#1725=CARTESIAN_POINT('',(-179.000002667308,-52.0000007748604,12.85));
#1726=CARTESIAN_POINT('',(-177.000001687557,-52.0000007748604,12.85));
#1727=CARTESIAN_POINT('',(-179.000002667308,-49.0000007301569,12.85));
#1728=CARTESIAN_POINT('',(-179.000002667308,-58.0000006780028,12.85));
#1729=CARTESIAN_POINT('',(-178.000002652407,-49.0000007301569,12.85));
#1730=CARTESIAN_POINT('',(-175.000001918525,-49.0000007301569,12.85));
#1731=CARTESIAN_POINT('',(-178.000002652407,-47.5,12.85));
#1732=CARTESIAN_POINT('',(-178.000002652407,-56.5000006556511,12.85));
#1733=CARTESIAN_POINT('',(-187.5,-47.5,12.85));
#1734=CARTESIAN_POINT('',(-162.750001754612,-47.5,12.85));
#1735=CARTESIAN_POINT('',(-187.500002793968,-64.0000009536743,12.85));
#1736=CARTESIAN_POINT('',(-187.5,-55.7500002905726,12.85));
#1737=CARTESIAN_POINT('',(-187.5,-80.5000019073486,12.85));
#1738=CARTESIAN_POINT('',(-187.5,-55.7500002905726,12.85));
#1739=CARTESIAN_POINT('',(-178.000002652407,-80.5000019073486,12.85));
#1740=CARTESIAN_POINT('',(-162.750001754612,-80.5000019073486,12.85));
#1741=CARTESIAN_POINT('',(-178.000002652407,-79.0000011771917,12.85));
#1742=CARTESIAN_POINT('',(-178.000002652407,-71.5000008791685,12.85));
#1743=CARTESIAN_POINT('',(-179.000002667308,-79.0000011771917,12.85));
#1744=CARTESIAN_POINT('',(-175.000001918525,-79.0000011771917,12.85));
#1745=CARTESIAN_POINT('',(-179.000002667308,-76.0000011324883,12.85));
#1746=CARTESIAN_POINT('',(-179.000002667308,-70.0000008568168,12.85));
#1747=CARTESIAN_POINT('',(-180.000002160668,-76.0000011324883,12.85));
#1748=CARTESIAN_POINT('',(-177.000001687557,-76.0000011324883,12.85));
#1749=CARTESIAN_POINT('',(-180.000002160668,-78.0000011622906,12.85));
#1750=CARTESIAN_POINT('',(-180.000002160668,-70.0000012293458,12.85));
#1751=CARTESIAN_POINT('',(-175.500000622123,-78.0000004917378,12.85));
#1752=CARTESIAN_POINT('Origin',(-183.000002205372,-52.0000007748604,20.));
#1753=CARTESIAN_POINT('',(-162.000001892447,-52.0000007748604,15.9750001937151));
#1754=CARTESIAN_POINT('',(-162.000001892447,-52.0000007748604,13.0000001937151));
#1755=CARTESIAN_POINT('',(-163.000002428889,-52.0000007748604,2.));
#1756=CARTESIAN_POINT('',(-163.000002428889,-52.0000007748604,16.4875));
#1757=CARTESIAN_POINT('',(-159.000001847744,-52.0000007748604,2.));
#1758=CARTESIAN_POINT('',(-183.000002205372,-52.0000007748604,2.));
#1759=CARTESIAN_POINT('',(-159.000001847744,-52.0000007748604,15.9750001937151));
#1760=CARTESIAN_POINT('',(-159.000001847744,-52.0000007748604,20.));
#1761=CARTESIAN_POINT('',(-169.000002257526,-52.0000007748604,15.9750001937151));
#1762=CARTESIAN_POINT('Origin',(-163.000002428889,-49.0000007301569,12.975));
#1763=CARTESIAN_POINT('',(-163.000002428889,-49.0000007301569,2.));
#1764=CARTESIAN_POINT('',(-163.000002428889,-49.0000007301569,12.975));
#1765=CARTESIAN_POINT('',(-163.000002428889,-56.1250006593764,2.));
#1766=CARTESIAN_POINT('Origin',(-164.00000192225,-49.0000007301569,12.975));
#1767=CARTESIAN_POINT('',(-164.00000192225,-49.0000007301569,2.));
#1768=CARTESIAN_POINT('',(-164.00000192225,-49.0000007301569,12.975));
#1769=CARTESIAN_POINT('',(-167.500000961125,-49.0000007301569,2.));
#1770=CARTESIAN_POINT('Origin',(-164.00000192225,-47.5,12.975));
#1771=CARTESIAN_POINT('',(-164.00000192225,-47.5,2.));
#1772=CARTESIAN_POINT('',(-164.00000192225,-47.5,6.4875));
#1773=CARTESIAN_POINT('',(-164.00000192225,-55.3750002942979,2.));
#1774=CARTESIAN_POINT('Origin',(-154.500002339482,-80.5000011622906,0.));
#1775=CARTESIAN_POINT('',(-154.500002339482,-80.5000019073486,0.));
#1776=CARTESIAN_POINT('',(-154.500002339482,-80.5000019073486,0.));
#1777=CARTESIAN_POINT('',(-154.500002339482,-47.5,0.));
#1778=CARTESIAN_POINT('',(-154.500002339482,-80.5000019073486,0.));
#1779=CARTESIAN_POINT('',(-154.500002339482,-47.5,0.));
#1780=CARTESIAN_POINT('Origin',(-179.000002667308,-52.0000007748604,12.975));
#1781=CARTESIAN_POINT('',(-179.000002667308,-52.0000007748604,2.));
#1782=CARTESIAN_POINT('',(-179.000002667308,-52.0000007748604,16.4875));
#1783=CARTESIAN_POINT('',(-179.000002667308,-49.0000007301569,2.));
#1784=CARTESIAN_POINT('',(-179.000002667308,-57.6250006817281,2.));
#1785=CARTESIAN_POINT('',(-179.000002667308,-49.0000007301569,12.975));
#1786=CARTESIAN_POINT('Origin',(-183.000002205372,-52.0000007748604,20.));
#1787=CARTESIAN_POINT('',(-180.000002160668,-52.0000007748604,15.9750001937151));
#1788=CARTESIAN_POINT('',(-180.000002160668,-52.0000007748604,0.));
#1789=CARTESIAN_POINT('',(-183.000002205372,-52.0000007748604,15.9750001937151));
#1790=CARTESIAN_POINT('',(-181.00000243634,-52.0000007748604,15.9750001937151));
#1791=CARTESIAN_POINT('',(-183.000002205372,-52.0000007748604,2.));
#1792=CARTESIAN_POINT('',(-183.000002205372,-52.0000007748604,15.9750001937151));
#1793=CARTESIAN_POINT('',(-183.000002205372,-52.0000007748604,2.));
#1794=CARTESIAN_POINT('Origin',(-154.500002339482,-47.5,0.));
#1795=CARTESIAN_POINT('',(-187.5,-47.5,0.));
#1796=CARTESIAN_POINT('',(-187.5,-47.5,0.));
#1797=CARTESIAN_POINT('',(-187.5,-47.5,0.));
#1798=CARTESIAN_POINT('',(-178.000002652407,-47.5,2.));
#1799=CARTESIAN_POINT('',(-178.000002652407,-47.5,6.4875));
#1800=CARTESIAN_POINT('',(-162.750001169741,-47.5,2.));
#1801=CARTESIAN_POINT('Origin',(-183.000002205372,-76.0000011324883,20.));
#1802=CARTESIAN_POINT('',(-180.000002160668,-76.0000011324883,15.9750001937151));
#1803=CARTESIAN_POINT('',(-180.000002160668,-76.0000011324883,16.4875));
#1804=CARTESIAN_POINT('',(-179.000002667308,-76.0000011324883,2.));
#1805=CARTESIAN_POINT('',(-179.000002667308,-76.0000011324883,16.4875));
#1806=CARTESIAN_POINT('',(-183.000002205372,-76.0000011324883,2.));
#1807=CARTESIAN_POINT('',(-183.000002205372,-76.0000011324883,2.));
#1808=CARTESIAN_POINT('',(-183.000002205372,-76.0000011324883,15.9750001937151));
#1809=CARTESIAN_POINT('',(-183.000002205372,-76.0000011324883,13.0000001937151));
#1810=CARTESIAN_POINT('',(-181.00000243634,-76.0000011324883,15.9750001937151));
#1811=CARTESIAN_POINT('Origin',(-165.000002458692,-78.0000011622906,5.50000008940697));
#1812=CARTESIAN_POINT('',(-164.500002190471,-78.0000011622906,5.50000008940697));
#1813=CARTESIAN_POINT('Origin',(-165.000002458692,-50.0000007450581,5.50000008940697));
#1814=CARTESIAN_POINT('',(-164.500002190471,-50.0000007450581,5.50000008940697));
#1815=CARTESIAN_POINT('Origin',(-171.000002026558,-64.0000009536743,2.));
#1816=CARTESIAN_POINT('',(-183.000002205372,-58.0000008642673,2.));
#1817=CARTESIAN_POINT('',(-179.000002667308,-79.0000011771917,2.));
#1818=CARTESIAN_POINT('',(-179.000002667308,-70.3750012256205,2.));
#1819=CARTESIAN_POINT('',(-178.000002652407,-79.0000011771917,2.));
#1820=CARTESIAN_POINT('',(-175.000001333654,-79.0000011771917,2.));
#1821=CARTESIAN_POINT('',(-178.000002652407,-80.5000019073486,2.));
#1822=CARTESIAN_POINT('',(-178.000002652407,-71.8750012479722,2.));
#1823=CARTESIAN_POINT('',(-164.00000192225,-80.5000019073486,2.));
#1824=CARTESIAN_POINT('',(-162.750001169741,-80.5000019073486,2.));
#1825=CARTESIAN_POINT('',(-164.00000192225,-79.0000011771917,2.));
#1826=CARTESIAN_POINT('',(-164.00000192225,-72.6250016130507,2.));
#1827=CARTESIAN_POINT('',(-163.000002428889,-79.0000011771917,2.));
#1828=CARTESIAN_POINT('',(-167.500000961125,-79.0000011771917,2.));
#1829=CARTESIAN_POINT('',(-163.000002428889,-76.0000011324883,2.));
#1830=CARTESIAN_POINT('',(-163.000002428889,-71.8750012479722,2.));
#1831=CARTESIAN_POINT('',(-159.000001847744,-76.0000011324883,2.));
#1832=CARTESIAN_POINT('',(-166.500001959503,-76.0000011324883,2.));
#1833=CARTESIAN_POINT('',(-159.000001847744,-70.0000010430813,2.));
#1834=CARTESIAN_POINT('',(-178.000002652407,-49.0000007301569,2.));
#1835=CARTESIAN_POINT('',(-178.000002652407,-56.1250006593764,2.));
#1836=CARTESIAN_POINT('',(-175.000001333654,-49.0000007301569,2.));
#1837=CARTESIAN_POINT('',(-178.000002130866,-50.0000007450581,2.));
#1838=CARTESIAN_POINT('',(-178.000002130866,-58.0000008642673,2.));
#1839=CARTESIAN_POINT('',(-164.00000192225,-50.0000007450581,2.));
#1840=CARTESIAN_POINT('',(-174.500002078712,-50.0000007450581,2.));
#1841=CARTESIAN_POINT('',(-164.00000192225,-58.0000008642673,2.));
#1842=CARTESIAN_POINT('',(-164.00000192225,-78.0000011622906,2.));
#1843=CARTESIAN_POINT('',(-164.00000192225,-70.0000010430813,2.));
#1844=CARTESIAN_POINT('',(-178.000002130866,-78.0000011622906,2.));
#1845=CARTESIAN_POINT('',(-174.500002078712,-78.0000011622906,2.));
#1846=CARTESIAN_POINT('',(-178.000002130866,-70.0000010430813,2.));
#1847=CARTESIAN_POINT('Origin',(-179.000002667308,-78.,15.9750001937151));
#1848=CARTESIAN_POINT('',(-183.000002205372,-51.0000013411045,15.9750001937151));
#1849=CARTESIAN_POINT('',(-180.000002160668,-50.0000007450581,15.9750001937151));
#1850=CARTESIAN_POINT('',(-180.000002160668,-65.0000003874302,15.9750001937151));
#1851=CARTESIAN_POINT('',(-185.,-50.,15.9750001937151));
#1852=CARTESIAN_POINT('',(-179.500000327825,-50.0000008195642,15.9750001937151));
#1853=CARTESIAN_POINT('',(-185.,-78.0000019073486,15.9750001937151));
#1854=CARTESIAN_POINT('',(-185.,-64.,15.9750001937151));
#1855=CARTESIAN_POINT('',(-180.000002160668,-78.0000011622906,15.9750001937151));
#1856=CARTESIAN_POINT('',(-179.500000327825,-78.0000010877845,15.9750001937151));
#1857=CARTESIAN_POINT('',(-180.000002160668,-63.0000015199184,15.9750001937151));
#1858=CARTESIAN_POINT('Origin',(-155.00000230968,-78.,15.9750001937151));
#1859=CARTESIAN_POINT('',(-157.,-78.0000019073486,15.9750001937151));
#1860=CARTESIAN_POINT('',(-157.,-50.,15.9750001937151));
#1861=CARTESIAN_POINT('',(-157.,-50.0000019073486,15.9750001937151));
#1862=CARTESIAN_POINT('',(-162.000001892447,-50.,15.9750001937151));
#1863=CARTESIAN_POINT('',(-159.500002115965,-50.0000007450581,15.9750001937151));
#1864=CARTESIAN_POINT('',(-162.000001892447,-64.,15.9750001937151));
#1865=CARTESIAN_POINT('',(-159.000001847744,-76.0000011324883,15.9750001937151));
#1866=CARTESIAN_POINT('',(-159.000001847744,-65.0000003874302,15.9750001937151));
#1867=CARTESIAN_POINT('',(-162.000001892447,-76.0000011324883,15.9750001937151));
#1868=CARTESIAN_POINT('',(-169.000002257526,-76.0000011324883,15.9750001937151));
#1869=CARTESIAN_POINT('',(-162.000001892447,-78.0000019073486,15.9750001937151));
#1870=CARTESIAN_POINT('',(-162.000001892447,-64.0000019073486,15.9750001937151));
#1871=CARTESIAN_POINT('',(-159.500002115965,-78.0000011622906,15.9750001937151));
#1872=CARTESIAN_POINT('Origin',(-163.000002428889,-79.0000011771917,12.975));
#1873=CARTESIAN_POINT('',(-163.000002428889,-76.0000011324883,16.4875));
#1874=CARTESIAN_POINT('',(-163.000002428889,-79.0000011771917,12.975));
#1875=CARTESIAN_POINT('Origin',(-164.00000192225,-79.0000011771917,12.975));
#1876=CARTESIAN_POINT('',(-164.00000192225,-79.0000011771917,12.975));
#1877=CARTESIAN_POINT('Origin',(-164.00000192225,-80.5000019073486,12.975));
#1878=CARTESIAN_POINT('',(-164.00000192225,-80.5000019073486,6.4875));
#1879=CARTESIAN_POINT('Origin',(-178.000002652407,-79.0000011771917,12.975));
#1880=CARTESIAN_POINT('',(-178.000002652407,-80.5000019073486,6.4875));
#1881=CARTESIAN_POINT('',(-178.000002652407,-79.0000011771917,12.975));
#1882=CARTESIAN_POINT('Origin',(-179.000002667308,-79.0000011771917,12.975));
#1883=CARTESIAN_POINT('',(-179.000002667308,-79.0000011771917,12.975));
#1884=CARTESIAN_POINT('Origin',(-179.000002667308,-76.0000011324883,12.975));
#1885=CARTESIAN_POINT('Origin',(-154.500002339482,-80.5000019073486,0.));
#1886=CARTESIAN_POINT('',(-187.5,-80.5000019073486,0.));
#1887=CARTESIAN_POINT('',(-187.5,-80.5000019073486,0.));
#1888=CARTESIAN_POINT('',(-187.5,-80.5000019073486,0.));
#1889=CARTESIAN_POINT('Origin',(-183.000002205372,-76.0000011324883,20.));
#1890=CARTESIAN_POINT('',(-162.000001892447,-76.0000011324883,16.4875));
#1891=CARTESIAN_POINT('',(-159.000001847744,-76.0000011324883,20.));
#1892=CARTESIAN_POINT('Origin',(-180.000002160668,-78.0000011622906,0.));
#1893=CARTESIAN_POINT('',(-185.,-78.0000019073486,12.975));
#1894=CARTESIAN_POINT('',(-180.000002160668,-78.0000011622906,12.975));
#1895=CARTESIAN_POINT('Origin',(-162.000001892447,-78.0000019073486,0.));
#1896=CARTESIAN_POINT('',(-162.000001892447,-78.0000019073486,12.975));
#1897=CARTESIAN_POINT('Origin',(-164.00000192225,-78.0000011622906,0.));
#1898=CARTESIAN_POINT('',(-157.,-78.0000019073486,12.975));
#1899=CARTESIAN_POINT('Origin',(-180.000002160668,-76.0000011324883,0.));
#1900=CARTESIAN_POINT('Origin',(-164.00000192225,-78.0000011622906,0.));
#1901=CARTESIAN_POINT('',(-178.000002130866,-78.0000011622906,16.));
#1902=CARTESIAN_POINT('',(-178.000002130866,-78.0000011622906,0.));
#1903=CARTESIAN_POINT('',(-164.00000192225,-78.0000011622906,16.));
#1904=CARTESIAN_POINT('',(-164.00000192225,-78.0000011622906,0.));
#1905=CARTESIAN_POINT('',(-167.500001974404,-78.0000011622906,16.));
#1906=CARTESIAN_POINT('Origin',(-178.000002130866,-78.0000011622906,0.));
#1907=CARTESIAN_POINT('',(-178.000002130866,-80.0000011920929,16.));
#1908=CARTESIAN_POINT('',(-178.000002130866,-80.0000011920929,16.));
#1909=CARTESIAN_POINT('',(-178.000002130866,-82.5000011846423,13.5000000074506));
#1910=CARTESIAN_POINT('Origin',(-174.500001065433,-78.0000011920929,18.));
#1911=CARTESIAN_POINT('',(-164.00000192225,-80.0000011920929,16.));
#1912=CARTESIAN_POINT('',(-164.00000192225,-80.0000011920929,16.));
#1913=CARTESIAN_POINT('',(-164.00000192225,-82.0000011771917,14.0000000149012));
#1914=CARTESIAN_POINT('Origin',(-171.000002026558,-78.0000011622906,16.));
#1915=CARTESIAN_POINT('',(-164.00000192225,-76.0000011324883,16.));
#1916=CARTESIAN_POINT('Origin',(-164.00000192225,-76.0000011324883,0.));
#1917=CARTESIAN_POINT('Origin',(-157.,-78.,0.));
#1918=CARTESIAN_POINT('',(-157.,-50.,13.0000001937151));
#1919=CARTESIAN_POINT('Origin',(-171.,-64.0000005811453,0.));
#1920=CARTESIAN_POINT('',(-187.500002793968,-64.0000009536743,0.));
#1921=CARTESIAN_POINT('',(-187.5,-80.5000011622906,0.));
#1922=CARTESIAN_POINT('',(-187.5,-47.5000007450581,0.));
#1923=CARTESIAN_POINT('Origin',(-187.5,-47.5,0.));
#1924=CARTESIAN_POINT('Origin',(-185.,-50.,0.));
#1925=CARTESIAN_POINT('',(-185.,-50.,13.0000001937151));
#1926=CARTESIAN_POINT('Origin',(-178.000002652407,-49.0000007301569,12.975));
#1927=CARTESIAN_POINT('',(-178.000002652407,-49.0000007301569,12.975));
#1928=CARTESIAN_POINT('Origin',(-179.000002667308,-49.0000007301569,12.975));
#1929=CARTESIAN_POINT('Origin',(-183.000002205372,-76.0000011324883,20.));
#1930=CARTESIAN_POINT('Origin',(-159.000001847744,-52.0000007748604,20.));
#1931=CARTESIAN_POINT('Origin',(-180.000002160668,-50.0000007450581,0.));
#1932=CARTESIAN_POINT('',(-180.000002160668,-50.0000007450581,13.0000001937151));
#1933=CARTESIAN_POINT('Origin',(-162.000001892447,-50.,0.));
#1934=CARTESIAN_POINT('',(-162.000001892447,-50.,13.0000001937151));
#1935=CARTESIAN_POINT('Origin',(-164.00000192225,-50.0000007450581,0.));
#1936=CARTESIAN_POINT('Origin',(-180.000002160668,-52.0000007748604,0.));
#1937=CARTESIAN_POINT('Origin',(-164.00000192225,-50.0000007450581,0.));
#1938=CARTESIAN_POINT('',(-178.000002130866,-50.0000007450581,16.));
#1939=CARTESIAN_POINT('',(-178.000002130866,-50.0000007450581,0.));
#1940=CARTESIAN_POINT('',(-164.00000192225,-50.0000007450581,16.));
#1941=CARTESIAN_POINT('',(-167.500001974404,-50.0000007450581,16.));
#1942=CARTESIAN_POINT('',(-164.00000192225,-50.0000007450581,0.));
#1943=CARTESIAN_POINT('Origin',(-178.000002130866,-50.0000007450581,0.));
#1944=CARTESIAN_POINT('',(-178.000002130866,-48.0000007152557,16.));
#1945=CARTESIAN_POINT('',(-178.000002130866,-45.5000007227063,13.5000000074506));
#1946=CARTESIAN_POINT('',(-178.000002130866,-48.0000007152557,16.));
#1947=CARTESIAN_POINT('Origin',(-174.500001065433,-50.0000007152557,18.));
#1948=CARTESIAN_POINT('',(-164.00000192225,-48.0000007152557,16.));
#1949=CARTESIAN_POINT('',(-164.00000192225,-46.0000007301569,14.0000000149012));
#1950=CARTESIAN_POINT('',(-164.00000192225,-48.0000007152557,16.));
#1951=CARTESIAN_POINT('Origin',(-171.000002026558,-50.0000007450581,16.));
#1952=CARTESIAN_POINT('',(-164.00000192225,-52.0000007748604,16.));
#1953=CARTESIAN_POINT('Origin',(-164.00000192225,-52.0000007748604,0.));
#1954=UNCERTAINTY_MEASURE_WITH_UNIT(LENGTH_MEASURE(0.01),#1958,
'DISTANCE_ACCURACY_VALUE',
'Maximum model space distance between geometric entities at asserted c
onnectivities');
#1955=UNCERTAINTY_MEASURE_WITH_UNIT(LENGTH_MEASURE(0.01),#1958,
'DISTANCE_ACCURACY_VALUE',
'Maximum model space distance between geometric entities at asserted c
onnectivities');
#1956=(
GEOMETRIC_REPRESENTATION_CONTEXT(3)
GLOBAL_UNCERTAINTY_ASSIGNED_CONTEXT((#1954))
GLOBAL_UNIT_ASSIGNED_CONTEXT((#1958,#1960,#1961))
REPRESENTATION_CONTEXT('','3D')
);
#1957=(
GEOMETRIC_REPRESENTATION_CONTEXT(3)
GLOBAL_UNCERTAINTY_ASSIGNED_CONTEXT((#1955))
GLOBAL_UNIT_ASSIGNED_CONTEXT((#1958,#1960,#1961))
REPRESENTATION_CONTEXT('','3D')
);
#1958=(
LENGTH_UNIT()
NAMED_UNIT(*)
SI_UNIT(.MILLI.,.METRE.)
);
#1959=(
LENGTH_UNIT()
NAMED_UNIT(*)
SI_UNIT($,.METRE.)
);
#1960=(
NAMED_UNIT(*)
PLANE_ANGLE_UNIT()
SI_UNIT($,.RADIAN.)
);
#1961=(
NAMED_UNIT(*)
SI_UNIT($,.STERADIAN.)
SOLID_ANGLE_UNIT()
);
#1962=SHAPE_DEFINITION_REPRESENTATION(#1963,#1964);
#1963=PRODUCT_DEFINITION_SHAPE('',$,#1966);
#1964=SHAPE_REPRESENTATION('',(#1248),#1956);
#1965=PRODUCT_DEFINITION_CONTEXT('part definition',#1970,'design');
#1966=PRODUCT_DEFINITION('mounting piece','mounting piece v2',#1967,#1965);
#1967=PRODUCT_DEFINITION_FORMATION('',$,#1972);
#1968=PRODUCT_RELATED_PRODUCT_CATEGORY('mounting piece v2',
'mounting piece v2',(#1972));
#1969=APPLICATION_PROTOCOL_DEFINITION('international standard',
'automotive_design',2009,#1970);
#1970=APPLICATION_CONTEXT(
'Core Data for Automotive Mechanical Design Process');
#1971=PRODUCT_CONTEXT('part definition',#1970,'mechanical');
#1972=PRODUCT('mounting piece','mounting piece v2',$,(#1971));
#1973=PRESENTATION_STYLE_ASSIGNMENT((#1974));
#1974=SURFACE_STYLE_USAGE(.BOTH.,#1975);
#1975=SURFACE_SIDE_STYLE('',(#1976));
#1976=SURFACE_STYLE_FILL_AREA(#1977);
#1977=FILL_AREA_STYLE('Steel - Satin',(#1978));
#1978=FILL_AREA_STYLE_COLOUR('Steel - Satin',#1979);
#1979=COLOUR_RGB('Steel - Satin',0.627450980392157,0.627450980392157,0.627450980392157);
ENDSEC;
END-ISO-10303-21;
